<svg id="Art" xmlns="http://www.w3.org/2000/svg" viewBox="0 0 441.3913 341.21739"><defs><style>.cls-1{fill:#3a3f38;}.cls-2{fill:none;stroke:#615551;stroke-miterlimit:10;stroke-width:33px;}</style></defs><path class="cls-1" d="M126.15451,256.08376v-25.917h6.78809c3.73144,0,10.15917.36035,10.15917,6.55175,0,2.4834-1.61816,4.39063-4.2705,5.57911,3.68652,1.43945,5.66406,3.38378,5.66406,6.73144,0,3.7793-3.416,7.05469-9.08008,7.05469Zm3.37207-14.61426h3.91016c3.01269,0,6.29394-1.76367,6.29394-4.85937,0-4.28321-4.49512-4.17579-6.56348-4.17579h-3.64062Zm5.66406,12.34668c2.9668,0,5.9336-1.4043,5.9336-4.64355,0-2.87989-2.248-5.43555-7.37207-5.43555h-4.22559v10.0791Z"/><path class="cls-1" d="M176.81271,232.43434h-4.40527v21.38184h4.40527v2.26758H164.675v-2.26758h4.36035V232.43434H164.675v-2.26757h12.13769Z"/><path class="cls-1" d="M204.9924,230.16677H214.343v16.9541c0,3.59961-.36036,9.46679-9.1709,9.46679-5.25879,0-8.58594-2.376-8.58594-7.99121v-3.63574h3.37207v4.64356c0,2.98828,1.79785,4.71582,5.124,4.71582,3.86621,0,5.88868-1.76368,5.88868-5.47168V232.43434H204.9924Z"/><path class="cls-1" d="M254.16623,256.08376H250.5256l-2.87695-7.63086h-9.84473l-2.87695,7.63086h-3.6416l11.418-28.07617Zm-15.55274-9.89844h8.22559l-4.13574-10.47461Z"/><path class="cls-1" d="M284.011,230.16677h3.73145l-8.27148,14.97461v10.94238h-3.3711V245.14138l-8.27148-14.97461h3.73047l6.249,11.73437Z"/><path class="cls-1" d="M326.08224,256.08376h-3.64062l-2.877-7.63086h-9.84473l-2.877,7.63086h-3.64161l11.418-28.07617Zm-15.55273-9.89844h8.22559l-4.13575-10.47461Z"/><path class="cls-1" d="M135.32492,283.17946v-2.26758h11.01367V294.3738h-3.37207v-2.51953a9.716,9.716,0,0,1-6.78711,2.51953c-2.60742,0-9.75488-.36035-9.75488-12.88672,0-10.25879,3.91015-14.03809,10.2041-14.03809,5.48438,0,8.0459,3.09571,8.13672,7.127h-3.37207c.26953-2.375-1.16895-4.85938-4.585-4.85938-6.74317,0-7.0127,7.52344-7.0127,11.375,0,3.59961.22461,11.01465,6.56348,11.01465,3.14648,0,6.60742-2.01563,6.60742-7.19922v-1.72754Z"/><path class="cls-1" d="M183.37472,293.86989H179.7341l-2.877-7.63086h-9.84473l-2.87695,7.63086h-3.64161l11.418-28.07617ZM167.822,283.97145h8.22559l-4.13575-10.47461Z"/><path class="cls-1" d="M216.77023,267.9529v19.11426c0,4.89453-4.58594,7.30664-8.94629,7.30664-3.50586,0-8.99023-1.584-8.99023-8.74707V267.9529h3.37109v19.11426c0,3.74316,3.0127,5.03906,5.61914,5.03906,4.13574,0,5.57422-2.44824,5.57422-5.36328v-18.79Z"/><path class="cls-1" d="M254.61593,270.22048h-9.21484v23.64941H242.029V270.22048h-9.03516V267.9529h21.62207Z"/><path class="cls-1" d="M291.24777,293.86989h-3.64062l-2.877-7.63086h-9.84472l-2.877,7.63086h-3.6416l11.418-28.07617ZM275.695,283.97145h8.22558l-4.13574-10.47461Z"/><path class="cls-1" d="M322.48605,267.9529h3.32617v25.917h-3.37109V274.1443h-.08984L315.698,286.85036l-6.60743-12.70606-.08984.07227v19.65332h-3.37207v-25.917h3.28223l6.78711,12.92285Z"/><path class="cls-2" d="M158.19424,48.14017q-34.72458-.14328-55.79321,29.52161-21.06171,29.66931-21.27154,78.87609l-.14924,35.7035,91.19129.37628q30.2199.1247,41.25372-7.86866,11.03806-7.99484,11.13-30.83416l.13037-31.19947q.13715-32.81047-17.93341-53.63018Q188.68338,48.26554,158.19424,48.14017Z"/><path class="cls-2" d="M368.60092,156.30057q-.20562-49.20739-21.27148-78.8761Q326.2605,47.761,291.53616,47.90286q-30.48669.12581-48.558,20.945-18.07287,20.82138-17.93341,53.63019l.13043,31.19946q.0954,22.83647,11.12994,30.83417,11.02972,7.99466,41.25373,7.86865l91.19128-.37628Z"/></svg>