<svg id="Layer_1" data-name="Layer 1" xmlns="http://www.w3.org/2000/svg" viewBox="0 0 583 550"><defs><style>.cls-1{fill:#000001;}.cls-2,.cls-4{fill:#fff;}.cls-2{stroke:#333;stroke-miterlimit:10;stroke-width:7px;}.cls-3{fill:#007ca5;}</style></defs><path class="cls-1" d="M78.82,528.69l.12.28a1.07,1.07,0,0,0-.19-.18S78.82,528.69,78.82,528.69Z"/><path class="cls-1" d="M558.61,529l.63.59-1.23,0C558.2,529.4,558.4,529.19,558.61,529Z"/><polygon class="cls-2" points="381.53 408.06 291.56 362.62 201.64 408.15 218.77 311.81 145.96 243.63 246.52 229.52 291.45 141.85 336.47 229.47 437.04 243.48 364.3 311.74 381.53 408.06"/><path class="cls-3" d="M187.38,170.88V379.12H395.62V170.88Zm200.7,19.57H194.92V178.34H388.08Z"/><polygon class="cls-3" points="366.2 387.16 291.55 348.86 216.93 387.24 231.15 306.03 170.74 248.55 254.18 236.66 291.46 162.76 328.81 236.62 412.26 248.43 351.91 305.97 366.2 387.16"/><path class="cls-4" d="M255.83,342.77V237.36q0-2.94,3.2-2.94h44.66q13.94,0,21.66,6.92t7.73,19.56v8.48q0,15.06-15.45,19.39a19.38,19.38,0,0,1,12.15,5.88q4.82,5,4.81,13.5v11.08q0,12.63-7.73,19.56t-21.48,6.92H259Q255.83,345.71,255.83,342.77Zm20.35-60.93h24.49q14.32,0,14.32-12.63v-8q0-12.47-13.94-12.47H276.18c-1.38,0-2.07.58-2.07,1.73v29.6C274.11,281.27,274.8,281.84,276.18,281.84Zm0,49.5h26.38q14.13,0,14.13-12.46V308.15q0-12.47-14.89-12.46H276.18c-1.38,0-2.07.58-2.07,1.73v32.19C274.11,330.77,274.8,331.34,276.18,331.34Z"/></svg>