<svg id="Layer_1" data-name="Layer 1" xmlns="http://www.w3.org/2000/svg" viewBox="0 0 583 384"><defs><style>.cls-1{fill:#007ca5;}.cls-2{fill:#fff;}</style></defs><path class="cls-1" d="M187.37817,103.87823V312.12177H395.62183V103.87823Zm200.70044,19.57459h-193.157v-12.11h193.157Z"/><path class="cls-2" d="M255.83127,275.76877V170.36057q0-2.94141,3.20312-2.94239h44.65332q13.94092,0,21.667,6.92285,7.72266,6.92579,7.72461,19.5586v8.48144q0,15.05861-15.44922,19.38575a19.4156,19.4156,0,0,1,12.15235,5.88476q4.80468,5.02149,4.80468,13.5v11.07813q0,12.63573-7.72558,19.55761-7.72705,6.92579-21.47852,6.92383H259.03439Q255.82784,278.71115,255.83127,275.76877ZM276.1799,214.843h24.49316q14.31592,0,14.31934-12.63477v-7.96191q0-12.4629-13.94238-12.46192H276.1799q-2.07568,0-2.07324,1.73047v29.59766Q274.10666,214.844,276.1799,214.843Zm0,49.502h26.377q14.13135,0,14.13086-12.46191V241.15158q0-12.46143-14.88477-12.46191h-25.623q-2.07568,0-2.07324,1.73144v32.19336Q274.10666,264.34592,276.1799,264.34494Z"/></svg>