<svg id="Layer_1" data-name="Layer 1" xmlns="http://www.w3.org/2000/svg" viewBox="0 0 398 343"><defs><style>.cls-1,.cls-2{fill:#181616;}.cls-1{fill-rule:evenodd;}</style></defs><path class="cls-1" d="M199,102c-38.1,0-69,31.9-69,71.26,0,31.48,19.77,58.19,47.19,67.62,3.44.66,4.71-1.55,4.71-3.43,0-1.7-.06-7.31-.09-13.27-19.2,4.31-23.25-8.41-23.25-8.41-3.14-8.23-7.66-10.42-7.66-10.42-6.26-4.43.47-4.33.47-4.33,6.93.5,10.58,7.34,10.58,7.34,6.15,10.89,16.14,7.74,20.08,5.92.62-4.6,2.41-7.75,4.38-9.53C171.08,203,155,196.84,155,169.54a28.11,28.11,0,0,1,7.11-19.13c-.71-1.8-3.08-9,.67-18.86,0,0,5.79-1.91,19,7.31a63.41,63.41,0,0,1,34.56,0c13.17-9.22,19-7.31,19-7.31,3.76,9.82,1.39,17.06.68,18.86a28.06,28.06,0,0,1,7.1,19.13c0,27.37-16.14,33.39-31.51,35.16,2.48,2.21,4.68,6.55,4.68,13.19,0,9.54-.08,17.21-.08,19.56,0,1.9,1.25,4.12,4.74,3.42,27.4-9.44,47.15-36.14,47.15-67.61C268,133.9,237.11,102,199,102Z"/><path class="cls-2" d="M156.13,204.31c-.15.36-.69.46-1.18.22s-.78-.72-.62-1.07.69-.47,1.19-.22.79.72.61,1.07Zm-.85-.65"/><path class="cls-2" d="M158.93,207.53c-.33.32-1,.17-1.41-.33a1.11,1.11,0,0,1-.2-1.48c.34-.31,1-.17,1.41.33a1.11,1.11,0,0,1,.2,1.48Zm-.66-.73"/><path class="cls-2" d="M161.65,211.64c-.42.3-1.12,0-1.54-.62a1.25,1.25,0,0,1,0-1.7c.43-.3,1.11,0,1.54.6a1.3,1.3,0,0,1,0,1.72Zm0,0"/><path class="cls-2" d="M165.38,215.6c-.38.43-1.19.32-1.78-.27a1.4,1.4,0,0,1-.39-1.82c.38-.43,1.19-.31,1.79.27s.78,1.39.38,1.82Zm0,0"/><path class="cls-2" d="M170.52,217.9c-.17.56-.94.81-1.73.58s-1.29-.9-1.13-1.46.94-.83,1.73-.58,1.29.9,1.13,1.46Zm0,0"/><path class="cls-2" d="M176.17,218.33c0,.59-.65,1.08-1.47,1.09s-1.49-.46-1.5-1,.65-1.07,1.47-1.09,1.5.46,1.5,1Zm0,0"/><path class="cls-2" d="M181.42,217.41c.1.57-.47,1.16-1.29,1.32s-1.54-.21-1.64-.78.48-1.17,1.28-1.32,1.55.19,1.65.78Zm0,0"/></svg>