<svg id="Layer_1" data-name="Layer 1" xmlns="http://www.w3.org/2000/svg" viewBox="0 0 583 384"><defs><style>.cls-1{fill:#007ca5;}.cls-2{fill:#3b3f38;}</style></defs><path class="cls-1" d="M187.37817,100.17542V308.419H395.62183V100.17542ZM388.07861,119.75h-193.157V107.64h193.157Z"/><path class="cls-2" d="M282.08008,95.72461V80.294q0-2.71,3.10742-2.7129h12.627q3.10548,0,3.1084,2.7129V95.72461q0,2.88575-3.1084,2.88281h-12.627Q282.07764,98.60742,282.08008,95.72461Zm0,98.00781V113.02051q0-2.88135,3.10742-2.88281h12.43262q3.30176,0,3.30273,2.88281v80.71191a2.98545,2.98545,0,0,1-.67969,2.28906,3.74736,3.74736,0,0,1-2.42871.59375H285.38184Q282.07715,196.61523,282.08008,193.73242Z"/></svg>