<svg id="Layer_1" data-name="Layer 1" xmlns="http://www.w3.org/2000/svg" viewBox="0 0 398 343"><defs><style>.cls-1{fill:#0077b6;}</style></defs><path class="cls-1" d="M199.05,102.05q28.13,0,56.25,0c5.42,0,9.47,2.36,11.94,7.24a12.28,12.28,0,0,1,1.22,5.62q0,56.6,0,113.17a12.48,12.48,0,0,1-9.55,12.46,13.14,13.14,0,0,1-3.49.42H142.58a12.54,12.54,0,0,1-12.65-9.6,13.6,13.6,0,0,1-.4-3.49q0-56.36,0-112.71a12.54,12.54,0,0,1,9.54-12.69,14.55,14.55,0,0,1,3.84-.42Zm6.7,59.94c0-1.86,0-3.4,0-4.93,0-2.59-1.41-4-4-4h-14.8c-2.77,0-4.11,1.34-4.11,4.11q0,32.2,0,64.42c0,2.71,1.34,4.05,4,4.05h14.46c3.17,0,4.41-1.24,4.41-4.4,0-10.78,0-21.56,0-32.33a26.1,26.1,0,0,1,1.42-8.59c1.86-5.47,5.81-8.54,11.14-8.64s9.06,2.41,10.91,7.54a24.13,24.13,0,0,1,1.24,8.17c0,11.45,0,22.91,0,34.37,0,2.49,1.37,3.87,3.87,3.87q7.86,0,15.71,0c2.49,0,3.84-1.39,3.85-3.9,0-5.84,0-11.68,0-17.53-.06-8.23.27-16.46-.35-24.69a43.45,43.45,0,0,0-2.69-12.74c-2.94-7.43-8.13-12.28-16.06-14a36.94,36.94,0,0,0-15-.05,21.26,21.26,0,0,0-9.77,4.56A31.67,31.67,0,0,0,205.75,162Zm-56.13,27.3q0,16.05,0,32.11c0,2.77,1.44,4.24,4.18,4.25q7.29,0,14.58,0c2.71,0,4.14-1.43,4.14-4.16q0-32.12,0-64.22c0-2.78-1.44-4.2-4.22-4.2H154.07c-3.06,0-4.45,1.39-4.45,4.45Q149.61,173.41,149.62,189.29Zm-3.29-57.14a14.79,14.79,0,1,0,29.57-.07,14.79,14.79,0,0,0-29.57.07Z"/></svg>