<svg id="Layer_1" data-name="Layer 1" xmlns="http://www.w3.org/2000/svg" viewBox="0 0 583 384"><defs><style>.cls-1{fill:#007ca5;}</style></defs><path class="cls-1" d="M302.38342,161.0603q-7.43847-12.88385-19.019-6.2L261.673,167.38373a1.805,1.805,0,0,0-.78833,2.777l22.41846,38.82989a1.80285,1.80285,0,0,0,2.79858.7049l21.69141-12.52344q11.57849-6.68481,4.14063-19.57025Z"/><path class="cls-1" d="M338.98279,66.99915,172.67322,161.95831l-4.46265-7.81573L334.48279,59.2049,329.61121,50.767,149.267,154.88879,253.38879,335.233,433.733,231.11121Zm-20.26074,143.829-23.81153,13.74755q-1.9574,1.13013-.95166,2.87122L314.266,262.62q1.71021,2.9621-1.06323,4.5606l-10.2749,5.93213q-2.77553,1.60254-4.48194-1.35895L237.22327,165.713q-1.708-2.95835,1.064-4.56115l38.81568-22.41016q11.90295-6.87231,22.6643-3.68182,10.75635,3.191,18.19727,16.0755l10.45508,18.10876q7.33959,12.71256,4.77343,23.71088Q330.62731,203.95929,318.72205,210.82819Z"/></svg>