<svg id="Layer_1" data-name="Layer 1" xmlns="http://www.w3.org/2000/svg" viewBox="0 0 583 550"><defs><style>.cls-1{fill:#007ca5;}.cls-2{fill:#000001;}</style></defs><path class="cls-1" d="M302.38,243.06q-7.44-12.88-19-6.2l-21.69,12.52a1.82,1.82,0,0,0-.79,2.78L283.3,291a1.81,1.81,0,0,0,2.8.71l21.69-12.53q11.58-6.68,4.14-19.57Z"/><path class="cls-1" d="M339,149,172.67,244l-4.46-7.82L334.48,141.2l-4.87-8.43L149.27,236.89,253.39,417.23,433.73,313.11ZM318.72,292.83l-23.81,13.75c-1.3.75-1.62,1.71-1,2.87l20.31,35.17q1.71,3-1.07,4.56l-10.27,5.93q-2.78,1.61-4.48-1.36l-61.23-106q-1.71-3,1.07-4.56l38.81-22.41q11.91-6.87,22.67-3.68T318,233.14l10.46,18.1Q335.76,264,333.19,275T318.72,292.83Z"/><path class="cls-2" d="M78.82,528.69l.12.28a1.07,1.07,0,0,0-.19-.18S78.82,528.69,78.82,528.69Z"/><path class="cls-2" d="M558.61,529l.63.59-1.23,0C558.2,529.4,558.4,529.19,558.61,529Z"/></svg>