<svg id="Illustration" xmlns="http://www.w3.org/2000/svg" viewBox="0 0 348 334"><defs><style>.cls-1{fill:#656b72;}.cls-2{fill:#d4ddff;}.cls-3{fill:#372728;}.cls-4{fill:#1d191a;}.cls-5{fill:#141215;}.cls-6{fill:#323033;}.cls-10,.cls-7{fill:none;stroke-miterlimit:10;}.cls-7{stroke:#141215;stroke-width:0.5px;}.cls-8{fill:#1f1818;}.cls-9{fill:#977071;}.cls-10{stroke:#615551;stroke-width:1.5px;}</style></defs><path class="cls-1" d="M136.01138,101s0-6,6-13,12-13,21-18,15-8,22-6l12.49526,3.57008q1.44774.41364,2.92949.6856c5.07925.92784,22.17837,4.19667,25.57525,6.74432a24.55264,24.55264,0,0,1,5.39116,6.22418,11.54753,11.54753,0,0,0,3.12475,3.32595A32.73249,32.73249,0,0,1,240.01138,90c6,7,9,8.13043,14,20.56522s6,14.43478,6,20.43478-1,17-1,17l-2,17-3,10.26087s-18.637-34.24308-42-48.26087c-20-12-33.9698-21.22612-52-24A176.54227,176.54227,0,0,0,136.01138,101Z"/><path class="cls-2" d="M145.51138,99.5s.29289-8.29289,1-9c1-1,8.56851-1.68341,9.82554-1.96136a1.63964,1.63964,0,0,1,.36017-.03864h17.14037s2.67392-1,0,4.67391c-2.32627,4.93623-2.94079,7.449-7.32608,8.32609-5,1-19.38054-.30416-19.38054-.30416A1.69763,1.69763,0,0,1,145.51138,99.5Z"/><path class="cls-3" d="M88.93406,116.00083a7.73529,7.73529,0,0,1,1.99348-9.77516c1.87028-1.47926,4.6068-2.27739,8.08384-3.22567,5.5-1.5,18.624-1.92631,22.85175-2.3395a26.38788,26.38788,0,0,1,3.29555-.11513L141.66355,101a114.51116,114.51116,0,0,1,24.34783,3,114.90078,114.90078,0,0,1,29,12c12,7,20,12,31,22s19.04127,19.97289,21,23c5.5,8.5,7,15,7,15a71.75018,71.75018,0,0,0-9.5-14.5c-9.20358-10.73751-38-27-56-32-10.37741-2.88261-37.87549-11.06226-54-3-8,4-10,18-10,19s-28.65354-20.26246-31-23A37.92336,37.92336,0,0,1,88.93406,116.00083Z"/><path class="cls-4" d="M179.56158,165.4498l.4498-.4498,44.087,2.43478V165l-43.08695-2.69565-9-1.30435,2,3C174.72069,165.8915,178.13313,166.87824,179.56158,165.4498Z"/><ellipse class="cls-5" cx="159.51138" cy="171.5" rx="16" ry="18.5"/><ellipse class="cls-5" cx="121.01138" cy="173.5" rx="15" ry="17.5"/><path class="cls-6" d="M163.42209,211.54465c.02179.01635.0452-.01076.0018-.06209l-.07639-.0107Z"/><path class="cls-6" d="M163.263,211.11407c-.07678-.046-.20233-.07069-.23776.015.12341.01082.10974.04265.237.06088.04593.05124.049.10889.02072.11295.02975.00992.05215.09012.10608.1004a.3396.3396,0,0,0-.17481-.26318C163.21448,211.11,163.24728,211.11746,163.263,211.11407Z"/><path class="cls-6" d="M159.044,205.86409l.00173.06508A.0894.0894,0,0,0,159.044,205.86409Z"/><path class="cls-6" d="M156.00076,202.92671c.0329.01036.07193-.02109.09876-.05621C156.05661,202.87808,156.01932,202.8875,156.00076,202.92671Z"/><path class="cls-6" d="M155.69669,202.03206a.38707.38707,0,0,0,.01852.05456C155.7262,202.03816,155.7258,202.00667,155.69669,202.03206Z"/><path class="cls-6" d="M159.044,205.86409l-.0015-.17131C158.95343,205.78577,159.02246,205.80516,159.044,205.86409Z"/><path class="cls-6" d="M162.44843,210.58369a.18756.18756,0,0,0,.07254.0181l-.05237-.02925Z"/><path class="cls-6" d="M160.54767,206.96033l.02334.0252.11-.07589Z"/><path class="cls-6" d="M161.51129,208.01836c-.01285-.03286-.18457.12091-.26486.18307.07986-.05354.12738-.067.15808-.0576A.97162.97162,0,0,0,161.51129,208.01836Z"/><path class="cls-6" d="M162.64886,210.02715l.03742.02087Z"/><path class="cls-6" d="M159.88953,206.16422a.74854.74854,0,0,0,.06448-.09261A.51732.51732,0,0,0,159.88953,206.16422Z"/><path class="cls-6" d="M126.33414,209.07732l-.01146-.00418C126.32581,209.0829,126.32933,209.08687,126.33414,209.07732Z"/><polygon class="cls-6" points="125.501 210.497 125.505 210.475 125.483 210.463 125.501 210.497"/><path class="cls-6" d="M154.75888,200.78l.0018.01058C154.81833,200.76582,154.79486,200.76271,154.75888,200.78Z"/><path class="cls-6" d="M142.32907,198.74805c.12366.291-.24728.3641-.055.689C142.26031,199.31116,142.49408,198.93825,142.32907,198.74805Z"/><path class="cls-6" d="M162.43454,210.54961l-.0426-.03786A.11871.11871,0,0,0,162.43454,210.54961Z"/><path class="cls-6" d="M142.27411,199.437l-.00015.00251.01974.03092Z"/><path class="cls-6" d="M151.55063,199.75493a1.18557,1.18557,0,0,0-.02384.18927A.766.766,0,0,0,151.55063,199.75493Z"/><path class="cls-6" d="M153.60861,201.17957l-.02945-.07847A.1128.1128,0,0,0,153.60861,201.17957Z"/><path class="cls-6" d="M150.18967,200.04921c-.02277-.03772-.01932-.09615-.07474-.05022l.00043.05226C150.1442,199.999,150.171,199.97694,150.18967,200.04921Z"/><path class="cls-6" d="M148.96158,199.8213l.00607.08352.04315-.01465Z"/><path class="cls-6" d="M128.00879,205.91623a.42191.42191,0,0,1-.125-.00891C127.96941,205.93523,127.90292,206.094,128.00879,205.91623Z"/><path class="cls-6" d="M162.50125,210.54189a.07516.07516,0,0,1-.06671.00772l.03406.02293C162.4852,210.564,162.499,210.55421,162.50125,210.54189Z"/><path class="cls-6" d="M149.34061,203.25331l-.15222-.11323A.2956.2956,0,0,0,149.34061,203.25331Z"/><path class="cls-6" d="M134.553,201.67429l-.03137.03694C134.53856,201.71255,134.55063,201.70258,134.553,201.67429Z"/><path class="cls-6" d="M148.67242,203.04453a.90964.90964,0,0,0-.03707-.30393.68.68,0,0,0-.04227.09714Z"/><path class="cls-6" d="M127.88246,205.907l.00131.00029Z"/><path class="cls-6" d="M127.4787,207.07573c.09569-.14954-.07832-.13057-.13059-.19806.07065-.20229.14226-.03918.24457-.0684.0356-.129-.03273-.27819.02159-.36156.02542.00494.04314-.00739.059.02623-.03918-.17964.215-.35315.16312-.56845a.10187.10187,0,0,1,.04608.00154.57327.57327,0,0,1-.20511-.08676c.039-.07021-.01326-.18.09478-.15284-.02788.0409.0073.06582.02417.10192l.00325-.09509c.17259.0124-.01334.12461.08436.18019.04556-.16043.02632-.39444.13834-.47318.14644.05832-.11608.2702.09291.20152l-.15293.13341c.286-.00328-.07759.08942.21663.105.17546-.18692.09314-.26968.278-.44766-.04294-.09337-.12308-.0555-.16648-.14973.06765-.38434.507-.00293.48458-.32567-.05135-.11537-.21512-.2645-.00461-.34258l.122.16571c.16788-.171-.14667-.27871.12-.39375.03624.08458-.0643.188-.02214.17453.23114-.02741-.02043-.15961.05846-.25813l.16254.09553c.15352-.19258.23216-.492.40573-.71232.03111.05122.04083.12352.13305.12445a1.2597,1.2597,0,0,1,.90693-.50437l-.01072-.21866c.02442-.01408.09078.04251.08692.08922.13954-.0058-.06243-.10339-.05548-.19835.05058-.05322.13766.04669.13107.11325.10814-.20916.33922-.579.69627-.46409l-.02354.07319c.22165.00977.04835-.46952.29829-.3565l-.01927.04669c.44429-.06549.82384-.41608,1.25925-.20619-.05725-.32517.45737.00583.32176-.43549.31412.14263.27675.2383.65671.2952.09427-.00272.03227-.32251.12477-.40135l.0834.24.0626-.29465.17256.27048.08015-.08867a.2399.2399,0,0,1-.13667-.16071c.12376-.155.43751.07266.47632.20566l.30151-.29251c.01813.10652-.03207.1535-.061.228.12014-.29925.10284.26846.21234-.0059-.03711-.05556-.02472-.15883-.03305-.213a.3075.3075,0,0,0,.41806.04154l.00445.19064a.49415.49415,0,0,0,.24689-.02452c.00668-.00307.01645-.00687.00986-.00783l-.00382-.00322.00934-.1101a2.16208,2.16208,0,0,1,.0401-.23609l.01428-.059.00046-.00185.00025-.00092-.07532.38987.00128,0,.00256.00009.0051.00019.01022.00036.0409.00164a3.08624,3.08624,0,0,1,.3265.02871c-.1448-.11435-.055-.4474.06287-.46624l.01346.30963c.09738-.17807-.11112-.13039.0701-.34053.14313.05273.074.36076-.02979.44725l.2024-.0811c.00582.09318-.04288.13583-.06366.2509.081-.1839.35672.36163.4552.02745l.01007.09332a4.90237,4.90237,0,0,0,.86172-.11267c-.01568-.27734.11185-.22066.18076-.452.22982.07338.51931.27049.80206.2043.17105-.17269.01077-.24863.06305-.43143.06592.25623.34347.17767.24.39089a1.76589,1.76589,0,0,0,.37528-.15317l.22628-.23691c-.05032-.10657-.09533-.14879-.09207-.24251.05048-.05087.14673.09743.15622.228l-.01016.02945c.31314-.45677.87146.776,1.14438.2072l-.0166.02874.31933-.2955c.14664.0557-.09076.21085.01532.393.35507-.45987.541.10866.84256-.188.16818.889.79984.02261,1.05744.62782l.0017-.21222c.09687-.196.08371.13333.13633.19017.00744-.16492-.0672-.20158-.00766-.30893.69445-.17116,1.34488.51865,1.98837.87268.238.11723.30612-1.13556.545-.53323l-.15072.40356c.577-.39949,1.01773.25334,1.575-.073-.04688.09582-.071.22938-.11753.21553.0445.35107.37021.1154.42246-.15375.06961.04921-.027.24661-.00626.39514.06375.22274.33432-.356.32535-.012a.1838.1838,0,0,1-.07257.12118c.09833-.14526.296.12536.31009-.27833.13876.23607.37527-.07782.46738.19348.18914-.41548.25457.297.42569-.32167-.157.642.17816.62123.36544.34447-.0852.18675.04383.23462-.06729.49585.12412.03007.26816-.05684.335-.40227.01667.85788.63349-.48753.47132.569a3.44368,3.44368,0,0,1,1.25055-.3976c-.25052.65694-.38-.06148-.60324.63826.38314-.168.7727-.66618,1.00753-.38449.04.12019-.15793.26647-.22647.36832.40616-.15642.52442.29252.94187.057a.46914.46914,0,0,1-.13639.14849c.06015.00158.07148.14436.20536-.14636l-.08722.05648c.11535-.45927.62927-.77932.75082-.98634-.49765.77348.15765.33872-.50781,1.29552a.86371.86371,0,0,0,.26095-.34342c.021.07958-.02243.19644-.18356.38716.25668-.0672.3548-.39474.51642-.307-.0751.134-.13687.16959-.2403.31983.22556-.22518.45533-.43293.52939-.2452-.05441.07486-.09875.18708-.13812.16272.25278.08313.81412-.45121.92285-.04463-.42984.5-.02862.23367-.32382.71013l.22891-.05963.09564-.25788c.11609.07622.45108-.18383.45182.03438l-.21924.12851.285.06133-.00766-.25524c.2858-.15.38727-.58021.4617-.34253-.06589.02257.119.09169-.00613.39368l-.00128.0009c.16278-.10086.3312-.19948.34048-.027-.07977.15474-.37408.46485-.42737.56742.327-.31922.35489.095.71656-.227a1.75226,1.75226,0,0,0-.28925.34078l.26837-.25028c-.01428.13083-.04007.1799-.18405.34792.12689.17065.35666-.56671.37741-.19325-.03311.011-.05859.0585-.12387.07682.10644.26239.521.11084.59637.38086-.26617.43521-.23837-.01887-.44717.36223.32486.10977.92831-.06615,1.10767.217l-.01316-.07714c.47122-.49844-.02658.40459.3071.2566a.83749.83749,0,0,0-.22323.203c.106.21405.46923.13776.85736.19135l-.13752.09943c.0073.18911.21323.26846.27625.40661.13553-.09442.181-.0258.29236-.22777-.22879.90474.93155.18171.767.932-.03638-.02721-.16858.02478-.14032.047l.33847.10637c.13729-.18454.06213-.12833.13369-.30534.12482-.0744.26441-.089.32346-.03354-.21121.01108-.24985.269-.28665.39856.03924-.057.10788-.09848.15185-.15288-.14453.39868.32968-.307.31842.04239l-.08822.07452c.10623.01407.26715-.03723.31207.05158-.14148.20135-.14679.01851-.29248.161.11044.07218.50967-.15172.43027.09926-.08664.00827-.14649-.04526-.23426-.035-.10012.2865-.03708.24248.00507.33559l-.0029-.01039.08533.22551.00714-.08608c.53729-.30353.32535.14385.74393.04624-.39588.08241-.16593.11071-.34623.26107-.005.08254.00892.18621-.05664.21552.21317-.0602.03214.2048.33191.12245-.04629.052.07822.07781-.06625.17989.14273.0496.06308-.10112.13592-.15361.31833-.00821.17771.4917.61213.50491.27038.10642.4349.03168.65377.16676-.00668.11077-.18121.06179-.18121.06179a.37148.37148,0,0,0,.23444.26468c-.04633.00459-.0546.044-.06556.1.07895.06311.16477-.04411.20322.09088a.73041.73041,0,0,1-.19372.02466,2.95575,2.95575,0,0,1,.35119.1743c-.02612.05847-.12222-.00065-.18625-.00534.12146.077.28485.22281.37818.20987l-.03113-.08465c.03409.03672-.04208.06047-.07929.04234-.13351-.04671-.08544-.14378-.0606-.17046l.07116.05474c.1081-.1884-.23922-.256-.35324-.3841l.18552-.05192q-.11156-.02745-.23139-.04634c.01276-.0582.08149-.14661.1554-.09443-.00122-.16005-.12155-.04531-.10156-.20027.00641-.0206.01721-.0224.0299-.01838l-.12219-.05945c.0488-.00878.10224-.11052.124-.03-.0329-.26233-.3426-.17989-.261-.35846l.022.00567c-.25131-.18978-.14764.08648-.46051.05585l.249-.42567-.16278.10415a.08962.08962,0,0,1,.02256-.1314c-.1753-.00124-.05109.07283-.19056.10638.038-.24028-.34924-.24641-.11712-.50975-.15878.07374.00226.19707-.191.15547.24887-.29758-.17355-.09413-.13937-.31784.1788-.11235.18521.06578.227-.16837-.30933.18017-.12128-.26248-.24439-.30987-.21429.20306-.25821-.10629-.46658-.17749.08188-.06445-.12491-.40492-.16642-.63023l.04361-.03777c-.26431.22485-.352.04185-.49975-.00282.15228-.15486.22821-.19954.34491-.21323l-.08927-.09676a.27235.27235,0,0,1-.25772.04708l.21045-.17859c-.12405-.12531-.46679-.01-.49414-.31339-.194.19829-.37829.681-.67569.66459.09275-.11609.25684-.31214.34213-.31527-.02764.00063-.135.04332-.12213-.03152l.23548-.12218c.00079-.15274-.178.11908-.22132.04657.14392-.15869.05872-.15578.18076-.27525.02847-.00067-.00848.11592.06952.07541a.525.525,0,0,1,.05118-.41876c-.07663.09875-.19446.21966-.26105.19366-.13489-.10954.1326-.24077.13626-.39955-.13193.08664-.10437-.11466-.328.13817-.03571-.03638.061-.16234.10714-.24575-.16256.04978-.33038-.263-.49755.08934l.001.0342-.02066.00162.00055.00048-.00055-.00048c-.444.06959-.31921-.56339-.63238-.64154l.08014-.09522c-.21958-.00651-.33893-.19435-.60892-.06251-.03882-.0331.058-.25992.17236-.36416-.16058-.01434-.26556.091-.27221-.20381.24456-.08783.0942-.18815.208-.03775-.0574-.20253.04978-.39778-.31808-.23964.2627-.22212.17374-.42346.04605-.399l-.06225.27307c-.1019-.02237-.14441-.09953-.18857-.17732l.31869-.32675c.08243-.69469-1.07864.32967-.70962-.607-.27484.20287.01053.31348-.29065.56542-.0893-.15282.1871-.81329.14724-.85089-.0187-.36775-.58441.42857-.66806.1342-.07626.16066-.32485.552-.56161.58412-.09445-.14682.2576-.724.42364-.774.0409.01266.02442.07014-.011.11737a.27036.27036,0,0,0,.23681-.23142l-.11856.129c.036-.19674-.162-.32663.046-.53032a.2553.2553,0,0,0-.18387.33744c-.02752-.34638-.27279-.2114-.36465-.48861-.02368.1039-.11142.29822-.13992.27622-.15369-.377-.30466.20181-.52954.14482.03961-.3029.38818-.53491.07281-.46043-.02206-.23444.22357-.4278.35-.52141-.362.183-.22361-.41518-.30082-.54151l.17222-.06485a.18572.18572,0,0,1-.19889-.02676l-.12466.35323c-.02533-.09131-.07334-.12278.00238-.25524-.17569.1733-.25427.55765-.52783.77571.01321-.20559-.32492.05161-.1222-.39387.16513.27928.20337-.44858.45081-.401-.0687.02823-.11679-.00131-.14642-.09149a.17294.17294,0,0,1,.08575-.10012c-.03876-.52113-.36923.427-.60641.28583.15594-.22972.17755-.49965.1098-.46918.09909.05989-.159.43781-.341.58087-.06466-.27009-.24182.06312-.31265.0021l.05054.13545c-.15067.23536-.21207.16694-.35571.19685.08047-.20077.16-.08987.16125-.194-.32.38966-.06677-.58816-.37268-.36412-.00763-.20514.19574-.48343.17233-.62981-.33719.25377-.07672-.439-.40207-.24575-.07266.37114-.03241.2893-.308.57212l.43723-.11143-.4177.4189c.09766.04376.29959-.1344.33679-.05167-.21771.24126-.17047.16025-.24048.46537.07209-.57277-.3854.19842-.40322-.21364l.32876-.86086c-.1112-.48009-.60156.29605-.84326-.026l.05292.1837c-.15656.33125-.21118-.01495-.35861.093a1.59173,1.59173,0,0,0,.0801-.60351c-.06036.21655-.23352-.08164-.43341.49025l-.0314-.41939c-.22-.21976-.52383.74181-.73724.59016.156-.29676.09656-.52475.32324-.71389-.08282-.0203-.14453-.08837-.19763.11053-.00339-.18956-.3281.338-.335.04939-.066.11824-.15085.41517-.23587.37091a.61369.61369,0,0,1,.03442-.1407c-.03488.1408-.18829.15958-.18472.49291-.042-.9473-.704-.079-.76154-.86955a2.14947,2.14947,0,0,1-.59567.10987c.026-.08023.02655-.13607.05173-.10327-.176-.28483-.28424.76122-.48148.4379-.04926-.45583.17694-.2153.12695-.39294.1261-.89216-.32794.07611-.40857-.46154l.05066-.04612c-.08221-.31452-.37722.29147-.57882.20292a.53938.53938,0,0,0,.0223-.12953,1.21722,1.21722,0,0,1-.73263.61714c.11273-.31972.11877-.16182.13086-.501-.09854.03571-.05533.54108-.24991.60819a1.92769,1.92769,0,0,1-.1062-.71452l.17575.00044c-.02106-.46912-.22678-.00795-.306-.09769l.04013-.197c-.27612.03949-.34845.53406-.6264.46509l.00927.15114c-.219.46654-.0935-.28686-.29522.05551l.01651-.49354a2.74354,2.74354,0,0,1-.61161.50312,2.67379,2.67379,0,0,1,.54587-.7097.39868.39868,0,0,0-.43472.23732c.04672-.04283.11313-.15629.14462-.078-.1719.36749-.35644.5362-.55664.50683.13913-.92077-.50183-.28163-.58166-.997-.39594.31036-.71463-.184-1.15494-.14043.10873.69185-.12708.01532-.14313.71912-.10092.0402-.13806.0287-.14435-.01752l-.28152-.4243c-.06378-.20342.10254-.15157.10065-.30805-.22086-.05523-.07972-.29683-.22361-.47888.02143.24727-.09164.35521-.21789.26267l.1708.31657c-.32183.36807-.255-.57788-.5859-.2052l.10467-.21806c-.16449.12932-.62448.02437-.77142.57448-.03192-.075-.07916-.254-.00562-.30848-.42294-.047-.85516.64568-1.24755.40454l.00695-.163c-.08477.06728-.08691.32-.23809.19821-.00946-.06456.00244-.163-.04465-.15941a1.49484,1.49484,0,0,1-.12274.18718c-.02591.06122-.06385.10762-.11057.07479l.01367-.18831c-.30658-.10976-.329.53737-.58963.68629a.66367.66367,0,0,0-.43579-.593l-.00149-.06231c-.33423-.00388-.60312.4453-.92819.59584a.41794.41794,0,0,0-.38306-.30687l-.1825-.02519c-.10858-.01581-.236-.03292-.31445-.03516a2.35017,2.35017,0,0,1-.47342-.0656c.0903.06147.01605.30818-.05594.36208-.12045-.05751-.24228.32345-.28915-.032l.0379-.0015c-.13913-.32843-.34521-.18162-.49824-.14256l.08421.45567c-.57629-.52357-.92516.55461-1.29665.08486-.05334.138-.162.18067-.21324.31593l-.0715-.21782a1.42093,1.42093,0,0,0-.667.25192l.004-.1746c-.17053.06414.01639.68423-.12988.75892l-.16266-.28073c-.28453.1283-.67353.01412-.84549.40451-.01246-.04332-.0379-.12878.00286-.16231-.136.05452-.5887.06427-.38227.41529-.10907-.23636-.29025.10247-.41745.31358l-.05485-.18617c-.03751.3005-.00916.35884-.16344.52286-.05574.00413-.11264-.10587-.02968-.09937-.19638.0061-.03.21121-.249.23973l-.001-.1413c-.14953.09014-.10078.139-.09884.30481-.04122.123-.27632.15964-.39579.05368.04126.09137.0504.248-.05572.27462a.11264.11264,0,0,1-.04125-.11258c-.28721.10821-.16246.44026-.41233.45559a.145.145,0,0,0-.0923-.04629,1.60878,1.60878,0,0,1,.288-.26242c-.10453-.11788-.252.00072-.29508-.26811-.026.20379-.02357.56335-.19644.64166a.19843.19843,0,0,1-.05388-.01817l.00052-.02507a.111.111,0,0,0-.05371.1033.35744.35744,0,0,0-.1228.08629c-.10321-.064-.17627.12416-.23575.19252.1243.09539.03288.17089.19941.16772-.01739.00378-.00393-.02522.02778-.076a.09891.09891,0,0,0,.01115-.0405l.00674.01384.12951-.18118c.01692.11039.02247.2104-.105.22978l.11628.25815c-.2426-.04953-.47916.06495-.59471.01654-.08226.27864-.30622.57182-.17862.85864-.01055.083-.10671.0322-.155.03406.00017-.05217.0296-.09491.01005-.1366-.02011.16863-.20244.40364-.07257.5273-.16333.12051-.08238-.17731-.19.06253l-.02723-.05821c-.47257.32469-.04355.93083-.56955,1.28146.03294-.02687.04892-.0405.07435-.03627-.38716.52568-.456,1.24037-.83381,1.76148-.09281.15567-.035.2006-.0253.32206l-.092.00464.026.21124c-.03644.26809-.32729.3655-.31992.72585l.05717-.02516c-.04785.11047-.09524.36951-.13513.33436a.07634.07634,0,0,1-.0054.08948l-.03149-.007-.03742.29863c-.08455.21288-.10133-.07116-.19224.25132-.01874.12489-.01792.3661.00863.32485.0138-.04867.04834-.11965.07372-.11572l-.01967.11231c.06471.04026.097.13772.24438-.10286l.02353-.19321.06037-.04547-.05767.15074a.25788.25788,0,0,0,.06211-.20517.14166.14166,0,0,0,.07335-.06039l-.00925-.20146c.043-.00947.03392.10047.10245-.00945-.00518-.09493-.10849.05247-.07968-.09216.07432-.07163.09924-.03444.10406-.14678.02974-.0056.03642.02092.03012.06381.00778-.09869.08722-.23762.05518-.30181.09456-.06731.11235-.30356.20874-.2574a.58878.58878,0,0,1,.02034-.26647c.05946.1949.14572-.29631.27125-.20071-.07225-.15653.13468-.40624.15728-.624.00555.01514.0169.045.00169.05863.06425-.10094.12126-.11368.18271-.16933-.10745-.06309-.055-.24092-.08241-.3622.18333-.07612.10047.1415.23191.15038-.09976-.0365.02272-.264-.08371-.25885.12526-.06407.08-.06812.2108-.06987-.1479-.09035.02268-.10237-.03225-.22954.15518-.10272.16913.03537.20732-.13983C127.50124,206.91513,127.4787,207.07573,127.4787,207.07573Zm2.09885-3.48688.00236.00226-.05441.0616Zm.24824-.22458a.85466.85466,0,0,0-.11287.092c-.04927-.033-.08159-.08372-.05411-.10476C129.6722,203.39154,129.75473,203.36157,129.82579,203.36427Zm-1.34027-.22809c.0199-.063.05577-.05854.08531-.04325a.74113.74113,0,0,0-.05009.09611l.0103.01836A.29254.29254,0,0,1,128.48552,203.13618Z"/><path class="cls-6" d="M128.57639,203.35686c-.00261.009-.00057.017-.0064.02659l.04881-.00465-.02452-.0486Z"/><path class="cls-6" d="M159.04636,205.94009l-.00068-.01092a.17321.17321,0,0,1-.019.04674Z"/><polygon class="cls-6" points="134.225 201.88 134.206 201.824 134.194 201.88 134.225 201.88"/><path class="cls-6" d="M159.823,208.01108a.15605.15605,0,0,0-.02823.06689A.208.208,0,0,0,159.823,208.01108Z"/><path class="cls-6" d="M160.42569,208.58751l.03076.13595A.40208.40208,0,0,0,160.42569,208.58751Z"/><path class="cls-6" d="M160.83582,209.08087a.70792.70792,0,0,0,.07714-.057v-.00173Z"/><path class="cls-6" d="M152.39935,203.856a.04218.04218,0,0,0-.02871.009C152.2872,203.92108,152.3334,203.905,152.39935,203.856Z"/><path class="cls-6" d="M155.393,204.41841a1.2529,1.2529,0,0,1-.19355.10384C155.22519,204.57687,155.25458,204.60582,155.393,204.41841Z"/><polygon class="cls-6" points="149.357 203.266 149.359 203.259 149.341 203.253 149.357 203.266"/><path class="cls-6" d="M155.08875,204.44c-.004.09665.043.106.11074.08223C155.17941,204.47617,155.16144,204.41318,155.08875,204.44Z"/><path class="cls-6" d="M162.85309,210.98888l.01892.02409a.03884.03884,0,0,1,.01419-.00552Z"/><path class="cls-6" d="M162.8862,211.00745l.0332.01835C162.90805,211.01462,162.89767,211.00533,162.8862,211.00745Z"/><path class="cls-6" d="M162.988,211.06557l-.06861-.03977A.09618.09618,0,0,0,162.988,211.06557Z"/><path class="cls-6" d="M162.28168,210.36459l-.0452.02408A.13387.13387,0,0,0,162.28168,210.36459Z"/><path class="cls-6" d="M162.08179,210.19667c.03467.05086.03039.17368.11834.21117l.03635-.01917C162.14828,210.40942,162.19156,210.18172,162.08179,210.19667Z"/><path class="cls-6" d="M161.91971,208.88722l.09845.21115c.02853-.078.07089-.1862.14456-.11564C162.15512,208.60838,162.07828,209.13776,161.91971,208.88722Z"/><path class="cls-6" d="M161.56674,208.26862c.10449.06617.088-.08713.12717-.11641C161.59076,208.14545,161.56387,208.14635,161.56674,208.26862Z"/><path class="cls-6" d="M158.0834,204.67867l.22178-.25019C158.207,204.40215,158.222,204.52818,158.0834,204.67867Z"/><polygon class="cls-6" points="156.235 205.468 156.169 205.689 156.403 205.462 156.235 205.468"/><polygon class="cls-6" points="157.368 203.114 157.431 203.1 157.23 203.099 157.368 203.114"/><path class="cls-6" d="M149.25479,199.50606l-.06723.45088C149.26727,199.88786,149.38989,199.38686,149.25479,199.50606Z"/><path class="cls-6" d="M145.54248,199.485c-.0123-.20172-.09839-.33578-.18655-.14943C145.43393,199.37012,145.4946,199.53065,145.54248,199.485Z"/><polygon class="cls-6" points="134.517 199.561 134.571 199.449 134.447 199.568 134.517 199.561"/><path class="cls-7" d="M132.51138,162.5a13.83434,13.83434,0,0,1,7-2,15.00322,15.00322,0,0,1,6.15173,1.7337"/><path class="cls-8" d="M225.01138,168l10.47273,2.53373a.53334.53334,0,0,0,.19189.0108L237.01138,170s2.33253-.54234,1.91264-.81458a30.625,30.625,0,0,0-7.39091-3.2289c-3.73245-1.17735-5.72182-1.30491-6.64783-1.60423a.652.652,0,0,0-.84871.64282l-.01489,1.77552C224.01567,167.48739,224.01138,168,225.01138,168Z"/><path class="cls-9" d="M231.46664,174.47765a10.35111,10.35111,0,0,1,3.59366-3.73681,10.61072,10.61072,0,0,1,2.38123-1.09538,20.71426,20.71426,0,0,1,2.55517-.56381,19.35182,19.35182,0,0,1,5.22657-.2869,7.79975,7.79975,0,0,1,2.56418.71016,5.08551,5.08551,0,0,1,2.02484,1.77318c.92257,1.45381,2.03207,2.78568,2.94622,4.2982a10.10519,10.10519,0,0,1,1.62107,5.03954,11.71619,11.71619,0,0,1-1.19669,5.165,43.31516,43.31516,0,0,1-2.4237,4.65c-.88,1.504-1.81455,2.97317-2.73652,4.43728a20.47713,20.47713,0,0,0-1.26605,2.20414c-.362.7798-.7352,1.58662-1.17276,2.36009a18.46754,18.46754,0,0,1-3.2669,4.2041,31.27652,31.27652,0,0,1-4.14808,3.25015l-4.24832,3.00768a20.78709,20.78709,0,0,1-2.27008,1.37282,6.30025,6.30025,0,0,1-2.62655.75924,4.03138,4.03138,0,0,1-1.39023-.18416,11.41017,11.41017,0,0,1-1.24649-.47912,14.49155,14.49155,0,0,1-2.31168-1.28406,8.15345,8.15345,0,0,1-1.93332-1.809,3.72548,3.72548,0,0,1-.60266-1.19209,2.29347,2.29347,0,0,1,.07715-1.323l.09369.035a2.1487,2.1487,0,0,0,.01056,1.23512,3.49625,3.49625,0,0,0,.64029,1.07392,7.80121,7.80121,0,0,0,1.96365,1.59852,14.39869,14.39869,0,0,0,2.28525,1.13242,5.24471,5.24471,0,0,0,2.37713.50034,9.96263,9.96263,0,0,0,4.4393-2.14309l4.16044-3.11378a22.21114,22.21114,0,0,0,7.13827-7.13387c.42969-.72836.79962-1.48985,1.18173-2.27519a21.32527,21.32527,0,0,1,1.36194-2.27876c.95218-1.4525,1.90534-2.89234,2.8035-4.36507a42.589,42.589,0,0,0,2.44729-4.53262,11.034,11.034,0,0,0,1.21006-4.85486,9.48839,9.48839,0,0,0-1.46585-4.76337c-.85816-1.471-1.95621-2.833-2.87162-4.32017a5.58936,5.58936,0,0,0-4.21792-2.35768,19.02384,19.02384,0,0,0-5.13043.18615,20.47441,20.47441,0,0,0-2.52942.50666,10.38477,10.38477,0,0,0-2.35022,1.02708,10.20938,10.20938,0,0,0-3.60825,3.6107Z"/><path class="cls-9" d="M232.95859,182.2764a12.84276,12.84276,0,0,1,1.19592,4.53184,3.4668,3.4668,0,0,1-.68918,2.35372,2.07621,2.07621,0,0,1-1.07113.70454,3.282,3.282,0,0,0-.96647.4222c-1.14373.8367-1.7626,2.31787-2.46929,3.62658a35.51563,35.51563,0,0,0-1.86011,4.12819,35.62542,35.62542,0,0,1,1.63449-4.23588c.65051-1.34941,1.12939-2.85643,2.402-3.92412a3.79948,3.79948,0,0,1,1.07126-.54709,1.45817,1.45817,0,0,0,.76461-.55647,2.77158,2.77158,0,0,0,.43479-1.93352,12.058,12.058,0,0,0-1.34134-4.12279Z"/><path class="cls-10" d="M155.14719,91.94488a2.46639,2.46639,0,0,0-2.09154,1.0257,4.56457,4.56457,0,0,0-.81789,2.78065l-.018,1.262,3.40322.04245a2.91188,2.91188,0,0,0,1.54228-.26486,1.24389,1.24389,0,0,0,.42479-1.086l.01437-1.10266a2.67836,2.67836,0,0,0-.65319-1.90122A2.34983,2.34983,0,0,0,155.14719,91.94488Z"/><path class="cls-10" d="M162.97268,95.83081a4.55633,4.55633,0,0,0-.77359-2.79439A2.47853,2.47853,0,0,0,160.1159,91.975a2.3673,2.3673,0,0,0-1.82744.72436,2.67155,2.67155,0,0,0-.68876,1.88964l-.00464,1.10275a1.24142,1.24142,0,0,0,.408,1.09358,2.93522,2.93522,0,0,0,1.54453.29115l3.41985.01644Z"/></svg>