<svg id="Layer_1" data-name="Layer 1" xmlns="http://www.w3.org/2000/svg" viewBox="0 0 583 550"><defs><style>.cls-1{fill:#000001;}.cls-2{fill:#3b3f38;}</style></defs><path class="cls-1" d="M78.82,528.69l.12.28a1.07,1.07,0,0,0-.19-.18S78.82,528.69,78.82,528.69Z"/><path class="cls-1" d="M558.61,529l.63.59-1.23,0C558.2,529.4,558.4,529.19,558.61,529Z"/><path class="cls-2" d="M339,149,172.67,244l-4.46-7.82L334.48,141.2l-4.87-8.43L149.27,236.89,253.39,417.23,433.73,313.11ZM348,322.49,338,328.23q-13.8,7.89-25.54,5.5t-18.88-14.89l-25.64-44.9c-.65-1.14-1.6-1.36-2.84-.65l-8.95,5.11a4.42,4.42,0,0,1-2.86.84,3.24,3.24,0,0,1-1.87-1.77l-5.09-8.91c-1.11-1.94-.61-3.52,1.5-4.72l8.95-5.11c1.24-.71,1.54-1.64.89-2.78l-8.81-15.42q-1.67-2.91,1.7-4.83L262.27,229c2.11-1.2,3.72-.84,4.83,1.11l8.81,15.42q1,1.71,3,.54l17.33-9.9c2.24-1.28,3.91-.94,5,1l5.09,8.91c1,1.83.45,3.38-1.79,4.66l-17.34,9.89c-1.37.79-1.72,1.75-1.07,2.89l25.15,44q7.14,12.51,21.12,4.52l7.27-4.15c2.24-1.28,3.91-.94,5,1l5.09,8.91Q351.39,320.58,348,322.49Z"/></svg>