<svg id="Layer_1" data-name="Layer 1" xmlns="http://www.w3.org/2000/svg" viewBox="0 0 583 384"><defs><style>.cls-1{fill:#3b3f38;}</style></defs><path class="cls-1" d="M338.98279,66.99915,172.67322,161.95831l-4.46265-7.81573L334.48279,59.2049,329.61121,50.767,149.267,154.88879,253.38879,335.233,433.733,231.11121Zm9.05249,173.48669-10.06641,5.74805q-13.79736,7.87939-25.53711,5.49414-11.74218-2.38183-18.88672-14.89258l-25.63281-44.89453q-.97851-1.71095-2.84277-.64844l-8.94824,5.1084a4.39465,4.39465,0,0,1-2.85938.83691,3.25621,3.25621,0,0,1-1.875-1.76953l-5.08789-8.91015q-1.66113-2.91211,1.50586-4.72266l8.94727-5.10938q1.86182-1.062.88671-2.77734l-8.80566-15.42187q-1.6626-2.91211,1.69238-4.82813l11.74512-6.707q3.167-1.80762,4.832,1.10351l8.80567,15.42188q.97851,1.71533,3.02929.543l17.33594-9.89942q3.35742-1.916,5.01953.99707l5.08789,8.91016q1.56592,2.74365-1.79,4.6582L287.254,178.62451q-2.05371,1.1748-1.07227,2.88477l25.14453,44.03711q7.14258,12.50976,21.12305,4.52636l7.27051-4.15136q3.356-1.916,5.01855.99609l5.08789,8.91113Q351.39222,238.57081,348.03528,240.48584Z"/></svg>