<svg id="Layer_1" data-name="Layer 1" xmlns="http://www.w3.org/2000/svg" viewBox="0 0 583 550"><defs><style>.cls-1{fill:#000001;}.cls-2{fill:#3b3f38;}.cls-3{fill:#007ca5;}.cls-4{fill:#fff;}</style></defs><path class="cls-1" d="M558.61,529l.63.59-1.23,0C558.2,529.4,558.4,529.19,558.61,529Z"/><path class="cls-2" d="M286.09,204A105.52,105.52,0,0,0,115.22,325.1h10.56q13.74,0,13.75-13.67V225.16c0-2.09,1.06-3.14,3.2-3.14h11.86q3.39,0,3.39,3v87.19q0,13.49-7.81,21.06t-21.56,7.57h-3A105.5,105.5,0,0,0,286.09,346a105.51,105.51,0,0,1,0-142.08Zm-82.55,133.7q0,3.13-3.2,3.14H188.48c-2.14,0-3.2-1.05-3.2-3.14V225.16c0-2.09,1.06-3.14,3.2-3.14h11.86q3.19,0,3.2,3.14Z"/><path class="cls-3" d="M459.61,292.85l-23.16,45.07a4.6,4.6,0,0,1-4.52,3H418a2.46,2.46,0,0,1-2.16-.93,2.22,2.22,0,0,1,.09-2.4L447,279.36l-29.75-53.94a2.08,2.08,0,0,1-.1-2.31,2.4,2.4,0,0,1,2.17-1h13.37a5.36,5.36,0,0,1,5.27,3.14l21.65,42.85h.75L467.49,254a105.49,105.49,0,1,0-1.75,49.34l-5.38-10.47Zm-61.75,19.39q0,13.49-7.82,21.06t-21.55,7.58h-20.9q-13.75,0-21.47-7.58t-7.72-21.06v-87c0-2.1,1.07-3.14,3.21-3.14h11.86c2.13,0,3.2,1,3.2,3.14V311.5q0,13.68,13.55,13.67h15.44q13.74,0,13.75-13.67V225.24c0-2.1,1.06-3.14,3.2-3.14h11.86q3.39,0,3.39,3Z"/><path d="M150.17,333.23q7.8-7.58,7.81-21.06V225q0-3-3.39-3H142.73c-2.14,0-3.2,1-3.2,3.14v86.27q0,13.67-13.75,13.67H110.34q-13.55,0-13.55-13.67V225.16q0-3.14-3.2-3.14H81.73c-2.14,0-3.2,1-3.2,3.14v87q0,13.49,7.72,21.06t21.46,7.57h20.9Q142.35,340.8,150.17,333.23Z"/><path class="cls-4" d="M200.34,222H188.48c-2.14,0-3.2,1-3.2,3.14v112.5c0,2.09,1.06,3.14,3.2,3.14h11.86q3.19,0,3.2-3.14V225.16Q203.54,222,200.34,222Z"/><path class="cls-4" d="M394.47,222.1H382.61c-2.14,0-3.2,1-3.2,3.14V311.5q0,13.68-13.75,13.67H350.22q-13.55,0-13.55-13.67V225.24c0-2.1-1.07-3.14-3.2-3.14H321.61c-2.14,0-3.21,1-3.21,3.14v87q0,13.49,7.72,21.06t21.47,7.58h20.9q13.74,0,21.55-7.58t7.82-21.06V225.05Q397.86,222.1,394.47,222.1Z"/><path d="M504,337.37l-31.06-58,30.12-53.75a2.51,2.51,0,0,0-.09-2.41,2.32,2.32,0,0,0-2.17-1.1H486.91a5.31,5.31,0,0,0-4.89,3.14L467.49,254l-7.13,14.11h-.75L438,225.24a5.36,5.36,0,0,0-5.27-3.14H419.32a2.4,2.4,0,0,0-2.17,1,2.08,2.08,0,0,0,.1,2.31L447,279.36l-31.07,58.19a2.22,2.22,0,0,0-.09,2.4,2.46,2.46,0,0,0,2.16.93h13.93a4.6,4.6,0,0,0,4.52-3l23.16-45.07h.75l5.38,10.47,17.78,34.6a4.47,4.47,0,0,0,4.33,3H502a2.34,2.34,0,0,0,2.26-1A2.57,2.57,0,0,0,504,337.37Z"/></svg>