<svg id="Layer_1" data-name="Layer 1" xmlns="http://www.w3.org/2000/svg" viewBox="0 0 583 384"><defs><style>.cls-1{fill:#3b3f38;}.cls-2{fill:#007ca5;}.cls-3{fill:#fff;}</style></defs><path class="cls-1" d="M286.09185,121.96423A105.51294,105.51294,0,0,0,115.22491,243.09766h10.55835q13.7417,0,13.74414-13.66993V143.16016q0-3.13917,3.20117-3.14063H154.5899q3.38819,0,3.38867,2.95606V230.167q0,13.48681-7.81347,21.0586-7.815,7.57762-21.55762,7.57421h-2.978a105.495,105.495,0,0,0,160.4624,5.236,105.49692,105.49692,0,0,1,0-142.07154Zm-82.55175,133.695q0,3.14355-3.2002,3.14062H188.47857q-3.20361,0-3.20117-3.14062v-112.499q0-3.13917,3.20117-3.14063H200.3399q3.19922,0,3.2002,3.14063Z"/><path class="cls-2" d="M459.61138,210.84668l-23.1582,45.07324a4.59844,4.59844,0,0,1-4.51855,2.95606H418.002a2.46635,2.46635,0,0,1-2.165-.92383,2.21777,2.21777,0,0,1,.09375-2.40137l31.06543-58.18945L417.24908,143.4209a2.07007,2.07007,0,0,1-.09473-2.30957,2.38762,2.38762,0,0,1,2.165-1.01563h13.36817a5.36657,5.36657,0,0,1,5.27148,3.14063l21.65234,42.85644h.75293l7.13038-14.11328a105.49191,105.49191,0,1,0-1.75171,49.33582l-5.37867-10.46863Zm-61.7539,19.39648q0,13.48683-7.81348,21.0586-7.81494,7.57764-21.55762,7.57422H347.588q-13.7461,0-21.46387-7.57422-7.72266-7.57178-7.71973-21.0586V143.23633q0-3.13917,3.20118-3.14063h11.86132q3.19923,0,3.2002,3.14063v86.26758q0,13.67284,13.55664,13.66992h15.43848q13.74169,0,13.74414-13.66992V143.23633q0-3.13917,3.20117-3.14063h11.86133q3.38818,0,3.38867,2.95606Z"/><path d="M150.1651,251.22559q7.81054-7.57179,7.81347-21.0586v-87.1914q0-2.95312-3.38867-2.95606H142.72857q-3.20361,0-3.20117,3.14063v86.26757q0,13.67286-13.74414,13.66993H110.34478q-13.55712,0-13.55664-13.66993V143.16016q0-3.13917-3.20019-3.14063H81.72662q-3.20361,0-3.20117,3.14063V230.167q0,13.48681,7.71972,21.0586,7.71827,7.57762,21.46387,7.57421h20.89844Q142.34918,258.7998,150.1651,251.22559Z"/><path class="cls-3" d="M200.3399,140.01953H188.47857q-3.20361,0-3.20117,3.14063v112.499q0,3.14355,3.20117,3.14062H200.3399q3.19922,0,3.2002-3.14062v-112.499Q203.5401,140.021,200.3399,140.01953Z"/><path class="cls-3" d="M394.46881,140.0957H382.60748q-3.20361,0-3.20117,3.14063v86.26758q0,13.67284-13.74414,13.66992H350.22369q-13.55713,0-13.55664-13.66992V143.23633q0-3.13917-3.2002-3.14063H321.60553q-3.20362,0-3.20118,3.14063v87.00683q0,13.48683,7.71973,21.0586,7.71827,7.57764,21.46387,7.57422h20.89843q13.74171,0,21.55762-7.57422,7.81055-7.57178,7.81348-21.0586v-87.1914Q397.85748,140.09864,394.46881,140.0957Z"/><path d="M504.045,255.36621l-31.06641-58.00488,30.125-53.75586a2.50373,2.50373,0,0,0-.09472-2.40137,2.32442,2.32442,0,0,0-2.165-1.1084H486.91119a5.31736,5.31736,0,0,0-4.89453,3.14063l-14.522,28.74316-7.13038,14.11328h-.75293L437.959,143.23633a5.36657,5.36657,0,0,0-5.27148-3.14063H419.31939a2.38762,2.38762,0,0,0-2.165,1.01563,2.07007,2.07007,0,0,0,.09473,2.30957l29.74707,53.94043-31.06543,58.18945a2.21777,2.21777,0,0,0-.09375,2.40137,2.46635,2.46635,0,0,0,2.165.92383h13.93262a4.59844,4.59844,0,0,0,4.51855-2.95606l23.1582-45.07324h.75293l5.37867,10.46863,17.77954,34.60461a4.46541,4.46541,0,0,0,4.33008,2.95606h14.12109a2.35251,2.35251,0,0,0,2.25977-1.01563A2.58537,2.58537,0,0,0,504.045,255.36621Z"/></svg>