<svg id="Layer_1" data-name="Layer 1" xmlns="http://www.w3.org/2000/svg" viewBox="0 0 583 550"><defs><style>.cls-1{fill:#000001;}.cls-2{fill:#007ca5;}</style></defs><path class="cls-1" d="M78.82,528.69l.12.28a1.07,1.07,0,0,0-.19-.18S78.82,528.69,78.82,528.69Z"/><path class="cls-2" d="M291.5,385a109.88,109.88,0,0,1-110-110.11c0-61.17,50.51-111.33,112.73-109.86,58.6,1.38,107.34,49.28,107.31,110A109.82,109.82,0,0,1,291.5,385Zm-25.18-16.71h.5l-.26-.24a2.2,2.2,0,0,0-.2-.56,200,200,0,0,1-19.22-32.7c-.45-1-.94-1-1.88-.69a193.59,193.59,0,0,0-20.53,8.68c-1.39.67-1,1.21-.15,2,1.82,1.58,3.56,3.25,5.43,4.78A94.32,94.32,0,0,0,266.32,368.29Zm49.89-.37c.7.62,1.42.17,2.09,0a97.74,97.74,0,0,0,40.34-23.35c1.36-1.29.95-1.74-.44-2.45a175.93,175.93,0,0,0-19.53-8.49c-1.41-.51-2-.29-2.68,1.12a183.43,183.43,0,0,1-14.86,26.44,45.12,45.12,0,0,1-4.94,6.79l.07.07Zm-101.94-86.1c-5.7,0-11.4.07-17.1-.05-1.81,0-2.19.59-1.93,2.19.32,2,.47,4,.78,6a96.38,96.38,0,0,0,17.47,42.12,1.38,1.38,0,0,0,2.13.47,172,172,0,0,1,24.48-10.66c1.28-.44,1.42-.92,1-2.13a137.4,137.4,0,0,1-7.68-36.06c-.1-1.4-.53-1.93-2-1.9C225.68,281.87,220,281.82,214.27,281.82Zm154.62,0c-5.77,0-11.54,0-17.31,0-1.29,0-1.74.37-1.78,1.67-.06,1.8-.34,3.6-.54,5.4a144.31,144.31,0,0,1-7.12,30.69c-.38,1.08-.37,1.67.85,2.09a157.88,157.88,0,0,1,24.59,10.92c1,.54,1.41.24,1.92-.52,1.3-2,2.68-3.85,3.93-5.84a96.21,96.21,0,0,0,14.27-41.66c.29-2.72.27-2.72-2.5-2.72ZM214,268.38c5.71,0,11.41,0,17.12,0,1.12,0,1.9-.07,1.95-1.55a136,136,0,0,1,6.62-36.7c.39-1.19.29-1.75-1-2.21a171.1,171.1,0,0,1-23.18-10.17c-.92-.48-1.48-.52-2.16.42a96.59,96.59,0,0,0-18.16,48.36c-.13,1.39.24,1.89,1.7,1.87C202.62,268.33,208.32,268.38,214,268.38Zm154.81,0c5.78,0,11.55,0,17.32,0,1.32,0,1.76-.39,1.63-1.74a104.37,104.37,0,0,0-2-12.91,96.33,96.33,0,0,0-16-35.31c-.62-.86-1.08-1.33-2.24-.69a157.51,157.51,0,0,1-23.45,10.54c-.86.31-1.11.63-.79,1.6A136.29,136.29,0,0,1,350,266.57c.07,1.57.71,1.85,2.09,1.83C357.7,268.34,363.27,268.38,368.84,268.38Zm-103.33,0c5.84,0,11.67,0,17.5,0,1.39,0,1.86-.41,1.86-1.82q-.08-13.68,0-27.36c0-1.31-.31-1.94-1.76-2A143.74,143.74,0,0,1,254,232.67c-1.16-.29-1.61-.1-2,1.06a130.76,130.76,0,0,0-6,32.51c-.1,1.68.29,2.21,2,2.18C253.84,268.32,259.68,268.38,265.51,268.38Zm52.05,0c5.83,0,11.67-.06,17.5,0,1.61,0,2.06-.47,2-2.05a133,133,0,0,0-6-32.31c-.36-1.11-.78-1.49-2-1.18a142.57,142.57,0,0,1-29,4.44c-1.39.08-1.79.51-1.78,1.88q.09,13.59,0,27.17c0,1.55.39,2.08,2,2.05C306,268.32,311.79,268.38,317.56,268.38Zm-52,13.44H251.08c-4.73,0-4.81,0-4.28,4.62a133,133,0,0,0,7,29.64c.35,1,.72,1.46,1.86,1.17a148.41,148.41,0,0,1,27.56-4.2c1.42-.09,1.6-.71,1.6-1.88q0-13.79,0-27.56c0-1.38-.4-1.84-1.82-1.82C277.22,281.86,271.39,281.82,265.56,281.82Zm52.13,0c-5.9,0-11.81,0-17.71,0-1.27,0-1.74.32-1.73,1.67q.08,14,0,28c0,1.1.32,1.49,1.46,1.55a150.35,150.35,0,0,1,27.6,4c.95.23,1.57.31,2-.83a137.74,137.74,0,0,0,7.31-32.67c.13-1.36-.31-1.71-1.62-1.7C329.22,281.85,323.45,281.82,317.69,281.82ZM298.28,179.23c0,15,0,29.45,0,43.88,0,1.31.65,1.3,1.65,1.26A137.9,137.9,0,0,0,324.17,221c1.36-.3,1.46-.76.9-2A150.91,150.91,0,0,0,307,189.33,102.57,102.57,0,0,0,298.28,179.23Zm-13.77.37a7,7,0,0,0-.72.59A148.08,148.08,0,0,0,258,218.52c-.63,1.35,0,1.53,1.07,1.81a161.63,161.63,0,0,0,23.55,3.92c2,.2,2.31-.51,2.3-2.28-.06-13.4,0-26.81,0-40.22A3.56,3.56,0,0,0,284.51,179.6Zm14.13,189.57a203.28,203.28,0,0,0,24.71-38.68c.58-1.22-.05-1.31-1-1.51a152,152,0,0,0-21.87-3.06c-1.75-.13-2.31.18-2.29,2.05.08,13.07,0,26.15.05,39.23A2.82,2.82,0,0,0,298.64,369.17Zm-14,.2a12.79,12.79,0,0,0,.2-1.29q0-20.24,0-40.46c0-1.23-.37-1.61-1.64-1.52a149.23,149.23,0,0,0-21.85,3.27c-1.55.33-1.76.75-1.05,2.18a195.67,195.67,0,0,0,14.22,24.27C277.64,360.34,280.87,364.76,284.63,369.37Zm33.84-187.13c.36.6.49.89.68,1.14a166.18,166.18,0,0,1,18.67,32.09c.45,1,.9,1.19,2,.8a151,151,0,0,0,18.2-8c.67-.35,1.32-.75,2.14-1.22A97.44,97.44,0,0,0,318.47,182.24Zm-53.82.23a5.19,5.19,0,0,0-.92,0,97.65,97.65,0,0,0-39.52,23.2c-1,.92-.69,1.25.36,1.77a191.76,191.76,0,0,0,18.8,8.14c1.34.51,1.84.17,2.38-1.07a152.67,152.67,0,0,1,8.49-16.42A184.2,184.2,0,0,1,264.65,182.47Z"/><path class="cls-1" d="M558.61,529l.63.59-1.23,0C558.2,529.4,558.4,529.19,558.61,529Z"/></svg>