<svg id="Layer_1" data-name="Layer 1" xmlns="http://www.w3.org/2000/svg" viewBox="0 0 583 384"><defs><style>.cls-1{fill:#007ca5;}</style></defs><path class="cls-1" d="M291.50283,303.0045A109.8751,109.8751,0,0,1,181.48194,192.88834c-.02419-61.1715,50.509-111.32757,112.72541-109.86149,58.607,1.381,107.34065,49.281,107.3107,110.04882A109.81484,109.81484,0,0,1,291.50283,303.0045Zm-25.18038-16.71421.49754-.00849-.25577-.23927a2.21028,2.21028,0,0,0-.20323-.558,200.29958,200.29958,0,0,1-19.22187-32.70861c-.4494-.97534-.94-1.01009-1.87719-.686a192.86533,192.86533,0,0,0-20.52991,8.68165c-1.3965.67183-1.02174,1.21181-.155,1.96581,1.82057,1.58381,3.56733,3.25589,5.43141,4.78571A94.27352,94.27352,0,0,0,266.32245,286.29029Zm49.89166-.36961c.6991.61591,1.41432.17363,2.08441-.02193a97.734,97.734,0,0,0,40.34455-23.35148c1.35278-1.28231.94655-1.73554-.44612-2.44476a175.8346,175.8346,0,0,0-19.5312-8.48889c-1.4036-.51233-2.03916-.29383-2.6749,1.11363a182.30048,182.30048,0,0,1-14.86337,26.439,44.73144,44.73144,0,0,1-4.9404,6.79141l.07258.07521Zm-101.943-86.10537c-5.70181,0-11.4052.0753-17.10451-.04409-1.80175-.03774-2.19055.5889-1.93079,2.18931.32188,1.983.47557,3.99314.78645,5.97829a96.34219,96.34219,0,0,0,17.46629,42.117,1.38139,1.38139,0,0,0,2.13232.47255,172.54447,172.54447,0,0,1,24.4778-10.65783c1.27927-.44521,1.424-.91731.99838-2.12947a138.01753,138.01753,0,0,1-7.68207-36.05721c-.09985-1.4061-.52043-1.93349-2.0391-1.90748C225.67578,199.874,219.973,199.81551,214.27115,199.81531Zm154.61878.00049c-5.77111,0-11.54261.03578-17.313-.02752-1.291-.01416-1.73875.36958-1.779,1.67192-.0557,1.80435-.33479,3.603-.5422,5.40126a143.59221,143.59221,0,0,1-7.11751,30.68428c-.377,1.08649-.3726,1.67161.8505,2.09266a157.70118,157.70118,0,0,1,24.58786,10.9227c.98871.54285,1.41279.24207,1.91977-.5208,1.29877-1.95435,2.68707-3.85133,3.93489-5.83705a96.2475,96.2475,0,0,0,14.26966-41.66579c.28727-2.71819.26858-2.72153-2.50427-2.722Q377.04331,199.81394,368.88993,199.8158ZM214.0309,186.378c5.706,0,11.41213-.01285,17.11806.011,1.119.00467,1.9029-.0735,1.95473-1.55179a135.83654,135.83654,0,0,1,6.61983-36.69731c.38163-1.19463.288-1.75406-1.00942-2.20812a171.50824,171.50824,0,0,1-23.18271-10.16892c-.92306-.48552-1.48173-.5264-2.15987.41274a96.62079,96.62079,0,0,0-18.16518,48.36931c-.13068,1.38978.24516,1.88081,1.70685,1.86217C202.61829,186.33437,208.32487,186.37744,214.0309,186.378Zm154.81319-.00111c5.773,0,11.54627-.02947,17.31881.02228,1.32052.01183,1.76086-.39234,1.63013-1.73889a103.58237,103.58237,0,0,0-2.02759-12.90679,96.1637,96.1637,0,0,0-15.95972-35.31572c-.61964-.8598-1.074-1.3313-2.23912-.68741a158.09931,158.09931,0,0,1-23.44427,10.5411c-.86326.30764-1.11145.62838-.7957,1.59911a136.37013,136.37013,0,0,1,6.71471,36.6806c.06513,1.5731.70761,1.84785,2.08815,1.83267C357.70044,186.3426,363.27246,186.37847,368.84409,186.37689Zm-103.33124.0003c5.834,0,11.66846-.03488,17.50188.02554,1.386.01436,1.8591-.41028,1.8512-1.82552q-.07621-13.6794-.00475-27.35943c.0056-1.30614-.313-1.93958-1.76031-2.00474a143.93877,143.93877,0,0,1-29.13611-4.53942c-1.16834-.298-1.61-.10381-1.97829,1.05185a131.28522,131.28522,0,0,0-5.9871,32.51951c-.09547,1.6706.28649,2.20076,2.012,2.17147C253.84372,186.3174,259.6788,186.37868,265.51285,186.37719Zm52.04235.00055c5.83525,0,11.67132-.053,17.50526.03451,1.6102.02416,2.05464-.47128,1.957-2.05145a132.90693,132.90693,0,0,0-6.05112-32.3155c-.35344-1.10826-.77424-1.49-1.98711-1.17269a142.90234,142.90234,0,0,1-28.95321,4.442c-1.39085.071-1.78509.50336-1.77644,1.88007q.0854,13.58154-.00386,27.16373c-.01162,1.556.39531,2.07918,2.00553,2.05426C306.018,186.32342,311.787,186.37767,317.5552,186.37774ZM265.556,199.81511H251.0755c-4.72272,0-4.804.00931-4.27512,4.62942a132.84179,132.84179,0,0,0,7.04173,29.63459c.34539.967.71831,1.45785,1.86,1.16794a148.54728,148.54728,0,0,1,27.562-4.19828c1.41128-.08629,1.59674-.7087,1.59291-1.88082q-.04474-13.77643.00936-27.553c.00755-1.38507-.3976-1.84516-1.81342-1.82826C277.22133,199.85633,271.38843,199.81586,265.556,199.81511Zm52.13172.00128c-5.90129,0-11.80288.0308-17.70366-.02441-1.27183-.01191-1.74052.31425-1.73275,1.66954q.08007,13.98159.00844,27.96387c-.00413,1.10558.322,1.49713,1.46059,1.55636a150.24014,150.24014,0,0,1,27.60371,4.00926c.9493.22985,1.5671.31117,1.971-.83531a137.62243,137.62243,0,0,0,7.31654-32.66828c.13015-1.35421-.31334-1.70982-1.62257-1.69646C329.22243,199.84978,323.45491,199.81634,317.68772,199.81639ZM298.28149,97.2326c0,15.029.01108,29.45224-.01871,43.87535-.0027,1.31258.64494,1.30234,1.64708,1.26222a138.16269,138.16269,0,0,0,24.26032-3.41836c1.36115-.30031,1.45772-.76507.90276-1.97293a151.1883,151.1883,0,0,0-18.056-29.65271A102.3779,102.3779,0,0,0,298.28149,97.2326Zm-13.76812.37113a7.47592,7.47592,0,0,0-.72311.58408,147.85393,147.85393,0,0,0-25.83649,38.33459c-.631,1.346-.03844,1.53182,1.06351,1.81207a160.9502,160.9502,0,0,0,23.5575,3.91177c1.98012.20033,2.30811-.5108,2.30017-2.27277-.06031-13.40634-.0305-26.81307-.04068-40.21967A3.61643,3.61643,0,0,0,284.51337,97.60373Zm14.1233,189.5681a202.64845,202.64845,0,0,0,24.71218-38.68669c.58156-1.21159-.04555-1.303-.94887-1.50255a152.00633,152.00633,0,0,0-21.87318-3.06622c-1.74958-.12665-2.30235.18607-2.291,2.04924.07966,13.0764.03935,26.15354.05154,39.23043A2.84407,2.84407,0,0,0,298.63667,287.17183Zm-14.00626.19527a12.11969,12.11969,0,0,0,.19839-1.2871q.01114-20.23128.02724-40.46251c.00265-1.22266-.36308-1.60584-1.63261-1.52a149.57444,149.57444,0,0,0-21.85591,3.26807c-1.54677.33789-1.75319.75731-1.04882,2.18574a196.59236,196.59236,0,0,0,14.223,24.27235C277.64071,278.34235,280.87438,282.76078,284.63041,287.3671Zm33.843-187.1307c.3548.60644.4899.89479.6753,1.146a165.87051,165.87051,0,0,1,18.671,32.0885c.45207,1.03389.90238,1.18851,1.95668.80362a151.95622,151.95622,0,0,0,18.199-8.00517c.67645-.35285,1.32849-.75245,2.14912-1.22A97.47863,97.47863,0,0,0,318.47338,100.2364Zm-53.823.23145a4.57728,4.57728,0,0,0-.921.00675,97.45991,97.45991,0,0,0-39.51678,23.19864c-.958.91569-.6912,1.24759.35449,1.77169a194.52671,194.52671,0,0,0,18.80545,8.13916c1.33731.50234,1.83974.16248,2.37831-1.0713a152.121,152.121,0,0,1,8.48669-16.41891A186.929,186.929,0,0,1,264.65037,100.46785Z"/></svg>