<svg id="Layer_1" data-name="Layer 1" xmlns="http://www.w3.org/2000/svg" viewBox="0 0 807 562"><defs><style>.cls-1{fill:#d3de2a;}.cls-2{fill:#606161;}</style></defs><path class="cls-1" d="M151.61,380.29h17.77a5,5,0,0,1,3.55,1.44,4.82,4.82,0,0,1,0,7,5,5,0,0,1-3.55,1.44H151a14.17,14.17,0,0,1-7.26-2.23,13.39,13.39,0,0,1-5.22-5l-11.36-22a22.14,22.14,0,0,1-2.29-9.73,19.89,19.89,0,0,1,2.17-9.55l11.48-21.74a15.31,15.31,0,0,1,5.1-5.36,12.08,12.08,0,0,1,6.68-2.31h19.45a4.73,4.73,0,0,1,3.49,1.46,4.78,4.78,0,0,1,1.44,3.46,4.91,4.91,0,0,1-1.44,3.54,4.65,4.65,0,0,1-3.48,1.5H151q-2.35,0-3.81,2.76l-10.92,20.38a11.71,11.71,0,0,0-1.28,5.68,12.67,12.67,0,0,0,1.4,6.11l10.42,20A4.92,4.92,0,0,0,151.61,380.29Z"/><path class="cls-1" d="M187.86,385.22v-68a4.78,4.78,0,0,1,1.44-3.46,4.94,4.94,0,0,1,8.41,3.46v29h30v-29a4.81,4.81,0,0,1,1.43-3.46,4.9,4.9,0,0,1,7,0,5,5,0,0,1,1.43,3.58v67.91a4.69,4.69,0,0,1-1.49,3.45,4.86,4.86,0,0,1-8.35-3.45V356H197.82v29.18a4.65,4.65,0,0,1-1.49,3.45,4.89,4.89,0,0,1-3.54,1.47,4.76,4.76,0,0,1-3.46-1.44A4.68,4.68,0,0,1,187.86,385.22Z"/><path class="cls-1" d="M251.46,375.37V317.31a4.9,4.9,0,0,1,1.47-3.55,4.64,4.64,0,0,1,3.45-1.49,5,5,0,0,1,4.92,4.92v58.18a4.57,4.57,0,0,0,1.47,3.37,4.78,4.78,0,0,0,3.46,1.44h20.15a4.8,4.8,0,0,0,3.49-1.41,4.57,4.57,0,0,0,1.43-3.4V317.31a4.92,4.92,0,0,1,1.44-3.58,4.89,4.89,0,0,1,7,0,4.92,4.92,0,0,1,1.44,3.58v57.95a14.36,14.36,0,0,1-4.37,10.48,14.15,14.15,0,0,1-10.4,4.4H266.23a14.82,14.82,0,0,1-14.77-14.77Z"/><path class="cls-1" d="M342.05,380.29h17.77a5,5,0,0,1,3.55,1.44,4.68,4.68,0,0,1,1.49,3.49,4.62,4.62,0,0,1-1.49,3.48,5,5,0,0,1-3.55,1.44H341.43a14.18,14.18,0,0,1-7.27-2.23,13.29,13.29,0,0,1-5.21-5l-11.37-22a22.14,22.14,0,0,1-2.29-9.73,20,20,0,0,1,2.17-9.55L329,319.94a15.19,15.19,0,0,1,5.09-5.36,12.08,12.08,0,0,1,6.68-2.31h19.46a4.72,4.72,0,0,1,3.48,1.46,4.78,4.78,0,0,1,1.44,3.46,4.91,4.91,0,0,1-1.44,3.54,4.63,4.63,0,0,1-3.48,1.5H341.44q-2.34,0-3.81,2.76l-10.92,20.38a11.71,11.71,0,0,0-1.28,5.68,12.67,12.67,0,0,0,1.4,6.11l10.42,20A4.93,4.93,0,0,0,342.05,380.29Z"/><path class="cls-1" d="M378.3,385.22v-68a4.78,4.78,0,0,1,1.44-3.46,4.94,4.94,0,0,1,8.41,3.46v29h30v-29a4.81,4.81,0,0,1,1.43-3.46,4.9,4.9,0,0,1,7,0,5,5,0,0,1,1.43,3.58v67.91a4.69,4.69,0,0,1-1.49,3.45,4.86,4.86,0,0,1-8.35-3.45V356H388.27v29.18a4.66,4.66,0,0,1-1.5,3.45,4.87,4.87,0,0,1-3.54,1.47,4.78,4.78,0,0,1-3.46-1.44A4.68,4.68,0,0,1,378.3,385.22Z"/><path class="cls-1" d="M441.9,375.37V317.31a4.9,4.9,0,0,1,1.47-3.55,4.65,4.65,0,0,1,3.45-1.49,5,5,0,0,1,4.93,4.92v58.18a4.56,4.56,0,0,0,1.46,3.37,4.78,4.78,0,0,0,3.46,1.44h20.15a4.8,4.8,0,0,0,3.49-1.41,4.58,4.58,0,0,0,1.44-3.4V317.31a4.91,4.91,0,0,1,1.43-3.58,4.89,4.89,0,0,1,7,0,4.92,4.92,0,0,1,1.44,3.58v57.95a14.36,14.36,0,0,1-4.37,10.48,14.15,14.15,0,0,1-10.4,4.4H456.67a14.82,14.82,0,0,1-14.77-14.77Z"/><path class="cls-1" d="M505.62,385.22v-73h34.8a14.15,14.15,0,0,1,10.4,4.39,14.38,14.38,0,0,1,4.37,10.49v5.62a14.38,14.38,0,0,1-4.34,10.52,14.18,14.18,0,0,1-10.43,4.37h-6.27l20.1,34.57a5.71,5.71,0,0,1,.94,3,4.53,4.53,0,0,1-1.53,3.43,4.92,4.92,0,0,1-3.47,1.44,4.81,4.81,0,0,1-4.45-2.63l-23-39.85h-7.11v37.56a4.63,4.63,0,0,1-1.5,3.48,4.91,4.91,0,0,1-3.54,1.44,4.9,4.9,0,0,1-4.92-4.92Zm9.84-47.41h25a4.88,4.88,0,0,0,4.92-4.92v-5.74a4.88,4.88,0,0,0-4.92-4.92h-25Z"/><path class="cls-1" d="M605.43,319.47l10.84,22.09a22,22,0,0,1,0,19.52l-10.84,21.85q-3.46,7.21-11.72,7.21a12.66,12.66,0,0,1-7.06-2.05,13.38,13.38,0,0,1-4.72-5.16L571,361.08a21.33,21.33,0,0,1-2.17-9.73,21.68,21.68,0,0,1,2.17-9.79l10.9-22.09a12.35,12.35,0,0,1,11.78-7.2Q601.92,312.27,605.43,319.47Zm-15,4.93-10.2,20.74a14.66,14.66,0,0,0-1.41,6.09,14,14,0,0,0,1.41,6.15l10.49,21a3,3,0,0,0,3,1.93,3.12,3.12,0,0,0,2.87-1.93l10.54-21a14.28,14.28,0,0,0,1.47-6.15,13.16,13.16,0,0,0-1.47-6.09L596.81,324.4a3.27,3.27,0,0,0-3.1-2.29A3.59,3.59,0,0,0,590.43,324.4Z"/><path class="cls-1" d="M662.23,342.74v32.75l2.87,4.8h4.1l3-4.92V317.31a5.09,5.09,0,0,1,5-5,5,5,0,0,1,4.92,4.92V377a6.66,6.66,0,0,1-1.23,3.11l-4.57,7.56a4.6,4.6,0,0,1-4.28,2.52h-9.26q-4.39,0-5.62-4a5.28,5.28,0,0,1-5.39,4h-8.68a5.79,5.79,0,0,1-5.39-2.76l-4.21-7.09a6.64,6.64,0,0,1-1.18-3.34V317.31a5.11,5.11,0,0,1,5-5,4.51,4.51,0,0,1,3.37,1.49,5,5,0,0,1,1.44,3.55v58.3l2.87,4.68h4.22l3.1-4.92V342.74a4.93,4.93,0,1,1,9.85,0Z"/><path class="cls-1" d="M409.54,262.23h18.51a5.18,5.18,0,0,1,3.69,1.49,5,5,0,0,1,0,7.27,5.18,5.18,0,0,1-3.69,1.49H408.89a14.76,14.76,0,0,1-7.57-2.32,13.88,13.88,0,0,1-5.44-5.19L384,242.09A23.25,23.25,0,0,1,381.66,232a20.78,20.78,0,0,1,2.26-9.94l12-22.65a15.84,15.84,0,0,1,5.31-5.58,12.55,12.55,0,0,1,7-2.41h20.27a4.89,4.89,0,0,1,3.63,1.52,5,5,0,0,1,1.49,3.6,5.18,5.18,0,0,1-1.49,3.7,4.88,4.88,0,0,1-3.63,1.55H408.9c-1.63,0-2.95,1-4,2.87l-11.37,21.23a12.22,12.22,0,0,0-1.34,5.93,13.25,13.25,0,0,0,1.46,6.35L404.53,259A5.17,5.17,0,0,0,409.54,262.23Z"/><path class="cls-2" d="M416.83,251.34h12.89a3.74,3.74,0,0,1,2.57,1,3,3,0,0,1,0,4.65,3.74,3.74,0,0,1-2.57,1H416.38a11,11,0,0,1-5.27-1.49,9.26,9.26,0,0,1-3.78-3.32l-8.25-14.65a13.86,13.86,0,0,1-1.65-6.48A12.41,12.41,0,0,1,399,225.6l8.33-14.49a10.56,10.56,0,0,1,3.69-3.57,9.26,9.26,0,0,1,4.85-1.55H430a3.55,3.55,0,0,1,2.53,1,3,3,0,0,1,1,2.3,3.15,3.15,0,0,1-1,2.37,3.51,3.51,0,0,1-2.52,1H416.39a3.18,3.18,0,0,0-2.77,1.84l-7.92,13.59a7.32,7.32,0,0,0-.92,3.79,7.86,7.86,0,0,0,1,4.07l7.56,13.36A3.6,3.6,0,0,0,416.83,251.34Z"/><path class="cls-1" d="M398,276.74h27.39a7.65,7.65,0,0,1,5.47,2.21,7.43,7.43,0,0,1,0,10.75,7.61,7.61,0,0,1-5.47,2.21H397.05a21.91,21.91,0,0,1-11.2-3.43q-5.79-3.44-8-7.68l-17.53-33.87a34.35,34.35,0,0,1-3.52-15,30.67,30.67,0,0,1,3.34-14.72l17.71-33.51a23.39,23.39,0,0,1,7.86-8.27,18.55,18.55,0,0,1,10.3-3.57h30a7.63,7.63,0,0,1,7.58,7.59,7.61,7.61,0,0,1-2.21,5.47,7.17,7.17,0,0,1-5.37,2.3H397.07c-2.41,0-4.37,1.42-5.88,4.25l-16.83,31.42a18.11,18.11,0,0,0-2,8.77,19.61,19.61,0,0,0,2.15,9.4L390.61,272A7.62,7.62,0,0,0,398,276.74Z"/></svg>