<svg id="Layer_1" data-name="Layer 1" xmlns="http://www.w3.org/2000/svg" viewBox="0 0 750.26 198.26"><defs><style>.cls-1{fill:#0f4d81;}</style></defs><path class="cls-1" d="M14,117.32q0-30.85,12.17-44.71T64.24,58.76q25.91,0,37.72,13.61t11.81,44.71q0,31.11-11.57,45.18T64.36,176.35q-26.26,0-38.32-14.09T14,117.32ZM72,95.14q-1.56-4.69-7.83-4.69t-8,4.69q-1.7,4.69-1.69,19.72v5.63q0,16.67,1.69,21.59T64,147q6.15,0,7.83-4.93t1.69-20.18v-6.81Q73.52,99.84,72,95.14Z"/><path class="cls-1" d="M159.54,69.79q13.26-11,29.16-11T211,65.92q6.38,7.15,6.38,21.48V174h-41V100.77q0-5.86-5.3-5.86a18.93,18.93,0,0,0-11.33,3.28V174H119.3V61.58h36.87l2.41,8.21Z"/><path class="cls-1" d="M275,58.76q24.81,0,35.54,11.62t10.73,33.21q0,2.82-1.69,25.35H264.64q0,17.59,16.63,17.6c5.3,0,23.15-4.59,38.58-8.19l-4.11,31.89a139.67,139.67,0,0,1-40.49,6.11q-24.83,0-38.08-15.85t-13.26-43.06Q223.91,58.76,275,58.76Zm-1,33.56c-4.18,0-6.91,1.38-8.19,4.11s-1.93,6.92-1.93,12.56h21v-5.64Q284.89,92.33,274,92.32Z"/><path class="cls-1" d="M422.42,69.79q13.24-11,29.16-11t22.29,7.16q6.38,7.15,6.39,21.48V174h-41V100.77q0-5.86-5.31-5.86a18.89,18.89,0,0,0-11.32,3.28V174H382.17V61.58H419l2.41,8.21Z"/><path class="cls-1" d="M575.87,69.79q13.26-11,29.16-11t22.3,7.16q6.38,7.15,6.38,21.48V174h-41V100.77q0-5.86-5.3-5.86a18.93,18.93,0,0,0-11.33,3.28V174H535.63V61.58H572.5l2.41,8.21Z"/><path class="cls-1" d="M310.77,53.1h10.06c-1.75,1.53-3.27,2.77-4.61,4.07a4.41,4.41,0,0,1-3.27.89c-6.16,0-12.32,0-18.85,0,.84-1.68,2.8-2.85,4.28-4.15,4.66-4.08,9.33-8.17,14.2-12.18,1.4-1.15,1.47-1.95.05-3.14-6.34-5.29-12.46-10.66-18.62-16,.92-.87,2.23-.54,3.27-.54,19.24,0,38.48,0,57.72-.06,2.74,0,4.19.55,5.56,1.76q8.2,7.27,16.77,14.43c1.22,1,1.37,1.71.07,2.74a69.43,69.43,0,0,0-8,6.91c-2.11,2.29-5,3.11-9.46,2.73-1-.09-2,0-4,0,3.56-3.08,6.64-6,10.11-8.67,1.72-1.36,1.54-2.3-.1-3.61-4.05-3.25-7.79-6.61-11.64-9.93A3.94,3.94,0,0,0,351.16,27c-13.31,0-26.61,0-40.59,0,4.58,4,8.61,7.67,13.07,11.21,1.9,1.52,1.73,2.53-.1,4C319.17,45.67,315.19,49.29,310.77,53.1Z"/><path class="cls-1" d="M366.61,22c6.68,0,12.82,0,19,0a4.77,4.77,0,0,1,3.72,1.37c5.73,5,11.47,9.91,17.31,14.83,1.16,1,1.41,1.72.13,2.79-6.26,5.25-12.36,10.56-18.47,15.86a5,5,0,0,1-3.8,1.29c-20.26,0-40.53,0-61.61,0,3-2.67,5.78-5.08,8.55-7.47,3.39-2.92,6.7-5.86,10.26-8.71,1.56-1.25,1.6-2.22,0-3.47-3.45-2.77-6.66-5.64-10.45-8.88,3.75,0,6.75,0,9.73,0a4,4,0,0,1,3.08,1.11c1.87,1.64,3.39,3.46,5.75,4.84,5.64,3.31,4.83,6.25-.14,9.55-3.52,2.34-6.11,5.1-9.09,7.65.84.84,2.16.47,3.19.47,11.61,0,23.21,0,34.82,0,2.43,0,4-.31,5.34-1.53q5.42-5,11.34-9.76c1.51-1.23,1.73-2.13.11-3.43-4.06-3.24-7.83-6.61-11.6-10A5,5,0,0,0,379.32,27C372.07,27.9,369.12,25.41,366.61,22Z"/><path class="cls-1" d="M365.08,156.87V146.82c1.71,1.75,3.1,3.26,4.55,4.6a4.09,4.09,0,0,1,1,3.27c0,6.16,0,12.32,0,18.86-1.88-.85-3.2-2.81-4.65-4.28-4.58-4.66-9.15-9.34-13.64-14.2-1.3-1.4-2.19-1.48-3.53-.06-5.92,6.34-11.93,12.46-17.87,18.62-1-.92-.61-2.23-.61-3.26,0-19.24,0-38.48-.06-57.73,0-2.74.61-4.18,2-5.55q8.14-8.22,16.16-16.77c1.15-1.23,1.92-1.38,3.07-.08a71.79,71.79,0,0,0,7.74,8c2.56,2.11,3.48,5,3.06,9.46-.1,1,0,2,0,4-3.46-3.56-6.67-6.63-9.72-10.1-1.51-1.73-2.57-1.55-4,.09-3.63,4-7.4,7.79-11.12,11.65a3.73,3.73,0,0,0-1.56,3.19c0,13.3,0,26.6,0,40.58,4.45-4.58,8.6-8.61,12.57-13.07,1.69-1.9,2.83-1.73,4.47.11C356.74,148.47,360.8,152.45,365.08,156.87Z"/><path class="cls-1" d="M330.2,101c0-6.67,0-12.82,0-19a4.54,4.54,0,0,1,1.53-3.73c5.55-5.73,11.1-11.47,16.62-17.3,1.1-1.17,1.92-1.41,3.12-.14,5.88,6.27,11.83,12.36,17.76,18.47a4.75,4.75,0,0,1,1.46,3.8c0,20.26,0,40.53,0,61.62-3-3.06-5.69-5.79-8.37-8.56-3.27-3.38-6.57-6.69-9.76-10.26-1.4-1.56-2.48-1.6-3.88,0-3.11,3.45-6.32,6.65-9.95,10.45,0-3.76,0-6.75,0-9.74a3.7,3.7,0,0,1,1.25-3.07c1.83-1.87,3.86-3.4,5.42-5.76,3.7-5.63,7-4.83,10.69.14,2.62,3.52,5.71,6.11,8.57,9.1.94-.85.53-2.17.53-3.2,0-11.6,0-23.21.05-34.82,0-2.43-.34-4-1.71-5.34q-5.55-5.42-10.93-11.34c-1.38-1.51-2.39-1.72-3.84-.1-3.64,4-7.41,7.82-11.16,11.59a4.71,4.71,0,0,0-1.66,4.47C336.85,95.57,334.05,98.52,330.2,101Z"/><path class="cls-1" d="M491.81,53.83q5.07,4.23,16.63,4.23t16.63-4.34q5.05-4.35,5.06-13.62t-5.06-13.73q-5.05-4.46-16.63-4.46t-16.63,4.46q-5.06,4.47-5.06,13.85T491.81,53.83Zm8.2-18q1.92-4.1,8.19-4.1,10.84,0,10.84,11v5.63h-21Q498.08,39.93,500,35.81Z"/><rect class="cls-1" x="488.68" y="62.75" width="39.76" height="111.25"/><path class="cls-1" d="M690,58.76q24.81,0,35.54,11.62t10.73,33.21q0,2.82-1.69,25.35h-55q0,17.59,16.63,17.6c5.3,0,23.15-4.59,38.58-8.19l-4.11,31.89a139.67,139.67,0,0,1-40.49,6.11q-24.82,0-38.08-15.85T638.9,117.44Q638.9,58.76,690,58.76Zm-1,33.56c-4.18,0-6.91,1.38-8.19,4.11s-1.93,6.92-1.93,12.56h21v-5.64Q699.88,92.33,689,92.32Z"/></svg>