<svg id="Layer_1" data-name="Layer 1" xmlns="http://www.w3.org/2000/svg" viewBox="0 0 1280 437"><defs><style>.cls-1{fill:#fdfdfd;}</style></defs><path class="cls-1" d="M94.97129,91.3752q544.23313,0,1088.46631-.03269c1.32554-.00012,1.62473.29782,1.62413,1.62177q-.055,125.53571,0,251.07141c.0006,1.324-.29859,1.62191-1.62413,1.62178q-543.43765-.05031-1086.87524,0c-1.32552.00011-1.62466-.29784-1.62409-1.6218Q94.99326,217.70547,94.97129,91.3752ZM536.28522,218.71788q0,51.37761-.041,102.75516c-.00272,1.69389.38891,2.12336,2.106,2.12217q102.8849-.07161,205.76983-.00028c1.71014.00119,2.11166-.41625,2.11046-2.11711q-.07161-102.75519.00159-205.51039c.00125-1.71424-.41619-2.09287-2.10726-2.0917q-102.885.07119-205.76992.00049c-1.68252-.00115-2.1162.36356-2.11326,2.08651Q536.32916,167.34019,536.28522,218.71788ZM221.73932,323.55456q51.43706,0,102.87408.031c1.51713.00179,2.04988-.25521,2.04863-1.9507q-.0759-102.92109-.00693-205.84223c.00093-1.52059-.31334-1.91758-1.89068-1.91651q-103.05108.06974-206.10217-.00378c-1.63593-.00122-1.86111.48431-1.86033,1.94612q.05469,102.83285-.00781,205.6657c-.00112,1.66157.33144,2.11793,2.07093,2.11489Q170.30206,323.50935,221.73932,323.55456Zm838.8281-.00028q51.5254,0,103.05082.04541c1.75516.00313,2.06238-.47744,2.06134-2.12409q-.06771-102.74442.00043-205.48886c.00113-1.644-.29746-2.117-2.05262-2.11566q-102.87422.08012-205.74842.0008c-1.73911-.00133-2.06385.44529-2.06272,2.10594q.07043,102.65615.00146,205.31232c-.00121,1.75842.32466,2.31624,2.22924,2.31253Q1009.30705,323.50283,1060.56742,323.55428Zm-213.59033-32.6051q30.31728,0,60.63438.03263c1.37967.00323,1.72909-.33672,1.72435-1.71943q-.07964-22.95176-.00553-45.90382c.00371-1.31675-.24273-1.78312-1.69465-1.76707q-11.224.12409-22.4499.00249c-1.506-.01582-1.99531.28538-1.97295,1.90384.10039,7.23731.00569,14.47717.07656,21.71519.01381,1.41321-.28451,1.88334-1.80281,1.87778q-23.86445-.08742-47.72949-.00814c-1.26892.0034-1.69319-.23374-1.68585-1.61655q.09387-17.83143.0038-35.66352c-.00648-1.37454.33069-1.75029,1.73229-1.74349,12.13844.059,24.27723.01654,36.41576.06151,1.18605.00439,1.58873-.21523,1.57518-1.50044q-.10644-10.06245.00268-20.12637c.01553-1.33791-.33493-1.62737-1.64191-1.62144-12.13845.05507-24.27723.01189-36.41576.06263-1.29542.00542-1.67912-.27532-1.67083-1.63265q.09479-15.62444-.00147-31.24958c-.00854-1.35416.36333-1.61269,1.64951-1.60875q23.2459.07131,46.49208-.00024c1.29525-.004,1.68248.26412,1.66548,1.62106-.08011,6.41379-.03824,12.82913-.03237,19.24392.00069.71651-.27,1.50455,1.03654,1.49646,8.01351-.0497,16.02763-.03614,24.0414-.00815.845.00294,1.09955-.244,1.09826-1.09253q-.03393-22.06919.00673-44.13838c.00225-1.0004-.38689-1.15109-1.23093-1.11756-1.35317.05374-2.71.01434-4.06529.01434q-58.15952,0-116.31907-.0322c-1.3785-.00143-1.73471.33595-1.71969,1.71532q.11324,10.41545.00225,20.83265c-.0123,1.25638.32931,1.54226,1.55149,1.52661,5.47917-.07016,10.96016.00462,16.43951-.05855,1.17418-.01354,1.58075.19,1.579,1.48969q-.06209,46.78668-.006,93.57345c.00125,1.19841-.25093,1.59421-1.52425,1.57648-5.36122-.07467-10.72481.0183-16.08577-.06448-1.453-.02244-1.99815.20563-1.9698,1.86122.11572,6.76594.09975,13.53565.00812,20.30232-.02025,1.4941.38421,1.80274,1.83138,1.799Q816.74818,290.90634,846.97709,290.94918ZM431.5735,146.46278q-24.21473,0-48.42938-.02906c-1.33306-.0037-1.77845.26088-1.76071,1.69931q.12724,10.32527.00257,20.65279c-.01591,1.4.367,1.7291,1.7393,1.72162,10.78141-.05867,21.56352-.00108,32.34482-.06875,1.50069-.00942,1.944.27744,1.941,1.88419q-.08636,46.42642-.00218,92.853c.00279,1.58759-.4106,1.926-1.9436,1.916-10.78128-.07047-21.56343-.00851-32.3448-.072-1.43094-.00841-1.74325.42015-1.72991,1.77517q.10083,10.23757.00507,20.47664c-.00952,1.216.15058,1.71571,1.58042,1.71364q48.51776-.07026,97.03562-.00151c1.36771.00187,1.632-.38192,1.61964-1.66422-.06569-6.82506-.07873-13.65171.00643-20.47636.01878-1.50182-.42668-1.8304-1.86833-1.82217-10.78139.0615-21.56352.00135-32.34482.07028-1.50352.00961-1.804-.43343-1.80206-1.85848q.06357-46.51476-.00829-93.0296c-.00269-1.54381.46316-1.76894,1.85629-1.76134,10.89929.05946,21.79907.01605,32.69846.05816,1.13128.00437,1.4703-.26176,1.46038-1.43475-.05879-6.9429-.07756-13.88716.01014-20.82945.01865-1.47142-.34295-1.81594-1.81373-1.81049C463.74188,146.485,447.65765,146.46278,431.5735,146.46278Z"/><path d="M536.28522,218.71788q0-51.37761-.04359-102.75515c-.00294-1.72295.43074-2.08766,2.11326-2.08651q102.885.07027,205.76992-.00049c1.69107-.00117,2.10851.37746,2.10726,2.0917q-.07458,102.75518-.00159,205.51039c.0012,1.70086-.40032,2.1183-2.11046,2.11711q-102.8849-.07106-205.76983.00028c-1.7171.00119-2.10873-.42828-2.106-2.12217Q536.32634,270.09553,536.28522,218.71788Zm143.013,5.226a9.49072,9.49072,0,0,1,3.35456-.83088c9.71908-2.00193,16.11188-7.54344,18.59093-17.28807a55.44258,55.44258,0,0,0,1.6423-10.96416c.48383-9.82661.57636-19.65576-1.93847-29.25683-2.24283-8.56283-6.96268-15.09975-15.98619-17.604a45.14741,45.14741,0,0,0-12.05808-1.45609q-44.36185-.06213-88.72389-.05133c-1.278-.00162-1.66966.24418-1.66849,1.61031q.06091,70.60716-.00087,141.21439c-.00116,1.35415.361,1.61393,1.64562,1.60518,8.83663-.06037,17.67425-.07387,26.51053.00886,1.50971.01416,1.79254-.40535,1.78818-1.8347-.05335-17.5928-.02024-35.18586-.06453-52.77872-.00328-1.29554.27917-1.67444,1.63553-1.66734,11.48784.0601,22.97616.02535,34.4643.03971,3.53307.00442,7.07123-.0356,10.598.13379,7.94886.38182,12.18268,3.00053,13.03545,11.86679.55249,5.74372.4654,11.50519.75012,17.2552.42427,8.56928.98462,17.12268,2.16036,25.63021.16379,1.1852.6231,1.33911,1.64717,1.33469,8.30666-.036,16.61354-.0202,24.92037-.02022,2.37926,0,2.38686-.0008,2.1566-2.29753-.86787-8.65607-1.19628-17.34592-1.65629-26.02793-.36643-6.91619-.18723-13.86627-1.45437-20.72619-1.49474-8.09212-5.92421-13.50436-14.01653-15.676-1.98426-.53249-3.98121-1.01761-5.96387-1.55574C680.19806,224.48008,679.55083,224.69228,679.29821,223.9439Z"/><path d="M221.73932,323.55456q-51.43717,0-102.87428.04453c-1.73949.003-2.072-.45332-2.07093-2.11489q.06932-102.83283.00781-205.6657c-.00078-1.46181.2244-1.94734,1.86033-1.94612q103.051.07669,206.10217.00378c1.57734-.00107,1.89161.39592,1.89068,1.91651q-.06282,102.92111.00693,205.84223c.00125,1.69549-.5315,1.95249-2.04863,1.9507Q273.17642,323.525,221.73932,323.55456ZM221.56451,183.984l.46523-.019c.15415.53608.33966,1.06535.45792,1.60922q6.24822,28.73856,12.48605,57.47939c3.0303,13.938,6.02349,27.88432,9.13708,41.80375,1.09534,4.89672,3.17536,6.578,8.1239,6.65109q11.222.16575,22.44826.00349c5.0536-.06627,7.39579-1.90638,8.33807-6.42167q5.01915-24.0519,9.94429-48.12334,6.2942-30.53328,12.58235-61.06783,2.86387-13.88667,5.76071-27.76652c.22761-1.08822.23227-1.65911-1.23-1.64621-8.24835.07277-16.49775.05184-24.74653.01377-1.01863-.0047-1.39851.26714-1.57743,1.31857q-4.6994,27.6153-9.48258,55.21639-4.84005,28.21881-9.65574,56.44176c-.086.50088-.05134,1.13388-.59206,1.45631-.48375-.27458-.40651-.6716-.47693-.995q-5.62068-25.81308-11.22838-51.629-5.89907-27.19216-11.79029-54.386c-1.29165-5.90867-3.6402-7.75492-9.70736-7.80454q-8.1306-.06648-16.2621.00244c-5.98547.06029-8.3802,2.02549-9.65934,7.88721q-11.48791,52.64415-22.95347,105.29319c-.12567.57645-.10439,1.23472-.62613,1.62312-.47287-.21253-.40806-.53912-.45475-.80938q-2.59431-15.01621-5.18051-30.03383-3.43089-20.05926-6.831-40.12377-3.58227-21.01707-7.157-42.03541c-.193-1.14378-.66143-1.452-1.82644-1.43489-5.30177.07783-10.60534.03413-15.90825.03413H131.90182c.09084.64736.13461,1.17323.24094,1.68617q5.84586,28.19747,11.70307,56.39256,8.29389,39.92109,16.59041,79.84161c1.01807,4.90491,2.6322,6.4211,7.62,7.01954a13.39726,13.39726,0,0,0,1.58483.07336q10.42908.00693,20.85816.002c5.901-.00384,8.23883-1.863,9.46893-7.55926q9.387-43.46919,18.76456-86.9404Q220.14179,190.50909,221.56451,183.984Z"/><path d="M1060.56742,323.55428q-51.26024,0-102.52047.04839c-1.90458.00371-2.23045-.55411-2.22924-2.31253q.06876-102.65614-.00146-205.31232c-.00113-1.66065.32361-2.10727,2.06272-2.10594q102.87422.0786,205.74842-.0008c1.75516-.00137,2.05375.47168,2.05262,2.11566q-.06835,102.74441-.00043,205.48886c.001,1.64665-.30618,2.12722-2.06134,2.12409Q1112.093,323.508,1060.56742,323.55428Zm-58.39289-104.7828q0,35.221-.03358,70.44193c-.00276,1.38864.35616,1.71163,1.72374,1.70919,24.5709-.04377,49.14188.00362,73.71269-.0559a82.42924,82.42924,0,0,0,19.08313-2.09957c12.72085-3.05018,21.8145-10.31774,26.468-22.73817a74.67878,74.67878,0,0,0,3.88142-15.52222c2.258-15.54088,2.29337-31.16867,1.60634-46.80957a121.76027,121.76027,0,0,0-4.03964-28.01637c-3.88116-13.699-12.41623-22.77455-26.29887-26.57685a84.02914,84.02914,0,0,0-22.027-2.55068c-24.04036-.08549-48.08125-.01314-72.1217-.07307-1.65054-.00411-1.99324.45415-1.98978,2.0259Q1002.216,183.63867,1002.17453,218.77148Z"/><path d="M846.97709,290.94918q-30.22884,0-60.45755.03526c-1.44717.00373-1.85163-.30491-1.83138-1.799.09163-6.76667.1076-13.53638-.00812-20.30232-.02835-1.65559.51681-1.88366,1.9698-1.86122,5.361.08278,10.72455-.01019,16.08577.06448,1.27332.01773,1.5255-.37807,1.52425-1.57648q-.04979-46.78669.006-93.57345c.00173-1.2997-.40484-1.50323-1.579-1.48969-5.47935.06317-10.96034-.01161-16.43951.05855-1.22218.01565-1.56379-.27023-1.55149-1.52661q.10158-10.41567-.00225-20.83265c-.015-1.37937.34119-1.71675,1.71969-1.71532q58.15945.06009,116.31907.0322c1.35533,0,2.71212.0394,4.06529-.01434.844-.03353,1.23318.11716,1.23093,1.11756q-.04984,22.06911-.00673,44.13838c.00129.84854-.25327,1.09547-1.09826,1.09253-8.01377-.028-16.02789-.04155-24.0414.00815-1.30656.00809-1.03585-.78-1.03654-1.49646-.00587-6.41479-.04774-12.83013.03237-19.24392.017-1.35694-.37023-1.62507-1.66548-1.62106q-23.24591.072-46.49208.00024c-1.28618-.00394-1.65805.25459-1.64951,1.60875q.09879,15.62439.00147,31.24958c-.00829,1.35733.37541,1.63807,1.67083,1.63265,12.13853-.05074,24.27731-.00756,36.41576-.06263,1.307-.00593,1.65744.28353,1.64191,1.62144q-.11706,10.06218-.00268,20.12637c.01355,1.28521-.38913,1.50483-1.57518,1.50044-12.13853-.045-24.27732-.00254-36.41576-.06151-1.4016-.0068-1.73877.369-1.73229,1.74349q.08377,17.83155-.0038,35.66352c-.00734,1.38281.41693,1.62,1.68585,1.61655q23.8647-.06372,47.72949.00814c1.5183.00556,1.81662-.46457,1.80281-1.87778-.07087-7.238.02383-14.47788-.07656-21.71519-.02236-1.61846.467-1.91966,1.97295-1.90384q11.22421.11793,22.4499-.00249c1.45192-.01605,1.69836.45032,1.69465,1.76707q-.06538,22.95181.00553,45.90382c.00474,1.38271-.34468,1.72266-1.72435,1.71943Q877.29433,290.91062,846.97709,290.94918Z"/><path d="M431.5735,146.46278c16.08415,0,32.16838.02225,48.25234-.03734,1.47078-.00545,1.83238.33907,1.81373,1.81049-.0877,6.94229-.06893,13.88655-.01014,20.82945.00992,1.173-.3291,1.43912-1.46038,1.43475-10.89939-.04211-21.79917.0013-32.69846-.05816-1.39313-.0076-1.859.21753-1.85629,1.76134q.08132,46.51472.00829,93.0296c-.00194,1.425.29854,1.86809,1.80206,1.85848,10.7813-.06893,21.56343-.00878,32.34482-.07028,1.44165-.00823,1.88711.32035,1.86833,1.82217-.08516,6.82465-.07212,13.6513-.00643,20.47636.01234,1.2823-.25193,1.66609-1.61964,1.66422q-48.51776-.06663-97.03562.00151c-1.42984.00207-1.58994-.49766-1.58042-1.71364q.08021-10.23795-.00507-20.47664c-.01334-1.355.299-1.78358,1.72991-1.77517,10.78137.06348,21.56352.00152,32.3448.072,1.533.01,1.94639-.32842,1.9436-1.916q-.08166-46.42644.00218-92.853c.003-1.60675-.44032-1.89361-1.941-1.88419-10.7813.06767-21.56341.01008-32.34482.06875-1.37231.00748-1.75521-.32162-1.7393-1.72162q.11727-10.3255-.00257-20.65279c-.01774-1.43843.42765-1.703,1.76071-1.69931Q407.35865,146.501,431.5735,146.46278Z"/><path class="cls-1" d="M679.29821,223.9439c.25262.74838.89985.53618,1.3684.66337,1.98266.53813,3.97961,1.02325,5.96387,1.55574,8.09232,2.17162,12.52179,7.58386,14.01653,15.676,1.26714,6.85992,1.08794,13.81,1.45437,20.72619.46,8.682.78842,17.37186,1.65629,26.02793.23026,2.29673.22266,2.29753-2.1566,2.29753-8.30683,0-16.61371-.01575-24.92037.02022-1.02407.00442-1.48338-.14949-1.64717-1.33469-1.17574-8.50753-1.73609-17.06093-2.16036-25.63021-.28472-5.75-.19763-11.51148-.75012-17.2552-.85277-8.86626-5.08659-11.485-13.03545-11.86679-3.52673-.16939-7.06489-.12937-10.598-.13379-11.48814-.01436-22.97646.02039-34.4643-.03971-1.35636-.0071-1.63881.3718-1.63553,1.66734.04429,17.59286.01118,35.18592.06453,52.77872.00436,1.42935-.27847,1.84886-1.78818,1.8347-8.83628-.08273-17.6739-.06923-26.51053-.00886-1.28467.00875-1.64678-.251-1.64562-1.60518q.06236-70.60717.00087-141.21439c-.00117-1.36613.39051-1.61193,1.66849-1.61031q44.36193.05639,88.72389.05133a45.14741,45.14741,0,0,1,12.05808,1.45609c9.02351,2.5043,13.74336,9.04122,15.98619,17.60405,2.51483,9.60107,2.4223,19.43022,1.93847,29.25683a55.44258,55.44258,0,0,1-1.6423,10.96416c-2.47905,9.74463-8.87185,15.28614-18.59093,17.28807A9.49072,9.49072,0,0,0,679.29821,223.9439Zm-39.71736-52.8155-.00013-.1256c-8.484,0-16.96818.0351-25.45154-.03455-1.41432-.01162-1.74692.38712-1.74092,1.76089q.08048,18.44661-.007,36.89356c-.00859,1.538.47826,1.79536,1.88732,1.78907,12.49-.05578,24.98035-.02455,37.4706-.03672,4.29614-.00418,8.59022.04985,12.886-.2542,3.7875-.26807,6.23077-2.05974,7.45549-5.64734a30.60721,30.60721,0,0,0,1.49676-8.1172c.38715-6.4644.61167-12.94117-.89981-19.3059-1.17974-4.96783-3.32849-6.80823-8.36022-6.88707C656.07371,171.0342,647.82657,171.1284,639.58085,171.1284Z"/><path class="cls-1" d="M221.56451,183.984q-1.41623,6.5265-2.83179,13.05312-9.383,43.47-18.76456,86.9404c-1.2301,5.6963-3.56788,7.55542-9.46893,7.55926q-10.42908.00678-20.85816-.002a13.39726,13.39726,0,0,1-1.58483-.07336c-4.9878-.59844-6.60193-2.11463-7.62-7.01954q-8.28636-39.92264-16.59041-79.84161-5.85771-28.195-11.70307-56.39256c-.10633-.51294-.1501-1.03881-.24094-1.68617H143.962c5.30291,0,10.60648.0437,15.90825-.03413,1.165-.0171,1.63346.29111,1.82644,1.43489q3.54707,21.023,7.157,42.03541,3.41936,20.06124,6.831,40.12377,2.56906,15.02053,5.18051,30.03383c.04669.27026-.01812.59685.45475.80938.52174-.3884.50046-1.04667.62613-1.62312q11.4772-52.6465,22.95347-105.29319c1.27914-5.86172,3.67387-7.82692,9.65934-7.88721q8.13033-.08192,16.2621-.00244c6.06716.04962,8.41571,1.89587,9.70736,7.80454q5.94222,27.18274,11.79029,54.386,5.60082,25.81739,11.22838,51.629c.07042.32337-.00682.72039.47693.995.54072-.32243.50607-.95543.59206-1.45631q4.84411-28.21809,9.65574-56.44176,4.73552-27.6092,9.48258-55.21639c.17892-1.05143.5588-1.32327,1.57743-1.31857,8.24878.03807,16.49818.059,24.74653-.01377,1.4623-.0129,1.45764.558,1.23,1.64621q-2.90265,13.8786-5.76071,27.76652-6.29678,30.53275-12.58235,61.06783-4.96062,24.064-9.94429,48.12334c-.94228,4.51529-3.28447,6.3554-8.33807,6.42167q-11.22257.14719-22.44826-.00349c-4.94854-.07309-7.02856-1.75437-8.1239-6.65109-3.11359-13.91943-6.10678-27.86576-9.13708-41.80375q-6.24815-28.73857-12.48605-57.47939c-.11826-.54387-.30377-1.07314-.45792-1.60922Z"/><path class="cls-1" d="M1002.17453,218.77148q0-35.13273-.0353-70.26538c-.00346-1.57175.33924-2.03,1.98978-2.0259,24.04045.05993,48.08134-.01242,72.1217.07307a84.02914,84.02914,0,0,1,22.027,2.55068c13.88264,3.8023,22.41771,12.87786,26.29887,26.57685a121.76027,121.76027,0,0,1,4.03964,28.01637c.687,15.6409.65164,31.26869-1.60634,46.80957a74.67878,74.67878,0,0,1-3.88142,15.52222c-4.65347,12.42043-13.74712,19.688-26.468,22.73817a82.42924,82.42924,0,0,1-19.08313,2.09957c-24.57081.05952-49.14179.01213-73.71269.0559-1.36758.00244-1.7265-.32055-1.72374-1.70919Q1002.21127,253.99254,1002.17453,218.77148Zm29.75826-.09252c0,15.35659.01684,30.71325-.02935,46.0697-.00405,1.3355.26976,1.761,1.70355,1.75455,13.6084-.06114,27.21706-.03007,40.82572-.04149a52.20606,52.20606,0,0,0,8.79-.67787c6.77463-1.16182,11.484-4.76952,13.54124-11.51327a64.06706,64.06706,0,0,0,2.3355-14.5757c.74175-11.211.80339-22.43351.425-33.66043-.23945-7.10851-.55892-14.20656-2.19194-21.17217-1.7171-7.32456-6.17592-11.81985-13.63741-13.21273a46.5225,46.5225,0,0,0-8.44-.631c-13.84423-.03464-27.68863.00948-41.53269-.05261-1.4716-.0066-1.83216.34585-1.82647,1.81993C1031.95576,188.08337,1031.93279,203.3812,1031.93279,218.679Z"/><path d="M639.58085,171.1284c8.24572,0,16.49286-.0942,24.73654.03494,5.03173.07884,7.18048,1.91924,8.36022,6.88707,1.51148,6.36473,1.287,12.8415.89981,19.3059a30.60721,30.60721,0,0,1-1.49676,8.1172c-1.22472,3.5876-3.668,5.37927-7.45549,5.64734-4.2958.30405-8.58988.25-12.886.2542-12.49025.01217-24.98058-.01906-37.4706.03672-1.40906.00629-1.89591-.25106-1.88732-1.78907q.103-18.44637.007-36.89356c-.006-1.37377.3266-1.77251,1.74092-1.76089,8.48336.06965,16.96758.03455,25.45154.03455Z"/><path d="M1031.93279,218.679c0-15.29776.023-30.59559-.03686-45.89312-.00569-1.47408.35487-1.82653,1.82647-1.81993,13.84406.06209,27.68846.018,41.53269.05261a46.5225,46.5225,0,0,1,8.44.631c7.46149,1.39288,11.92031,5.88817,13.63741,13.21273,1.633,6.96561,1.95249,14.06366,2.19194,21.17217.37835,11.22692.31671,22.44938-.425,33.66043a64.06706,64.06706,0,0,1-2.3355,14.5757c-2.0572,6.74375-6.76661,10.35145-13.54124,11.51327a52.20606,52.20606,0,0,1-8.79.67787c-13.60866.01142-27.21732-.01965-40.82572.04149-1.43379.00644-1.7076-.41905-1.70355-1.75455C1031.94963,249.39221,1031.93279,234.03555,1031.93279,218.679Z"/></svg>