<svg id="Layer_1" data-name="Layer 1" xmlns="http://www.w3.org/2000/svg" viewBox="0 0 461.98 257.36"><defs><style>.cls-1{fill:#8f3c1f;}.cls-2{fill:#231f20;}</style></defs><path class="cls-1" d="M164,262.27c.37-18.95-2.65-38,1.66-56.84,3.73-16.29,12-23.08,31.41-26,39.21-5.92,78.5-11.45,117.7-17.42,62-9.44,123.36-6.05,184.71,4.7,31.15,5.46,62.87,8.56,94.26,13.11,17.29,2.5,26.07,10.48,29.57,25,2,8.27,2,16.62,2,25,0,24.31-.1,48.63-.06,72.94a79.52,79.52,0,0,1-1.84,16.61c-3.27,15.48-12.87,24-31.36,26.26-56.13,7-111.81,16.44-168.18,22.08-26.43,2.64-52.86.83-79.33-1.61-49.48-4.54-97.94-14-147-20.33-21.2-2.73-32.49-14-33.36-34.84C163.44,294.7,164,278.48,164,262.27Zm3.1,2.18c-.23,14.92-1.34,31.87.53,48.83s11,27,28,29.28c47.24,6.27,94,15.07,141.46,20.09,32.6,3.45,65.21,5.34,97.75,1.22,51.3-6.49,102.45-13.75,153.63-20.86,22.56-3.14,31.59-11.1,32.68-30.36a899,899,0,0,0,0-100.26c-1.09-19.59-11.32-27.86-34.32-30.89-35.46-4.66-71-8.95-106.22-14.78a530.26,530.26,0,0,0-161-2.41c-39,5.44-77.81,11.48-116.74,17.13-25.13,3.65-33.33,11.23-35.47,32.39C165.76,230,167,246.22,167.09,264.45Z" transform="translate(-163.31 -156.48)"/><path class="cls-1" d="M277.76,252.49a2.31,2.31,0,0,1-.75-.1l-.61-.21a2.71,2.71,0,0,0-1.49-.15,16,16,0,0,1-1.64-1.18l-1.45-1.19v-.2a5.71,5.71,0,0,1-1.77-1,12.48,12.48,0,0,1-1.7-1.56,9.21,9.21,0,0,1-1.3-1.75,3.29,3.29,0,0,1-.51-1.57h-.73a1,1,0,0,0-.17-.57c-.11-.17-.23-.35-.36-.52s-.28-.37-.41-.57a2.66,2.66,0,0,1-.33-.72.79.79,0,0,0-.08-.29,3.07,3.07,0,0,0-.2-.41,4.23,4.23,0,0,1-.22-.42l-.15-.3.65-.2a1.09,1.09,0,0,1-.54-.56,3.51,3.51,0,0,1-.27-.85,7,7,0,0,1-.1-.85c0-.27,0-.46,0-.6h-1v-6A1.3,1.3,0,0,0,263,230c.05-.34.12-.7.2-1.1a5,5,0,0,1,.39-1.17,2,2,0,0,1,1-.95,1,1,0,0,1-.28-.22.51.51,0,0,1,0-.26,2.88,2.88,0,0,1,.32-1.12,11.1,11.1,0,0,1,.8-1.4,10.33,10.33,0,0,1,1-1.31,4.32,4.32,0,0,1,1-.85l-.37-.22a2,2,0,0,0,.53-.4c.17-.17.33-.34.49-.52l.45-.53a1.79,1.79,0,0,1,.45-.42,3.07,3.07,0,0,1,.2-.27.47.47,0,0,0,.12-.24l.33.28c-.06-.39.19-.86.75-1.39a18.87,18.87,0,0,1,1.91-1.57c.72-.52,1.38-1,2-1.38s.95-.69,1-.84l.32.25a3.44,3.44,0,0,1,1.35-.76c.78-.32,1.67-.64,2.66-.95s1.95-.57,2.87-.79a9.92,9.92,0,0,1,1.91-.33h1a2.23,2.23,0,0,1,.43.13,1.55,1.55,0,0,0,.51.13l.28-.26h.33c.05.14.26.17.61.1a5.92,5.92,0,0,1,1-.1c0,.1.07.12.22.07a1.82,1.82,0,0,1,.3-.07.58.58,0,0,1,.25.09l.34.17.37.17a.83.83,0,0,0,.31.08,1.78,1.78,0,0,0,.5-.12,1.77,1.77,0,0,1,.43-.13l1.59.48c.4.13.79.25,1.16.35s.6.17.71.19a4.51,4.51,0,0,1,1.66.63,17.79,17.79,0,0,1,1.53,1l1.28,1a2.9,2.9,0,0,0,.9.54.83.83,0,0,0-.27.24.49.49,0,0,0-.06.27,1,1,0,0,0,.1.38c.07.16.15.33.25.52a3.11,3.11,0,0,0,.3.51.94.94,0,0,0,.33.31.83.83,0,0,0-.23.46,2.07,2.07,0,0,1-.47.78,3.07,3.07,0,0,1-1.13.73,6.1,6.1,0,0,1-2.28.33,13.78,13.78,0,0,1-1.69-.12,12.85,12.85,0,0,1-1.87-.35,9.37,9.37,0,0,1-1.69-.62,2.38,2.38,0,0,1-1.05-.89l-.61.14v-.23c0-.11-.11-.22-.33-.31a7.11,7.11,0,0,0-.75-.27c-.29-.08-.56-.15-.82-.2a5,5,0,0,0-.5-.07v-.2l-.8,0c-.39,0-.65,0-.79,0a11.84,11.84,0,0,0-1.24.25,13.14,13.14,0,0,0-1.3.41c-.42.16-.83.33-1.22.51a6.76,6.76,0,0,0-1,.53.76.76,0,0,0-.22.14l-.31.22-.28.22a.56.56,0,0,1-.16.1H279c-.16,0-.41.21-.75.59s-.69.81-1.06,1.29l-1,1.37a8.87,8.87,0,0,1-.64.82,3.61,3.61,0,0,0-.38.23l-.63.42c-.22.16-.42.31-.59.46a2.74,2.74,0,0,0-.31.28,8.68,8.68,0,0,0-.89,1.57c-.35.75-.69,1.54-1,2.38s-.61,1.62-.85,2.34a5.51,5.51,0,0,0-.37,1.44,3.22,3.22,0,0,0,.14.89c.1.31.21.63.33.94s.23.61.33.9a2.87,2.87,0,0,1,.14.81l-.33.45a.26.26,0,0,0,0,.14.33.33,0,0,0,.29.12,1.08,1.08,0,0,1,0,.3c0,.06-.13.11-.29.15l.69.26a2.09,2.09,0,0,1,.31.92c0,.35.08.71.12,1.09a9.25,9.25,0,0,0,.2,1.13,2.51,2.51,0,0,0,.59,1,12.13,12.13,0,0,0,2.12,2,16.94,16.94,0,0,0,2.91,1.77,19.06,19.06,0,0,0,3.39,1.26,13.77,13.77,0,0,0,3.58.48c.33,0,.69,0,1.1-.06s.82-.08,1.24-.14.83-.13,1.22-.21.74-.18,1-.27c-.09-.08-.06-.17.08-.28a2.37,2.37,0,0,1,.51-.34q.3-.18.6-.33a.81.81,0,0,0,.35-.24l.22-.27c.1-.12.2-.26.31-.41s.2-.29.28-.41a1.74,1.74,0,0,0,.17-.27,12.84,12.84,0,0,0,.22-1.87c0-.75.06-1.45.06-2.09a4,4,0,0,0-.1-.91,2.07,2.07,0,0,0-.39-.82,2,2,0,0,0-.79-.6,3.3,3.3,0,0,0-1.32-.22,8.61,8.61,0,0,0-1.38.1q-.66.09-1.26.21l-1.22.21a7.83,7.83,0,0,1-1.31.1c-.54,0-1,0-1.38,0a4.31,4.31,0,0,1-1-.19,3.31,3.31,0,0,1-.83-.39,8,8,0,0,1-.83-.65,1.83,1.83,0,0,1-.31-.16,3,3,0,0,1-.42-.27,4,4,0,0,1-.37-.27c-.11-.08-.16-.14-.16-.18v-.65a3.31,3.31,0,0,1,.26-1.22,4.41,4.41,0,0,1,.77-1.27,4.21,4.21,0,0,1,1.29-1,3.89,3.89,0,0,1,1.78-.39l.94,0a10.36,10.36,0,0,1,1.12.11,6.46,6.46,0,0,1,1,.25,1.36,1.36,0,0,1,.7.49h4.59a8.86,8.86,0,0,1,4-.88,2.51,2.51,0,0,1,.67.08l.51.17.5.17a2,2,0,0,0,.63.09v.39l1.55,1.14a.51.51,0,0,0,.12.48.74.74,0,0,1,.21.37l.42,0c.15,0,.23.06.23.21v2.55a2.64,2.64,0,0,0-1,1.18,7,7,0,0,0-.47,1.57,10.06,10.06,0,0,0-.14,1.63v1.31a7.2,7.2,0,0,0,.14,1.42c.1.45.21.9.33,1.34s.23.89.32,1.32a6.1,6.1,0,0,1,.15,1.36v1a3.35,3.35,0,0,1-.57.44c-.28.18-.57.36-.88.54a6.6,6.6,0,0,1-.93.45,2.13,2.13,0,0,1-.76.19v-.26a10.38,10.38,0,0,1-1,.51c-.46.23-.95.46-1.47.7s-1,.43-1.44.6a3.91,3.91,0,0,1-.83.26l-.33-.23a5.05,5.05,0,0,0-.59.12,4.5,4.5,0,0,1-.67.11,44,44,0,0,1-4.59.4c-1.6,0-3.19.08-4.76.08q-.33,0-.9-.06a9,9,0,0,1-1.14-.18,6.12,6.12,0,0,1-1-.31C277.9,252.78,277.76,252.64,277.76,252.49Z" transform="translate(-163.31 -156.48)"/><path class="cls-1" d="M303.42,250.79a3.81,3.81,0,0,1,.17-1.22,3,3,0,0,1,.47-.89,8.34,8.34,0,0,1,.69-.82c.25-.28.55-.61.87-1H306v-.19l-.33-.49s.1-.1.31-.18.3-.17.3-.24v-.85s0-.06.14-.11l.33-.2.34-.21c.11-.07.17-.12.17-.16l.44-.57c.19-.24.39-.51.59-.79a9.14,9.14,0,0,0,.55-.83,3.64,3.64,0,0,0,.33-.67.62.62,0,0,0-.12-.24q-.12-.18-.21-.18l.13-.3.16-.45c.05-.17.11-.32.16-.47a.86.86,0,0,1,.16-.31l.33-.43v-1.33a1.71,1.71,0,0,1,.57-.61,3.18,3.18,0,0,0,.69-.69q.57-1.28,1.26-2.49a8.82,8.82,0,0,0,1-2.69v-1.33a.38.38,0,0,1,.1-.19l.2-.28.2-.27c.07-.08.11-.12.11-.14a6.35,6.35,0,0,0,.56-1.9,18.27,18.27,0,0,1,.33-1.81,16.07,16.07,0,0,1,.92-2.72c.36-.83.71-1.65,1-2.46a25.55,25.55,0,0,0,.86-2.51,10.56,10.56,0,0,0,.36-2.84l-.28-.46v-.08a1.09,1.09,0,0,1,.22-.61,2.36,2.36,0,0,1,.59-.59,4.25,4.25,0,0,1,.81-.46,3.75,3.75,0,0,1,.9-.24l.61.23.61-.23h.08a1.9,1.9,0,0,1,.63.11c.2.08.39.16.57.25s.35.16.53.22a1.32,1.32,0,0,0,.51.1h.2l.65-.23a4.5,4.5,0,0,1,1.24.19,9.71,9.71,0,0,1,1.24.45c.41.18.8.37,1.18.58l1.06.57-.61.2a2.3,2.3,0,0,1,.53.46c.19.22.36.44.53.65l.44.59c.14.16.22.25.25.25l-.33.23.33.19-.61.49.61.42a3.53,3.53,0,0,0,0,1c.05.31.11.62.18.92s.12.6.16.9a2.33,2.33,0,0,1-.06.91c.44.77.88,1.55,1.34,2.34a20.74,20.74,0,0,1,1.18,2.28,16.89,16.89,0,0,1,.72,1.75c.2.61.39,1.21.56,1.83s.36,1.22.55,1.84a15.15,15.15,0,0,0,.69,1.8c.3.6.6,1.22.9,1.85a16.39,16.39,0,0,0,1,1.83q0,.11.3.24c.2.08.31.14.31.18a11.09,11.09,0,0,1,.34,1.08c.12.45.27.92.43,1.4a8.45,8.45,0,0,0,.57,1.33,1.62,1.62,0,0,0,.85.81.4.4,0,0,0-.2.07c-.08,0-.12.09-.12.12a.74.74,0,0,0,.16.36.84.84,0,0,1,.16.3c0,.17-.11.25-.32.25a1.16,1.16,0,0,1,.93.44,3.88,3.88,0,0,1,.61,1,9.24,9.24,0,0,1,.39,1.11,3.11,3.11,0,0,0,.26.74,2.12,2.12,0,0,0,.92.75,6.51,6.51,0,0,1,1,.55,2.85,2.85,0,0,1,.33.24l.41.3a4.33,4.33,0,0,0,.48.34v2.4a1.67,1.67,0,0,1-.14.19l-.24.26a3.58,3.58,0,0,1-.29.27.72.72,0,0,1-.22.16v.14a.41.41,0,0,0,0,.16.34.34,0,0,0,.24.15,7,7,0,0,0-1.34.13c-.4.09-.81.18-1.22.3a12.82,12.82,0,0,1-1.36.29,10.16,10.16,0,0,1-1.77.13h-1.5a.83.83,0,0,0-.31-.22c-.18-.1-.37-.19-.59-.29l-.61-.24a1.66,1.66,0,0,0-.41-.1.52.52,0,0,0-.34-.51c-.23-.09-.48-.19-.75-.28a3.77,3.77,0,0,1-.76-.35.8.8,0,0,1-.34-.73v-.14s0-.06.1-.14a1.69,1.69,0,0,0,.2-.25,3.17,3.17,0,0,1,.21-.27.49.49,0,0,0,.1-.19,1.43,1.43,0,0,0-.16-.31.85.85,0,0,1-.17-.37v-.28A1.41,1.41,0,0,1,334,248a1.62,1.62,0,0,0,.16-.76h-.12a1.6,1.6,0,0,0-.1-.29,1,1,0,0,1-.11-.33l-.28-.49.28-.19a1.7,1.7,0,0,0-.48-1.18,5.82,5.82,0,0,1-.78-1v-.91a1.7,1.7,0,0,0-.85-.62,12.07,12.07,0,0,0-1.55-.56c-.57-.16-1.12-.29-1.66-.39a6.74,6.74,0,0,0-1.18-.16h-7.53a3.66,3.66,0,0,0-2.17.68,6.31,6.31,0,0,0-1.67,1.77,12.6,12.6,0,0,0-1.2,2.41c-.32.88-.61,1.73-.85,2.57s-.45,1.62-.61,2.34a14.8,14.8,0,0,1-.45,1.64c-.38.12-.77.26-1.18.43s-.83.33-1.26.49-.87.3-1.3.43a4.91,4.91,0,0,1-1.3.18,4.73,4.73,0,0,1-1.69-.3,4.85,4.85,0,0,1-1.4-.77,3.74,3.74,0,0,1-1-1.08A2.32,2.32,0,0,1,303.42,250.79Zm16-15.4c0,.37.31.65.93.82a10.16,10.16,0,0,0,2.14.32c.8.05,1.58.06,2.36.05l1.64,0h.69a6.77,6.77,0,0,0,.9,0,3,3,0,0,0,.79-.17c.23-.08.35-.21.35-.38a8.68,8.68,0,0,0-.1-1.06,8.83,8.83,0,0,0-.33-1.35,5,5,0,0,0-.59-1.23,1.82,1.82,0,0,0-.89-.75,2.21,2.21,0,0,0,.2-.52,2.53,2.53,0,0,0,.12-.58q0-.12-.3-.24c-.21-.09-.31-.15-.31-.19s-.13-.22-.22-.39-.2-.36-.31-.56-.2-.38-.28-.56a2.21,2.21,0,0,1-.16-.44,9,9,0,0,1-.86-2.42,15.73,15.73,0,0,0-.69-2.45c-.11-.08-.28-.19-.53-.34l-.45-.28-.2-.17a3.65,3.65,0,0,1-.06.53,4,4,0,0,0-.06.49.47.47,0,0,0-.12.14l-.17.11a.46.46,0,0,1,.19,0,.15.15,0,0,1,.1.16,2,2,0,0,1,0,.48.69.69,0,0,1-.14.27,2.4,2.4,0,0,0-.21.23,2.76,2.76,0,0,0-.22.35,4.17,4.17,0,0,0-.31.57l-.38.82c-.14.28-.26.54-.37.78s-.17.38-.2.43a4,4,0,0,0-.41,1.76,7.65,7.65,0,0,1-.2,1.76,14.4,14.4,0,0,1-.63,2,20.78,20.78,0,0,0-.67,2Z" transform="translate(-163.31 -156.48)"/><path class="cls-1" d="M355.28,251.69a.93.93,0,0,0-.35.08,1.13,1.13,0,0,1-.26.07,13.27,13.27,0,0,1-1.49-.71,7.13,7.13,0,0,1-1-.71,5.37,5.37,0,0,1-.82-.83l-.85-1.12-.33-.2a1.42,1.42,0,0,1-.53-.2c-.24-.13-.36-.22-.36-.25a1.09,1.09,0,0,1-.18-.49,7.08,7.08,0,0,0-.17-.7,2.91,2.91,0,0,0-.26-.68.75.75,0,0,0-.49-.4V244a.85.85,0,0,1-.32-.31,2.92,2.92,0,0,1-.29-.48,3.89,3.89,0,0,1-.28-.62.74.74,0,0,1,.14-.29.78.78,0,0,0,.14-.34v-.28a1.53,1.53,0,0,0-.2-.69c-.14-.26-.28-.51-.43-.75l-.43-.7a1.11,1.11,0,0,1-.2-.52l.29-.43a1.58,1.58,0,0,0-.31-.61,1.41,1.41,0,0,1-.31-.69s.05-.08.13-.14a.37.37,0,0,1,.2-.09.51.51,0,0,1-.37-.46c0-.24,0-.37,0-.41h.29a.38.38,0,0,0-.08-.26c-.06,0-.11-.12-.17-.18l-.16-.24a.81.81,0,0,1-.08-.37.58.58,0,0,1,.1-.38c.07-.09.14-.18.21-.29s.13-.22.2-.36a1.56,1.56,0,0,0,.1-.64,6.27,6.27,0,0,0-.26-1.59,5.44,5.44,0,0,0-.68-1.55c.22,0,.33-.08.33-.23a1.69,1.69,0,0,0-.16-.4,1.31,1.31,0,0,1-.17-.48,4.74,4.74,0,0,1,.15-1.16c.09-.4.2-.8.32-1.2s.23-.82.33-1.23a5.86,5.86,0,0,0,.14-1.22v-.51a1.45,1.45,0,0,0-.16-.47A2,2,0,0,1,346,223l.33-.23a.6.6,0,0,0-.06-.24.53.53,0,0,1-.06-.24h-.29c0-.11.08-.21.25-.31a.94.94,0,0,1,.45-.14c-.06,0-.12-.06-.19-.17a.56.56,0,0,1-.1-.28s0-.09.1-.14a.3.3,0,0,1,.19-.09,3,3,0,0,0-.15-.48,2.38,2.38,0,0,1-.14-.62v-.77a.87.87,0,0,1-.63-.31,1,1,0,0,1-.31-.65l.33-.28V218a1.85,1.85,0,0,0-.16-.78,1.72,1.72,0,0,1-.17-.75v-.56a.85.85,0,0,1,.17-.37,1,1,0,0,0,.16-.31l-.33-.43a1.59,1.59,0,0,1,.53-.79,3.46,3.46,0,0,1,1-.57,6.66,6.66,0,0,1,1.2-.35,5.71,5.71,0,0,1,1.2-.13,7.63,7.63,0,0,1,2.17.33,9,9,0,0,1,2.06.87,6.12,6.12,0,0,1,1.54,1.26,2.25,2.25,0,0,1,.61,1.48,1,1,0,0,1-.14.39c-.09.19-.2.39-.32.6s-.26.4-.39.59a1.27,1.27,0,0,1-.37.37,2.5,2.5,0,0,1,.41.23.42.42,0,0,1,.16.39,1.72,1.72,0,0,1-.36,1,1.83,1.83,0,0,0-.37,1.11v.08l.41.23a.74.74,0,0,1-.21.37.79.79,0,0,0-.2.37s.12.1.37.18.36.17.36.24a.84.84,0,0,1-.06.18l-.12.34a3.34,3.34,0,0,0-.1.36,1,1,0,0,0,0,.23v5.35a1,1,0,0,0-.39.19,1.06,1.06,0,0,0,0,.23h.41c0,.62,0,1.22,0,1.79a6.36,6.36,0,0,1-.37,1.78c.19,0,.3.11.33.23a2,2,0,0,1,0,.35,1.83,1.83,0,0,0,0,.34c0,.1.13.16.34.18v3.34a1.31,1.31,0,0,1,.33.64,3.34,3.34,0,0,1,.06.77q0,.38-.06.75a4.66,4.66,0,0,0,0,.56.45.45,0,0,0,.08.29.51.51,0,0,0,.28.36l.33.46v1.53a1.82,1.82,0,0,1,.71.52,6.81,6.81,0,0,1,.65.83c.2.31.4.6.59.9a3.49,3.49,0,0,0,.57.69,1.16,1.16,0,0,0,.31.14c.14.06.29.12.42.19a.69.69,0,0,1,.29.22c.05.09,0,.19-.13.3a4.78,4.78,0,0,1,1.51.27,4.69,4.69,0,0,0,1.46.27c.22,0,.36-.05.41-.16a.33.33,0,0,1,.33-.15c.21,0,.35.05.4.15s.19.16.41.16a1.4,1.4,0,0,0,.55-.13,3.64,3.64,0,0,0,.59-.3l.51-.32.26-.21c0,.07.09.12.28.15a3.2,3.2,0,0,0,.49,0,2.19,2.19,0,0,0,.67-.48q.51-.45,1.08-1c.38-.37.73-.74,1.06-1.09s.53-.58.61-.69c.05.06.15,0,.3-.19a4.06,4.06,0,0,0,.43-.63q.24-.44.57-1c.46-1.19.87-2.41,1.22-3.66a26,26,0,0,0,.77-3.73,5.33,5.33,0,0,0,0-1c0-.37,0-.75-.06-1.15a9.75,9.75,0,0,1,0-1.2,3.37,3.37,0,0,1,.31-1.12c-.19,0-.29-.07-.29-.23s0-.17.06-.41a.67.67,0,0,1,.23-.46v-5.33a1.89,1.89,0,0,1-.31-.69,2.79,2.79,0,0,1,0-.64c0-.2,0-.42.08-.63a4.22,4.22,0,0,0,.06-.75H373c0-.06,0-.16,0-.3s-.06-.29-.1-.45-.09-.32-.13-.47a1.59,1.59,0,0,0-.1-.31.57.57,0,0,0-.51-.26.66.66,0,0,1-.51-.17,2,2,0,0,1,.11-.44,3.08,3.08,0,0,0,.1-.38l-.33.06a1.09,1.09,0,0,1-.26,0H371c-.09,0-.19-.12-.31-.29a4.21,4.21,0,0,1-.33-.55q-.13-.3-.24-.57a1.19,1.19,0,0,1-.1-.35.29.29,0,0,1,.1-.25l.2-.17.21-.17a.33.33,0,0,0,.1-.23.23.23,0,0,0-.14-.23c-.1,0-.15-.13-.15-.28a.51.51,0,0,1,.09-.28q.07-.15.57-.15a.9.9,0,0,1-.33-.17.25.25,0,0,1,0-.17.53.53,0,0,1,.12-.25,3.92,3.92,0,0,1,.27-.33,1.13,1.13,0,0,1,.3-.24.28.28,0,0,1,.28,0l1.71-1h2.48a.62.62,0,0,1,.27-.15l.26,0c.46,0,.75.09.88.26a1,1,0,0,1,.18.56,1.33,1.33,0,0,0,.3,0A1.21,1.21,0,0,1,378,213a.38.38,0,0,1,.28.07c.09,0,.13.18.13.36l.89-.45c.38.4.71.76,1,1.08a4.58,4.58,0,0,0,1.26,1v1a3.77,3.77,0,0,0,0,.47,2.57,2.57,0,0,1,0,.48,1.09,1.09,0,0,1-.18.43,1,1,0,0,1-.47.29,3,3,0,0,1,.44.33.54.54,0,0,1,.21.41.85.85,0,0,1-.33.54.88.88,0,0,0-.32.62v.37a2.2,2.2,0,0,0,.16.44,2,2,0,0,1,.16.44,1.28,1.28,0,0,1-.06.25c0,.13-.08.27-.12.43a4.19,4.19,0,0,0-.1.42,1.47,1.47,0,0,0,0,.23v2.46a.73.73,0,0,1,.28.42,2.45,2.45,0,0,1,0,.46,17.54,17.54,0,0,1-.08,1.8c-.05.57-.11,1.15-.16,1.72s-.1,1.16-.12,1.76a13.81,13.81,0,0,0,0,1.91l-.29.2a14.08,14.08,0,0,1-.16,3q-.24,1.53-.45,3a.16.16,0,0,1-.12.16l-.2,0a12.48,12.48,0,0,1-.69,5.45,14.89,14.89,0,0,1-3.22,4.88l-.18.12-.3.19a2.29,2.29,0,0,1-.31.2l-.18.12h-.29a3.23,3.23,0,0,1-.46.39c-.24.17-.49.35-.78.54l-.81.54-.55.37a3.12,3.12,0,0,1-.63.27l-.55.11-.61.1a6.76,6.76,0,0,0-.73.17l-.33.45a8.52,8.52,0,0,1-1.3.33l-1.77.28c-.61.08-1.2.15-1.77.2s-1,.07-1.26.07a7.84,7.84,0,0,1-1.58-.14,7.24,7.24,0,0,1-1.16-.36c-.34-.14-.67-.28-1-.44a7.62,7.62,0,0,0-1.05-.39,3.3,3.3,0,0,0-.57-.12l-.86-.12-.87-.12a2.29,2.29,0,0,1-.59-.1Z" transform="translate(-163.31 -156.48)"/><path class="cls-1" d="M417.35,215.59a1.57,1.57,0,0,1-.23.68,1.9,1.9,0,0,1-.41.47,3.32,3.32,0,0,1-.42.3,2.5,2.5,0,0,0-.29.17c-.48.22-1,.44-1.46.64a4.17,4.17,0,0,1-1.71.24,11.36,11.36,0,0,1-1.34-.2l-1.3-.3-1.3-.27a8.8,8.8,0,0,0-1.39-.11l-.75,0a5.39,5.39,0,0,0-.81,0,1.66,1.66,0,0,0-.65.19.47.47,0,0,0-.27.45.69.69,0,0,1,0,.16,2.16,2.16,0,0,0,0,.28.64.64,0,0,0,.06.28.38.38,0,0,0,.27.19c-.16.32-.29.58-.37.77a4,4,0,0,0-.18.56,2.38,2.38,0,0,0-.06.55v2c.05,0,.12.07.2.19a.62.62,0,0,1,.12.24l-.32.23v.42a3,3,0,0,1,0,.41q0,.21.36.27a16.59,16.59,0,0,0,0,1.84c0,.57.06,1.11.1,1.64s.09,1.06.15,1.57.08,1.08.08,1.66V232l-.29.42c0,.15.1.23.29.23v2.07c0,.49,0,1,0,1.65s-.06,1.24-.1,1.89-.08,1.27-.11,1.89,0,1.19,0,1.7v2.47a1.1,1.1,0,0,1,.57.49,3.76,3.76,0,0,1,.39.86c.09.33.17.64.22.94a3.61,3.61,0,0,1,.08.68,1.24,1.24,0,0,1-.32.85,1,1,0,0,0-.33.62l.29.43a3.11,3.11,0,0,1-.33,1.38,3.82,3.82,0,0,1-.91,1.22,4.84,4.84,0,0,1-1.45.88,5.2,5.2,0,0,1-1.91.34,5.83,5.83,0,0,1-2.46-.47,5.07,5.07,0,0,1-1.64-1.19,4.24,4.24,0,0,1-.94-1.63,5.94,5.94,0,0,1-.28-1.81,10,10,0,0,1,.08-1.15,13.52,13.52,0,0,1,.24-1.51,9.69,9.69,0,0,1,.39-1.36c.15-.4.32-.62.51-.68v-1.84a1.48,1.48,0,0,1,.22-.4,1.06,1.06,0,0,0,.22-.45,1.14,1.14,0,0,0-.06-.25,2.85,2.85,0,0,0-.16-.43,3.22,3.22,0,0,1-.16-.42,1.89,1.89,0,0,1-.06-.23,1.84,1.84,0,0,1,.06-.34,5.35,5.35,0,0,1,.16-.55,5,5,0,0,0,.16-.57,2.22,2.22,0,0,0,.06-.35l-.44-1.59v-.65a1.8,1.8,0,0,1,.06-.3,4.2,4.2,0,0,1,.16-.51,4.49,4.49,0,0,0,.16-.48,1.8,1.8,0,0,0,.06-.24.81.81,0,0,0-.06-.22,2.3,2.3,0,0,0-.16-.37,2.76,2.76,0,0,1-.16-.37.85.85,0,0,1-.06-.23v0a.94.94,0,0,1,.22-.58.93.93,0,0,0,.22-.53v-.14a1.29,1.29,0,0,0-.06-.2,2.14,2.14,0,0,0-.16-.35,2.52,2.52,0,0,1-.16-.34,1,1,0,0,1-.06-.19v-4l-.29-.45a6.84,6.84,0,0,0,.16-1c0-.29.06-.55.08-.79a6.27,6.27,0,0,0,.05-.74v-.82a4.63,4.63,0,0,0-.57-2.24c-.38-.7-.8-1.41-1.26-2.15h-2.12c-.7,0-1.33,0-1.89.08l-1.63.19c-.53.06-1.07.13-1.62.18a17.5,17.5,0,0,1-1.85.09v-.31H386a3.57,3.57,0,0,1-1.06-.49,2.74,2.74,0,0,1-.73-.68,2,2,0,0,1-.4-1v-2a1,1,0,0,1,.36-.7,3.81,3.81,0,0,1,.84-.55,5.14,5.14,0,0,1,.91-.35,2.53,2.53,0,0,1,.61-.13v.23a1.12,1.12,0,0,1,.51-.17,3.31,3.31,0,0,1,.51-.06l.69.23a14.7,14.7,0,0,0,2.44.36c.7,0,1.53.06,2.48.06q3.17,0,6.32,0a39.81,39.81,0,0,0,6.33-.45c.59-.14,1.22-.25,1.87-.36s1.27-.19,1.87-.25,1.13-.11,1.6-.13a5.69,5.69,0,0,1,1.08,0l.61-.23H413a3.89,3.89,0,0,1,1.45.24,5.75,5.75,0,0,1,1.07.58,9.6,9.6,0,0,1,.92.74,6.75,6.75,0,0,0,1,.74v1.86Z" transform="translate(-163.31 -156.48)"/><path class="cls-1" d="M413.4,250.79a3.81,3.81,0,0,1,.17-1.22,3,3,0,0,1,.46-.89,10.19,10.19,0,0,1,.7-.82c.25-.28.54-.61.87-1h.32v-.19l-.32-.49s.1-.1.3-.18.31-.17.31-.24v-.85s.05-.06.14-.11l.33-.2.34-.21c.11-.07.17-.12.17-.16l.44-.57c.19-.24.39-.51.59-.79a9.14,9.14,0,0,0,.55-.83,4.44,4.44,0,0,0,.33-.67.56.56,0,0,0-.13-.24c-.08-.12-.14-.18-.2-.18a3,3,0,0,0,.12-.3c.06-.14.11-.29.17-.45s.1-.32.16-.47a.86.86,0,0,1,.16-.31l.33-.43v-1.33a1.71,1.71,0,0,1,.57-.61,3.18,3.18,0,0,0,.69-.69q.57-1.28,1.26-2.49a8.8,8.8,0,0,0,1-2.69v-1.33s0-.1.11-.19l.2-.28a3.16,3.16,0,0,1,.2-.27c.07-.08.1-.12.1-.14a6.1,6.1,0,0,0,.57-1.9,15.77,15.77,0,0,1,.33-1.81,17,17,0,0,1,.91-2.72c.37-.83.72-1.65,1-2.46a23.13,23.13,0,0,0,.85-2.51,10.17,10.17,0,0,0,.37-2.84l-.28-.46v-.08a1.09,1.09,0,0,1,.22-.61,2.36,2.36,0,0,1,.59-.59,4,4,0,0,1,.81-.46,3.75,3.75,0,0,1,.9-.24l.61.23.61-.23h.08a1.9,1.9,0,0,1,.63.11c.2.08.39.16.57.25a4.93,4.93,0,0,0,.53.22,1.32,1.32,0,0,0,.51.1h.2l.65-.23a4.5,4.5,0,0,1,1.24.19,9.71,9.71,0,0,1,1.24.45c.41.18.8.37,1.18.58l1.06.57-.61.2a2.3,2.3,0,0,1,.53.46l.52.65.45.59c.14.16.22.25.25.25l-.33.23.33.19-.61.49.61.42a3.53,3.53,0,0,0,0,1c0,.31.11.62.18.92s.12.6.16.9a2.33,2.33,0,0,1-.06.91c.43.77.88,1.55,1.34,2.34a20.74,20.74,0,0,1,1.18,2.28,14.89,14.89,0,0,1,.71,1.75c.21.61.4,1.21.57,1.83s.36,1.22.55,1.84a15.15,15.15,0,0,0,.69,1.8c.3.6.6,1.22.9,1.85a14.93,14.93,0,0,0,1,1.83q0,.11.3.24t.3.18a8.64,8.64,0,0,1,.35,1.08c.12.45.27.92.43,1.4a8.45,8.45,0,0,0,.57,1.33,1.62,1.62,0,0,0,.85.81.4.4,0,0,0-.2.07c-.08,0-.12.09-.12.12a.74.74,0,0,0,.16.36.84.84,0,0,1,.16.3c0,.17-.11.25-.32.25a1.17,1.17,0,0,1,.93.44,4.18,4.18,0,0,1,.61,1,9.24,9.24,0,0,1,.39,1.11,3.11,3.11,0,0,0,.26.74,2.06,2.06,0,0,0,.92.75,7.06,7.06,0,0,1,1,.55l.33.24.4.3a5.83,5.83,0,0,0,.49.34v2.4a1.67,1.67,0,0,1-.14.19l-.24.26a3.58,3.58,0,0,1-.29.27.72.72,0,0,1-.22.16v.14a.41.41,0,0,0,0,.16.34.34,0,0,0,.24.15,7,7,0,0,0-1.34.13c-.41.09-.81.18-1.22.3a13.38,13.38,0,0,1-1.36.29,10.16,10.16,0,0,1-1.77.13h-1.5a.83.83,0,0,0-.31-.22c-.18-.1-.37-.19-.59-.29l-.61-.24a1.66,1.66,0,0,0-.41-.1.52.52,0,0,0-.34-.51c-.23-.09-.48-.19-.75-.28a3.53,3.53,0,0,1-.76-.35.8.8,0,0,1-.34-.73v-.14s0-.06.1-.14a2.73,2.73,0,0,0,.2-.25l.21-.27a.49.49,0,0,0,.1-.19,1.43,1.43,0,0,0-.16-.31.85.85,0,0,1-.17-.37v-.28A1.41,1.41,0,0,1,444,248a1.62,1.62,0,0,0,.16-.76H444a1.25,1.25,0,0,0-.11-.29,1.12,1.12,0,0,1-.1-.33l-.28-.49.28-.19a1.67,1.67,0,0,0-.49-1.18,6.26,6.26,0,0,1-.77-1v-.91a1.7,1.7,0,0,0-.85-.62,12.07,12.07,0,0,0-1.55-.56c-.57-.16-1.12-.29-1.66-.39a6.74,6.74,0,0,0-1.18-.16h-7.53a3.66,3.66,0,0,0-2.17.68,6.31,6.31,0,0,0-1.67,1.77,12,12,0,0,0-1.2,2.41c-.33.88-.61,1.73-.85,2.57s-.45,1.62-.61,2.34-.32,1.27-.45,1.64c-.38.12-.77.26-1.18.43s-.83.33-1.26.49-.87.3-1.3.43a4.91,4.91,0,0,1-1.3.18,4.73,4.73,0,0,1-1.69-.3,4.85,4.85,0,0,1-1.4-.77,3.74,3.74,0,0,1-1-1.08A2.32,2.32,0,0,1,413.4,250.79Zm16-15.4c0,.37.31.65.93.82a10.16,10.16,0,0,0,2.14.32c.8.05,1.58.06,2.36.05l1.64,0h.69a6.77,6.77,0,0,0,.9,0,3,3,0,0,0,.79-.17c.23-.08.35-.21.35-.38a7.3,7.3,0,0,0-.11-1.06,7.75,7.75,0,0,0-.32-1.35,5.38,5.38,0,0,0-.59-1.23,1.82,1.82,0,0,0-.89-.75,2.21,2.21,0,0,0,.2-.52,2.53,2.53,0,0,0,.12-.58q0-.12-.3-.24c-.21-.09-.31-.15-.31-.19s-.13-.22-.22-.39-.2-.36-.31-.56a5.84,5.84,0,0,1-.28-.56,3.41,3.41,0,0,1-.17-.44,9.32,9.32,0,0,1-.85-2.42,15.73,15.73,0,0,0-.69-2.45l-.53-.34-.45-.28-.2-.17a3.65,3.65,0,0,1-.06.53,4,4,0,0,0-.06.49.47.47,0,0,0-.12.14l-.17.11a.46.46,0,0,1,.19,0,.17.17,0,0,1,.1.16,2.68,2.68,0,0,1,0,.48.69.69,0,0,1-.14.27,2.4,2.4,0,0,0-.21.23,2,2,0,0,0-.22.35,4.17,4.17,0,0,0-.31.57l-.38.82c-.14.28-.26.54-.37.78l-.2.43a4,4,0,0,0-.41,1.76,7.65,7.65,0,0,1-.2,1.76,17.85,17.85,0,0,1-.63,2,20.78,20.78,0,0,0-.67,2Z" transform="translate(-163.31 -156.48)"/><path class="cls-1" d="M457.38,250.51a1.49,1.49,0,0,1,.32-.92,1.43,1.43,0,0,0,.33-.84v-.14a.58.58,0,0,0-.11-.17l-.22-.34-.22-.37a.54.54,0,0,1-.1-.23.94.94,0,0,1,.16-.29.74.74,0,0,0,.16-.36V246l-.32-.43a1.18,1.18,0,0,1,.32-.57,1.19,1.19,0,0,0,.33-.76c.1-.7.21-1.43.32-2.21s.21-1.56.31-2.35.17-1.57.22-2.35.08-1.52.08-2.24a2.24,2.24,0,0,0-.16-.89,2.13,2.13,0,0,1-.16-.86,23.13,23.13,0,0,1,.32-3.84,23.84,23.84,0,0,0,.33-3.95v-2.6c-.22,0-.33-.07-.33-.2l.33-.68a3.44,3.44,0,0,1-.47-.65,1.38,1.38,0,0,1-.18-.45.72.72,0,0,1,.16-.53.88.88,0,0,0,.16-.64,2.89,2.89,0,0,0-.26-1.21,4.24,4.24,0,0,1-.35-1.33c.14,0,.22-.1.24-.17a.79.79,0,0,0,.05-.29v-.2l-.45,0a.58.58,0,0,1,.08-.22.8.8,0,0,0,.08-.29v0a.83.83,0,0,0-.1-.38l-.22-.46a5.24,5.24,0,0,1-.23-.48,1.11,1.11,0,0,1-.1-.44c0-.23.16-.46.47-.71a5.51,5.51,0,0,1,1.2-.68,11,11,0,0,1,1.62-.51,8.22,8.22,0,0,1,1.75-.19,12.32,12.32,0,0,1,2.4.21,9.75,9.75,0,0,1,1.79.51,3.54,3.54,0,0,1,1.1.64.92.92,0,0,1,.37.59l-.33.42.33.23-.33.45a2.63,2.63,0,0,0,.35,1.28,12.21,12.21,0,0,0,.79,1.24c.3.42.58.83.85,1.25a3.55,3.55,0,0,1,.53,1.27l2.89,3.06c-.11.15-.12.24,0,.26a.62.62,0,0,1,.3.17c.68,1.47,1.32,3,1.94,4.46a18,18,0,0,0,2.5,4.31v.23c0,.06.09.19.2.4l.37.68.38.7a2,2,0,0,0,.27.43c.1.26.21.55.3.85a9.39,9.39,0,0,0,.35.91,7.87,7.87,0,0,0,.48.9,3.36,3.36,0,0,0,.74.82c0-.07,0-.15.16-.24s.16-.14.16-.18c.16-.27.35-.62.55-1.05s.41-.85.63-1.25.49-.95.73-1.44v-.23L491.29,221a1.74,1.74,0,0,1,0-.94,3.83,3.83,0,0,1,.39-.75,4.47,4.47,0,0,1,.57-.68,7.23,7.23,0,0,0,.61-.72,2,2,0,0,0,.36-.89c.06-.33.12-.65.21-1a1.85,1.85,0,0,1,1.62-1.43l.94-1.52a1.61,1.61,0,0,0,.83-.27l.73-.53a4.26,4.26,0,0,1,1-.51,4.48,4.48,0,0,1,1.57-.22,2.37,2.37,0,0,1,1,.18,2.91,2.91,0,0,0,.88.24h1.54a2.84,2.84,0,0,1,1,.44,7.92,7.92,0,0,1,.77.64l.69.65a2.31,2.31,0,0,0,.73.48c-.3.08-.47.18-.53.33a1.75,1.75,0,0,0-.08.58v.42l.33.2-.08.2a.3.3,0,0,1-.25.22,5,5,0,0,0-.69,1.09,10.28,10.28,0,0,0-.49,1.28,11,11,0,0,0-.3,1.3,7.32,7.32,0,0,0-.1,1.18,5.36,5.36,0,0,0,.08,1.07,3.49,3.49,0,0,0,.53,1.13,1.06,1.06,0,0,0-.27.43c-.06.19-.13.4-.18.62a6,6,0,0,0-.12.65,3.5,3.5,0,0,0,0,.48,7.36,7.36,0,0,0,.16,1.58,7.12,7.12,0,0,1,.16,1.54v1.47c-.05,0-.12.05-.2.16a.48.48,0,0,0-.12.29,1.05,1.05,0,0,0,.12.3c.08.16.15.28.2.36a67.69,67.69,0,0,0,.21,7c.19,2.34.28,4.66.28,7a.81.81,0,0,0,.31,0,.9.9,0,0,1,.24-.07.15.15,0,0,1,.16.07.63.63,0,0,1,.06.34,1.52,1.52,0,0,1,0,.27.81.81,0,0,0,0,.41l-.36.42.36.2c.08.1.18.22.29.38a5.09,5.09,0,0,1,.3.5l.25.45a1.62,1.62,0,0,1,.1.23v1.44c0,.59,0,1,0,1.37a2.93,2.93,0,0,1-.14.74.54.54,0,0,1-.25.31,2.76,2.76,0,0,1-.39.16c-.16,0-.35.14-.58.24a3.19,3.19,0,0,0-.8.55H500.4l-2.2-1.08c.06,0,0-.1-.12-.26a4.87,4.87,0,0,0-.51-.53l-.59-.56a2,2,0,0,1-.36-.43s0-.07,0-.17l-.1-.3a2.12,2.12,0,0,1-.11-.29c0-.1,0-.15,0-.17a4.35,4.35,0,0,1,.35-1.62c.23-.56.44-1.09.63-1.58a9.52,9.52,0,0,0,.24-1.09,5.66,5.66,0,0,0,.08-1c0-.34,0-.7,0-1.09s0-.83,0-1.34c0-2.59,0-5.16-.08-7.72a71.78,71.78,0,0,0-.57-7.71,2.77,2.77,0,0,0-.89.86c-.27.39-.52.78-.75,1.19s-.45.77-.65,1.1-.39.53-.55.58l-.39.57c-.18.26-.36.55-.55.85l-.55.85-.38.56-.57,1.09c-.27.52-.56,1.06-.86,1.6s-.69,1.35-1.09,2.13l-4.11,7.19a.29.29,0,0,1,0,.27l-.1.4a4.43,4.43,0,0,1-.15.43,1.39,1.39,0,0,0-.08.34,3.4,3.4,0,0,0,.15,1,4,4,0,0,1,.14,1v0a1.47,1.47,0,0,0-.33.29.9.9,0,0,0-.12.24,2.86,2.86,0,0,1-.12.27,1.25,1.25,0,0,1-.33.31,2.81,2.81,0,0,1-.77.44c-.41.18-.84.35-1.3.53a11.61,11.61,0,0,1-1.34.44,2.34,2.34,0,0,1-.9.12,6.66,6.66,0,0,1-1.46-.37,14.91,14.91,0,0,1-1.55-.68,16.21,16.21,0,0,1-1.4-.82,9.36,9.36,0,0,1-1-.77.11.11,0,0,0,.06-.17.65.65,0,0,0-.22-.22,3.92,3.92,0,0,0-.45-.26v-1.53s.11-.14.31-.31.3-.29.3-.37l-.28-.42v-2a2.49,2.49,0,0,0-.12-.46c-.08-.26-.18-.53-.29-.82s-.21-.57-.32-.83-.18-.41-.21-.46V240l-2.52-5.3s-.11-.24-.34-.67-.52-1-.86-1.6-.71-1.32-1.12-2.06l-1.13-2c-.36-.62-.66-1.14-.9-1.57a5,5,0,0,0-.41-.66c-.21.07-.36.31-.42.72a5.8,5.8,0,0,0-.06,1.34c0,.5.06,1,.12,1.41s.08.73.08.86v.14a2.19,2.19,0,0,1,.1.47c0,.25.08.53.12.83s.08.58.12.84a3.18,3.18,0,0,1,.07.47,6,6,0,0,1,0,1.58c-.07.55-.16,1.1-.27,1.64s-.22,1.1-.32,1.65a8,8,0,0,0-.17,1.58v.57l.33.22a6.51,6.51,0,0,1-.08.94c-.06.34-.11.69-.16,1.05s-.11.71-.17,1.06a6.76,6.76,0,0,0-.08.95v.45a.83.83,0,0,0,.16.35,1,1,0,0,1,.17.3v2.86l.28.2a2.35,2.35,0,0,1,.1.27l.12.39a3.06,3.06,0,0,0,.15.4,1.06,1.06,0,0,0,.16.27h.41a2.32,2.32,0,0,1-.35,1.16,3.65,3.65,0,0,1-1,1.06,5.61,5.61,0,0,1-1.41.77,4.94,4.94,0,0,1-1.68.29.48.48,0,0,1-.41-.22l-.33.22a14.59,14.59,0,0,1-1.66-.26,8.05,8.05,0,0,1-1.55-.51,3.69,3.69,0,0,1-1.12-.8A1.64,1.64,0,0,1,457.38,250.51Z" transform="translate(-163.31 -156.48)"/><path class="cls-1" d="M215.6,307.49a2.31,2.31,0,0,1-.75-.1l-.61-.21a2.83,2.83,0,0,0-.65-.17,2.68,2.68,0,0,0-.84,0,14.68,14.68,0,0,1-1.64-1.19l-1.45-1.18v-.2a5.71,5.71,0,0,1-1.77-.95,11.92,11.92,0,0,1-1.7-1.56,9.73,9.73,0,0,1-1.31-1.75,3.26,3.26,0,0,1-.5-1.58h-.74a1,1,0,0,0-.16-.56c-.11-.17-.23-.35-.36-.52s-.28-.37-.41-.57a2.39,2.39,0,0,1-.33-.72.79.79,0,0,0-.08-.29,3.07,3.07,0,0,0-.2-.41,4.23,4.23,0,0,1-.22-.42l-.15-.3.65-.2a1.15,1.15,0,0,1-.55-.56,3.49,3.49,0,0,1-.26-.85,7,7,0,0,1-.1-.85c0-.27,0-.46,0-.6h-1v-6a1.3,1.3,0,0,0,.37-.77c0-.34.12-.7.2-1.1a5.27,5.27,0,0,1,.39-1.18,2,2,0,0,1,.95-.94c-.16-.1-.26-.17-.28-.22a.51.51,0,0,1,0-.26,2.88,2.88,0,0,1,.32-1.12,10.69,10.69,0,0,1,.8-1.41,11,11,0,0,1,1-1.3,4.14,4.14,0,0,1,1-.85l-.37-.22a2,2,0,0,0,.53-.4c.17-.17.33-.34.49-.52l.45-.53a1.93,1.93,0,0,1,.44-.42l.21-.27a.47.47,0,0,0,.12-.24l.33.28c-.06-.4.19-.86.75-1.39a18.87,18.87,0,0,1,1.91-1.57c.72-.52,1.38-1,2-1.39a3.18,3.18,0,0,0,1-.83l.32.25a3.44,3.44,0,0,1,1.35-.76c.78-.32,1.67-.64,2.66-.95s1.94-.57,2.87-.79a9.8,9.8,0,0,1,1.91-.33h1a2.23,2.23,0,0,1,.43.13,1.55,1.55,0,0,0,.51.13l.28-.26h.33c0,.14.26.17.61.1a5.92,5.92,0,0,1,1-.1c0,.1.08.12.23.07a1.82,1.82,0,0,1,.3-.07.58.58,0,0,1,.25.09l.34.17.37.17a.84.84,0,0,0,.3.08,1.76,1.76,0,0,0,.51-.12,1.65,1.65,0,0,1,.43-.13l1.59.48,1.15.35c.37.11.61.17.72.19a4.51,4.51,0,0,1,1.66.63,17.79,17.79,0,0,1,1.53,1l1.28,1a3,3,0,0,0,.89.54.88.88,0,0,0-.26.24.49.49,0,0,0-.06.27,1,1,0,0,0,.1.38l.24.52a4,4,0,0,0,.31.51.94.94,0,0,0,.33.31.83.83,0,0,0-.23.46,2.07,2.07,0,0,1-.47.78,3.2,3.2,0,0,1-1.13.73,6.1,6.1,0,0,1-2.28.33,13.78,13.78,0,0,1-1.69-.12,12.85,12.85,0,0,1-1.87-.35,9.37,9.37,0,0,1-1.69-.62,2.43,2.43,0,0,1-1.06-.9l-.61.15v-.23c0-.11-.1-.22-.32-.31a5.41,5.41,0,0,0-.75-.27,7.48,7.48,0,0,0-.82-.2,3.06,3.06,0,0,0-.5-.07v-.2c-.14,0-.41,0-.8,0s-.66,0-.79,0a11.84,11.84,0,0,0-1.24.25,13.14,13.14,0,0,0-1.3.41c-.42.16-.83.33-1.22.51a6.25,6.25,0,0,0-1,.53.76.76,0,0,0-.22.14l-.31.22-.28.22a.56.56,0,0,1-.16.1h-.94c-.16,0-.41.21-.75.59s-.69.81-1.06,1.29-.7.94-1,1.37a7.76,7.76,0,0,1-.63.82,3.61,3.61,0,0,0-.38.23q-.32.19-.63.42c-.22.16-.42.31-.59.46a2.74,2.74,0,0,0-.31.28,8.68,8.68,0,0,0-.89,1.57c-.35.75-.69,1.54-1,2.38s-.61,1.62-.85,2.34a5.51,5.51,0,0,0-.37,1.44,3.22,3.22,0,0,0,.14.89c.1.31.21.62.33.94s.23.61.32.9a2.54,2.54,0,0,1,.15.81l-.33.45a.2.2,0,0,0,0,.14.33.33,0,0,0,.29.12,1.08,1.08,0,0,1,0,.3c0,.06-.13.11-.29.15l.69.26a2.09,2.09,0,0,1,.31.92c0,.34.08.71.12,1.09a9.25,9.25,0,0,0,.2,1.13,2.41,2.41,0,0,0,.59,1.05,11.78,11.78,0,0,0,2.12,2,16.84,16.84,0,0,0,2.9,1.77,19.45,19.45,0,0,0,3.4,1.26,13.77,13.77,0,0,0,3.58.48c.32,0,.69,0,1.1-.06s.82-.08,1.24-.14.82-.13,1.22-.21.74-.18,1-.27c-.08-.08-.05-.17.09-.29a3.9,3.9,0,0,1,.5-.34l.61-.32a.91.91,0,0,0,.35-.24l.22-.27c.1-.12.2-.26.31-.41s.2-.29.28-.41a3.17,3.17,0,0,0,.17-.27,12.84,12.84,0,0,0,.22-1.87c0-.75.06-1.45.06-2.09a4,4,0,0,0-.1-.91,2.07,2.07,0,0,0-.39-.82,2,2,0,0,0-.79-.6,3.3,3.3,0,0,0-1.32-.22,8.83,8.83,0,0,0-1.39.1q-.64.09-1.26.21l-1.22.21a7.62,7.62,0,0,1-1.3.1c-.54,0-1,0-1.38,0a4.31,4.31,0,0,1-1-.19,3.15,3.15,0,0,1-.83-.39,7.06,7.06,0,0,1-.83-.65,1.83,1.83,0,0,1-.31-.16,3.87,3.87,0,0,1-.43-.27l-.36-.27c-.11-.08-.16-.14-.16-.18v-.65a3.31,3.31,0,0,1,.26-1.22,4.41,4.41,0,0,1,.77-1.27,4.28,4.28,0,0,1,1.28-1,4,4,0,0,1,1.79-.39l.94,0a10.36,10.36,0,0,1,1.12.11,6.46,6.46,0,0,1,1,.25,1.36,1.36,0,0,1,.7.49h4.59a8.86,8.86,0,0,1,4-.88,2.51,2.51,0,0,1,.67.08l.5.17.51.17a2,2,0,0,0,.63.09v.39l1.55,1.14a.46.46,0,0,0,.12.48.7.7,0,0,1,.2.37l.43,0c.15,0,.23.06.23.21v2.55a2.64,2.64,0,0,0-1,1.18,7,7,0,0,0-.47,1.57,10.06,10.06,0,0,0-.14,1.63v1.31a7.27,7.27,0,0,0,.14,1.42c.1.45.2.9.33,1.34s.23.89.32,1.32a6.09,6.09,0,0,1,.14,1.36v1a2.68,2.68,0,0,1-.57.44q-.41.27-.87.54a6.6,6.6,0,0,1-.93.45,2.13,2.13,0,0,1-.76.19v-.26c-.19.11-.51.28-1,.51s-1,.46-1.47.7-1,.43-1.44.6a3.91,3.91,0,0,1-.83.26l-.33-.23a5.05,5.05,0,0,0-.59.12,4.5,4.5,0,0,1-.67.11,44,44,0,0,1-4.6.4c-1.6.05-3.18.08-4.75.08q-.33,0-.9-.06a9,9,0,0,1-1.14-.18,6.12,6.12,0,0,1-1-.31C215.74,307.78,215.6,307.64,215.6,307.49Z" transform="translate(-163.31 -156.48)"/><path class="cls-1" d="M259.54,307.32H258.1c-.42,0-.83,0-1.24,0s-.83,0-1.28.08l-1.53.14c-.62.08-1.33.21-2.13.38a10,10,0,0,1-2.18.27,5.16,5.16,0,0,1-1.3-.17,10,10,0,0,1-1.34-.43,8.26,8.26,0,0,1-1.22-.63,4.3,4.3,0,0,1-.94-.75v-1.53A2.71,2.71,0,0,1,245,304a2,2,0,0,1,.26-.63,1,1,0,0,1,.59-.44c-.16,0-.26-.1-.28-.17a.79.79,0,0,1,0-.29,2.43,2.43,0,0,1,.31-1.11,2.46,2.46,0,0,0,.31-1.12v-.63l-.29-.19a1.06,1.06,0,0,1,.14-.3.8.8,0,0,0,.15-.36v-.22l-.29-.45a3.23,3.23,0,0,1,.33-1.28,3.53,3.53,0,0,0,.32-1.39,2.65,2.65,0,0,0-.18-1,2.87,2.87,0,0,1-.18-1v-.79l.36-.2v-4.33a.75.75,0,0,1-.26-.37,1.18,1.18,0,0,1-.1-.31,2.33,2.33,0,0,1,.06-.37c0-.19.08-.39.12-.61s.08-.42.12-.6a2.52,2.52,0,0,0,.06-.37v-.14a.22.22,0,0,0-.18-.23c-.12,0-.18-.1-.18-.2v-.08a1,1,0,0,1,.06-.27c0-.13.08-.25.12-.39l.12-.38a1,1,0,0,0,.06-.27c-.13,0-.25-.1-.34-.29a2.37,2.37,0,0,1-.21-.71,7.83,7.83,0,0,1-.08-.79c0-.26,0-.44,0-.56a1.42,1.42,0,0,1,.1-.46c.07-.2.14-.41.23-.64s.15-.45.22-.68a2,2,0,0,0,.1-.57l-.36-.48v-1.73c-.11,0-.19,0-.23-.08a.27.27,0,0,1-.06-.14A.88.88,0,0,1,246,276a1.06,1.06,0,0,0,.15-.29v-.14a.68.68,0,0,0-.15-.43.77.77,0,0,1-.14-.45,1.1,1.1,0,0,1,.14-.55,1.21,1.21,0,0,0,.15-.64,1.66,1.66,0,0,0-.15-.7q-.14-.31-.3-.63c-.11-.21-.21-.42-.31-.63a1.64,1.64,0,0,1-.14-.67,1.42,1.42,0,0,1,.14-.43,1.2,1.2,0,0,0,.14-.42l-.28-.43v-.08a1.27,1.27,0,0,1,.37-.7,6.41,6.41,0,0,1,.87-.85,10.6,10.6,0,0,1,1-.72,1.68,1.68,0,0,1,.83-.31h3.21a.79.79,0,0,0,.39.35,2.57,2.57,0,0,0,.61.2,4,4,0,0,0,.67.09h.53l.61-.2h.08a1.77,1.77,0,0,1,.43.13l.77.27.83.27a3.69,3.69,0,0,0,.61.15,6.28,6.28,0,0,0,1,.06l1.26,0,1.26,0,1,0H263a7.92,7.92,0,0,0,1,0A5.38,5.38,0,0,0,265,268c.33-.08.76-.21,1.3-.38l.41.23a4.13,4.13,0,0,1,1.42.29,7.82,7.82,0,0,1,1.47.75,5.77,5.77,0,0,1,1.16,1,1.56,1.56,0,0,1,.46,1v.45l-.28.45s0,.08.1.13a.32.32,0,0,0,.18.07,6.27,6.27,0,0,0-1,.59,10.35,10.35,0,0,1-.94.64,5.57,5.57,0,0,1-1.07.51,4,4,0,0,1-1.33.21,6.32,6.32,0,0,1-1.58-.17c-.46-.11-.9-.23-1.32-.35s-.87-.24-1.35-.35a6.72,6.72,0,0,0-1.64-.17,24.41,24.41,0,0,0-3,.14,8.62,8.62,0,0,0-1.83.38,2.48,2.48,0,0,0-1,.57,2.19,2.19,0,0,0-.46.69,4.78,4.78,0,0,0-.27.75,2.25,2.25,0,0,1-.39.75q.33.06.33.27v.35a.89.89,0,0,1-.16.56.58.58,0,0,0-.17.41v.14a1.12,1.12,0,0,0,.17.29.84.84,0,0,1,.16.39l-.33.42v1.84a1,1,0,0,0,.17.3.85.85,0,0,1,.16.38,1.11,1.11,0,0,1-.08.3c-.06.14-.12.3-.18.47s-.14.33-.21.48l-.14.31.61,1.53a4.22,4.22,0,0,1,1-.06l1.2.09,1.2.11a10.61,10.61,0,0,0,1.07.06,7.07,7.07,0,0,0,1.3-.13l1.27-.27q.6-.15,1.2-.24a4.83,4.83,0,0,1,2.68.34,4,4,0,0,1,1.06.72,4.13,4.13,0,0,1,.71.95c.19.35.36.69.53,1l-1,2.41s-.09.07-.28.15-.42.17-.67.26-.53.17-.82.24a4.17,4.17,0,0,1-.71.14h-.81a9.3,9.3,0,0,1-1.3-.08c-.36-.06-.7-.13-1-.2s-.67-.14-1-.2a7.69,7.69,0,0,0-1.26-.08h-1.12c-.53,0-1.07,0-1.64.05a9.16,9.16,0,0,0-1.53.23c-.45.11-.68.29-.71.54,0,.05,0,.15,0,.29s0,.3,0,.46,0,.31,0,.46,0,.26,0,.32h.2a3.48,3.48,0,0,1-.14,1c-.09.34-.2.68-.3,1s-.21.67-.31,1a3.44,3.44,0,0,0-.14.93l.28.2v.14a1.18,1.18,0,0,1-.14.55,1.4,1.4,0,0,0-.14.56.29.29,0,0,0,.14.29c.1.05.14.18.14.39a1.62,1.62,0,0,1-.14.65,1.73,1.73,0,0,0-.14.65,3.54,3.54,0,0,0,.12.58,7,7,0,0,0,.35,1,3.62,3.62,0,0,0,.57.93,1,1,0,0,0,.79.41c.41,0,1,0,1.71.05l2.32.08,2.31.07,1.71,0h1.59a14.25,14.25,0,0,0,1.77-.11,12.31,12.31,0,0,1,1.77-.12,4.1,4.1,0,0,1,1.83.42,1.25,1.25,0,0,1,.85,1.11h.28a2.23,2.23,0,0,0,0,.23,1.89,1.89,0,0,0,.13.35,1.56,1.56,0,0,0,.18.34.4.4,0,0,0,.26.19v2.18c0,.15-.19.3-.57.47a9.9,9.9,0,0,1-1.3.43,13.27,13.27,0,0,1-1.4.32,7.61,7.61,0,0,1-.91.11,4.84,4.84,0,0,1-1.73-.3c-.53-.2-1-.39-1.49-.58a8,8,0,0,0-2.34-.42Q260.85,307.32,259.54,307.32Z" transform="translate(-163.31 -156.48)"/><path class="cls-1" d="M280.59,308.32c-.4,0-.84,0-1.32-.07a12.39,12.39,0,0,1-1.32-.18c-.41-.09-.65-.2-.73-.36a1.36,1.36,0,0,0-.43-.48l-.63-.45c-.22-.15-.41-.3-.59-.44a.59.59,0,0,1-.26-.47v-2.94l.08-.17a.65.65,0,0,1,.24-.28,2.82,2.82,0,0,0,.65-1.12,11.63,11.63,0,0,0,.47-1.67A14,14,0,0,0,277,298a4.54,4.54,0,0,0-.06-1.34l.29-.19L277,279.8v-6.6a10.23,10.23,0,0,1-1.2-2,5.29,5.29,0,0,1-.5-2.16.91.91,0,0,1,.22-.56,3.14,3.14,0,0,1,.55-.54,3.67,3.67,0,0,1,.71-.44,4.27,4.27,0,0,1,.75-.27h1.67a10.13,10.13,0,0,1,1.63.12,9.92,9.92,0,0,0,1.42.11.38.38,0,0,1-.12.3l-.21.15h.66l.65-.2a1.13,1.13,0,0,1,.26.07l.35.13.95.6c.37.22.73.45,1.1.69a11.63,11.63,0,0,1,1,.74,3.66,3.66,0,0,1,.71.72,7.63,7.63,0,0,1,.69,1.58,6.76,6.76,0,0,0,.53,1.36,7.13,7.13,0,0,0,1,1.49l1.31,1.5a12,12,0,0,1,1.11,1.5,2.7,2.7,0,0,1,.47,1.46c.14,0,.38.16.73.49s.76.76,1.22,1.27.95,1.07,1.47,1.68,1,1.21,1.44,1.78l1.2,1.55c.35.45.6.77.73,1a8.27,8.27,0,0,1,.71,1.27c.21.46.42.89.66,1.32a8.6,8.6,0,0,0,.81,1.22,3.56,3.56,0,0,0,1.24.95c.3.17.41.31.32.44a1,1,0,0,0-.12.55,2.75,2.75,0,0,0,.76-.1c.2-.07.3-.25.3-.55s-.06-.4-.18-.47a.36.36,0,0,1-.19-.33,10.17,10.17,0,0,1,.15-1.72c.09-.59.2-1.18.32-1.77s.24-1.19.35-1.79a9.47,9.47,0,0,0,.16-1.74c0-.15-.1-.23-.28-.23v-.85q0-.22,0-.6a.66.66,0,0,1,.31-.61,6.67,6.67,0,0,1,.06-1.42c.07-.45.14-.89.22-1.33s.16-.86.23-1.27a7.71,7.71,0,0,0,.1-1.28,1.37,1.37,0,0,1,0-.34c0-.11-.08-.2-.32-.28a5.51,5.51,0,0,0,.22-.72,3.24,3.24,0,0,0,.06-.64v-.23a1.72,1.72,0,0,0,0-.22c0-.13-.06-.28-.1-.44s-.08-.31-.1-.44a1.35,1.35,0,0,1,0-.26,1.11,1.11,0,0,1,.14-.32,1.11,1.11,0,0,0,.14-.38,1,1,0,0,0-.18-.4c-.13-.19-.27-.41-.43-.68a5.64,5.64,0,0,1-.43-.85,2.35,2.35,0,0,1-.18-.88v-1a5.14,5.14,0,0,0,.47-.29c.25-.17.53-.36.83-.58l.81-.59a1.61,1.61,0,0,0,.41-.36l.57-.07.85-.08.84-.07.55,0a4.75,4.75,0,0,1,1.14.23c.51.15,1,.33,1.56.53a9.63,9.63,0,0,1,1.4.68c.41.25.61.46.61.63v3.62a1.08,1.08,0,0,0-.26.5c-.1.27-.2.6-.33,1s-.24.81-.36,1.27-.23.9-.33,1.32-.17.79-.22,1.13a6.07,6.07,0,0,0-.08.74c0,.22,0,.48,0,.76a4,4,0,0,0,0,.85,3.61,3.61,0,0,0,.18.84,1.77,1.77,0,0,0,.51.72l-.16.28a4.49,4.49,0,0,1-.29.41c-.11.14-.21.28-.3.41a3.66,3.66,0,0,1-.23.29v.05a2.36,2.36,0,0,0,.17.87,2.72,2.72,0,0,1,.16.94v1a11.46,11.46,0,0,1-.06,1.17,8.36,8.36,0,0,1-.19,1.15,3,3,0,0,1-.36.95h.28v1.59l-.61.45.33.22-.33.2h.33a1,1,0,0,1,.3.58,4.52,4.52,0,0,1,.06.74,5.48,5.48,0,0,1,0,.72c0,.23,0,.4,0,.51.22,0,.33.07.33.2a.83.83,0,0,1-.14.48,3.9,3.9,0,0,1-.33.38,3,3,0,0,0-.32.4.94.94,0,0,0-.15.55,5.64,5.64,0,0,0,.13,1.25c.08.39.16.79.26,1.19a11.75,11.75,0,0,1,.22,1.21,4.79,4.79,0,0,1,0,1.31l.69-.23a.6.6,0,0,0-.32.41,2.89,2.89,0,0,0,0,.52h-.12a.86.86,0,0,0,.26.56l.59.65a5.51,5.51,0,0,1,.59.76,1.59,1.59,0,0,1,.26.89,2.61,2.61,0,0,1-.3,1.21,3.69,3.69,0,0,1-.87,1.05,4.61,4.61,0,0,1-1.39.75,5.76,5.76,0,0,1-1.83.28q0-.09-.42-.18c-.29-.07-.61-.13-1-.19a9.52,9.52,0,0,0-1.06-.11,3.71,3.71,0,0,0-.69,0l-.39-.26-.56-.34-.57-.32-.39-.24a3.38,3.38,0,0,1-1.06-.94,9.14,9.14,0,0,1-.81-1.27l-.71-1.36a5.76,5.76,0,0,0-.8-1.19,7.22,7.22,0,0,0-.54-.6l-.92-.89-.89-.87a1.68,1.68,0,0,1-.45-.59l.28-.48a1.63,1.63,0,0,0-.32-.25l-.29-.2a7.5,7.5,0,0,1-.73-.75,8.65,8.65,0,0,1-.67-.92,9.16,9.16,0,0,1-.53-1,2.63,2.63,0,0,1-.26-.91.39.39,0,0,1-.37,0,1.26,1.26,0,0,1-.22-.24l-.19-.29a.33.33,0,0,0-.2-.17,2.18,2.18,0,0,0-.08-.44c-.05-.19-.12-.4-.18-.62s-.14-.41-.21-.59-.11-.31-.14-.39l-.32-.32a.23.23,0,0,1,0-.35L291.41,287a.76.76,0,0,1-.39-.28,2.93,2.93,0,0,1-.3-.45,5.55,5.55,0,0,1-.29-.6h-.28c-.08-.13-.25-.35-.51-.68s-.56-.67-.89-1.06l-1.06-1.2c-.37-.42-.71-.79-1-1.13l-.81-.84c-.22-.22-.35-.32-.41-.32h-.32c-.11,0-.19.18-.23.42a4.13,4.13,0,0,0-.06.48,2.54,2.54,0,0,0,.1.78,1.92,1.92,0,0,1,.11.69,1.25,1.25,0,0,1-.17.61,1.42,1.42,0,0,0-.16.7,2.08,2.08,0,0,0,.16.85,1.83,1.83,0,0,1,.17.76,1.9,1.9,0,0,1,0,.37,1.2,1.2,0,0,1,0,.23.83.83,0,0,1,0,.15.9.9,0,0,0,0,.18v.15l.33.45-.33.45.33.46v.22a.75.75,0,0,1,0,.24c0,.07-.12.14-.29.21V296a1.65,1.65,0,0,1,.37.82,10.54,10.54,0,0,1,.18,1.24c0,.44.06.88.06,1.31v1.11a.68.68,0,0,1-.2.36.84.84,0,0,0-.2.32l.32.45v.25a.55.55,0,0,1-.06.19q-.06.12-.12.27a1.48,1.48,0,0,0-.1.27.54.54,0,0,0,0,.15h.32l.19.26a.51.51,0,0,1,.1.2v2.51c-.33.1-.51.26-.55.49a3.13,3.13,0,0,1-.25.75,2.07,2.07,0,0,1-.79.82,6.35,6.35,0,0,1-2.2.69.64.64,0,0,0-.34.12.65.65,0,0,1-.27.11v-.31Z" transform="translate(-163.31 -156.48)"/><path class="cls-1" d="M334.61,307.32h-1.44c-.42,0-.83,0-1.24,0s-.83,0-1.28.08l-1.53.14c-.62.08-1.33.21-2.13.38a10,10,0,0,1-2.18.27,5.16,5.16,0,0,1-1.3-.17,10,10,0,0,1-1.34-.43A8.26,8.26,0,0,1,321,307a4.3,4.3,0,0,1-.94-.75v-1.53a2.71,2.71,0,0,1,.09-.68,2,2,0,0,1,.26-.63A1,1,0,0,1,321,303c-.16,0-.26-.1-.28-.17a.79.79,0,0,1-.05-.29,2.43,2.43,0,0,1,.31-1.11,2.45,2.45,0,0,0,.3-1.12v-.63l-.28-.19a1.06,1.06,0,0,1,.14-.3.75.75,0,0,0,.14-.36v-.22l-.28-.45a3.23,3.23,0,0,1,.33-1.28,3.53,3.53,0,0,0,.32-1.39,2.65,2.65,0,0,0-.18-1,2.87,2.87,0,0,1-.19-1v-.79l.37-.2v-4.33a.75.75,0,0,1-.26-.37,1.43,1.43,0,0,1-.11-.31,1.76,1.76,0,0,1,.07-.37c0-.19.08-.39.12-.61s.08-.42.12-.6a2.52,2.52,0,0,0,.06-.37v-.14a.22.22,0,0,0-.18-.23c-.12,0-.19-.1-.19-.2v-.08a.76.76,0,0,1,.07-.27l.12-.39.12-.38a1,1,0,0,0,.06-.27c-.14,0-.25-.1-.35-.29a2.71,2.71,0,0,1-.2-.71,7.83,7.83,0,0,1-.08-.79c0-.26,0-.44,0-.56a1.42,1.42,0,0,1,.1-.46c.07-.2.14-.41.23-.64s.15-.45.22-.68a2,2,0,0,0,.1-.57l-.37-.48v-1.73a.25.25,0,0,1-.22-.08.27.27,0,0,1-.06-.14.88.88,0,0,1,.14-.36.89.89,0,0,0,.14-.29v-.14a.67.67,0,0,0-.14-.43.77.77,0,0,1-.14-.45,1.1,1.1,0,0,1,.14-.55,1.22,1.22,0,0,0,.14-.64,1.65,1.65,0,0,0-.14-.7q-.13-.31-.3-.63c-.11-.21-.21-.42-.31-.63a1.64,1.64,0,0,1-.14-.67,1.42,1.42,0,0,1,.14-.43,1.2,1.2,0,0,0,.14-.42l-.28-.43v-.08a1.27,1.27,0,0,1,.37-.7,6.41,6.41,0,0,1,.87-.85,10.6,10.6,0,0,1,1-.72,1.68,1.68,0,0,1,.83-.31h3.21a.79.79,0,0,0,.39.35,2.57,2.57,0,0,0,.61.2,4,4,0,0,0,.67.09h.53l.61-.2h.08a1.77,1.77,0,0,1,.43.13l.77.27.83.27a3.69,3.69,0,0,0,.61.15,6.28,6.28,0,0,0,1,.06l1.26,0,1.26,0,1,0h1.48a7.92,7.92,0,0,0,1,0A5.38,5.38,0,0,0,340,268c.33-.08.76-.21,1.3-.38l.41.23a4.13,4.13,0,0,1,1.42.29,7.82,7.82,0,0,1,1.47.75,6.06,6.06,0,0,1,1.16,1,1.56,1.56,0,0,1,.46,1v.45l-.28.45s0,.08.1.13a.32.32,0,0,0,.18.07,6.27,6.27,0,0,0-1,.59,10.35,10.35,0,0,1-.94.64,5.57,5.57,0,0,1-1.07.51,4,4,0,0,1-1.33.21,6.32,6.32,0,0,1-1.58-.17c-.46-.11-.9-.23-1.32-.35s-.87-.24-1.35-.35a6.72,6.72,0,0,0-1.64-.17,24.41,24.41,0,0,0-3,.14,8.62,8.62,0,0,0-1.83.38,2.48,2.48,0,0,0-1,.57,2.42,2.42,0,0,0-.47.69,6,6,0,0,0-.26.75,2.25,2.25,0,0,1-.39.75q.33.06.33.27v.35a.89.89,0,0,1-.16.56.58.58,0,0,0-.17.41v.14a1.12,1.12,0,0,0,.17.29.84.84,0,0,1,.16.39l-.33.42v1.84a1,1,0,0,0,.17.3.85.85,0,0,1,.16.38,1.11,1.11,0,0,1-.08.3c-.06.14-.12.3-.18.47l-.21.48-.14.31.61,1.53a4.22,4.22,0,0,1,1-.06l1.2.09,1.2.11a10.61,10.61,0,0,0,1.07.06,7.07,7.07,0,0,0,1.3-.13l1.27-.27q.6-.15,1.2-.24a4.83,4.83,0,0,1,2.68.34,4,4,0,0,1,1.06.72,4.13,4.13,0,0,1,.71.95c.19.35.36.69.53,1l-1,2.41s-.09.07-.28.15a7,7,0,0,1-.68.26c-.25.08-.52.17-.81.24a4.17,4.17,0,0,1-.71.14h-.81a9.3,9.3,0,0,1-1.3-.08c-.36-.06-.7-.13-1-.2s-.67-.14-1-.2a7.69,7.69,0,0,0-1.26-.08h-1.12c-.53,0-1.07,0-1.64.05a9.16,9.16,0,0,0-1.53.23c-.45.11-.68.29-.71.54,0,.05,0,.15,0,.29s0,.3,0,.46,0,.31,0,.46,0,.26,0,.32h.2a3.48,3.48,0,0,1-.14,1c-.09.34-.2.68-.3,1s-.21.67-.31,1a3.44,3.44,0,0,0-.14.93l.28.2v.14a1.18,1.18,0,0,1-.14.55,1.4,1.4,0,0,0-.14.56.29.29,0,0,0,.14.29c.1.05.14.18.14.39a1.62,1.62,0,0,1-.14.65,1.73,1.73,0,0,0-.14.65,3.54,3.54,0,0,0,.12.58,7,7,0,0,0,.35,1,3.62,3.62,0,0,0,.57.93,1,1,0,0,0,.79.41c.41,0,1,0,1.71.05l2.32.08,2.31.07,1.71,0h1.59a14.25,14.25,0,0,0,1.77-.11,12.31,12.31,0,0,1,1.77-.12,4.1,4.1,0,0,1,1.83.42,1.25,1.25,0,0,1,.85,1.11h.28a2.23,2.23,0,0,0,0,.23,1.89,1.89,0,0,0,.13.35,1.56,1.56,0,0,0,.18.34.4.4,0,0,0,.26.19v2.18c0,.15-.19.3-.57.47a9.9,9.9,0,0,1-1.3.43,13.27,13.27,0,0,1-1.4.32,7.61,7.61,0,0,1-.91.11,4.84,4.84,0,0,1-1.73-.3c-.53-.2-1-.39-1.49-.58a8,8,0,0,0-2.34-.42Q335.92,307.32,334.61,307.32Z" transform="translate(-163.31 -156.48)"/><path class="cls-1" d="M374.94,304.74a.49.49,0,0,1-.33-.11.71.71,0,0,1-.18-.29,1.3,1.3,0,0,1-.08-.34,1.47,1.47,0,0,1,0-.28,1.76,1.76,0,0,1,.14-.71,1.73,1.73,0,0,0,.14-.65,9,9,0,0,0-.1-1c-.07-.51-.17-1-.3-1.6a10.69,10.69,0,0,0-.51-1.54,1.46,1.46,0,0,0-.71-.85c.08,0,.1-.14.06-.32a2.81,2.81,0,0,0-.21-.59l-.26-.59a1.29,1.29,0,0,1-.12-.37l-.29-.39c0-.06-.08-.16-.16-.29l-.26-.44c-.1-.16-.18-.3-.25-.44a.67.67,0,0,1-.1-.28,3,3,0,0,1-.79-.44,11.7,11.7,0,0,1-1-.79,8.84,8.84,0,0,1-.87-.84c-.25-.26-.37-.44-.37-.53-.41-.08-.75-.15-1-.22s-.61-.12-1-.17-.95-.08-1.63-.09-1.61,0-2.81,0c0,0-.06,0-.1.1a1.33,1.33,0,0,0-.12.24,1.57,1.57,0,0,0-.1.28.74.74,0,0,0,0,.23.93.93,0,0,0,.14.38,1.57,1.57,0,0,1,.14.32l-.28.54v2.3a1,1,0,0,0,0,.22,2.8,2.8,0,0,0,.1.36c0,.12.07.23.1.34a.84.84,0,0,1,0,.18,1.07,1.07,0,0,1,0,.23c0,.11-.06.23-.1.36s-.08.26-.1.37a1.07,1.07,0,0,0,0,.23,1,1,0,0,0,.14.55,3.55,3.55,0,0,0,.32.47c.13.15.24.3.35.45a.84.84,0,0,1,.16.51v.34l-.32.45a1.17,1.17,0,0,0,.14.53,5.27,5.27,0,0,0,.33.61,5.2,5.2,0,0,1,.32.62,1.32,1.32,0,0,1,.14.57.93.93,0,0,1-.16.56.84.84,0,0,0-.16.51v.06l.61-.2v.34a6.9,6.9,0,0,1-.14,1.25,3.43,3.43,0,0,1-.47,1.18h.4a1.23,1.23,0,0,1-.52.91,6.1,6.1,0,0,1-1.28.81,9.92,9.92,0,0,1-1.55.56,5,5,0,0,1-1.32.22h-.25l-.28-.23-.65.23H357a4.62,4.62,0,0,1-1.34-.19,9.5,9.5,0,0,1-1.26-.46,5.12,5.12,0,0,0-.81-1.14,1.53,1.53,0,0,1-.49-1.07h-.29a2.93,2.93,0,0,0,0-.53.62.62,0,0,0-.28-.41v-2.86a.25.25,0,0,0,.24-.18.63.63,0,0,0,.08-.24v-2.27a.93.93,0,0,1,.33-.66,1,1,0,0,0,.33-.67.51.51,0,0,0-.19-.44c-.12-.08-.18-.27-.18-.55a3.44,3.44,0,0,1,.14-.93c.1-.32.2-.64.33-1s.23-.62.34-.92a2.59,2.59,0,0,0,.17-.88l-.29-.51v-1c0-.44,0-.82,0-1.16a5.29,5.29,0,0,1,.25-1.16H354a2.21,2.21,0,0,0-.08-.66,3.25,3.25,0,0,0-.18-.5c-.07-.16-.13-.31-.18-.46a1.37,1.37,0,0,1-.08-.51.21.21,0,0,1,0-.12,1,1,0,0,1,.28-.25.52.52,0,0,0-.1-.31,2.1,2.1,0,0,0-.25-.28,1.83,1.83,0,0,1-.24-.31.74.74,0,0,1-.1-.4l.37-.45v-1.81a.39.39,0,0,0,.22-.19.48.48,0,0,0,.1-.27,1.16,1.16,0,0,0-.1-.34c-.07-.17-.15-.34-.25-.53s-.17-.37-.24-.54a1.09,1.09,0,0,1-.1-.34v-.23l.37-.42a.88.88,0,0,0-.19-.41.88.88,0,0,1-.18-.41.32.32,0,0,1,.06-.2l.12-.17.12-.19a.54.54,0,0,0,.07-.29,4.37,4.37,0,0,1,0-.44c0-.22-.12-.35-.39-.38v-2.1l-.29.06-.2-.23a.67.67,0,0,1-.12-.2c0-.05.1-.13.3-.21s.31-.17.31-.24a.55.55,0,0,0-.06-.19.73.73,0,0,0-.23-.24.48.48,0,0,1,.05-.24.69.69,0,0,1,.24-.18,1.23,1.23,0,0,1-.57-.71,7.38,7.38,0,0,1-.39-1.23c-.09-.44-.16-.85-.2-1.23s-.06-.62-.06-.74A6.16,6.16,0,0,1,352,269a2,2,0,0,1,.49-1,2.23,2.23,0,0,1,1-.61,5.31,5.31,0,0,1,1.7-.22,5.68,5.68,0,0,1,1.67.22,5.91,5.91,0,0,0,1.63.21h.4l.61-.23a1.93,1.93,0,0,1,.53.12,3.09,3.09,0,0,0,.45.11h.81a6.11,6.11,0,0,0,1.16-.1c.37-.07.73-.14,1.08-.23s.71-.16,1.06-.22a5.16,5.16,0,0,1,1-.1h.61l.43,0,.73.08.74.08.46,0a1.52,1.52,0,0,0,.41-.11,1.85,1.85,0,0,1,.49-.11,7.57,7.57,0,0,1,1.85.44,5.17,5.17,0,0,0,1.77.32v.4l.61-.23.85.29a11.09,11.09,0,0,1,1.34.56,3.79,3.79,0,0,1,.9.45,1.16,1.16,0,0,0,1,.17l-.32.2a3.54,3.54,0,0,0,1,.72c.35.18.67.36,1,.54a3.07,3.07,0,0,1,.75.61,1.29,1.29,0,0,1,.31.91H381c.11,0,.2.08.28.25s.16.37.25.58.15.43.22.64a1,1,0,0,0,.22.42,2.11,2.11,0,0,0,.41.32,2,2,0,0,0,.28.12.39.39,0,0,1,.19.12.41.41,0,0,1,.06.27.65.65,0,0,0,0,.31.24.24,0,0,0,.14.08l.29.12a1.53,1.53,0,0,1,.46.39l-.65.4a1,1,0,0,1,.53.38.94.94,0,0,1,.12.47.9.9,0,0,1,.53.1.28.28,0,0,1,.12.22,1.1,1.1,0,0,0,.05.29q0,.15.36.24c-.11,0-.2.21-.28.46a2.29,2.29,0,0,0-.13.56l.41.42v.54a3.16,3.16,0,0,1-.26.54l-.59,1c-.27.46-.56,1-.86,1.51a1.85,1.85,0,0,1-.57.21l-.65.18a1.45,1.45,0,0,0-.42.41c-.15.2-.31.39-.47.58a3,3,0,0,1-.49.47.51.51,0,0,1-.53.07l-.38.27c-.18.12-.38.25-.59.37l-.61.35-.41.26-1,.19s-.06,0-.1.1a1.38,1.38,0,0,1-.16.23l-.18.23a.26.26,0,0,1-.17.1,1.55,1.55,0,0,1-.59.05,5.3,5.3,0,0,0-.69,0,2,2,0,0,0-.59.11.38.38,0,0,0-.24.38.73.73,0,0,0,.08.26.41.41,0,0,0,.12.14l1.59,1v.25l.32-.08a2.77,2.77,0,0,1,.53.32l.45.33-.37.23a4.38,4.38,0,0,1,.61.54q.4.39.84.84l.77.85.47.54a3,3,0,0,0,.14.3c.07.14.15.29.24.44s.19.3.29.44a1.2,1.2,0,0,0,.22.27v.42l.33.4-.33.51s0,.06.1.14a1.86,1.86,0,0,0,.25.22,2,2,0,0,0,.32.22.78.78,0,0,0,.31.1,1.16,1.16,0,0,0,.16.61,1.08,1.08,0,0,1,.16.58v.19s0,.13,0,.27.06.3.11.46.08.3.12.43a1.89,1.89,0,0,1,.06.23,2,2,0,0,0,.22,1,5.74,5.74,0,0,0,.53.79c.2.26.41.51.63.77a2.46,2.46,0,0,1,.49.92,1,1,0,0,0,0,.24,1.48,1.48,0,0,0,.12.29l.16.34H385a4.6,4.6,0,0,0,.06.63.94.94,0,0,0,.47.65v2.43a.58.58,0,0,0-.36.12,1.36,1.36,0,0,0-.31.28l-.3.34a1.1,1.1,0,0,1-.37.25l-.77.24-1,.32-1,.28c-.31.08-.56.15-.75.18a1.6,1.6,0,0,1-.59-.18,3.81,3.81,0,0,0-.63-.24l-1.34-.3a5.88,5.88,0,0,1-.89-.24,1.63,1.63,0,0,1-.61-.38,2,2,0,0,1-.45-.75c-.14-.25-.25-.45-.35-.61s-.17-.32-.24-.47a2.28,2.28,0,0,1-.16-.52,3.52,3.52,0,0,1-.07-.81Zm-6.71-20.07a3.59,3.59,0,0,0,1.58-.42,13.72,13.72,0,0,0,1.69-1,18,18,0,0,0,1.51-1.1l1-.81.63-.47a1.88,1.88,0,0,0,.41-.36,1.29,1.29,0,0,0,.2-.49,4.55,4.55,0,0,0,.06-.86,7,7,0,0,0-.2-1.8,4,4,0,0,0-.69-1.41,5.35,5.35,0,0,0-1.3-1.18,16.12,16.12,0,0,0-2-1.1.81.81,0,0,1-.24-.19l-.18-.18a1.11,1.11,0,0,0-.29-.16,2,2,0,0,0-.55-.09l-.46,0a3.86,3.86,0,0,1-.51-.09l-.61-.11v-.23a4,4,0,0,0-.94.12,5,5,0,0,1-1.06.11h-.32a5.57,5.57,0,0,1-.57-.11,3.51,3.51,0,0,0-.65-.12,3.85,3.85,0,0,0-2,.43,2.53,2.53,0,0,0-1,1.09,3.9,3.9,0,0,0-.39,1.46q-.06.78-.06,1.5v1.27a.23.23,0,0,1,.23.13,1.11,1.11,0,0,1,.08.29c0,.12,0,.22,0,.32v.36c0,.1,0,.2,0,.3a.86.86,0,0,1-.08.27.23.23,0,0,1-.23.11,5,5,0,0,0,.12,1,1.78,1.78,0,0,0,.49.92v2.61Z" transform="translate(-163.31 -156.48)"/><path class="cls-1" d="M387.79,305.79a3.84,3.84,0,0,1,.16-1.22,3,3,0,0,1,.47-.89,8.34,8.34,0,0,1,.69-.82c.26-.28.55-.61.87-1h.33v-.2l-.33-.48s.11-.1.31-.18.3-.17.3-.24v-.85s.05-.06.15-.11l.32-.2.35-.21c.11-.07.16-.12.16-.16l.45-.57c.19-.24.38-.51.59-.79s.38-.56.55-.83a3.48,3.48,0,0,0,.32-.67.62.62,0,0,0-.12-.24c-.08-.12-.15-.18-.2-.18s.06-.16.12-.3.11-.29.16-.46.11-.31.16-.46a.85.85,0,0,1,.17-.31l.32-.43v-1.33a1.82,1.82,0,0,1,.57-.61,2.78,2.78,0,0,0,.69-.69q.57-1.28,1.26-2.49a8.91,8.91,0,0,0,1-2.69v-1.33a.38.38,0,0,1,.1-.19,2,2,0,0,0,.2-.28,1.59,1.59,0,0,1,.21-.27c.06-.08.1-.12.1-.14a6.18,6.18,0,0,0,.57-1.9,18.34,18.34,0,0,1,.32-1.81,17,17,0,0,1,.92-2.72c.36-.83.71-1.65,1-2.46a25.55,25.55,0,0,0,.86-2.51,10.56,10.56,0,0,0,.36-2.84l-.28-.46v-.08a1.09,1.09,0,0,1,.22-.61,2.57,2.57,0,0,1,.59-.6,4.31,4.31,0,0,1,.82-.45,3.56,3.56,0,0,1,.89-.24l.61.23.61-.23h.08a1.9,1.9,0,0,1,.63.11l.57.24a4,4,0,0,0,.53.23,1.4,1.4,0,0,0,.51.1h.2l.65-.23a4.5,4.5,0,0,1,1.24.19,9.19,9.19,0,0,1,1.24.45c.41.18.8.37,1.18.58l1.06.57-.61.2a2.3,2.3,0,0,1,.53.46c.19.22.37.44.53.65l.44.58c.14.17.22.26.25.26l-.33.23.33.19-.61.49.61.42a4,4,0,0,0,0,1c0,.31.12.62.18.92s.12.6.17.9a2.15,2.15,0,0,1-.07.91l1.35,2.34a22.63,22.63,0,0,1,1.18,2.28,16.84,16.84,0,0,1,.71,1.75q.3.9.57,1.83c.17.61.36,1.22.55,1.84a14.37,14.37,0,0,0,.69,1.79c.3.61.59,1.23.89,1.86a16.39,16.39,0,0,0,1,1.83q0,.11.3.24c.21.08.31.14.31.18a8.87,8.87,0,0,1,.34,1.08c.13.45.27.92.43,1.4a8.45,8.45,0,0,0,.57,1.33,1.66,1.66,0,0,0,.85.81.4.4,0,0,0-.2.07c-.08,0-.12.09-.12.12a.74.74,0,0,0,.16.36.84.84,0,0,1,.16.3c0,.17-.1.25-.32.25a1.16,1.16,0,0,1,.93.44,3.88,3.88,0,0,1,.61,1,6.71,6.71,0,0,1,.39,1.11,2.75,2.75,0,0,0,.27.73,2,2,0,0,0,.91.76,7.29,7.29,0,0,1,1,.55,2.91,2.91,0,0,1,.32.24l.41.3a3.46,3.46,0,0,0,.49.33v2.41l-.15.19a2.73,2.73,0,0,1-.24.26l-.28.27a.73.73,0,0,1-.23.16v.14a.73.73,0,0,0,0,.16.35.35,0,0,0,.25.15,7,7,0,0,0-1.35.13c-.4.09-.81.18-1.21.3a13.6,13.6,0,0,1-1.37.29,10.16,10.16,0,0,1-1.77.13H422a.83.83,0,0,0-.31-.22,6.52,6.52,0,0,0-.59-.29l-.61-.24a1.72,1.72,0,0,0-.4-.1.52.52,0,0,0-.35-.51c-.23-.09-.48-.19-.75-.28a3.68,3.68,0,0,1-.75-.35.81.81,0,0,1-.35-.73v-.14s0-.06.1-.14l.21-.25a1.89,1.89,0,0,1,.2-.27.38.38,0,0,0,.1-.19.94.94,0,0,0-.16-.31.8.8,0,0,1-.16-.37v-.28a1.41,1.41,0,0,1,.16-.71,1.51,1.51,0,0,0,.16-.76h-.12a1,1,0,0,0-.1-.29.86.86,0,0,1-.1-.34l-.29-.48.29-.2a1.7,1.7,0,0,0-.49-1.17,5,5,0,0,1-.77-1v-.9a1.74,1.74,0,0,0-.86-.62,10.58,10.58,0,0,0-1.54-.56c-.57-.16-1.13-.29-1.67-.39a6.63,6.63,0,0,0-1.18-.16h-7.52a3.69,3.69,0,0,0-2.18.68,6.45,6.45,0,0,0-1.67,1.77,12.6,12.6,0,0,0-1.2,2.41c-.32.88-.61,1.73-.85,2.57s-.45,1.62-.61,2.34a12.86,12.86,0,0,1-.45,1.64c-.38.12-.77.26-1.18.43s-.82.33-1.26.49-.87.3-1.3.43a4.85,4.85,0,0,1-1.3.18,4.73,4.73,0,0,1-1.69-.3,5,5,0,0,1-1.4-.77,3.74,3.74,0,0,1-1-1.08A2.3,2.3,0,0,1,387.79,305.79Zm16-15.4c0,.37.31.65.94.82a10,10,0,0,0,2.13.32c.8.05,1.59.06,2.36,0l1.65,0h.69a6.62,6.62,0,0,0,.89,0,3,3,0,0,0,.79-.17c.24-.08.35-.21.35-.38a7,7,0,0,0-.1-1.06,8.56,8.56,0,0,0-.33-1.35,5,5,0,0,0-.59-1.23,1.82,1.82,0,0,0-.89-.75,2.21,2.21,0,0,0,.2-.52,2.53,2.53,0,0,0,.12-.58q0-.12-.3-.24c-.2-.09-.3-.15-.3-.19s-.13-.22-.23-.39-.2-.36-.3-.56a6,6,0,0,1-.29-.56,3.12,3.12,0,0,1-.16-.44,9.35,9.35,0,0,1-.86-2.42,15.73,15.73,0,0,0-.69-2.45,5.76,5.76,0,0,0-.53-.34l-.44-.28-.21-.17a3.65,3.65,0,0,1-.06.53,4.13,4.13,0,0,0-.06.48l-.12.15-.16.11a.45.45,0,0,1,.18,0,.15.15,0,0,1,.1.16,2,2,0,0,1,0,.48.58.58,0,0,1-.14.27,1.42,1.42,0,0,0-.2.22,2.53,2.53,0,0,0-.23.36,3.42,3.42,0,0,0-.3.57c-.13.26-.25.53-.39.82s-.26.54-.37.78-.17.38-.2.43a4,4,0,0,0-.41,1.76,7.14,7.14,0,0,1-.2,1.76,14.4,14.4,0,0,1-.63,2,20.78,20.78,0,0,0-.67,2Z" transform="translate(-163.31 -156.48)"/><path class="cls-1" d="M456.92,270.59a1.56,1.56,0,0,1-.22.68,1.9,1.9,0,0,1-.41.47,3.38,3.38,0,0,1-.43.3l-.28.17c-.49.22-1,.44-1.46.63a4,4,0,0,1-1.71.25,11.36,11.36,0,0,1-1.34-.2l-1.31-.3c-.43-.1-.86-.19-1.3-.27a8.58,8.58,0,0,0-1.38-.11l-.75,0a5.47,5.47,0,0,0-.82,0,1.77,1.77,0,0,0-.65.19.47.47,0,0,0-.26.45s0,.07,0,.15a2.48,2.48,0,0,0,0,.29.64.64,0,0,0,.06.28.35.35,0,0,0,.26.18q-.24.5-.36.78c-.08.2-.14.39-.19.56a2.38,2.38,0,0,0-.06.55v2c.06,0,.13.07.21.19a.62.62,0,0,1,.12.24l-.33.22v.43a2,2,0,0,1,0,.41c0,.14.1.23.37.27a14.47,14.47,0,0,0,0,1.84c0,.57.06,1.11.1,1.64s.09,1.05.14,1.57a14.66,14.66,0,0,1,.08,1.66V287l-.28.42c0,.15.09.23.28.23v2.07c0,.49,0,1,0,1.65s-.06,1.24-.1,1.89-.07,1.27-.1,1.89,0,1.19,0,1.7v2.46a1.12,1.12,0,0,1,.57.5,3.57,3.57,0,0,1,.39.86c.09.32.16.64.22.94a4.73,4.73,0,0,1,.08.68,1.25,1.25,0,0,1-.33.85,1.05,1.05,0,0,0-.32.62l.29.42a3.12,3.12,0,0,1-.33,1.39,4,4,0,0,1-.92,1.22,4.67,4.67,0,0,1-1.44.88,5.28,5.28,0,0,1-1.91.34,5.77,5.77,0,0,1-2.46-.47,5,5,0,0,1-1.65-1.19,4.35,4.35,0,0,1-.93-1.63,6,6,0,0,1-.29-1.81c0-.26,0-.65.08-1.15s.14-1,.25-1.51a8.54,8.54,0,0,1,.38-1.36c.15-.4.32-.62.51-.68v-1.84a1.71,1.71,0,0,1,.23-.4,1.21,1.21,0,0,0,.22-.45,1.14,1.14,0,0,0-.06-.25c0-.14-.1-.28-.16-.43a3.37,3.37,0,0,1-.17-.42,1.89,1.89,0,0,1-.06-.23,1.84,1.84,0,0,1,.06-.34,5.57,5.57,0,0,1,.17-.55c.06-.2.12-.39.16-.57a2.22,2.22,0,0,0,.06-.35l-.45-1.59v-.65a1.8,1.8,0,0,1,.06-.3,4.35,4.35,0,0,1,.17-.51c.06-.18.12-.34.16-.48a1.8,1.8,0,0,0,.06-.24.81.81,0,0,0-.06-.22A3.76,3.76,0,0,0,437,288a2.92,2.92,0,0,1-.17-.37.85.85,0,0,1-.06-.23v-.05a1,1,0,0,1,.23-.58,1,1,0,0,0,.22-.53v-.14a1.29,1.29,0,0,0-.06-.2,3.52,3.52,0,0,0-.16-.35,2.69,2.69,0,0,1-.17-.34,1,1,0,0,1-.06-.19v-4l-.28-.45a8.7,8.7,0,0,0,.16-1c0-.29.05-.55.08-.8a6,6,0,0,0,0-.73v-.82a4.61,4.61,0,0,0-.57-2.24c-.38-.7-.8-1.42-1.26-2.15h-2.11c-.71,0-1.34,0-1.89.08l-1.63.19c-.53.06-1.07.13-1.63.18a17.23,17.23,0,0,1-1.85.09v-.31h-.28a3.57,3.57,0,0,1-1.06-.49,2.74,2.74,0,0,1-.73-.68,2.12,2.12,0,0,1-.41-1v-2a.93.93,0,0,1,.37-.7,3.74,3.74,0,0,1,.83-.55,5.23,5.23,0,0,1,.92-.35,2.44,2.44,0,0,1,.61-.13v.23a1,1,0,0,1,.5-.17,3.31,3.31,0,0,1,.51-.06l.69.23a15,15,0,0,0,2.44.36c.71,0,1.54.06,2.48.06q3.18,0,6.33,0a39.6,39.6,0,0,0,6.32-.45c.6-.14,1.22-.25,1.87-.36s1.28-.19,1.87-.25,1.14-.11,1.61-.13a5.77,5.77,0,0,1,1.08,0l.61-.23h.12a3.8,3.8,0,0,1,1.44.24,5.54,5.54,0,0,1,1.08.58,8.27,8.27,0,0,1,.92.74,6.45,6.45,0,0,0,.95.73v1.87Z" transform="translate(-163.31 -156.48)"/><path class="cls-1" d="M460.52,308.08a.16.16,0,0,0,0-.22,1.19,1.19,0,0,0-.18-.3c-.08-.1-.15-.21-.22-.31a.53.53,0,0,1-.1-.27h-.29l-.16-.4a1,1,0,0,1-.12-.3.85.85,0,0,1,0-.24v-.25a1.87,1.87,0,0,0,.38,0,.35.35,0,0,0,.23-.2,1.15,1.15,0,0,1-.37-.51q-.19-.42-.39-1c-.12-.36-.23-.71-.32-1.06a3.09,3.09,0,0,1-.14-.81v-.42a1,1,0,0,1,0-.19c0-.1.06-.21.1-.34s.07-.24.1-.35a1.07,1.07,0,0,0,0-.23l-.28-.42V300l.28-.2a1.55,1.55,0,0,0,.33-.25l-.33-.43a1.38,1.38,0,0,1-.08-.2c0-.07,0-.16-.08-.25a.65.65,0,0,1-.12-.28l.28-.46-.28-.22v-.29a1,1,0,0,1,0-.29.42.42,0,0,1,.24-.27c-.13,0-.22-.09-.24-.16a.37.37,0,0,1,0-.15,1.28,1.28,0,0,1,.1-.47l.2-.54c.07-.18.14-.34.21-.49a1.22,1.22,0,0,0,.1-.4l-.33-.51a1.08,1.08,0,0,1,.16-.3.79.79,0,0,0,.17-.38v-.71a5.69,5.69,0,0,0-.17-1.39,5.71,5.71,0,0,1-.16-1.3,3.22,3.22,0,0,1,0-.39c0-.16.23-.22.61-.2a1.51,1.51,0,0,1-.45-.2.43.43,0,0,1-.2-.34v-.14s.11-.13.33-.29.32-.26.32-.33-.11-.15-.32-.26l-.33-.17v-.2c0-.09.07-.16.2-.21a1.33,1.33,0,0,1,.45-.07,2.11,2.11,0,0,1,0-.62,2.74,2.74,0,0,1,.1-.39c0-.1.09-.21.13-.32a1.48,1.48,0,0,0,.06-.48.57.57,0,0,0,0-.24.73.73,0,0,0-.25-.19,1.2,1.2,0,0,0,.49-.42,2.24,2.24,0,0,0,.26-.54,3,3,0,0,0,.15-.55,3,3,0,0,1,.08-.44,8.24,8.24,0,0,0,.32-2.51c0-.8,0-1.65,0-2.56v-3.23a.59.59,0,0,1-.28-.35,1,1,0,0,1,0-.38,2.9,2.9,0,0,1,.06-.41.83.83,0,0,0,0-.44.59.59,0,0,0-.21-.33l-.32-.28c-.11-.11-.21-.22-.31-.34a.77.77,0,0,1-.14-.47,2,2,0,0,1,.31-1.05,1.76,1.76,0,0,0,.3-.82,1,1,0,0,0-.3-.51c-.21-.22-.31-.37-.31-.45a.63.63,0,0,1,.27-.54,3,3,0,0,1,.61-.35l.67-.3a1.18,1.18,0,0,0,.49-.37H463a8,8,0,0,1,2.81.47,7,7,0,0,1,2.2,1.29,1.36,1.36,0,0,0,.16.89,2.24,2.24,0,0,1,.24,1h.33v.19l-.33.43v1.84l-.4.2a5.76,5.76,0,0,1,.42.9,4.21,4.21,0,0,1,.21.74c0,.23.06.45.08.68s0,.48,0,.76a7.81,7.81,0,0,1-.24,2,4.89,4.89,0,0,0-.09,2l-.4.19v4.25l-.29.23v2.29l-.36.2c.19.07.29.16.32.27a1,1,0,0,1,0,.29v.29l-.36.48v1.61a.63.63,0,0,0-.21.05.15.15,0,0,0-.12.15.84.84,0,0,0,.16.3.81.81,0,0,1,.17.35v.2a1.17,1.17,0,0,1,0,.31c0,.08-.13.14-.29.17V294a.85.85,0,0,1-.14.35.79.79,0,0,0-.14.36l.28.23,0,.18c0,.1,0,.22,0,.34s0,.24,0,.35,0,.19,0,.23l.43,0c.23,0,.34.06.34.23a.4.4,0,0,1-.06.13,2,2,0,0,0-.12.21l-.12.21a.4.4,0,0,0-.06.13v.65a15.66,15.66,0,0,1,.75,1.88,6.39,6.39,0,0,1,.3,1.94s0,.11,0,.2a.54.54,0,0,1,0,.28.62.62,0,0,1-.12.26.33.33,0,0,1-.28.11l.4.2V304l-.4.23a1.2,1.2,0,0,1,.53.42,1,1,0,0,1,.12.46,3.39,3.39,0,0,1-.29,1.36,3.16,3.16,0,0,1-.83,1.13,4.37,4.37,0,0,1-1.38.78,5.73,5.73,0,0,1-1.94.3h-.75a6.77,6.77,0,0,1-1-.08,2.76,2.76,0,0,1-.88-.25.57.57,0,0,1-.36-.52Z" transform="translate(-163.31 -156.48)"/><path class="cls-1" d="M488.32,307.54c-.13,0-.42-.13-.87-.29s-.91-.35-1.4-.56l-1.91-.76a10.73,10.73,0,0,0-2-1.12,11.51,11.51,0,0,1-1.95-1.09,7.26,7.26,0,0,1-.73-.66l-.73-.78c-.25-.27-.5-.53-.77-.78a6.19,6.19,0,0,0-.9-.7l-2-3.14c.05-.05.05-.15,0-.29a2.82,2.82,0,0,0-.23-.46c-.09-.16-.18-.31-.26-.47a.83.83,0,0,1-.12-.31,1.31,1.31,0,0,1,0-.27,2.28,2.28,0,0,0,.06-.39,2.4,2.4,0,0,1,.06-.4,1.16,1.16,0,0,0,0-.27h-.37a.4.4,0,0,0-.1-.24.41.41,0,0,1-.1-.18c-.21-.49-.47-1.05-.77-1.67a4.2,4.2,0,0,1-.45-1.81.58.58,0,0,0,0-.15,1,1,0,0,1,0-.24,1.13,1.13,0,0,1,.08-.24.32.32,0,0,1,.23-.14l-.29-.2v-2.46l-.32-.26a.31.31,0,0,0,.24-.08c.05-.06.08-.1.08-.14l-.32-.43.32-.19a.69.69,0,0,0-.06-.26.6.6,0,0,1-.06-.23h-.41a8.53,8.53,0,0,1,.17-1.23c.1-.59.24-1.23.4-1.9s.33-1.3.49-1.89a7.35,7.35,0,0,1,.41-1.23s.11-.12.32-.23.33-.19.33-.23a4,4,0,0,0,.26-1.3,3.84,3.84,0,0,1,.35-1.39,3.49,3.49,0,0,1,.36-.46,6.47,6.47,0,0,0,.47-.57,7.11,7.11,0,0,0,.41-.6,1.05,1.05,0,0,0,.18-.55h.37a2.59,2.59,0,0,1,.16-.86,4.6,4.6,0,0,1,.45-.92,5.39,5.39,0,0,1,.67-.86,5.17,5.17,0,0,1,.83-.73,4.73,4.73,0,0,0,.61-.51q.21-.19.39-.39c.12-.13.26-.29.43-.46s.42-.4.77-.7a4.33,4.33,0,0,1,1.44-.56,5.92,5.92,0,0,0,1.49-.49l.48-.24c.19-.11.4-.2.61-.3l.78-.37a4.16,4.16,0,0,1,.61-.08q.4,0,.87,0c.31,0,.6,0,.85,0a4.21,4.21,0,0,1,.59.08.36.36,0,0,1,.25-.2l.36,0a6.48,6.48,0,0,1,1.18.1c.38.06.77.14,1.16.22s.78.16,1.16.23a7.51,7.51,0,0,0,1.18.1,5.93,5.93,0,0,0,1.22-.13c.38-.09.75-.18,1.12-.3s.73-.21,1.1-.29a4.79,4.79,0,0,1,1.16-.13,3.83,3.83,0,0,1,1,.17c.42.11.84.23,1.24.37l1.06.36a2.21,2.21,0,0,0,.53.17,1.63,1.63,0,0,0,.43-.05c.15,0,.22-.1.22-.17V268a2.27,2.27,0,0,1,1.08.2,1.75,1.75,0,0,1,.55.49c.13.2.27.41.4.63a1.73,1.73,0,0,0,.61.55,19,19,0,0,1,2.32,1.84,17.16,17.16,0,0,1,1.67,1.78,19.07,19.07,0,0,1,1.36,1.93c.42.68.88,1.43,1.36,2.26a3,3,0,0,0,.63.95,2.65,2.65,0,0,1,.63,1v1.3s0,.1.11.2l.2.28.2.28a.44.44,0,0,1,.1.2v.51a8.35,8.35,0,0,1,0,.91,4.09,4.09,0,0,1-.24,1l.28.22v3.15c.28.07.4.17.37.29a1.59,1.59,0,0,0,0,.36,2.38,2.38,0,0,1-.14.78q-.15.38-.33.75c-.12.24-.23.48-.32.71a1.63,1.63,0,0,0-.15.67,2.85,2.85,0,0,0,.31,1.25,2.75,2.75,0,0,1,.3,1.19.71.71,0,0,1-.14.45c-.09.13-.2.26-.3.38l-.33.37a.87.87,0,0,0-.2.41,1.76,1.76,0,0,1-.08.39l-.19.59a6,6,0,0,1-.2.6c-.07.18-.11.3-.14.38s-.15.15-.29.41-.29.56-.46.92-.37.75-.57,1.19-.41.85-.61,1.24-.4.74-.57,1a2.94,2.94,0,0,1-.43.58,17.68,17.68,0,0,1-1.46,1.07l-1.57,1-1.59,1a16.79,16.79,0,0,0-1.48,1.11l-4.07,1.34v-.15a4.81,4.81,0,0,1-.73-.05,2.64,2.64,0,0,0-.55-.06,1.52,1.52,0,0,0-.51.09,1.36,1.36,0,0,0-.52.36h-3.79s-.09.09-.28.15a1.94,1.94,0,0,1-.45.08,3.61,3.61,0,0,1-1.18-.2c-.38-.13-.74-.28-1.1-.44l-1-.44a2.19,2.19,0,0,0-.84-.19Zm-.2-7.39a1.07,1.07,0,0,0,.39.7,6.05,6.05,0,0,0,.95.75,9.86,9.86,0,0,0,1.2.65,5,5,0,0,0,1.12.37,6.45,6.45,0,0,0,.73.11l.76,0a4.8,4.8,0,0,1,.75.09,3.46,3.46,0,0,1,.73.24,11.46,11.46,0,0,0,3.64-.84,10.83,10.83,0,0,0,2.72-1.62,12,12,0,0,0,2-2.14,18.28,18.28,0,0,0,1.46-2.37,1.89,1.89,0,0,0,.31-1.34,4.88,4.88,0,0,1,0-1.37,1.78,1.78,0,0,1,.28-.42c.14-.16.26-.33.39-.5a5.09,5.09,0,0,0,.32-.54.73.73,0,0,0,.1-.5q0-.1-.36-.24c-.25-.08-.37-.15-.37-.18l.41-.43a5.39,5.39,0,0,0,.53-1.7c.05-.51.08-1.15.08-1.92.05,0,.12-.06.2-.19a.62.62,0,0,0,.12-.24l-.32-.19v-.49a1.4,1.4,0,0,1,.16-.45,1.4,1.4,0,0,0,.16-.45,1,1,0,0,0-.12-.44,5.14,5.14,0,0,0-.28-.5l-.33-.52a1.3,1.3,0,0,1-.2-.52,4,4,0,0,1-.33-1.58,3.16,3.16,0,0,0-.44-1.57,5,5,0,0,0-.9-1.39,6,6,0,0,1-.93-1.3,1.38,1.38,0,0,0-.43-.54.88.88,0,0,0-.33-.08.75.75,0,0,1-.26,0c-.08,0-.18-.18-.29-.44a1.71,1.71,0,0,0,0-.24c0-.14-.05-.29-.08-.44s-.05-.29-.08-.43-.05-.2-.08-.22a2.33,2.33,0,0,0-1-.6q-.8-.28-1.77-.54c-.65-.17-1.28-.32-1.89-.46a7.56,7.56,0,0,1-1.4-.44,1.19,1.19,0,0,1-.39-.3l-.3-.37a1.64,1.64,0,0,0-.41-.31,1.57,1.57,0,0,0-.69-.13,9.26,9.26,0,0,0-2.52.3,8.12,8.12,0,0,0-1.89.78,7.73,7.73,0,0,0-1.51,1.13c-.44.44-.88.89-1.32,1.36a1.68,1.68,0,0,1-.47.4c-.23.15-.46.3-.71.44l-.67.39c-.2.13-.32.23-.34.3v1c-.06.06-.15.17-.29.34s-.27.35-.41.54l-.38.54a4.06,4.06,0,0,0-.23.34,7,7,0,0,0-.58,1.47,18.19,18.19,0,0,0-.45,1.9,16.79,16.79,0,0,0-.25,2,15.6,15.6,0,0,0,0,1.65l-.69.19.37.23c.05.36.11.71.16,1s.09.57.12.86a7,7,0,0,1,0,.72v1.19a3,3,0,0,0,.08.54c.06.25.12.5.19.76s.14.52.22.77.15.42.2.54a6.55,6.55,0,0,0,.43.86c.23.41.51.87.84,1.39s.69,1,1.09,1.6.82,1.05,1.24,1.51a8.82,8.82,0,0,0,1.22,1.13A1.85,1.85,0,0,0,488.12,300.15Z" transform="translate(-163.31 -156.48)"/><path class="cls-1" d="M524.58,308.32c-.4,0-.84,0-1.32-.07a12.39,12.39,0,0,1-1.32-.18c-.41-.09-.65-.2-.73-.36a1.36,1.36,0,0,0-.43-.48l-.63-.45c-.22-.15-.41-.3-.59-.44a.59.59,0,0,1-.26-.47v-2.94l.08-.17a.65.65,0,0,1,.24-.28,2.82,2.82,0,0,0,.65-1.12,11.63,11.63,0,0,0,.47-1.67A14,14,0,0,0,521,298a4.54,4.54,0,0,0-.06-1.34l.29-.19L521,279.8v-6.6a10.23,10.23,0,0,1-1.2-2,5.14,5.14,0,0,1-.5-2.16.91.91,0,0,1,.22-.56,3.14,3.14,0,0,1,.55-.54,3.67,3.67,0,0,1,.71-.44,4.27,4.27,0,0,1,.75-.27h1.67a10.13,10.13,0,0,1,1.63.12,9.92,9.92,0,0,0,1.42.11.38.38,0,0,1-.12.3l-.21.15h.66l.65-.2a1.13,1.13,0,0,1,.26.07l.35.13.95.6c.37.22.73.45,1.1.69a11.63,11.63,0,0,1,1,.74,3.66,3.66,0,0,1,.71.72,7.63,7.63,0,0,1,.69,1.58,6.76,6.76,0,0,0,.53,1.36,7.13,7.13,0,0,0,1,1.49l1.31,1.5a12,12,0,0,1,1.11,1.5,2.7,2.7,0,0,1,.47,1.46c.14,0,.38.16.73.49s.76.76,1.22,1.27.95,1.07,1.47,1.68,1,1.21,1.44,1.78l1.2,1.55c.35.45.6.77.73,1a9.26,9.26,0,0,1,.72,1.27c.2.46.42.89.65,1.32a7.82,7.82,0,0,0,.81,1.22,3.56,3.56,0,0,0,1.24.95c.3.17.41.31.32.44a1,1,0,0,0-.12.55,2.62,2.62,0,0,0,.75-.1c.21-.07.31-.25.31-.55s-.06-.4-.18-.47a.35.35,0,0,1-.19-.33,10.17,10.17,0,0,1,.15-1.72c.09-.59.2-1.18.32-1.77s.24-1.19.35-1.79a10.43,10.43,0,0,0,.16-1.74c0-.15-.1-.23-.28-.23v-.85q0-.22,0-.6a.66.66,0,0,1,.31-.61,6.67,6.67,0,0,1,.06-1.42c.07-.45.14-.89.22-1.33s.16-.86.23-1.27a7.71,7.71,0,0,0,.1-1.28,1.37,1.37,0,0,1,0-.34c0-.11-.08-.2-.32-.28a5.51,5.51,0,0,0,.22-.72,3.24,3.24,0,0,0,.06-.64v-.23a1.72,1.72,0,0,0,0-.22c0-.13-.06-.28-.1-.44s-.08-.31-.1-.44a1.35,1.35,0,0,1,0-.26,1.11,1.11,0,0,1,.14-.32,1.11,1.11,0,0,0,.14-.38,1,1,0,0,0-.18-.4c-.13-.19-.27-.41-.43-.68a5.64,5.64,0,0,1-.43-.85,2.35,2.35,0,0,1-.18-.88v-1a5.14,5.14,0,0,0,.47-.29c.25-.17.53-.36.83-.58l.81-.59a1.61,1.61,0,0,0,.41-.36l.57-.07.85-.08.84-.07.55,0a4.75,4.75,0,0,1,1.14.23c.51.15,1,.33,1.56.53a9.63,9.63,0,0,1,1.4.68c.41.25.61.46.61.63v3.62a1.08,1.08,0,0,0-.26.5c-.1.27-.2.6-.32,1s-.25.81-.37,1.27-.23.9-.33,1.32-.17.79-.22,1.13a6.07,6.07,0,0,0-.08.74c0,.22,0,.48,0,.76a4,4,0,0,0,0,.85,3.61,3.61,0,0,0,.18.84,1.77,1.77,0,0,0,.51.72l-.16.28a4.49,4.49,0,0,1-.29.41c-.11.14-.21.28-.3.41a3.66,3.66,0,0,1-.23.29v.05a2.36,2.36,0,0,0,.17.87,2.72,2.72,0,0,1,.16.94v1a11.46,11.46,0,0,1-.06,1.17,8.36,8.36,0,0,1-.19,1.15,3,3,0,0,1-.36.95h.28v1.59l-.61.45.33.22-.33.2h.33a1,1,0,0,1,.3.58,4.52,4.52,0,0,1,.06.74,5.48,5.48,0,0,1,0,.72c0,.23,0,.4,0,.51.22,0,.33.07.33.2a.83.83,0,0,1-.14.48,3.9,3.9,0,0,1-.33.38,3,3,0,0,0-.32.4.94.94,0,0,0-.15.55,5.64,5.64,0,0,0,.13,1.25c.08.39.16.79.26,1.19a11.75,11.75,0,0,1,.22,1.21,4.79,4.79,0,0,1,0,1.31l.69-.23a.6.6,0,0,0-.32.41,2.89,2.89,0,0,0,0,.52h-.12a.86.86,0,0,0,.26.56l.59.65a5.51,5.51,0,0,1,.59.76,1.59,1.59,0,0,1,.26.89,2.61,2.61,0,0,1-.3,1.21,3.69,3.69,0,0,1-.87,1.05,4.61,4.61,0,0,1-1.39.75,5.76,5.76,0,0,1-1.83.28q0-.09-.42-.18c-.29-.07-.61-.13-1-.19a9.52,9.52,0,0,0-1.06-.11,3.71,3.71,0,0,0-.69,0l-.39-.26-.56-.34-.57-.32-.39-.24a3.38,3.38,0,0,1-1.06-.94,9.14,9.14,0,0,1-.81-1.27l-.71-1.36a5.76,5.76,0,0,0-.8-1.19,7.22,7.22,0,0,0-.54-.6l-.92-.89-.89-.87a1.68,1.68,0,0,1-.45-.59l.28-.48a1.63,1.63,0,0,0-.32-.25l-.29-.2a7.5,7.5,0,0,1-.73-.75,8.65,8.65,0,0,1-.67-.92,9.16,9.16,0,0,1-.53-1,2.63,2.63,0,0,1-.26-.91.39.39,0,0,1-.37,0,1.26,1.26,0,0,1-.22-.24l-.19-.29a.33.33,0,0,0-.2-.17,2.18,2.18,0,0,0-.08-.44c-.06-.19-.12-.4-.18-.62s-.14-.41-.21-.59-.11-.31-.14-.39l-.32-.32a.23.23,0,0,1,0-.35L535.4,287a.76.76,0,0,1-.39-.28,2.93,2.93,0,0,1-.3-.45,4.15,4.15,0,0,1-.29-.6h-.28c-.08-.13-.25-.35-.51-.68s-.55-.67-.89-1.06l-1.06-1.2c-.37-.42-.71-.79-1-1.13l-.81-.84c-.22-.22-.35-.32-.41-.32h-.32c-.11,0-.19.18-.23.42a4.13,4.13,0,0,0-.06.48,2.54,2.54,0,0,0,.1.78,1.92,1.92,0,0,1,.11.69,1.25,1.25,0,0,1-.17.61,1.42,1.42,0,0,0-.16.7,2.08,2.08,0,0,0,.16.85,1.83,1.83,0,0,1,.17.76,3.57,3.57,0,0,1,0,.37c0,.09,0,.17,0,.23a.83.83,0,0,1,0,.15.9.9,0,0,0,0,.18v.15l.33.45-.33.45.33.46v.22a.75.75,0,0,1,0,.24c0,.07-.12.14-.29.21V296a1.65,1.65,0,0,1,.37.82,10.54,10.54,0,0,1,.18,1.24c0,.44.06.88.06,1.31v1.11a.68.68,0,0,1-.2.36.84.84,0,0,0-.2.32l.32.45v.25a.55.55,0,0,1-.06.19q-.06.12-.12.27a1.48,1.48,0,0,0-.1.27.54.54,0,0,0,0,.15h.32a2.93,2.93,0,0,1,.18.26.44.44,0,0,1,.11.2v2.51c-.33.1-.51.26-.55.49a3.13,3.13,0,0,1-.25.75,2.07,2.07,0,0,1-.79.82,6.35,6.35,0,0,1-2.2.69.64.64,0,0,0-.34.12.65.65,0,0,1-.27.11v-.31Z" transform="translate(-163.31 -156.48)"/><path class="cls-1" d="M561.62,305.09a4,4,0,0,1-.52-.89,5.3,5.3,0,0,1-.33-1,1.62,1.62,0,0,1-.06-.64,1.43,1.43,0,0,1,.47-.77,6,6,0,0,1,1-.79,8.33,8.33,0,0,1,1.23-.62,2.9,2.9,0,0,1,1.07-.26l.63,0,.82.09c.28,0,.55.08.81.14a2.22,2.22,0,0,1,.59.2l.71.42.83.51a10.2,10.2,0,0,0,1,.6v.36a8.44,8.44,0,0,1,1,.05l.73.08.75.09a10.78,10.78,0,0,0,1.1,0v.06a3.74,3.74,0,0,0,.43-.1,2,2,0,0,1,.54-.1,11,11,0,0,0,2.34-.47,8,8,0,0,0,2-.91,4.69,4.69,0,0,0,1.37-1.28,2.76,2.76,0,0,0,.51-1.59.57.57,0,0,1,.08-.28,1.88,1.88,0,0,1,.16-.29,1,1,0,0,0-.16-.28.38.38,0,0,1-.08-.28,2.72,2.72,0,0,0-.57-1.74,7.22,7.22,0,0,0-1.37-1.33c-.52-.41-1.07-.81-1.64-1.21a6.83,6.83,0,0,1-1.47-1.36h-.32l-1.59-1.13h-.28a5,5,0,0,1-.82-.33c-.48-.21-1-.47-1.68-.77s-1.28-.63-1.94-1-1.16-.62-1.54-.85a6.25,6.25,0,0,1-.81-.51c-.33-.22-.66-.47-1-.73s-.66-.53-1-.79-.53-.5-.69-.68v-.15a.24.24,0,0,1,.14-.25c.1,0,.15-.13.15-.28a2.12,2.12,0,0,1-1.77-.58,2.29,2.29,0,0,1-.43-1.41.67.67,0,0,1-.57-.41,5.2,5.2,0,0,1-.43-1,9.18,9.18,0,0,1-.28-1.15,5.28,5.28,0,0,1-.1-.89s0-.17.06-.4.06-.36.06-.39l.33-.2-.33-.23a1,1,0,0,1,.1-1c.21-.38.39-.7.55-1a1.75,1.75,0,0,1-.24-.25A.51.51,0,0,1,561,275a.2.2,0,0,1,.14-.2,2,2,0,0,1,.32-.1,1.17,1.17,0,0,0,.33-.11.24.24,0,0,0,.14-.21.27.27,0,0,0,0-.14c0-.06-.12-.11-.28-.15a1.66,1.66,0,0,1,.54-.59.81.81,0,0,0,.39-.76,1.2,1.2,0,0,1,.45-.29,1.53,1.53,0,0,1,.53-.17l-.61-.22a1.46,1.46,0,0,0,.51-.37,2.65,2.65,0,0,0,.22-.4c.05-.13.11-.27.16-.41a1,1,0,0,1,.33-.41c0-.07.13-.16.32-.24l.61-.26c.22-.08.42-.17.61-.25a1.51,1.51,0,0,0,.37-.21,12.22,12.22,0,0,1,1.06-.94,4.63,4.63,0,0,1,1-.56,12,12,0,0,1,1.22-.44l1.75-.55.2.25a2.82,2.82,0,0,1,1.37-.42c.74-.12,1.56-.21,2.46-.29s1.74-.13,2.54-.17l1.64,0a17.53,17.53,0,0,1,3.14.25,6.5,6.5,0,0,1,2.56,1.08h.28a3.68,3.68,0,0,1,2.4,1.63,4.7,4.7,0,0,1,.65,2.39v.56a.79.79,0,0,1-.24.3c-.14.12-.29.25-.45.37a2.87,2.87,0,0,1-.49.31.87.87,0,0,1-.32.13h-3.13a1.33,1.33,0,0,0-.43-.33,3.1,3.1,0,0,0-.69-.25c-.26-.07-.51-.12-.75-.17a3.15,3.15,0,0,0-.61-.07v-.2c-.6,0-1.05,0-1.37,0s-.69-.05-1.16-.05a3.42,3.42,0,0,1-.44,0l-.65-.07a4,4,0,0,0-.59,0c-.18,0-.28.06-.31.15l-2.4.31a2.77,2.77,0,0,1-.53.2l-.52.12a2.18,2.18,0,0,1-.57,0l-.37.26a4.18,4.18,0,0,0-.49.39c-.16.16-.32.32-.47.49a1.15,1.15,0,0,0-.26.48l.69.22a3.24,3.24,0,0,0-1.48.53,2.3,2.3,0,0,0-.75.9,3.15,3.15,0,0,0-.29,1.17c0,.42,0,.83,0,1.23v1.3a2.77,2.77,0,0,1,.65.49c.27.26.56.51.85.77a6.24,6.24,0,0,0,.9.64,1.07,1.07,0,0,0,.77.17,1.65,1.65,0,0,1,.35.21l.47.34.46.37a3.91,3.91,0,0,1,.31.27.84.84,0,0,0,.16.28,2.46,2.46,0,0,0,.33.37,6,6,0,0,0,1.28.72c.66.31,1.4.64,2.21,1l2.4,1a19.06,19.06,0,0,1,1.75.81c-.14.07-.09.21.14.42a9,9,0,0,0,.86.67l1,.65.55.35-.32.23h.4a.58.58,0,0,0,.21.35,3.37,3.37,0,0,0,.51.44c.2.15.4.3.61.44l.5.33.09.17a1.53,1.53,0,0,0,.18.51c.12.24.27.53.45.85s.37.66.58,1,.42.69.62,1a8.2,8.2,0,0,0,.52.76c.17.21.27.32.33.34v4.59a5.45,5.45,0,0,0-.65.92c-.19.33-.37.66-.55,1s-.37.67-.57,1a3.91,3.91,0,0,1-.71.85,6.33,6.33,0,0,1-1,.68l-1.69.95-1.58.89q-.69.4-.69.48l-.33-.25a.5.5,0,0,1-.32.25,3.18,3.18,0,0,1-.51.13l-.49.06a.68.68,0,0,0-.26,0,.46.46,0,0,0-.23.11l-.28.25-.27.22c-.08.07-.13.1-.16.1a1.44,1.44,0,0,1-.37.1l-.52.08-.55.06-.43,0c-.16,0-.42,0-.77,0l-1.12.07-1.12.08-.77,0a3,3,0,0,0-1.22-.44c-.57-.1-1.18-.17-1.83-.22l-1.87-.13a13.58,13.58,0,0,1-1.39-.14l-.73-.11c-.32-.06-.65-.13-1-.22l-.9-.24a3.28,3.28,0,0,1-.53-.17,2.62,2.62,0,0,1-.46-.12c-.18-.07-.35-.14-.51-.22a3.4,3.4,0,0,1-.43-.22c-.12-.08-.18-.14-.18-.17v-.68A.87.87,0,0,1,561.62,305.09Z" transform="translate(-163.31 -156.48)"/><path class="cls-2" d="M239.41,374.87a2.25,2.25,0,0,1,1.61.67,2.22,2.22,0,0,1,.69,1.67,55.93,55.93,0,0,1-1.05,7.5,133,133,0,0,0-1.82,15.11c-.35,5.35-.53,8.69-.53,10a3.3,3.3,0,0,1-1,2.2,2.66,2.66,0,0,1-1.74,1.08,2.14,2.14,0,0,1-1.48-.64,2.09,2.09,0,0,1-.7-1.6q0-.87.75-6.15a53.74,53.74,0,0,0,.62-6.44,2.67,2.67,0,0,0-.34-1.59,1.31,1.31,0,0,0-1.12-.43c-.8,0-2.36.09-4.69.26-2.53.21-4.1.32-4.72.32s-2.32.1-5,.31a24.18,24.18,0,0,0-4.43.54c-.28.16-.57,1.22-.86,3.19a48.53,48.53,0,0,0-.54,4.9,22.89,22.89,0,0,1-.76,5.54c-.42,1.45-1,2.18-1.63,2.18-.47,0-1-.37-1.72-1.1a3.24,3.24,0,0,1-1-2.2,16.35,16.35,0,0,1,.57-3.31q.79-3.21,1.9-11.45t1.93-17.15a1.94,1.94,0,0,1,.65-1.18,1.78,1.78,0,0,1,1.27-.6c1.56,0,2.34,1.13,2.34,3.4a38.83,38.83,0,0,1-.86,6.44,35.06,35.06,0,0,0-.77,5.78,1.25,1.25,0,0,0,.48,1.09,4.8,4.8,0,0,0,2.28.34c2.61,0,6.14-.22,10.57-.64s6.81-1,7.16-1.84a25.76,25.76,0,0,0,1.05-5.42,69.85,69.85,0,0,0,.54-8.84,1.94,1.94,0,0,1,.74-1.25A2.24,2.24,0,0,1,239.41,374.87Z" transform="translate(-163.31 -156.48)"/><path class="cls-2" d="M267.54,403.57q0,2.46-4.32,5.93A14.07,14.07,0,0,1,254.3,413a7.65,7.65,0,0,1-6-2.29,9.13,9.13,0,0,1-2.09-6.39,21.69,21.69,0,0,1,4.62-13.12Q255.5,385,261,385a3.93,3.93,0,0,1,2.94,1.18,4,4,0,0,1,1.13,2.85q0,3.72-3.61,7.11a46.16,46.16,0,0,1-9.67,6.68,1.94,1.94,0,0,0-1.25,1.69,4.43,4.43,0,0,0,1.15,3.21,4.51,4.51,0,0,0,3.4,1.21q5.15,0,10.51-5.74c.53-.53.93-.8,1.2-.8C267.29,402.34,267.54,402.75,267.54,403.57Zm-16.64-3.76q10.16-6.07,10.16-9.77c0-1-.44-1.45-1.3-1.45-1.47,0-3.12,1.09-5,3.26A18.86,18.86,0,0,0,250.9,399.81Z" transform="translate(-163.31 -156.48)"/><path class="cls-2" d="M277.12,406.39a19.85,19.85,0,0,0,.5,4.13,3.07,3.07,0,0,1,.1.72c0,.29-.27.66-.79,1.12a2.53,2.53,0,0,1-1.68.69q-2.33,0-2.32-4.3a85.22,85.22,0,0,1,1.82-14,35.15,35.15,0,0,0,.62-4.12,5.74,5.74,0,0,1,.55-2.6,1.72,1.72,0,0,1,1.56-1.07,3,3,0,0,1,1.93.59,1.7,1.7,0,0,1,.7,1.31,7.46,7.46,0,0,1-.33,1.91,89.79,89.79,0,0,0-2.23,9.12A42.46,42.46,0,0,0,277.12,406.39Zm3.14-26.94c-.34,0-.59-.36-.77-1.08a6.14,6.14,0,0,0-.26-.75,7.33,7.33,0,0,1-.65-2.72,2.75,2.75,0,0,1,1.14-2,3.72,3.72,0,0,1,2.52-1,3,3,0,0,1,1.56.54c.57.36.86.71.86,1a10.92,10.92,0,0,1-.59,2.7,4,4,0,0,1-1.86,2.57A4.87,4.87,0,0,1,280.26,379.45Z" transform="translate(-163.31 -156.48)"/><path class="cls-2" d="M291.56,402.17c.15-.29.35-.69.57-1.21a43.73,43.73,0,0,1,3-5.89,38.39,38.39,0,0,1,3-4.09,19.21,19.21,0,0,1,3-3,10.13,10.13,0,0,1,2.45-1.41,6.42,6.42,0,0,1,2.13-.39,4.7,4.7,0,0,1,3.4,1.26,4,4,0,0,1,1.32,3,2.11,2.11,0,0,1-.47,1.35,1.68,1.68,0,0,1-1.42.6,2.49,2.49,0,0,1-1.84-.89,2.51,2.51,0,0,0-1.8-.89q-2.49,0-6.89,6.07a28.89,28.89,0,0,0-5.37,13.39,4.07,4.07,0,0,1-.91,2.48,2.71,2.71,0,0,1-1.89.6c-.78,0-1.35-.58-1.7-1.76a23.29,23.29,0,0,1-.52-5.93c0-.75,0-2.42.12-5a61.89,61.89,0,0,1,.57-7.36c.05-.3.13-1,.24-2.14a12,12,0,0,1,.42-2.58,3,3,0,0,1,1-1.35,2.63,2.63,0,0,1,1.69-.63A1.56,1.56,0,0,1,293,387a1.89,1.89,0,0,1,.45,1.21,10.64,10.64,0,0,1-.48,2.66,22.78,22.78,0,0,0-.65,2.62,14.09,14.09,0,0,1-.26,1.72,45.82,45.82,0,0,0-.48,5.45l0,.89Z" transform="translate(-163.31 -156.48)"/><path class="cls-2" d="M320.79,370.92c1.15,0,1.72.74,1.72,2.22,0,1.31-.69,4.45-2.08,9.4a71.4,71.4,0,0,0-2,10.32,74.47,74.47,0,0,0-.72,8.85,61.32,61.32,0,0,0,.51,7.91,10.24,10.24,0,0,1,.09,1.09,2.93,2.93,0,0,1-.81,2.07,2.36,2.36,0,0,1-1.72.87c-.85,0-1.44-.53-1.76-1.59a19,19,0,0,1-.5-5.14,130,130,0,0,1,1.93-20q1.93-11.94,3.07-14C319.23,371.59,320,370.92,320.79,370.92Z" transform="translate(-163.31 -156.48)"/><path class="cls-2" d="M333.43,413a6.76,6.76,0,0,1-5.41-2.51,9.22,9.22,0,0,1-2.13-6.19A21.46,21.46,0,0,1,330,392q4.15-6,9.95-6a7.59,7.59,0,0,1,6.21,3,10.9,10.9,0,0,1,2.38,7.06,16.9,16.9,0,0,1-4.92,11.63Q338.74,413,333.43,413Zm-3.33-9.33a7.1,7.1,0,0,0,1,4,3.07,3.07,0,0,0,2.69,1.54c2.38,0,4.76-1.31,7.16-3.94a12.74,12.74,0,0,0,3.59-8.77,7.82,7.82,0,0,0-1.38-4.81,4.38,4.38,0,0,0-3.7-1.84c-2.57,0-4.77,1.58-6.62,4.76A18.15,18.15,0,0,0,330.1,403.62Z" transform="translate(-163.31 -156.48)"/><path class="cls-2" d="M361.15,413a6.76,6.76,0,0,1-5.41-2.51,9.22,9.22,0,0,1-2.13-6.19A21.46,21.46,0,0,1,357.76,392q4.15-6,9.95-6a7.59,7.59,0,0,1,6.21,3A10.9,10.9,0,0,1,376.3,396a16.9,16.9,0,0,1-4.92,11.63Q366.46,413,361.15,413Zm-3.33-9.33a7.1,7.1,0,0,0,1,4,3.1,3.1,0,0,0,2.69,1.54q3.57,0,7.16-3.94a12.69,12.69,0,0,0,3.59-8.77,7.88,7.88,0,0,0-1.37-4.81,4.39,4.39,0,0,0-3.7-1.84c-2.57,0-4.78,1.58-6.62,4.76A18.07,18.07,0,0,0,357.82,403.62Z" transform="translate(-163.31 -156.48)"/><path class="cls-2" d="M400,392.67q-2.23,0-9.53,13.29a46.14,46.14,0,0,1-2.87,4.86,3.79,3.79,0,0,1-1.5.71,6.76,6.76,0,0,1-1.81.31q-1.61,0-1.6-6.29a94.91,94.91,0,0,1,1.51-12.83,38.53,38.53,0,0,0,.62-5.38q0-1.59,1.41-1.59c1.77,0,2.66,1.28,2.66,3.86a53.91,53.91,0,0,1-.89,7.09q-1,6-1,7.33a35.2,35.2,0,0,0,4.36-6.34q4.07-6.7,6-8.51a5.88,5.88,0,0,1,4-1.79c1,0,1.86.7,2.48,2.1s1,4.73,1.11,10a11.08,11.08,0,0,0,.36,2.95c.21.64.36,1,.46,1q1.13,0,4.88-7.72a27.88,27.88,0,0,1,3.91-6.19,5.61,5.61,0,0,1,4.23-2.13,3,3,0,0,1,2.82,2,20.26,20.26,0,0,1,1.27,6,54.7,54.7,0,0,0,1.12,7.33q.75,3.33,2.76,4.27c.91.43,1.37.94,1.37,1.52a2.39,2.39,0,0,1-1.15,1.73,3.53,3.53,0,0,1-2.11.89c-1.28,0-2.42-.78-3.42-2.36s-1.77-5-2.28-10.22a42.8,42.8,0,0,0-.64-4.49c-.21-.88-.54-1.33-1-1.33-.67,0-1.46.65-2.38,1.93a77.12,77.12,0,0,0-4.44,7.84A42.36,42.36,0,0,1,407,408.6a3.3,3.3,0,0,1-2.38,1.53,2.53,2.53,0,0,1-1.84-.83,3.71,3.71,0,0,1-1-2q-.23-1.17-.46-5.76C401,396.46,400.59,393.51,400,392.67Z" transform="translate(-163.31 -156.48)"/><path class="cls-2" d="M475.47,384.83c0-2.14-.55-3.44-1.66-3.92a10.48,10.48,0,0,0-4.11-.71,20.75,20.75,0,0,0-9.21,2q-4.12,2-4.13,4.84a4.46,4.46,0,0,0,1.83,3.53c1.22,1,3.88,2.11,8,3.32s6.8,2.35,8.48,3.58a5.38,5.38,0,0,1,2.53,4.45c0,1.75-1.17,3.65-3.52,5.68a23.93,23.93,0,0,1-8.49,4.64,28.51,28.51,0,0,1-8.44,1.59,11.09,11.09,0,0,1-4.39-.68c-1-.46-1.5-1-1.5-1.73a4.68,4.68,0,0,1,.45-1.77q.43-1.05.9-1.05a3.21,3.21,0,0,1,1,.17,14.35,14.35,0,0,0,5.07,1,20.66,20.66,0,0,0,9.6-2.66q5.08-2.67,5.08-5c0-.66-.52-1.29-1.55-1.89a50,50,0,0,0-7.81-2.91q-7.79-2.49-9.57-4.84a8,8,0,0,1-1.78-4.95q0-5,5.72-8.09a25,25,0,0,1,12-3.08,12,12,0,0,1,6.37,1.41c1.48.94,2.23,2,2.23,3.13a8.46,8.46,0,0,1-.51,2.38A2.32,2.32,0,0,1,475.47,384.83Z" transform="translate(-163.31 -156.48)"/><path class="cls-2" d="M503.69,403.57q0,2.46-4.32,5.93a14.07,14.07,0,0,1-8.92,3.47,7.65,7.65,0,0,1-5.95-2.29,9.13,9.13,0,0,1-2.09-6.39A21.69,21.69,0,0,1,487,391.17q4.62-6.21,10.1-6.22a3.89,3.89,0,0,1,2.93,1.18A4,4,0,0,1,501.2,389q0,3.72-3.61,7.11a46,46,0,0,1-9.68,6.68,1.93,1.93,0,0,0-1.24,1.69,4.43,4.43,0,0,0,1.15,3.21,4.49,4.49,0,0,0,3.4,1.21q5.14,0,10.51-5.74c.52-.53.92-.8,1.19-.8C503.44,402.34,503.69,402.75,503.69,403.57Zm-16.64-3.76q10.15-6.07,10.15-9.77c0-1-.43-1.45-1.29-1.45-1.47,0-3.12,1.09-5,3.26A18.86,18.86,0,0,0,487.05,399.81Z" transform="translate(-163.31 -156.48)"/><path class="cls-2" d="M529.19,403.57q0,2.46-4.32,5.93A14.09,14.09,0,0,1,516,413a7.65,7.65,0,0,1-6-2.29,9.08,9.08,0,0,1-2.1-6.39,21.64,21.64,0,0,1,4.63-13.12q4.62-6.21,10.1-6.22a3.91,3.91,0,0,1,2.93,1.18A4,4,0,0,1,526.7,389q0,3.72-3.62,7.11a45.9,45.9,0,0,1-9.67,6.68,1.93,1.93,0,0,0-1.24,1.69,4.1,4.1,0,0,0,4.54,4.42q5.16,0,10.51-5.74c.53-.53.93-.8,1.2-.8C528.93,402.34,529.19,402.75,529.19,403.57Zm-16.64-3.76q10.16-6.07,10.15-9.77c0-1-.43-1.45-1.29-1.45q-2.2,0-5,3.26A18.86,18.86,0,0,0,512.55,399.81Z" transform="translate(-163.31 -156.48)"/><path class="cls-2" d="M551.36,401.76a30.34,30.34,0,0,1-6.8,8q-3.6,2.81-6.61,2.81a4.37,4.37,0,0,1-3.68-1.8,7.78,7.78,0,0,1-1.35-4.79q0-6.11,4.92-12.52t10.62-6.41a6.44,6.44,0,0,1,4.62,2.15l3.35-15.78a3.12,3.12,0,0,1,1.33-2.17,3.39,3.39,0,0,1,1.52-.55c1.12,0,1.68,1,1.68,3a25.65,25.65,0,0,1-1.11,4,116.18,116.18,0,0,0-3.31,13A65.34,65.34,0,0,0,555,403.09c0,3.21.7,4.82,2.08,4.82a5.31,5.31,0,0,0,2.78-.89,2,2,0,0,1,1.13-.44c.51,0,.76.34.76,1s-.71,1.77-2.14,2.84a7.21,7.21,0,0,1-4.39,1.62c-2.64,0-4-2.56-4-7.67C551.24,403.52,551.28,402.65,551.36,401.76Zm-3.14-11.29q-3.88,0-7.68,5.3t-3.81,9.78c0,2,.66,3,2,3a8.2,8.2,0,0,0,4.53-2,24.42,24.42,0,0,0,5.5-6.3c1.88-2.89,2.82-5,2.82-6.5a3.35,3.35,0,0,0-1-2.18A3,3,0,0,0,548.22,390.47Z" transform="translate(-163.31 -156.48)"/><path class="cls-2" d="M578.65,406.22q0-1.56-3.83-3.57a36.28,36.28,0,0,1-6.57-4,4.42,4.42,0,0,1-1.72-3.37c0-3.19,1.6-5.85,4.78-7.95s5.78-3.16,7.79-3.16a4.66,4.66,0,0,1,2.82.67,2.79,2.79,0,0,1,.87,2.34,1.61,1.61,0,0,1-.63,1.28,1.89,1.89,0,0,1-1,.53,3.23,3.23,0,0,1-1-.36,3.27,3.27,0,0,0-1-.34q-1.2,0-4.86,1.76c-2.44,1.17-3.67,2.5-3.67,4a3.2,3.2,0,0,0,1.3,2.45,23.1,23.1,0,0,0,4.64,2.69,17.43,17.43,0,0,1,4.32,2.78,4.59,4.59,0,0,1,1.62,3.49c0,2.46-1.69,4.38-5.05,5.77a25.33,25.33,0,0,1-9.65,2.09c-2.59,0-3.88-.89-3.88-2.65a1.42,1.42,0,0,1,.87-1.35,4,4,0,0,1,1.76-.44,7.29,7.29,0,0,1,1.37.24,7,7,0,0,0,1.29.24,20.13,20.13,0,0,0,5.7-.89C576.92,407.85,578.17,407.11,578.65,406.22Z" transform="translate(-163.31 -156.48)"/></svg>