<svg id="Layer_1" data-name="Layer 1" xmlns="http://www.w3.org/2000/svg" viewBox="0 0 597.22 597.22"><defs><style>.cls-1{fill:#37ba96;}.cls-2{fill:#fff;}.cls-3{fill:#231f20;}.cls-4{fill:#939598;}</style></defs><path class="cls-1" d="M519.5,505.9V501a5.26,5.26,0,0,0-1.3-3.8,4.89,4.89,0,0,0-3.69-1.35h-9c-.34,0-.52.16-.52.47v14.2c0,.31.18.46.52.46h9a5,5,0,0,0,3.69-1.32A5.15,5.15,0,0,0,519.5,505.9Z" transform="translate(-183.69 -123.02)"/><polygon class="cls-1" points="187.98 373.36 182 392.65 194.22 392.65 188.19 373.36 187.98 373.36"/><path class="cls-1" d="M290.71,495.86h-5.93a4.7,4.7,0,0,0-3.64,1.35,5.42,5.42,0,0,0-1.25,3.8v18.46a5.42,5.42,0,0,0,1.25,3.8,4.7,4.7,0,0,0,3.64,1.35h5.93a4.82,4.82,0,0,0,3.66-1.33,5.3,5.3,0,0,0,1.28-3.82V501a5.3,5.3,0,0,0-1.28-3.82A4.82,4.82,0,0,0,290.71,495.86Z" transform="translate(-183.69 -123.02)"/><path class="cls-1" d="M323.67,505.9V501a5.26,5.26,0,0,0-1.3-3.8,4.88,4.88,0,0,0-3.69-1.35h-9c-.35,0-.52.16-.52.47v14.2c0,.31.17.46.52.46h9a4.94,4.94,0,0,0,3.69-1.32A5.15,5.15,0,0,0,323.67,505.9Z" transform="translate(-183.69 -123.02)"/><polygon class="cls-1" points="355.78 373.36 349.8 392.65 362.02 392.65 355.99 373.36 355.78 373.36"/><path class="cls-1" d="M482.3,123c-164.92,0-298.61,133.69-298.61,298.61S317.38,720.24,482.3,720.24,780.91,586.55,780.91,421.63,647.21,123,482.3,123Zm-184,396.55a7.33,7.33,0,0,1-2,5.41,7.11,7.11,0,0,1-5.32,2h-6.4a7.15,7.15,0,0,1-5.33-2,7.37,7.37,0,0,1-1.95-5.41V500.91a7.37,7.37,0,0,1,1.95-5.41,7.15,7.15,0,0,1,5.33-2H291a7.11,7.11,0,0,1,5.32,2,7.33,7.33,0,0,1,2,5.41ZM326.59,527H325a.93.93,0,0,1-.93-.63l-6.14-13.1h-8.21c-.35,0-.52.16-.52.47v12.63c0,.42-.2.63-.58.63h-1.5c-.35,0-.52-.21-.52-.63V494.15c0-.42.17-.63.52-.63h11.85a7.25,7.25,0,0,1,5.36,2,7.34,7.34,0,0,1,2,5.41v4.94a7.45,7.45,0,0,1-1.48,4.78,6.6,6.6,0,0,1-4,2.39v.21l6.19,13.1Q327.27,527,326.59,527Zm27.5-23.71c0,.41-.19.62-.57.62H352c-.38,0-.57-.21-.57-.62V501a5.37,5.37,0,0,0-1.25-3.82,4.73,4.73,0,0,0-3.64-1.33H341.3a4.72,4.72,0,0,0-3.64,1.35,5.42,5.42,0,0,0-1.25,3.8v18.46a5.42,5.42,0,0,0,1.25,3.8,4.72,4.72,0,0,0,3.64,1.35h5.25a4.73,4.73,0,0,0,3.64-1.33,5.37,5.37,0,0,0,1.25-3.82v-6.86a.41.41,0,0,0-.47-.47h-6a.5.5,0,0,1-.57-.57v-1.2a.5.5,0,0,1,.57-.57h8.11c.66,0,1,.34,1,1v8.73a7.34,7.34,0,0,1-2,5.41,7.25,7.25,0,0,1-5.36,2h-5.67a7.15,7.15,0,0,1-5.33-2,7.37,7.37,0,0,1-1.95-5.41V500.91a7.37,7.37,0,0,1,1.95-5.41,7.15,7.15,0,0,1,5.33-2h5.67a7.25,7.25,0,0,1,5.36,2,7.34,7.34,0,0,1,2,5.41ZM383.73,527h-1.66c-.35,0-.57-.21-.68-.63L378.58,518H365l-2.81,8.32c-.14.42-.36.63-.67.63h-1.62q-.57,0-.36-.63l10.35-32.18a.71.71,0,0,1,.73-.63H373c.35,0,.59.21.73.63l10.35,32.18C384.2,526.75,384.08,527,383.73,527Zm27.67-.63c0,.42-.2.63-.58.63h-1.19a1,1,0,0,1-.83-.57l-15.92-27.25h-.2v27.19c0,.42-.2.63-.58.63h-1.5c-.35,0-.52-.21-.52-.63V494.15c0-.42.17-.63.52-.63H392a.63.63,0,0,1,.62.31l16,27.46h.21V494.15q0-.63.57-.63h1.45c.38,0,.58.21.58.63Zm11.64,0q0,.63-.57.63H421c-.34,0-.52-.21-.52-.63V494.15c0-.42.18-.63.52-.63h1.51q.57,0,.57.63Zm29.69-22.88q0,.63-.57.63h-1.45c-.38,0-.58-.21-.58-.63V501a5.29,5.29,0,0,0-1.27-3.82,4.83,4.83,0,0,0-3.67-1.33h-6.08a4.72,4.72,0,0,0-3.64,1.35,5.42,5.42,0,0,0-1.25,3.8v18.46a5.42,5.42,0,0,0,1.25,3.8,4.72,4.72,0,0,0,3.64,1.35h6.08a4.83,4.83,0,0,0,3.67-1.33,5.29,5.29,0,0,0,1.27-3.82V517c0-.42.2-.63.58-.63h1.45q.57,0,.57.63v2.54a7.33,7.33,0,0,1-2,5.41,7.12,7.12,0,0,1-5.32,2H438.9a7.15,7.15,0,0,1-5.33-2,7.37,7.37,0,0,1-1.95-5.41V500.91a7.37,7.37,0,0,1,1.95-5.41,7.15,7.15,0,0,1,5.33-2h6.56a7.12,7.12,0,0,1,5.32,2,7.33,7.33,0,0,1,2,5.41Zm42.07,0q0,.63-.57.63h-1.46q-.57,0-.57-.63V501a5.29,5.29,0,0,0-1.27-3.82,4.83,4.83,0,0,0-3.67-1.33h-6.08a4.7,4.7,0,0,0-3.64,1.35,5.42,5.42,0,0,0-1.25,3.8v18.46a5.42,5.42,0,0,0,1.25,3.8,4.7,4.7,0,0,0,3.64,1.35h6.08a4.83,4.83,0,0,0,3.67-1.33,5.29,5.29,0,0,0,1.27-3.82V517q0-.63.57-.63h1.46q.57,0,.57.63v2.54a7.37,7.37,0,0,1-1.95,5.41,7.13,7.13,0,0,1-5.33,2H481a7.15,7.15,0,0,1-5.33-2,7.37,7.37,0,0,1-1.95-5.41V500.91a7.37,7.37,0,0,1,1.95-5.41,7.15,7.15,0,0,1,5.33-2h6.55a7.13,7.13,0,0,1,5.33,2,7.37,7.37,0,0,1,1.95,5.41ZM522.41,527H520.8a1,1,0,0,1-.94-.63l-6.13-13.1h-8.22c-.34,0-.52.16-.52.47v12.63q0,.63-.57.63h-1.51c-.34,0-.52-.21-.52-.63V494.15c0-.42.18-.63.52-.63h11.86a7.25,7.25,0,0,1,5.36,2,7.34,7.34,0,0,1,2,5.41v4.94a7.45,7.45,0,0,1-1.48,4.78,6.6,6.6,0,0,1-4,2.39v.21l6.19,13.1C523,526.75,522.86,527,522.41,527Zm29.12,0h-1.66c-.35,0-.57-.21-.68-.63l-2.8-8.32H532.76L530,526.33c-.13.42-.36.63-.67.63h-1.61c-.39,0-.51-.21-.37-.63l10.35-32.18a.71.71,0,0,1,.73-.63h2.44c.35,0,.59.21.73.63l10.35,32.18C552,526.75,551.88,527,551.53,527Zm26.94-23.51q0,.63-.57.63h-1.46q-.57,0-.57-.63V501a5.3,5.3,0,0,0-1.28-3.82,4.82,4.82,0,0,0-3.66-1.33h-6.09a4.73,4.73,0,0,0-3.64,1.35A5.42,5.42,0,0,0,560,501v18.46a5.42,5.42,0,0,0,1.24,3.8,4.73,4.73,0,0,0,3.64,1.35h6.09a4.82,4.82,0,0,0,3.66-1.33,5.3,5.3,0,0,0,1.28-3.82V517q0-.63.57-.63h1.46q.57,0,.57.63v2.54a7.37,7.37,0,0,1-2,5.41,7.15,7.15,0,0,1-5.33,2h-6.55a7.13,7.13,0,0,1-5.33-2,7.37,7.37,0,0,1-1.95-5.41V500.91a7.37,7.37,0,0,1,1.95-5.41,7.13,7.13,0,0,1,5.33-2h6.55a7.15,7.15,0,0,1,5.33,2,7.37,7.37,0,0,1,2,5.41Zm29,23.51H606a1.23,1.23,0,0,1-1.15-.63L594,510.11l-5.36,6.45v9.77q0,.63-.57.63h-1.51c-.35,0-.52-.21-.52-.63V494.15c0-.42.17-.63.52-.63h1.51q.57,0,.57.63v19.18h.21a8.07,8.07,0,0,1,.93-1.71L603,494.15a1.35,1.35,0,0,1,1.09-.63h1.82q.68,0,.21.63l-10.45,14,12.06,18.2C608,526.75,607.92,527,607.43,527Zm23.4-31.67c0,.38-.21.57-.62.57H616.74c-.35,0-.52.16-.52.47v12c0,.31.17.47.52.47h12a.5.5,0,0,1,.57.57v1.2a.5.5,0,0,1-.57.57h-12c-.35,0-.52.15-.52.47v12.58c0,.31.17.47.52.47h13.47c.41,0,.62.19.62.57v1.2c0,.38-.21.57-.62.57H614.14c-.35,0-.52-.21-.52-.63V494.15c0-.42.17-.63.52-.63h16.07c.41,0,.62.19.62.57ZM658.65,527H657a1,1,0,0,1-.94-.63L650,513.23h-8.22c-.35,0-.52.16-.52.47v12.63q0,.63-.57.63h-1.51c-.35,0-.52-.21-.52-.63V494.15c0-.42.17-.63.52-.63H651a7.21,7.21,0,0,1,5.35,2,7.31,7.31,0,0,1,2,5.41v4.94a7.45,7.45,0,0,1-1.48,4.78,6.6,6.6,0,0,1-4,2.39v.21l6.19,13.1C659.22,526.75,659.1,527,658.65,527ZM687,519.57a7.34,7.34,0,0,1-2,5.41,7.25,7.25,0,0,1-5.36,2h-6.14a7.21,7.21,0,0,1-5.35-2,7.31,7.31,0,0,1-2-5.41V517.7a.5.5,0,0,1,.57-.57h1.51a.5.5,0,0,1,.57.57v1.72c0,3.46,1.68,5.2,5,5.2h5.41q5,0,5-5.25v-2.19a4.14,4.14,0,0,0-1.87-3.59,12.56,12.56,0,0,0-4.53-1.87q-2.64-.57-5.33-1.19a10.27,10.27,0,0,1-4.55-2.29,5.71,5.71,0,0,1-1.87-4.47v-2.86a7.31,7.31,0,0,1,2-5.41,7.21,7.21,0,0,1,5.35-2h6a7.22,7.22,0,0,1,5.35,2,7.31,7.31,0,0,1,2,5.41v1.45a.5.5,0,0,1-.57.57h-1.51a.5.5,0,0,1-.57-.57v-1.3c0-3.46-1.69-5.2-5-5.2h-5.35q-5,0-5,5.31v2.6c0,2.39,2.14,4,6.4,4.83,1.77.35,3.54.75,5.33,1.2a10.05,10.05,0,0,1,4.55,2.44A6.27,6.27,0,0,1,687,517Z" transform="translate(-183.69 -123.02)"/><path class="cls-1" d="M655.74,505.9V501a5.26,5.26,0,0,0-1.3-3.8,4.89,4.89,0,0,0-3.69-1.35h-9c-.35,0-.52.16-.52.47v14.2c0,.31.17.46.52.46h9a5,5,0,0,0,3.69-1.32A5.15,5.15,0,0,0,655.74,505.9Z" transform="translate(-183.69 -123.02)"/><path class="cls-2" d="M291,493.52h-6.4a7.15,7.15,0,0,0-5.33,2,7.37,7.37,0,0,0-1.95,5.41v18.66a7.37,7.37,0,0,0,1.95,5.41,7.15,7.15,0,0,0,5.33,2H291a7.11,7.11,0,0,0,5.32-2,7.33,7.33,0,0,0,2-5.41V500.91a7.33,7.33,0,0,0-2-5.41A7.11,7.11,0,0,0,291,493.52Zm4.68,26a5.3,5.3,0,0,1-1.28,3.82,4.82,4.82,0,0,1-3.66,1.33h-5.93a4.7,4.7,0,0,1-3.64-1.35,5.42,5.42,0,0,1-1.25-3.8V501a5.42,5.42,0,0,1,1.25-3.8,4.7,4.7,0,0,1,3.64-1.35h5.93a4.82,4.82,0,0,1,3.66,1.33,5.3,5.3,0,0,1,1.28,3.82Z" transform="translate(-183.69 -123.02)"/><path class="cls-2" d="M320.76,513.23V513a6.6,6.6,0,0,0,4-2.39,7.45,7.45,0,0,0,1.48-4.78v-4.94a7.34,7.34,0,0,0-2-5.41,7.25,7.25,0,0,0-5.36-2H307.09c-.35,0-.52.21-.52.63v32.18c0,.42.17.63.52.63h1.5c.38,0,.58-.21.58-.63V513.7c0-.31.17-.47.52-.47h8.21l6.14,13.1a.93.93,0,0,0,.93.63h1.62q.68,0,.36-.63ZM309.69,511c-.35,0-.52-.15-.52-.46v-14.2c0-.31.17-.47.52-.47h9a4.88,4.88,0,0,1,3.69,1.35,5.26,5.26,0,0,1,1.3,3.8v4.89a5.15,5.15,0,0,1-1.3,3.77,4.94,4.94,0,0,1-3.69,1.32Z" transform="translate(-183.69 -123.02)"/><path class="cls-2" d="M346.76,493.52h-5.67a7.15,7.15,0,0,0-5.33,2,7.37,7.37,0,0,0-1.95,5.41v18.66a7.37,7.37,0,0,0,1.95,5.41,7.15,7.15,0,0,0,5.33,2h5.67a7.25,7.25,0,0,0,5.36-2,7.34,7.34,0,0,0,2-5.41v-8.73c0-.7-.33-1-1-1H345a.5.5,0,0,0-.57.57v1.2a.5.5,0,0,0,.57.57h6a.41.41,0,0,1,.47.47v6.86a5.37,5.37,0,0,1-1.25,3.82,4.73,4.73,0,0,1-3.64,1.33H341.3a4.72,4.72,0,0,1-3.64-1.35,5.42,5.42,0,0,1-1.25-3.8V501a5.42,5.42,0,0,1,1.25-3.8,4.72,4.72,0,0,1,3.64-1.35h5.25a4.73,4.73,0,0,1,3.64,1.33,5.37,5.37,0,0,1,1.25,3.82v2.24c0,.41.19.62.57.62h1.51c.38,0,.57-.21.57-.62v-2.34a7.34,7.34,0,0,0-2-5.41A7.25,7.25,0,0,0,346.76,493.52Z" transform="translate(-183.69 -123.02)"/><path class="cls-2" d="M373.75,494.15c-.14-.42-.38-.63-.73-.63h-2.44a.71.71,0,0,0-.73.63L359.5,526.33q-.21.63.36.63h1.62c.31,0,.53-.21.67-.63L365,518h13.62l2.81,8.32c.11.42.33.63.68.63h1.66c.35,0,.47-.21.37-.63Zm-8.06,21.52,6-19.29h.21l6,19.29Z" transform="translate(-183.69 -123.02)"/><path class="cls-2" d="M410.82,493.52h-1.45q-.57,0-.57.63v27.14h-.21l-16-27.46a.63.63,0,0,0-.62-.31h-1.4c-.35,0-.52.21-.52.63v32.18c0,.42.17.63.52.63h1.5c.38,0,.58-.21.58-.63V499.14h.2l15.92,27.25a1,1,0,0,0,.83.57h1.19c.38,0,.58-.21.58-.63V494.15C411.4,493.73,411.2,493.52,410.82,493.52Z" transform="translate(-183.69 -123.02)"/><path class="cls-2" d="M422.47,493.52H421c-.34,0-.52.21-.52.63v32.18c0,.42.18.63.52.63h1.51q.57,0,.57-.63V494.15Q423,493.52,422.47,493.52Z" transform="translate(-183.69 -123.02)"/><path class="cls-2" d="M445.46,493.52H438.9a7.15,7.15,0,0,0-5.33,2,7.37,7.37,0,0,0-1.95,5.41v18.66a7.37,7.37,0,0,0,1.95,5.41,7.15,7.15,0,0,0,5.33,2h6.56a7.12,7.12,0,0,0,5.32-2,7.33,7.33,0,0,0,2-5.41V517q0-.63-.57-.63h-1.45c-.38,0-.58.21-.58.63v2.44a5.29,5.29,0,0,1-1.27,3.82,4.83,4.83,0,0,1-3.67,1.33h-6.08a4.72,4.72,0,0,1-3.64-1.35,5.42,5.42,0,0,1-1.25-3.8V501a5.42,5.42,0,0,1,1.25-3.8,4.72,4.72,0,0,1,3.64-1.35h6.08a4.83,4.83,0,0,1,3.67,1.33,5.29,5.29,0,0,1,1.27,3.82v2.44c0,.42.2.63.58.63h1.45q.57,0,.57-.63v-2.54a7.33,7.33,0,0,0-2-5.41A7.12,7.12,0,0,0,445.46,493.52Z" transform="translate(-183.69 -123.02)"/><path class="cls-2" d="M487.52,493.52H481a7.15,7.15,0,0,0-5.33,2,7.37,7.37,0,0,0-1.95,5.41v18.66a7.37,7.37,0,0,0,1.95,5.41,7.15,7.15,0,0,0,5.33,2h6.55a7.13,7.13,0,0,0,5.33-2,7.37,7.37,0,0,0,1.95-5.41V517q0-.63-.57-.63h-1.46q-.57,0-.57.63v2.44a5.29,5.29,0,0,1-1.27,3.82,4.83,4.83,0,0,1-3.67,1.33h-6.08a4.7,4.7,0,0,1-3.64-1.35,5.42,5.42,0,0,1-1.25-3.8V501a5.42,5.42,0,0,1,1.25-3.8,4.7,4.7,0,0,1,3.64-1.35h6.08a4.83,4.83,0,0,1,3.67,1.33A5.29,5.29,0,0,1,492.2,501v2.44q0,.63.57.63h1.46q.57,0,.57-.63v-2.54a7.37,7.37,0,0,0-1.95-5.41A7.13,7.13,0,0,0,487.52,493.52Z" transform="translate(-183.69 -123.02)"/><path class="cls-2" d="M516.59,513.23V513a6.6,6.6,0,0,0,4-2.39,7.45,7.45,0,0,0,1.48-4.78v-4.94a7.34,7.34,0,0,0-2-5.41,7.25,7.25,0,0,0-5.36-2H502.91c-.34,0-.52.21-.52.63v32.18c0,.42.18.63.52.63h1.51q.57,0,.57-.63V513.7c0-.31.18-.47.52-.47h8.22l6.13,13.1a1,1,0,0,0,.94.63h1.61c.45,0,.57-.21.37-.63ZM505.51,511c-.34,0-.52-.15-.52-.46v-14.2c0-.31.18-.47.52-.47h9a4.89,4.89,0,0,1,3.69,1.35,5.26,5.26,0,0,1,1.3,3.8v4.89a5.15,5.15,0,0,1-1.3,3.77,5,5,0,0,1-3.69,1.32Z" transform="translate(-183.69 -123.02)"/><path class="cls-2" d="M541.55,494.15c-.14-.42-.38-.63-.73-.63h-2.44a.71.71,0,0,0-.73.63L527.3,526.33c-.14.42,0,.63.37.63h1.61c.31,0,.54-.21.67-.63l2.81-8.32h13.63l2.8,8.32c.11.42.33.63.68.63h1.66c.35,0,.47-.21.37-.63Zm-8.06,21.52,6-19.29h.21l6,19.29Z" transform="translate(-183.69 -123.02)"/><path class="cls-2" d="M571.19,493.52h-6.55a7.13,7.13,0,0,0-5.33,2,7.37,7.37,0,0,0-1.95,5.41v18.66a7.37,7.37,0,0,0,1.95,5.41,7.13,7.13,0,0,0,5.33,2h6.55a7.15,7.15,0,0,0,5.33-2,7.37,7.37,0,0,0,2-5.41V517q0-.63-.57-.63h-1.46q-.57,0-.57.63v2.44a5.3,5.3,0,0,1-1.28,3.82,4.82,4.82,0,0,1-3.66,1.33h-6.09a4.73,4.73,0,0,1-3.64-1.35,5.42,5.42,0,0,1-1.24-3.8V501a5.42,5.42,0,0,1,1.24-3.8,4.73,4.73,0,0,1,3.64-1.35h6.09a4.82,4.82,0,0,1,3.66,1.33,5.3,5.3,0,0,1,1.28,3.82v2.44q0,.63.57.63h1.46q.57,0,.57-.63v-2.54a7.37,7.37,0,0,0-2-5.41A7.15,7.15,0,0,0,571.19,493.52Z" transform="translate(-183.69 -123.02)"/><path class="cls-2" d="M595.68,508.13l10.45-14q.47-.63-.21-.63H604.1a1.35,1.35,0,0,0-1.09.63L589.8,511.62a8.07,8.07,0,0,0-.93,1.71h-.21V494.15q0-.63-.57-.63h-1.51c-.35,0-.52.21-.52.63v32.18c0,.42.17.63.52.63h1.51q.57,0,.57-.63v-9.77l5.36-6.45,10.81,16.22A1.23,1.23,0,0,0,606,527h1.45c.49,0,.59-.21.31-.63Z" transform="translate(-183.69 -123.02)"/><path class="cls-2" d="M630.21,493.52H614.14c-.35,0-.52.21-.52.63v32.18c0,.42.17.63.52.63h16.07c.41,0,.62-.19.62-.57v-1.2c0-.38-.21-.57-.62-.57H616.74c-.35,0-.52-.16-.52-.47V511.57c0-.32.17-.47.52-.47h12a.5.5,0,0,0,.57-.57v-1.2a.5.5,0,0,0-.57-.57h-12c-.35,0-.52-.16-.52-.47v-12c0-.31.17-.47.52-.47h13.47c.41,0,.62-.19.62-.57v-1.2C630.83,493.71,630.62,493.52,630.21,493.52Z" transform="translate(-183.69 -123.02)"/><path class="cls-2" d="M652.83,513.23V513a6.6,6.6,0,0,0,4-2.39,7.45,7.45,0,0,0,1.48-4.78v-4.94a7.31,7.31,0,0,0-2-5.41,7.21,7.21,0,0,0-5.35-2H639.15c-.35,0-.52.21-.52.63v32.18c0,.42.17.63.52.63h1.51q.57,0,.57-.63V513.7c0-.31.17-.47.52-.47H650l6.13,13.1a1,1,0,0,0,.94.63h1.61c.45,0,.57-.21.37-.63ZM641.75,511c-.35,0-.52-.15-.52-.46v-14.2c0-.31.17-.47.52-.47h9a4.89,4.89,0,0,1,3.69,1.35,5.26,5.26,0,0,1,1.3,3.8v4.89a5.15,5.15,0,0,1-1.3,3.77,5,5,0,0,1-3.69,1.32Z" transform="translate(-183.69 -123.02)"/><path class="cls-2" d="M680.57,509.8c-1.79-.45-3.56-.85-5.33-1.2-4.26-.83-6.4-2.44-6.4-4.83v-2.6q0-5.31,5-5.31h5.35c3.36,0,5,1.74,5,5.2v1.3a.5.5,0,0,0,.57.57h1.51a.5.5,0,0,0,.57-.57v-1.45a7.31,7.31,0,0,0-2-5.41,7.22,7.22,0,0,0-5.35-2h-6a7.21,7.21,0,0,0-5.35,2,7.31,7.31,0,0,0-2,5.41v2.86a5.71,5.71,0,0,0,1.87,4.47,10.27,10.27,0,0,0,4.55,2.29q2.68.62,5.33,1.19a12.56,12.56,0,0,1,4.53,1.87,4.14,4.14,0,0,1,1.87,3.59v2.19q0,5.25-5,5.25h-5.41c-3.37,0-5-1.74-5-5.2V517.7a.5.5,0,0,0-.57-.57h-1.51a.5.5,0,0,0-.57.57v1.87a7.31,7.31,0,0,0,2,5.41,7.21,7.21,0,0,0,5.35,2h6.14a7.25,7.25,0,0,0,5.36-2,7.34,7.34,0,0,0,2-5.41V517a6.27,6.27,0,0,0-1.87-4.79A10.05,10.05,0,0,0,680.57,509.8Z" transform="translate(-183.69 -123.02)"/><path class="cls-3" d="M248.28,438.9l-1.05-.15a4.91,4.91,0,0,1-2.06.68,8.42,8.42,0,0,0-3.15,1.38,38.45,38.45,0,0,1-4.9,2.5c-1.85.8-2.77,1.32-2.77,1.57a31.09,31.09,0,0,0,7.64-2l5.39-1.49a5.06,5.06,0,0,0,1.46-.6,9.69,9.69,0,0,1,1.61-.82l1.2-.9c.25-.1.79-.3,1.64-.59s1.28-.6,1.28-.9a.27.27,0,0,0-.3-.3,9.4,9.4,0,0,0-4.27.82A11.27,11.27,0,0,1,248.28,438.9Zm26.06-18.67.6-1.5,1.94-2.16a7.7,7.7,0,0,1,2.47-2.92,4.38,4.38,0,0,1,.45-1.12,4.69,4.69,0,0,0,.45-1.64l.67-1.2c.2-.19.3-.34.3-.44a3,3,0,0,0-.6-.9l-.37-1.57q0-.6-4-4h-.6l-5.39-2.61-.3-.75-.59-.15-.75.3h-.15l-2.54-.75a31,31,0,0,1-4-1.27.61.61,0,0,1-.45.15l-3-.67a3,3,0,0,1-1.53-.64,2.9,2.9,0,0,0-1.27-.67,3.55,3.55,0,0,1-1.31-.63,1.74,1.74,0,0,0-1.2-.3l-1.87.44c0-.14-.7-.39-2.09-.74q-.3-.75-.45-.75l-2.17.3c-1.45-.7-2.19-1.05-2.24-1.05a24.07,24.07,0,0,1-2.62-.41,8.9,8.9,0,0,1-2.91-.86,8.81,8.81,0,0,0-2-.89l-.45-.45a2,2,0,0,0-.82-.3h-1.35a2.19,2.19,0,0,1-1.23-.75,11.9,11.9,0,0,0-2-1.49,6.44,6.44,0,0,1-2.16-2.35,7,7,0,0,1-1-3.25.43.43,0,0,1-.15-.3l.45-2.39a15.77,15.77,0,0,1,4.26-8.45,4.51,4.51,0,0,1,2.46-2.91l.3-1a29.8,29.8,0,0,0,3.1-3,8,8,0,0,1,2.13-1.83,12.72,12.72,0,0,0,1.87-1.31l1.35-.6c0-.45,1.06-1.5,3.33-3.17a28.06,28.06,0,0,1,5.31-3.29,22.83,22.83,0,0,0,2.54-1.16,19.83,19.83,0,0,1,3.7-1.12c.5-1.34,1.3-2,2.39-2h1.12l1.5-1.49,2,.15.82-.93a2.78,2.78,0,0,1,2.24-.79l9-2.76h.6l.59.15q.6,0,1.53-1a3.12,3.12,0,0,1,2.43-1.05,2.67,2.67,0,0,1,1.12.6.13.13,0,0,0,.15.15l1.94-.6,2.32.15,2.91-.74a8.74,8.74,0,0,1,4.86,1.34l.15-.3v-.45c0-.84.47-1.27,1.42-1.27q.6,0,.75.3l.89.53h.53a14.83,14.83,0,0,1,1.94.89,4.16,4.16,0,0,1,1.42-.75,2.59,2.59,0,0,1,2.24,1.2l1.27-.15q.6-.6.75-.6c.29,0,.69.4,1.19,1.2l.45.15h1.87c.1,0,.3.15.59.45l.83.67a6.08,6.08,0,0,1,.82,1,3.43,3.43,0,0,0,.52.67,18.39,18.39,0,0,1,2.09-.82c.5,0,.87.42,1.12,1.27a2.73,2.73,0,0,0,1.31,2,2.81,2.81,0,0,1,1.31,2.13,2.5,2.5,0,0,1,1.64,2.39l1.42,3.66-.3,1.27a7.49,7.49,0,0,1,.6,1.35l-.3,2.76.3,2.92a4.85,4.85,0,0,1-2.17,4,3.35,3.35,0,0,0-1.45.63,5.1,5.1,0,0,1-1.16.64,2.91,2.91,0,0,1-2.58-.94,5.73,5.73,0,0,0-1.23-1.38,1.42,1.42,0,0,1-.6-1.19c0-1.15.77-2.27,2.32-3.37a1.66,1.66,0,0,0,1.49-.67,2.83,2.83,0,0,0-.67-2.17,10.9,10.9,0,0,1-1.46-1.64,7.42,7.42,0,0,0-1.68-1.68,5,5,0,0,1-1.46-1.61c-.37-.64-.71-1-1-1l-1.05.15-2.17-.45a26.17,26.17,0,0,1-6.27-1.56h-1.5l-4-.6a7.82,7.82,0,0,1-3,.45l-4.93.74-2-.15c-.15,0-1.52.43-4.11,1.27l-.74.15h-2a15.67,15.67,0,0,0-1.9.75,20.89,20.89,0,0,1-3,1.05l-.67.29a.57.57,0,0,1-.45.15l-1.19-.15-6.58,3.22-1-.6a8.61,8.61,0,0,0-1.42-.6.93.93,0,0,0-1.05,1l-.15,1.42a9.43,9.43,0,0,0-1.27.89,1.84,1.84,0,0,1-.74.45H259a2.33,2.33,0,0,0-1.68.79,2.63,2.63,0,0,1-1.38.86,5.55,5.55,0,0,0-1.72.67q-.15.3-1.2.6a2.58,2.58,0,0,0-1.6,1.38c-.38.72-.81,1.08-1.31,1.08l-1.49-.3-.83,1.5-1.79.44a8.94,8.94,0,0,1-1.94,1.95c-.65.45-1.28.93-1.91,1.45a5.21,5.21,0,0,0-1.34,1.61,3.16,3.16,0,0,1-1.23,1.31,3.84,3.84,0,0,0-1.42,2l-.75.74a4.43,4.43,0,0,0-1.87,3.37c0,.84.6,1.47,1.8,1.86a8.94,8.94,0,0,1,2.24,1,2,2,0,0,0,1.34.38,4.1,4.1,0,0,1,1.72.37q.83.38,2.76,1.2c.25.79.5,1.19.75,1.19s.3-.2.6-.6a1.58,1.58,0,0,1,1.34-.59,2.46,2.46,0,0,1,1.87,1.19l.6-.45h.29l1,.3H252l.89-.45a.65.65,0,0,1,.45-.14,18.88,18.88,0,0,1,2.32.74h.14a9,9,0,0,0,1.2-.3,4.32,4.32,0,0,1,1.27.45l1,.6c0,.15.1.22.3.22a2.16,2.16,0,0,0,.9-.33,2.25,2.25,0,0,1,1.12-.34,2,2,0,0,1,1.34.82,8.92,8.92,0,0,1,1.35-.52,5.3,5.3,0,0,1,2.31,1.12l1.42.3h1.64l2.47.45a8.59,8.59,0,0,0,2.16,1.72.94.94,0,0,1,1.05-.83,11.36,11.36,0,0,1,3.66,1l.6.14.59.45a10.31,10.31,0,0,1,1.57-.3c1,0,1.49.35,1.49,1.05a8,8,0,0,1-.44,2.32c.1,0,.25.1.44.29a1.91,1.91,0,0,1,.83-.59l1.19-.68c.2-.19.35-.29.45-.29,1.14,0,2.76.79,4.85,2.39a8.4,8.4,0,0,1,3.59,5.45,4.76,4.76,0,0,0,.6,2.09l-.3,1,.15,1.2a6,6,0,0,1-.3,1l-.15,1.13a1.57,1.57,0,0,1-.45.52,1.47,1.47,0,0,0-.45.52l.45,1.27v.3c0,.2-.18.47-.56.82a2.55,2.55,0,0,0-.71,1,3.3,3.3,0,0,1-.52.94,2.87,2.87,0,0,0-.52,1.16c-.1.44-.59.95-1.46,1.53s-1.31,1-1.31,1.3.1.45.3.45a3,3,0,0,0,1.9-.86,5,5,0,0,1,1.53-1,8.49,8.49,0,0,0,1.79-.89l7-3.29q7.83-3.74,8.73-3.73a1.05,1.05,0,0,1,1.19,1.19,4,4,0,0,1-1.05,1.72q-.15,3.51-3.06,4.11a6.64,6.64,0,0,0-1.72,1.57h-.59a5.62,5.62,0,0,1-4.26,2.09H300a10.31,10.31,0,0,1-6.72,3.06c-1.75,1.75-3.19,2.62-4.34,2.62l-1.19.3a8.77,8.77,0,0,1-2.62.74c-.1,0-.29.2-.59.6l-1.12.82a7.54,7.54,0,0,0-3.07,1.64,7.23,7.23,0,0,1-2.5,1.54,8.67,8.67,0,0,0-1.83.63q-1,.45-7.84,5.08l-1,.3a12.39,12.39,0,0,0-3.66,2.2,6.79,6.79,0,0,1-1.8,1.46h-.29q-1.72,0-4,2.24c-.1.25-1.18.66-3.25,1.24a22.13,22.13,0,0,0-5.94,2.65c-1.19.3-2.66.69-4.4,1.19a29.17,29.17,0,0,1-3.81.9l-5.23,1.12q-1.72.3-4,.9a7.52,7.52,0,0,0-2.32-.45l-1.34.15a1.87,1.87,0,0,1-.93-.53,8.28,8.28,0,0,0-1.69-1c-.69-.33-1-1.19-1-2.58s1.37-2.48,4.11-3.7,4.54-2.08,5.38-2.58a2.79,2.79,0,0,1,2.06-1,5.24,5.24,0,0,0,2.51-.89,10.31,10.31,0,0,1,3.21-1.35l3-1.57a.71.71,0,0,1,.38-.15h1a3.1,3.1,0,0,0,1.57-.82,7.16,7.16,0,0,1,2.17-1.19h.9c.1,0,.25-.13.45-.38a5.08,5.08,0,0,1,1.34-1l.23-.15h.74a7.37,7.37,0,0,1,1.95-1.12,10.32,10.32,0,0,0,2.17-1.2l5.83-2.24,1.35.15a1.91,1.91,0,0,0,1.15-.71,8.81,8.81,0,0,1,3.33-1.45,5.66,5.66,0,0,1,1.57-1.42,24.15,24.15,0,0,0,2.84-2.39Z" transform="translate(-183.69 -123.02)"/><path class="cls-3" d="M363.8,381.45l-2,4.34a20.46,20.46,0,0,1-2.28,4.29,17.32,17.32,0,0,0-1.9,3.25l-2.09,4.56-1.87,1.87a3.52,3.52,0,0,0-.45,1.19,9.36,9.36,0,0,1-1,3.55,28.92,28.92,0,0,0-1.5,4.15v.89a6.34,6.34,0,0,1-1.19,2.32v.9a15.07,15.07,0,0,1-1.27,2.76l.15.9a1.15,1.15,0,0,1-.15.45l-1.42,4.4a12.91,12.91,0,0,0-.71,3c0,.6-.06,1.15-.11,1.65v1.34l-.3,1.72.15.89v.45a6.66,6.66,0,0,1-.15,1.57,3.14,3.14,0,0,0,1.19,1.65.55.55,0,0,1,.45.18.4.4,0,0,0,.3.19l2.09-1.35a9.46,9.46,0,0,0,3.14-2.69l2.17-1.94.45-.67.89-.15a16.08,16.08,0,0,0,1.39-1.64q.78-1.05,1.08-1a.43.43,0,0,1,.3.15h1.05a1.67,1.67,0,0,1,.75.15l.14-.3v-1.27c0-1.64.53-2.46,1.57-2.46a12.88,12.88,0,0,1,2-2.39l.3-1.13a5.75,5.75,0,0,1,1.61-1.94,12.15,12.15,0,0,0,2.51-3.36l2.61-3.06c.1-.2.25-.57.45-1.12l.6-.6,1.27.15a.6.6,0,0,0,.3-.6,1.15,1.15,0,0,0-.15-.45,2,2,0,0,1-.15-.89c0-.45.73-1.64,2.2-3.55a23.72,23.72,0,0,0,2.81-4.26q.6-1.38,1.2-1.38c.19,0,.36.17.48.52a.67.67,0,0,0,.64.52.13.13,0,0,0,.15-.15c0-.1-.08-.2-.23-.3a.47.47,0,0,1-.22-.44,5.85,5.85,0,0,1,1-3.18,14.57,14.57,0,0,0,1.39-2.5,5.72,5.72,0,0,1,.63-1.31,7,7,0,0,0,.68-1.23,3.58,3.58,0,0,1,.89-1.27,4.09,4.09,0,0,0,.86-1,2.44,2.44,0,0,1,.86-.86c.35-.2.68-.92,1-2.17s1.37-2.66,3.21-4.25a1.3,1.3,0,0,1-.45-.9,2.61,2.61,0,0,1,.45-1.05,34.07,34.07,0,0,1,2.65-5.52q2.66-5,4.38-7.7l.3-1.05,1-.89,1.34-2,4.11-2.76a5.53,5.53,0,0,1,2.32-1.05,3.9,3.9,0,0,1,1.2.15,1.46,1.46,0,0,1,.82-.45,2.31,2.31,0,0,1,.59.15h.3a2.61,2.61,0,0,1,1-.45,1.83,1.83,0,0,1,.82.3h.45a5,5,0,0,1,2.35,1.16c1.07.77,1.61,1.36,1.61,1.76l-.15.89.15.9a7.51,7.51,0,0,1-1.76,4.59c-1.17,1.52-1.85,2.46-2.05,2.8l-1,.45a9.06,9.06,0,0,0-.19,1.16,2.64,2.64,0,0,1-.63,1.5,7.88,7.88,0,0,0-1.2,2.12,11.47,11.47,0,0,1-1.19,2.25v1l-3.52,8.44a8.23,8.23,0,0,1-.71,1.61,1.33,1.33,0,0,1-1.23.71,2.27,2.27,0,0,0,.56.63.85.85,0,0,1,.34.71,2.56,2.56,0,0,1-2.17,2.62,1.85,1.85,0,0,1,.45,1l.37.83L401.56,395v1.27a7.87,7.87,0,0,0-1,2.09v1.27a6.53,6.53,0,0,1-.9,1.94l-.68,1.27a9.31,9.31,0,0,0-.45,1.2h-.15l.15,1.56c-.1.11-.4.35-.9.75v1.5a2.55,2.55,0,0,0-.75,2,4.14,4.14,0,0,1-.82,1.87,4.51,4.51,0,0,1,.15.75,8.48,8.48,0,0,1-.6,3.25,6.8,6.8,0,0,0-.6,1.9v1.12a1.3,1.3,0,0,1,.45.9,4.77,4.77,0,0,1-.23.86,4.33,4.33,0,0,0-.22,1.31c0,1.49.3,2.24.9,2.24l1.72-.53a2.09,2.09,0,0,0,1.28-1,2.41,2.41,0,0,1,1.23-1.09,1.37,1.37,0,0,0,.94-1.16c0-.52.54-.89,1.46-1.12s2.9-1.85,5.94-4.89l2.31-1.34.6-1.05c.4-.4,1.06-1.17,2-2.32s1.66-1.71,2.2-1.71q2.25,0,2.25,2.46a22.26,22.26,0,0,1-.71,2.91,10.79,10.79,0,0,1-1,2.84,6.26,6.26,0,0,1-.9.71,4.21,4.21,0,0,0-1.19,1.68q-3.45,3.38-5.08,3.81a19.27,19.27,0,0,0-1.65,1.39,12.72,12.72,0,0,1-2,1.53,9.44,9.44,0,0,0-1.6,1.19,5.25,5.25,0,0,1-2,1.12l-.59.3a1.15,1.15,0,0,0-.45-.15c-.3,0-.64.23-1,.68a3.73,3.73,0,0,1-1.69,1,4.93,4.93,0,0,0-1.76.94,1.9,1.9,0,0,1-.94.56l-1.2-.53c-.6.55-1,.82-1.12.82l-.9-.44a1.71,1.71,0,0,0-.83-.45,4.26,4.26,0,0,1-1.24-.67,14.92,14.92,0,0,0-1.53-1.05,5.42,5.42,0,0,1-1.79-2.76l-.6-.75a5.24,5.24,0,0,1-.75-1.57c0-.3.05-.9.15-1.79v-.45a11.87,11.87,0,0,0-.3-2.13,12,12,0,0,1-.3-2.2l1.8-9.94-.3-1.79a7.5,7.5,0,0,1,.93-3q.93-1.91,1.83-8.48c-.8,2.44-1.39,3.66-1.79,3.66l-1.12-.15a.6.6,0,0,0-.3.6,5.76,5.76,0,0,0,.3,1.27v1.05c0,.94-.93,1.71-2.77,2.31a1.15,1.15,0,0,1-.15.45c.55.25.82.5.82.75a3.12,3.12,0,0,1-1.38,2.69,6.69,6.69,0,0,0-1.83,1.68c-.3.47-.57.71-.82.71l-.45-.67h-.15l-.75,1.41a2.19,2.19,0,0,1,.45.75,12.75,12.75,0,0,1-1.53,2.62c-1,1.54-1.64,2.31-1.83,2.31l-2.17,2.09-.3.68v.74a1.55,1.55,0,0,1-.3.6l-2.91,4.11-.9,1.72-3.07,4.56a4.13,4.13,0,0,0-1.64,1.12l-.52.3c0,.79-.65,1.54-1.95,2.24a5,5,0,0,1-1.87,2.76,8.5,8.5,0,0,0-1.79,1.42l-1.42.9-1.79,1.49-2,.67-.9-.67c-.4,1.15-.75,1.72-1,1.72l-1.72-.3-1.42.3q-1.79,0-4.67-2.39A24.52,24.52,0,0,1,340,436l-.89-1.2a1.93,1.93,0,0,1-.6-.93,4,4,0,0,0-1.42-1.53l-.75-1.2v-1a15.35,15.35,0,0,1-2-3.4,20.11,20.11,0,0,1-.18-3.47v-.6l.3-1-.15-1.72a11.43,11.43,0,0,1,.71-3.36,17.6,17.6,0,0,0,.71-2.47v-.45l-.23-.45,1-3.13a7.06,7.06,0,0,1,.75-2,6.64,6.64,0,0,0,.45-2.58c.1-1.47.82-2.2,2.16-2.2a1.15,1.15,0,0,1,.45.15.8.8,0,0,0,.6-.9h-.3c-.4,0-.6-.27-.6-.82a2.66,2.66,0,0,1,.45-1.64,2.84,2.84,0,0,0,.45-1.72,4.15,4.15,0,0,1,1.23-2.73,8.67,8.67,0,0,0,1.24-1.53,7.69,7.69,0,0,1,1.15-3.25A40.06,40.06,0,0,0,346.4,387a14.9,14.9,0,0,1,1.68-3.06,10.45,10.45,0,0,0,1.42-2.62,6.8,6.8,0,0,1,1.79-2.54l.83-1.49a21.77,21.77,0,0,1,1.64-2.32,4.22,4.22,0,0,0,.93-2.2,2.24,2.24,0,0,1,1.31-1.83c.75-.35,1.17-.78,1.27-1.31a5.34,5.34,0,0,1,.56-1.53,5.4,5.4,0,0,0,.56-1.46,3.94,3.94,0,0,1,.9-1.6,9,9,0,0,0,1.38-2.73q.63-1.83,1.83-1.83l1.49.15.15-.52a1.4,1.4,0,0,0-.37-.6,1.4,1.4,0,0,1-.37-.9c0-1.44.47-2.16,1.42-2.16.3,0,.64.32,1,1,.35-2.94.56-4.5.64-4.67a1.47,1.47,0,0,0,.11-.56l.15-.75a1.85,1.85,0,0,0,.15-.82,2.6,2.6,0,0,0-.56-1.34c-.38-.55-.69-.83-.94-.83-.05,0-.62.13-1.71.38l-.9-.9c-.5,1.1-1,1.64-1.49,1.64l-1.28-.44a9.7,9.7,0,0,1-3.36,1.64l-1.19-.45h-.15c-.3,0-.61.36-.94,1.08a1.93,1.93,0,0,1-2,1.09h-.74A4.34,4.34,0,0,1,349.8,354a4.12,4.12,0,0,0-1.61.93,5.1,5.1,0,0,1-1.45,1,8.47,8.47,0,0,0-2,1.5l-.75.45c-.89.55-1.39,1.08-1.49,1.6a2.77,2.77,0,0,1-.82,1.46c-1.79,1.3-2.69,2.37-2.69,3.21l.15,1.35-.15,1.94q0,.82-1.38,2a4,4,0,0,1-2.28,1.16c-3.58,0-5.38-1.07-5.38-3.22l.3-2.16-.15-1.72.15-1.49a4.2,4.2,0,0,1,2.06-3.25,28.48,28.48,0,0,0,2.8-2.28l2.92-1.5a6.52,6.52,0,0,0,1.5-1.53c.34-.52,1.44-1.17,3.29-1.94a14.83,14.83,0,0,0,4-2.28,11.26,11.26,0,0,1,3.74-2,30,30,0,0,0,3.78-1.53A5.7,5.7,0,0,1,356,345l.9.15a7.31,7.31,0,0,0,1.61-.94,3.12,3.12,0,0,1,1.9-.63l9.19-2.09c.95-.25,2.74.29,5.38,1.64s4,4.31,4,8.89q0,1.43-2.28,6.13a50.46,50.46,0,0,1-5,8.36l-.45,1.12-2,3.51-1.19,2.62c-.55,1-1.12,2.17-1.72,3.51l-1.35,1.79A9.57,9.57,0,0,0,363.8,381.45Z" transform="translate(-183.69 -123.02)"/><path class="cls-3" d="M442.64,395.13h-1.87a3.69,3.69,0,0,0-1.61.85c-.77.58-1.15,1-1.15,1.16s.58.76,1.75,1.68a6.21,6.21,0,0,0,2.21,1.39c.89,0,2-2,3.21-6.13l-.75.3-.9-.15C442.94,394.73,442.64,395,442.64,395.13Zm-5-35.34-.15.82a4.34,4.34,0,0,1-2.09,2.54,6.6,6.6,0,0,1-3.74,1.27q-4.69,0-4.7-4.48,0-1.57,2.43-3.85a13.38,13.38,0,0,1,6.5-3.17,28.64,28.64,0,0,0,5.82-1.76,18.13,18.13,0,0,1,5.42-1.31,1.71,1.71,0,0,0,1.19.6,1.41,1.41,0,0,0,1.35-.67c.25-.45.82-.57,1.72-.38h.37l4-1,1.19.45a1.27,1.27,0,0,0,.71-.3,2.93,2.93,0,0,1,1-.45h1.2l1.42-.3a8.48,8.48,0,0,0,1.94-.67l1.27.15a23.87,23.87,0,0,0,4.67-.75,29.86,29.86,0,0,1,4.93-.82,19.46,19.46,0,0,0,2.47-.22,8.2,8.2,0,0,1,.93-.15,2.23,2.23,0,0,1,1.12.44,2.18,2.18,0,0,0,1,.45c.2,0,1.59-.3,4.18-.89h.45l3.36.74a5.2,5.2,0,0,1,1.8-.74,3.57,3.57,0,0,1,2.61,1l1.42-.6.75.15a8.79,8.79,0,0,0,1.34-.15h.6a4.61,4.61,0,0,1,1.12.15.43.43,0,0,0,.3.15,3.9,3.9,0,0,0,1.2-.15h1l3.21.75,1.34-.15a3.29,3.29,0,0,1,.9.45l.82-.15a20.07,20.07,0,0,0,2.69,1.42,6.77,6.77,0,0,1,1.12-.3h.15a8.14,8.14,0,0,1,1.5.9l2.16,1,.6-.3a13,13,0,0,1,2.16,1.2l.59,1.27a19.65,19.65,0,0,1,2,1.19,6.44,6.44,0,0,0,.89,1.72v.6c0,.1.39.46,1.16,1.08s1.15,1.09,1.15,1.39c0,.1,0,.44-.15,1v.15a3.47,3.47,0,0,0,.52,1,3.54,3.54,0,0,1,.52,1.94l-.15,1,.15,1-.75,5a4.08,4.08,0,0,0-.9,1.45,1.76,1.76,0,0,1-1.12,1.09,3,3,0,0,0-1.46,1.53,2.83,2.83,0,0,1-1.61,1.53,5.55,5.55,0,0,0-2,1.31,2.93,2.93,0,0,1-2.13.93l-8,2.39-.89-.3a4.39,4.39,0,0,1-4,2.17,19.13,19.13,0,0,0-3,.52l-1.5.38-1.2-.15-2.77.52a6.35,6.35,0,0,0-1.87.56,3.07,3.07,0,0,1-1.49.34l-2,1a.61.61,0,0,1-.45.15,1.19,1.19,0,0,1-.75-.15l-1.05-.3a2.87,2.87,0,0,0-1.08.53,1.56,1.56,0,0,1-.94.37l-.9-.75-1.42,1.2a14.92,14.92,0,0,0-2.39.67,3.78,3.78,0,0,0-1.28-.52l-2.61,1.12-1.5-.45-.15.45a3.73,3.73,0,0,0-2.13.75,3.55,3.55,0,0,1-1.84.74,1.67,1.67,0,0,1-1.12-.6.85.85,0,0,1-.6-.29,4.3,4.3,0,0,0-1.12,1.08,3.69,3.69,0,0,1-1.65,1.08L461.6,389c0,.15-.48.41-1.42.78s-1.45.69-1.5.94l-.75,1c-.35.85-.62,1.55-.82,2.1a3.84,3.84,0,0,1-.75,1.3,4.65,4.65,0,0,0-.82,1.68,10.08,10.08,0,0,1-1.35,2.62l-.15.89a8.51,8.51,0,0,1-1.35,1.35L451,404.91a3.7,3.7,0,0,0-.75,1.57c0,.75.68,1.47,2,2.17l7.93,6.72,1.27.75h.15l-.3,1.34a2.41,2.41,0,0,0,.75.38c.3,0,.45-.23.45-.68h.44c.1,0,.35.23.75.68l.82.45c.35.34,1,.92,1.95,1.71s1.42,1.35,1.42,1.65l-.15.59h.45c.2-.19.35-.29.45-.29a5.37,5.37,0,0,1,1.64.89l1,.45a27.58,27.58,0,0,1,3.63,2.91,11.71,11.71,0,0,0,1.87,1.68,8.27,8.27,0,0,1,2,2.13l8.6,6.43q10.76,8.07,12.11,10.76a3.13,3.13,0,0,0,1.42.89,12,12,0,0,1,3.22,2.51,11.28,11.28,0,0,1,2.54,3.17v2.62c0,.19-.25.44-.75.74l-1,.9c-1.3,1.34-2.42,2-3.36,2-2.34,0-4.06-.53-5.16-1.57l-.37-.15h-.75c-.79,0-1.24-.7-1.34-2.09l-.3-1a11,11,0,0,1-5.68-3.8l-4.25-4c-.1-.11-.93-1.06-2.47-2.88a21.66,21.66,0,0,0-4.07-3.92,12.35,12.35,0,0,1-2.76-2.47,12,12,0,0,0-2.69-2.39,14.52,14.52,0,0,1-3.55-3.77,28.32,28.32,0,0,0-2.09-2.8q-3.36-1.8-3.21-4a7,7,0,0,0-2.17-.6,5.29,5.29,0,0,0-1.12-1,.77.77,0,0,1-.37-.22l.15-1.2a6.63,6.63,0,0,1-3.14-1.68c-.6-.67-1.4-1.58-2.39-2.72a28.08,28.08,0,0,0-2.58-2.66c-.72-.62-1.11-1.1-1.16-1.45s-.52-.77-1.42-1.27a5.41,5.41,0,0,1-1.12,1.42,3.38,3.38,0,0,0-.89,1.19l-.3.45a3.22,3.22,0,0,0-1.05,2.32,4.76,4.76,0,0,0-1.42,3.21l-3.36,7.62-.6,2.76-.44,4.71c-.15,1.34-.72,2-1.71,2l-1.49.15a10.34,10.34,0,0,0-2.78-.56c-1.46-.18-2.67-1.63-3.61-4.37a7.55,7.55,0,0,0-.85-1.5,3.4,3.4,0,0,1-.71-1.87,7.17,7.17,0,0,1,.45-1.94l.3-1.72a25,25,0,0,1,1.86-4.26l4-7.54,1.94-2.91a9.53,9.53,0,0,0,.82-2.28,7.21,7.21,0,0,1,1.38-2.8,3.32,3.32,0,0,0,.93-1.65c0-.6-.46-1.19-1.38-1.79S437.13,402,437,401.4l-.3-.75q-3.94-2.31-4-5.23,0-1.56,4-3.92a23.83,23.83,0,0,1,5.34-2.65,10,10,0,0,0,2.73-1.05l1.26-.29,1.05-.9a17.85,17.85,0,0,1,2.2-.56c.87-.18,1.62-1.2,2.24-3.06s1.18-3,1.68-3.25a41.58,41.58,0,0,0,2-4.64c.1-.19.39-.66.86-1.38a14.34,14.34,0,0,0,1.45-3.58c.5-1.67.85-2.51,1.05-2.51a4.87,4.87,0,0,0,1.19-.3l-.75-2q0-.3.6-.9a4.65,4.65,0,0,1-1-3.06c0-1.94,1.36-2.92,4.09-2.92a8.31,8.31,0,0,1,3,1.31c1.49.87,2.28,1.51,2.38,1.91a7.76,7.76,0,0,0,1,1.9,4.39,4.39,0,0,1,.82,2.21c0,1.94-.32,3.21-1,3.81a10.26,10.26,0,0,0-2,4l-2,5.67-.3,1.42-.37.6,1.86-.45c.4-1.09,2.1-1.72,5.09-1.87l4.72-1.49h1.42l4.57-1.27c.2,0,.92-.1,2.17-.3h.45l.9-.15a1.7,1.7,0,0,1,.6.6h.3c.54,0,.85-.32.9-1s.77-1,2.17-1a.73.73,0,0,1,.56.37.7.7,0,0,0,.56.37,1.51,1.51,0,0,1,1.16-1.15,5.15,5.15,0,0,1,1.46-.34l1.2.15a.61.61,0,0,1-.15-.45c0-.45,1.52-.92,4.56-1.42a5.84,5.84,0,0,0,2-1.12,17.75,17.75,0,0,1,4.72-1.94l4.49-1.35c1.85-.59,3.12-2.39,3.82-5.38-.1-.09-.55-.77-1.34-2,0-.1-.38-.15-1.12-.15a4.75,4.75,0,0,0-1-.71,8.24,8.24,0,0,1-1.72-1.38l-.89.3a9.54,9.54,0,0,0-2.43-.94,8,8,0,0,1-2.95-1.53,2.63,2.63,0,0,1-.75.3,10.55,10.55,0,0,1-1.64-.75l-2-.89h-1.2l-.52-.15c-.3-.35-.55-.53-.75-.53l-.74.15a1.67,1.67,0,0,1-.75.15h-1.27a5.27,5.27,0,0,1-1.2-.75h-2.46l-1.35.3c-.2,0-.52-.19-1-.59l-1.34.29-1.35-.59-2,.3a1.82,1.82,0,0,0-.9-.45l-6,.6a.64.64,0,0,1-.52-.3,1.37,1.37,0,0,0-.71-.45,3.73,3.73,0,0,1-1.08-.6,6.16,6.16,0,0,1-3.06.9l-2.32-.3-.45.15h-.3a12,12,0,0,1-1.34-.3.61.61,0,0,1-.15.45l-1.12-.3-4.11.75h-.15l-.75-.15a2.54,2.54,0,0,0-.86.22,2.49,2.49,0,0,1-.86.22l-1.64-.15-1.27.3-1.79-.15L451,354.48h-.3a1.16,1.16,0,0,1-.67-.26,1.27,1.27,0,0,0-.53-.26l-1.12.23-.89-.23c-.2,0-.6.48-1.2,1.42q0,.15-.3.15h-.15l-1.12-.3c-.2,0-.59.35-1.19,1-.95.35-1.87.72-2.77,1.12a4.83,4.83,0,0,1-1.79,1.79Z" transform="translate(-183.69 -123.02)"/><path class="cls-3" d="M563,381.45l-2,4.34a20.94,20.94,0,0,1-2.28,4.29,16.79,16.79,0,0,0-1.9,3.25l-2.1,4.56-1.86,1.87a3.52,3.52,0,0,0-.45,1.19,9.55,9.55,0,0,1-1,3.55,28.92,28.92,0,0,0-1.5,4.15v.89a6.52,6.52,0,0,1-1.19,2.32v.9a15.93,15.93,0,0,1-1.27,2.76l.15.9a1.15,1.15,0,0,1-.15.45l-1.42,4.4a12.91,12.91,0,0,0-.71,3c0,.6-.06,1.15-.11,1.65v1.34l-.3,1.72.15.89v.45a6.66,6.66,0,0,1-.15,1.57,3.09,3.09,0,0,0,1.19,1.65.55.55,0,0,1,.45.18.4.4,0,0,0,.3.19l2.09-1.35a9.46,9.46,0,0,0,3.14-2.69l2.17-1.94.45-.67.89-.15a16.08,16.08,0,0,0,1.39-1.64q.78-1.05,1.08-1a.43.43,0,0,1,.3.15h1a1.62,1.62,0,0,1,.74.15l.15-.3v-1.27c0-1.64.53-2.46,1.57-2.46a12.51,12.51,0,0,1,2-2.39l.3-1.13a5.75,5.75,0,0,1,1.61-1.94,11.93,11.93,0,0,0,2.5-3.36l2.62-3.06c.1-.2.25-.57.45-1.12l.6-.6,1.27.15a.6.6,0,0,0,.3-.6,1.15,1.15,0,0,0-.15-.45,2,2,0,0,1-.15-.89c0-.45.73-1.64,2.2-3.55a24.3,24.3,0,0,0,2.81-4.26c.4-.92.8-1.38,1.19-1.38.2,0,.37.17.49.52a.66.66,0,0,0,.64.52.13.13,0,0,0,.15-.15c0-.1-.08-.2-.23-.3a.47.47,0,0,1-.22-.44,5.77,5.77,0,0,1,1-3.18,14.57,14.57,0,0,0,1.39-2.5,5.72,5.72,0,0,1,.63-1.31A7,7,0,0,0,584,388a3.46,3.46,0,0,1,.89-1.27,4.09,4.09,0,0,0,.86-1,2.44,2.44,0,0,1,.86-.86c.35-.2.67-.92,1-2.17s1.37-2.66,3.22-4.25a1.3,1.3,0,0,1-.45-.9,2.61,2.61,0,0,1,.45-1.05,34.07,34.07,0,0,1,2.65-5.52q2.65-5,4.38-7.7l.3-1.05,1-.89,1.34-2,4.11-2.76a5.53,5.53,0,0,1,2.32-1.05,3.83,3.83,0,0,1,1.19.15,1.51,1.51,0,0,1,.83-.45,2.53,2.53,0,0,1,.59.15h.3a2.61,2.61,0,0,1,1.05-.45,1.83,1.83,0,0,1,.82.3h.45a5,5,0,0,1,2.35,1.16c1.07.77,1.61,1.36,1.61,1.76l-.15.89.15.9a7.51,7.51,0,0,1-1.76,4.59c-1.17,1.52-1.85,2.46-2.05,2.8l-1,.45a7.48,7.48,0,0,0-.19,1.16,2.65,2.65,0,0,1-.64,1.5,7.92,7.92,0,0,0-1.19,2.12,10.88,10.88,0,0,1-1.2,2.25v1l-3.51,8.44a8.23,8.23,0,0,1-.71,1.61,1.33,1.33,0,0,1-1.23.71,2.27,2.27,0,0,0,.56.63.87.87,0,0,1,.34.71,2.57,2.57,0,0,1-2.17,2.62,1.85,1.85,0,0,1,.45,1l.37.83L600.76,395v1.27a7.58,7.58,0,0,0-1,2.09v1.27a6.53,6.53,0,0,1-.9,1.94l-.68,1.27a9.31,9.31,0,0,0-.45,1.2h-.15l.15,1.56c-.1.11-.4.35-.9.75v1.5a2.55,2.55,0,0,0-.75,2,4.14,4.14,0,0,1-.82,1.87,4.51,4.51,0,0,1,.15.75,8.48,8.48,0,0,1-.6,3.25,6.8,6.8,0,0,0-.6,1.9v1.12a1.3,1.3,0,0,1,.45.9,4.77,4.77,0,0,1-.23.86,4.33,4.33,0,0,0-.22,1.31c0,1.49.3,2.24.9,2.24l1.72-.53a2.09,2.09,0,0,0,1.28-1,2.41,2.41,0,0,1,1.23-1.09,1.37,1.37,0,0,0,.94-1.16c0-.52.53-.89,1.46-1.12s2.9-1.85,5.94-4.89l2.31-1.34.6-1.05c.4-.4,1.06-1.17,2-2.32s1.65-1.71,2.2-1.71c1.5,0,2.24.82,2.24,2.46a20.53,20.53,0,0,1-.71,2.91,11,11,0,0,1-1,2.84,6.26,6.26,0,0,1-.9.71,4.31,4.31,0,0,0-1.2,1.68q-3.43,3.38-5.08,3.81a19.69,19.69,0,0,0-1.64,1.39,12.72,12.72,0,0,1-2,1.53,9.9,9.9,0,0,0-1.61,1.19,5.13,5.13,0,0,1-1.94,1.12l-.6.3a1.17,1.17,0,0,0-.44-.15c-.3,0-.64.23-1,.68a3.64,3.64,0,0,1-1.68,1,4.93,4.93,0,0,0-1.76.94,1.9,1.9,0,0,1-.94.56l-1.2-.53c-.6.55-1,.82-1.13.82l-.9-.44a1.66,1.66,0,0,0-.82-.45,4.26,4.26,0,0,1-1.24-.67,14.92,14.92,0,0,0-1.53-1.05,5.49,5.49,0,0,1-1.8-2.76l-.59-.75a5.24,5.24,0,0,1-.75-1.57c0-.3,0-.9.15-1.79v-.45a11.87,11.87,0,0,0-.3-2.13,12,12,0,0,1-.3-2.2l1.79-9.94-.29-1.79a7.5,7.5,0,0,1,.93-3q.93-1.91,1.83-8.48c-.8,2.44-1.4,3.66-1.79,3.66l-1.12-.15a.59.59,0,0,0-.3.6,5.21,5.21,0,0,0,.3,1.27v1.05c0,.94-.93,1.71-2.77,2.31a1.15,1.15,0,0,1-.15.45c.55.25.82.5.82.75a3.12,3.12,0,0,1-1.38,2.69,6.69,6.69,0,0,0-1.83,1.68c-.3.47-.58.71-.82.71l-.45-.67h-.15l-.75,1.41a2.19,2.19,0,0,1,.45.75,12.75,12.75,0,0,1-1.53,2.62q-1.54,2.31-1.83,2.31l-2.17,2.09-.3.68v.74a1.55,1.55,0,0,1-.3.6l-2.92,4.11-.89,1.72-3.07,4.56a4.06,4.06,0,0,0-1.64,1.12l-.53.3c0,.79-.64,1.54-1.94,2.24a5,5,0,0,1-1.87,2.76,8.24,8.24,0,0,0-1.79,1.42l-1.42.9-1.8,1.49-2,.67-.9-.67c-.4,1.15-.75,1.72-1.05,1.72l-1.72-.3-1.42.3q-1.78,0-4.67-2.39a24.52,24.52,0,0,1-3.4-3.14l-.89-1.2a1.93,1.93,0,0,1-.6-.93,4.09,4.09,0,0,0-1.42-1.53l-.75-1.2v-1a15.35,15.35,0,0,1-2-3.4,19.74,19.74,0,0,1-.19-3.47v-.6l.3-1-.15-1.72a11.77,11.77,0,0,1,.71-3.36,16.13,16.13,0,0,0,.71-2.47v-.45l-.22-.45,1-3.13a7.06,7.06,0,0,1,.75-2,6.64,6.64,0,0,0,.45-2.58c.09-1.47.82-2.2,2.16-2.2a1.15,1.15,0,0,1,.45.15.8.8,0,0,0,.6-.9h-.3c-.4,0-.6-.27-.6-.82a2.66,2.66,0,0,1,.45-1.64,2.84,2.84,0,0,0,.45-1.72,4.15,4.15,0,0,1,1.23-2.73,8.3,8.3,0,0,0,1.23-1.53,7.74,7.74,0,0,1,1.16-3.25A40.06,40.06,0,0,0,545.6,387a14.9,14.9,0,0,1,1.68-3.06,10.45,10.45,0,0,0,1.42-2.62,6.8,6.8,0,0,1,1.79-2.54l.82-1.49A23.22,23.22,0,0,1,553,375a4.31,4.31,0,0,0,.93-2.2,2.24,2.24,0,0,1,1.31-1.83c.75-.35,1.17-.78,1.27-1.31a5.06,5.06,0,0,1,.56-1.53,5.4,5.4,0,0,0,.56-1.46,3.94,3.94,0,0,1,.9-1.6,9.27,9.27,0,0,0,1.38-2.73q.63-1.83,1.83-1.83l1.49.15.15-.52a1.4,1.4,0,0,0-.37-.6,1.4,1.4,0,0,1-.37-.9q0-2.16,1.41-2.16c.3,0,.65.32,1,1,.35-2.94.56-4.5.64-4.67a1.47,1.47,0,0,0,.11-.56l.15-.75a1.85,1.85,0,0,0,.15-.82,2.6,2.6,0,0,0-.56-1.34c-.38-.55-.69-.83-.94-.83-.05,0-.62.13-1.72.38l-.89-.9c-.5,1.1-1,1.64-1.5,1.64l-1.27-.44a9.7,9.7,0,0,1-3.36,1.64l-1.19-.45h-.15c-.3,0-.61.36-.94,1.08a1.93,1.93,0,0,1-2,1.09h-.74A4.34,4.34,0,0,1,549,354a4.05,4.05,0,0,0-1.61.93,5.24,5.24,0,0,1-1.45,1,8.28,8.28,0,0,0-2,1.5l-.75.45c-.89.55-1.39,1.08-1.49,1.6a2.84,2.84,0,0,1-.82,1.46c-1.8,1.3-2.69,2.37-2.69,3.21l.15,1.35-.15,1.94q0,.82-1.38,2a4,4,0,0,1-2.28,1.16c-3.58,0-5.38-1.07-5.38-3.22l.3-2.16-.15-1.72.15-1.49a4.2,4.2,0,0,1,2.06-3.25,28.48,28.48,0,0,0,2.8-2.28l2.92-1.5a6.27,6.27,0,0,0,1.49-1.53c.35-.52,1.45-1.17,3.29-1.94a14.76,14.76,0,0,0,4-2.28,11.26,11.26,0,0,1,3.74-2,30.63,30.63,0,0,0,3.78-1.53,5.7,5.7,0,0,1,1.6-.67l.9.15a7.31,7.31,0,0,0,1.61-.94,3.12,3.12,0,0,1,1.9-.63l9.19-2.09c1-.25,2.74.29,5.38,1.64s4,4.31,4,8.89q0,1.43-2.28,6.13a50.46,50.46,0,0,1-5,8.36l-.45,1.12-2,3.51-1.19,2.62c-.55,1-1.12,2.17-1.72,3.51L564,379.06A9.21,9.21,0,0,0,563,381.45Z" transform="translate(-183.69 -123.02)"/><path class="cls-3" d="M630.58,354.93l-.59-3.66a1.85,1.85,0,0,1,.41-1.27,4.92,4.92,0,0,0,.63-1.27,2.26,2.26,0,0,1,.52-.93,12.77,12.77,0,0,0,1.31-2.32,4,4,0,0,1,3.4-2.2,2.83,2.83,0,0,1,2.09-.75q1.8,0,4.3,3.36t2.5,4.26a4,4,0,0,1-1.72,2.77,6.4,6.4,0,0,1-1.45,4.22,14.51,14.51,0,0,0-1.91,2.69,3.36,3.36,0,0,1-.67,1.08q-.23.15-2.73,3.62T632.75,368a13.52,13.52,0,0,1-2.2-.9,7.11,7.11,0,0,1-2-1.05,5.32,5.32,0,0,1,2.09-3.84,6.81,6.81,0,0,0,2.39-3.93c-.25-.09-.72-.72-1.42-1.86Z" transform="translate(-183.69 -123.02)"/><path class="cls-3" d="M659.34,438.9l-1-.15a4.91,4.91,0,0,1-2.06.68,8.36,8.36,0,0,0-3.15,1.38,38.45,38.45,0,0,1-4.9,2.5c-1.85.8-2.78,1.32-2.78,1.57a30.86,30.86,0,0,0,7.64-2l5.4-1.49a5.19,5.19,0,0,0,1.46-.6,9.69,9.69,0,0,1,1.61-.82l1.19-.9c.25-.1.8-.3,1.65-.59s1.27-.6,1.27-.9a.27.27,0,0,0-.3-.3,9.35,9.35,0,0,0-4.26.82A11.09,11.09,0,0,1,659.34,438.9Zm26.07-18.67.6-1.5,1.94-2.16a7.7,7.7,0,0,1,2.47-2.92,4.38,4.38,0,0,1,.45-1.12,4.69,4.69,0,0,0,.45-1.64l.67-1.2c.2-.19.3-.34.3-.44a3,3,0,0,0-.6-.9l-.37-1.57c0-.4-1.33-1.72-4-4h-.59l-5.39-2.61-.3-.75-.6-.15-.74.3h-.15l-2.55-.75a30.63,30.63,0,0,1-4-1.27.61.61,0,0,1-.45.15l-3-.67a3.07,3.07,0,0,1-1.54-.64,2.78,2.78,0,0,0-1.27-.67,3.64,3.64,0,0,1-1.31-.63,1.71,1.71,0,0,0-1.19-.3l-1.87.44c0-.14-.7-.39-2.1-.74-.2-.5-.34-.75-.44-.75l-2.17.3Q655.5,393,655.42,393a24.08,24.08,0,0,1-2.61-.41,9,9,0,0,1-2.92-.86,8.7,8.7,0,0,0-2-.89l-.45-.45a2,2,0,0,0-.82-.3h-1.35a2.16,2.16,0,0,1-1.23-.75,12.32,12.32,0,0,0-2-1.49,6.44,6.44,0,0,1-2.16-2.35,7,7,0,0,1-1-3.25.43.43,0,0,1-.15-.3l.45-2.39a15.68,15.68,0,0,1,4.25-8.45,4.52,4.52,0,0,1,2.47-2.91l.3-1a29.8,29.8,0,0,0,3.1-3,8,8,0,0,1,2.13-1.83,13.29,13.29,0,0,0,1.87-1.31l1.35-.6c-.05-.45,1.06-1.5,3.33-3.17a28.06,28.06,0,0,1,5.31-3.29,22.83,22.83,0,0,0,2.54-1.16,19.56,19.56,0,0,1,3.7-1.12c.5-1.34,1.29-2,2.39-2H673l1.5-1.49,2,.15c.1-.1.38-.41.82-.93a2.81,2.81,0,0,1,2.25-.79l9-2.76h.59l.6.15q.6,0,1.53-1a3.09,3.09,0,0,1,2.43-1.05,2.67,2.67,0,0,1,1.12.6.13.13,0,0,0,.15.15l1.94-.6,2.32.15,2.91-.74a8.78,8.78,0,0,1,4.86,1.34l.15-.3v-.45c0-.84.47-1.27,1.42-1.27.39,0,.64.1.74.3l.9.53h.52a13.93,13.93,0,0,1,2,.89,4.15,4.15,0,0,1,1.41-.75,2.59,2.59,0,0,1,2.25,1.2l1.27-.15c.39-.4.64-.6.74-.6q.45,0,1.2,1.2l.45.15h1.86q.15,0,.6.45l.82.67a5.74,5.74,0,0,1,.83,1,3.43,3.43,0,0,0,.52.67,17.59,17.59,0,0,1,2.09-.82c.5,0,.87.42,1.12,1.27a2.73,2.73,0,0,0,1.31,2,2.81,2.81,0,0,1,1.31,2.13,2.5,2.5,0,0,1,1.64,2.39l1.42,3.66-.3,1.27a7.49,7.49,0,0,1,.6,1.35l-.3,2.76.3,2.92a4.88,4.88,0,0,1-2.17,4,3.42,3.42,0,0,0-1.46.63,4.93,4.93,0,0,1-1.15.64,2.91,2.91,0,0,1-2.58-.94,6,6,0,0,0-1.23-1.38,1.42,1.42,0,0,1-.6-1.19c0-1.15.77-2.27,2.31-3.37a1.67,1.67,0,0,0,1.5-.67,2.87,2.87,0,0,0-.67-2.17,10.38,10.38,0,0,1-1.46-1.64,7.42,7.42,0,0,0-1.68-1.68,5,5,0,0,1-1.46-1.61c-.37-.64-.71-1-1-1l-1,.15-2.17-.45a26.17,26.17,0,0,1-6.27-1.56h-1.5l-4-.6a7.86,7.86,0,0,1-3,.45l-4.93.74-2-.15c-.15,0-1.52.43-4.11,1.27l-.74.15h-2a15.4,15.4,0,0,0-1.91.75,20.4,20.4,0,0,1-3,1.05l-.67.29a.57.57,0,0,1-.45.15l-1.19-.15-6.58,3.22-1-.6a8.61,8.61,0,0,0-1.42-.6.93.93,0,0,0-1.05,1l-.15,1.42a8.79,8.79,0,0,0-1.27.89,1.88,1.88,0,0,1-.75.45h-.89a2.33,2.33,0,0,0-1.68.79,2.7,2.7,0,0,1-1.38.86,5.46,5.46,0,0,0-1.72.67q-.15.3-1.2.6a2.55,2.55,0,0,0-1.6,1.38c-.38.72-.81,1.08-1.31,1.08l-1.5-.3-.82,1.5-1.79.44a9.16,9.16,0,0,1-1.94,1.95c-.65.45-1.29.93-1.91,1.45a5.21,5.21,0,0,0-1.34,1.61,3.19,3.19,0,0,1-1.24,1.31,3.9,3.9,0,0,0-1.42,2l-.74.74a4.43,4.43,0,0,0-1.87,3.37c0,.84.6,1.47,1.79,1.86a8.59,8.59,0,0,1,2.24,1,2.07,2.07,0,0,0,1.35.38,4.1,4.1,0,0,1,1.72.37c.54.25,1.47.65,2.76,1.2.25.79.5,1.19.75,1.19s.3-.2.6-.6a1.57,1.57,0,0,1,1.34-.59,2.46,2.46,0,0,1,1.87,1.19l.59-.45h.3l1,.3h.15l.9-.45a.65.65,0,0,1,.45-.14,18.47,18.47,0,0,1,2.31.74h.15a9,9,0,0,0,1.2-.3,4.46,4.46,0,0,1,1.27.45l1,.6c0,.15.1.22.3.22a2.16,2.16,0,0,0,.9-.33,2.22,2.22,0,0,1,1.12-.34,2.06,2.06,0,0,1,1.34.82,8.5,8.5,0,0,1,1.35-.52A5.35,5.35,0,0,1,677.7,390l1.42.3h1.64l2.47.45a8.42,8.42,0,0,0,2.16,1.72.94.94,0,0,1,1.05-.83,11.42,11.42,0,0,1,3.66,1l.59.14.6.45a10.31,10.31,0,0,1,1.57-.3c1,0,1.49.35,1.49,1.05a8.08,8.08,0,0,1-.45,2.32c.1,0,.25.1.45.29a1.94,1.94,0,0,1,.82-.59l1.2-.68c.2-.19.35-.29.45-.29,1.14,0,2.76.79,4.85,2.39a8.44,8.44,0,0,1,3.59,5.45,4.76,4.76,0,0,0,.6,2.09l-.3,1,.15,1.2a6,6,0,0,1-.3,1l-.15,1.13a1.57,1.57,0,0,1-.45.52,1.47,1.47,0,0,0-.45.52l.45,1.27v.3c0,.2-.19.47-.56.82a2.55,2.55,0,0,0-.71,1,3.3,3.3,0,0,1-.52.94,2.88,2.88,0,0,0-.53,1.16c-.1.44-.58.95-1.45,1.53s-1.31,1-1.31,1.3.1.45.3.45a3,3,0,0,0,1.9-.86,5,5,0,0,1,1.53-1,8.73,8.73,0,0,0,1.79-.89l7-3.29q7.85-3.74,8.73-3.73a1.05,1.05,0,0,1,1.2,1.19,4,4,0,0,1-1.05,1.72q-.15,3.51-3.06,4.11a6.64,6.64,0,0,0-1.72,1.57h-.6a5.59,5.59,0,0,1-4.25,2.09h-.45a10.35,10.35,0,0,1-6.72,3.06c-1.75,1.75-3.19,2.62-4.34,2.62l-1.19.3a8.77,8.77,0,0,1-2.62.74q-.15,0-.6.6l-1.11.82a7.54,7.54,0,0,0-3.07,1.64,7.23,7.23,0,0,1-2.5,1.54,8.67,8.67,0,0,0-1.83.63q-1,.45-7.84,5.08l-1,.3a12.48,12.48,0,0,0-3.67,2.2,6.58,6.58,0,0,1-1.79,1.46h-.3c-1.14,0-2.49.75-4,2.24-.1.25-1.18.66-3.25,1.24a21.86,21.86,0,0,0-5.94,2.65c-1.19.3-2.66.69-4.41,1.19a28.44,28.44,0,0,1-3.81.9l-5.22,1.12q-1.73.3-4,.9a7.52,7.52,0,0,0-2.32-.45l-1.34.15a1.93,1.93,0,0,1-.94-.53,7.91,7.91,0,0,0-1.68-1c-.7-.33-1-1.19-1-2.58s1.37-2.48,4.11-3.7,4.53-2.08,5.38-2.58a2.79,2.79,0,0,1,2.06-1,5.21,5.21,0,0,0,2.5-.89,10.5,10.5,0,0,1,3.22-1.35l3-1.57a.72.72,0,0,1,.37-.15h1a3.1,3.1,0,0,0,1.57-.82,7.16,7.16,0,0,1,2.17-1.19h.9c.09,0,.24-.13.44-.38a5.19,5.19,0,0,1,1.35-1l.22-.15h.75a7.37,7.37,0,0,1,2-1.12,10.26,10.26,0,0,0,2.16-1.2l5.84-2.24,1.34.15a1.9,1.9,0,0,0,1.16-.71,8.73,8.73,0,0,1,3.33-1.45A5.66,5.66,0,0,1,681,424a25,25,0,0,0,2.84-2.39Z" transform="translate(-183.69 -123.02)"/><path class="cls-4" d="M251.88,440.1l-1-.14a5,5,0,0,1-2.06.67,8.4,8.4,0,0,0-3.14,1.38,38.61,38.61,0,0,1-4.91,2.5c-1.85.8-2.77,1.32-2.77,1.57a31,31,0,0,0,7.64-2l5.39-1.49a4.93,4.93,0,0,0,1.46-.6,10.14,10.14,0,0,1,1.61-.82l1.2-.9,1.65-.59c.84-.3,1.27-.6,1.27-.9a.27.27,0,0,0-.3-.3,9.4,9.4,0,0,0-4.27.82A11.27,11.27,0,0,1,251.88,440.1ZM278,421.43l.59-1.5,1.95-2.16a7.61,7.61,0,0,1,2.47-2.92,4.15,4.15,0,0,1,.44-1.12,4.62,4.62,0,0,0,.45-1.64l.67-1.2c.2-.19.3-.34.3-.44a3.11,3.11,0,0,0-.59-.9l-.38-1.57q0-.6-4-4h-.6l-5.38-2.61-.3-.75-.6-.15-.75.3h-.15l-2.54-.75a31.49,31.49,0,0,1-4-1.27.61.61,0,0,1-.45.15l-3-.67a3,3,0,0,1-1.53-.64,3,3,0,0,0-1.27-.67,3.64,3.64,0,0,1-1.31-.63,1.74,1.74,0,0,0-1.2-.3l-1.87.45c0-.15-.69-.4-2.09-.75q-.3-.75-.45-.75l-2.17.3c-1.44-.7-2.19-1-2.24-1a24.46,24.46,0,0,1-2.62-.41,9,9,0,0,1-2.91-.86,9.27,9.27,0,0,0-2-.89l-.45-.45a2,2,0,0,0-.82-.3H237.8a2.16,2.16,0,0,1-1.23-.75,12.76,12.76,0,0,0-2-1.49,6.46,6.46,0,0,1-2.17-2.35,7.11,7.11,0,0,1-1-3.25.43.43,0,0,1-.15-.3l.45-2.39a15.74,15.74,0,0,1,4.26-8.44,4.51,4.51,0,0,1,2.47-2.92l.29-1a27.85,27.85,0,0,0,3.1-3,8.36,8.36,0,0,1,2.13-1.83,12.72,12.72,0,0,0,1.87-1.31l1.35-.6c0-.45,1.06-1.5,3.34-3.17a28.06,28.06,0,0,1,5.31-3.29,23.78,23.78,0,0,0,2.54-1.16,19.29,19.29,0,0,1,3.7-1.12c.49-1.34,1.29-2,2.39-2h1.12l1.49-1.49,2,.15c.1-.1.37-.41.82-.93a2.8,2.8,0,0,1,2.24-.79l9-2.76h.6l.6.15q.58,0,1.53-1.05a3.08,3.08,0,0,1,2.43-1,2.65,2.65,0,0,1,1.12.59.13.13,0,0,0,.15.15l1.94-.6,2.31.15,2.92-.74A8.81,8.81,0,0,1,299.6,344l.15-.3v-.45c0-.84.48-1.27,1.42-1.27.4,0,.65.11.75.3l.9.53h.52a15.09,15.09,0,0,1,1.94.89,4.25,4.25,0,0,1,1.42-.74,2.59,2.59,0,0,1,2.24,1.19l1.27-.15q.6-.6.75-.6c.3,0,.7.4,1.19,1.2l.45.15h1.87q.15,0,.6.45l.82.67a5.58,5.58,0,0,1,.82,1,3.43,3.43,0,0,0,.52.67,20.61,20.61,0,0,1,2.1-.82c.49,0,.87.43,1.12,1.27a2.74,2.74,0,0,0,1.3,2.06,2.75,2.75,0,0,1,1.31,2.12,2.5,2.5,0,0,1,1.65,2.4l1.41,3.66-.29,1.27a7.6,7.6,0,0,1,.59,1.34l-.3,2.76.3,2.92a4.86,4.86,0,0,1-2.16,4,3.38,3.38,0,0,0-1.46.63,4.88,4.88,0,0,1-1.16.64,2.9,2.9,0,0,1-2.57-.94,6,6,0,0,0-1.24-1.38,1.41,1.41,0,0,1-.6-1.19c0-1.15.78-2.27,2.32-3.37a1.64,1.64,0,0,0,1.49-.67,2.81,2.81,0,0,0-.67-2.16,11,11,0,0,1-1.45-1.65,8.13,8.13,0,0,0-1.69-1.68,5.06,5.06,0,0,1-1.45-1.6c-.38-.65-.71-1-1-1l-1,.15-2.16-.44a26.73,26.73,0,0,1-6.28-1.57h-1.49l-4-.6a7.79,7.79,0,0,1-3,.45l-4.93.74-2-.15c-.15,0-1.52.43-4.11,1.27l-.75.15h-2a15.67,15.67,0,0,0-1.9.75,20.83,20.83,0,0,1-3,1.05l-.67.3a.61.61,0,0,1-.45.15l-1.2-.15-6.57,3.21-1.05-.6a8.61,8.61,0,0,0-1.42-.6.92.92,0,0,0-1,1.05l-.15,1.42a8.79,8.79,0,0,0-1.27.89,1.88,1.88,0,0,1-.75.45h-.9a2.36,2.36,0,0,0-1.68.79,2.63,2.63,0,0,1-1.38.86,5.55,5.55,0,0,0-1.72.67c-.1.2-.5.4-1.19.6a2.57,2.57,0,0,0-1.61,1.38c-.37.72-.81,1.08-1.31,1.08l-1.49-.3-.82,1.5q-1.57.38-1.8.45a8.88,8.88,0,0,1-1.94,1.94,23.44,23.44,0,0,0-1.9,1.46,5.12,5.12,0,0,0-1.35,1.6,3.1,3.1,0,0,1-1.23,1.31,3.84,3.84,0,0,0-1.42,2l-.75.75a4.42,4.42,0,0,0-1.86,3.36c0,.84.59,1.47,1.79,1.86a8.48,8.48,0,0,1,2.24,1,2.06,2.06,0,0,0,1.34.37,4.1,4.1,0,0,1,1.72.37c.55.25,1.47.65,2.77,1.2.25.8.49,1.19.74,1.19.1,0,.3-.19.6-.59a1.58,1.58,0,0,1,1.35-.6,2.44,2.44,0,0,1,1.86,1.19l.6-.44h.3l1,.29h.15l.9-.44a.57.57,0,0,1,.44-.15,18.88,18.88,0,0,1,2.32.74h.15a9.06,9.06,0,0,0,1.19-.3,4.32,4.32,0,0,1,1.27.45l1.05.6c0,.15.1.22.3.22a2.18,2.18,0,0,0,.89-.33,2.25,2.25,0,0,1,1.12-.34,2.05,2.05,0,0,1,1.35.82,8.61,8.61,0,0,1,1.34-.52,5.32,5.32,0,0,1,2.32,1.12l1.41.3h1.65l2.46.45a8.41,8.41,0,0,0,2.17,1.72.93.93,0,0,1,1-.82,11.22,11.22,0,0,1,3.66,1l.6.15.6.44a11.11,11.11,0,0,1,1.56-.29c1,0,1.5.34,1.5,1a8.08,8.08,0,0,1-.45,2.32q.15,0,.45.3a1.83,1.83,0,0,1,.82-.6l1.19-.67q.3-.3.45-.3c1.15,0,2.77.79,4.86,2.39a8.42,8.42,0,0,1,3.58,5.45,4.76,4.76,0,0,0,.6,2.09l-.3,1,.15,1.2a6.27,6.27,0,0,1-.3,1.05l-.15,1.12a1.47,1.47,0,0,1-.45.52,1.55,1.55,0,0,0-.44.52l.44,1.27v.3c0,.2-.18.48-.56.82a2.55,2.55,0,0,0-.71,1,3.3,3.3,0,0,1-.52.94A2.87,2.87,0,0,0,295,417c-.1.44-.59,1-1.46,1.53s-1.31,1-1.31,1.3.1.45.3.45a3,3,0,0,0,1.91-.86,4.91,4.91,0,0,1,1.53-1,9.87,9.87,0,0,0,1.79-.9l7-3.29q7.83-3.74,8.73-3.73a1.05,1.05,0,0,1,1.19,1.19,4.05,4.05,0,0,1-1,1.72q-.15,3.51-3.07,4.11A6.58,6.58,0,0,0,308.9,419h-.6a5.61,5.61,0,0,1-4.26,2.09h-.45a10.31,10.31,0,0,1-6.72,3.06c-1.74,1.75-3.19,2.62-4.33,2.62l-1.2.3a8.66,8.66,0,0,1-2.61.74q-.15,0-.6.6l-1.12.82a7.36,7.36,0,0,0-3.06,1.65,7.42,7.42,0,0,1-2.5,1.53,8.55,8.55,0,0,0-1.84.63q-1,.45-7.84,5.08l-1,.3a12.27,12.27,0,0,0-3.66,2.21,7.07,7.07,0,0,1-1.79,1.45h-.3q-1.73,0-4,2.24c-.11.25-1.19.66-3.25,1.24a21.86,21.86,0,0,0-5.94,2.65c-1.2.3-2.67.69-4.41,1.19a28.44,28.44,0,0,1-3.81.9l-5.23,1.12c-1.15.2-2.46.5-4,.9a7.46,7.46,0,0,0-2.31-.45l-1.35.15a1.91,1.91,0,0,1-.93-.52,8,8,0,0,0-1.68-1q-1.05-.5-1.05-2.58,0-1.87,4.11-3.7t5.39-2.58a2.76,2.76,0,0,1,2.05-1,5.21,5.21,0,0,0,2.51-.89,10.53,10.53,0,0,1,3.21-1.35l3-1.57a.74.74,0,0,1,.38-.15h1a3.13,3.13,0,0,0,1.57-.82,7.11,7.11,0,0,1,2.16-1.19h.9c.1,0,.25-.13.45-.38a5.19,5.19,0,0,1,1.35-1l.22-.15h.75a7.31,7.31,0,0,1,1.94-1.12,10.74,10.74,0,0,0,2.17-1.19l5.83-2.25,1.35.15a1.92,1.92,0,0,0,1.16-.71,8.66,8.66,0,0,1,3.32-1.45,5.81,5.81,0,0,1,1.57-1.42,25,25,0,0,0,2.85-2.39Z" transform="translate(-183.69 -123.02)"/><path class="cls-4" d="M367.4,382.66l-2,4.33a20.52,20.52,0,0,1-2.27,4.29,17.1,17.1,0,0,0-1.91,3.25l-2.09,4.56L357.24,401a3.68,3.68,0,0,0-.45,1.19,9.36,9.36,0,0,1-1,3.55,28.8,28.8,0,0,0-1.49,4.15v.9a6.43,6.43,0,0,1-1.2,2.31v.9a15.07,15.07,0,0,1-1.27,2.76l.15.9a1.15,1.15,0,0,1-.15.45l-1.42,4.4a13.47,13.47,0,0,0-.71,3c0,.6-.06,1.15-.11,1.65v1.34l-.3,1.72.15.9v.44a6.66,6.66,0,0,1-.15,1.57,3.1,3.1,0,0,0,1.2,1.65.55.55,0,0,1,.45.18.38.38,0,0,0,.29.19l2.1-1.35a9.51,9.51,0,0,0,3.13-2.68l2.17-1.95.45-.67.9-.15a15,15,0,0,0,1.38-1.64c.52-.7.88-1.05,1.09-1.05a.43.43,0,0,1,.29.15h1.05a1.67,1.67,0,0,1,.75.15l.15-.3v-1.27c0-1.64.52-2.46,1.57-2.46a12.51,12.51,0,0,1,2-2.39l.3-1.12a5.58,5.58,0,0,1,1.6-1.95,12,12,0,0,0,2.51-3.36l2.62-3.06c.09-.2.24-.57.44-1.12l.6-.6,1.27.15a.6.6,0,0,0,.3-.6,1.15,1.15,0,0,0-.15-.45,2,2,0,0,1-.15-.89c0-.45.74-1.63,2.21-3.55a24.09,24.09,0,0,0,2.8-4.26q.6-1.38,1.2-1.38c.2,0,.36.17.48.52a.67.67,0,0,0,.64.52.13.13,0,0,0,.15-.15c0-.09-.07-.19-.22-.29a.51.51,0,0,1-.23-.45,5.79,5.79,0,0,1,1.05-3.18,13.71,13.71,0,0,0,1.38-2.5,6.12,6.12,0,0,1,.64-1.31,7.13,7.13,0,0,0,.67-1.23,3.6,3.6,0,0,1,.9-1.27,4.31,4.31,0,0,0,.86-1,2.36,2.36,0,0,1,.86-.86c.34-.2.67-.92,1-2.16s1.37-2.67,3.21-4.26a1.3,1.3,0,0,1-.45-.9,2.61,2.61,0,0,1,.45-1,34.71,34.71,0,0,1,2.66-5.52q2.65-5,4.37-7.7l.3-1,1-.9,1.35-2,4.11-2.76a5.46,5.46,0,0,1,2.31-1,3.9,3.9,0,0,1,1.2.15,1.49,1.49,0,0,1,.82-.45,2.45,2.45,0,0,1,.6.15h.3a2.53,2.53,0,0,1,1-.45,1.79,1.79,0,0,1,.82.3h.45a5.07,5.07,0,0,1,2.36,1.16c1.07.77,1.6,1.36,1.6,1.76l-.15.89.15.9a7.47,7.47,0,0,1-1.75,4.59c-1.17,1.52-1.86,2.46-2.06,2.81l-1,.44a9.06,9.06,0,0,0-.19,1.16,2.54,2.54,0,0,1-.63,1.5,7.81,7.81,0,0,0-1.2,2.13,10.61,10.61,0,0,1-1.19,2.24v1L409,385.49a8.87,8.87,0,0,1-.71,1.61,1.36,1.36,0,0,1-1.24.71,2.15,2.15,0,0,0,.57.63.88.88,0,0,1,.33.71,2.56,2.56,0,0,1-2.17,2.62,1.85,1.85,0,0,1,.45,1.05l.38.82-1.42,2.54v1.27a8,8,0,0,0-1.05,2.09v1.27a6.42,6.42,0,0,1-.9,1.94l-.67,1.27a9.31,9.31,0,0,0-.45,1.2H402l.15,1.57c-.1.1-.4.34-.9.74V409a2.57,2.57,0,0,0-.75,2,4.14,4.14,0,0,1-.83,1.87,4.51,4.51,0,0,1,.15.75,8.48,8.48,0,0,1-.6,3.25,6.8,6.8,0,0,0-.6,1.9v1.12a1.3,1.3,0,0,1,.45.9,4.36,4.36,0,0,1-.22.86,4.36,4.36,0,0,0-.23,1.31c0,1.49.3,2.24.9,2.24l1.73-.52a2.12,2.12,0,0,0,1.27-1,2.4,2.4,0,0,1,1.24-1.09,1.37,1.37,0,0,0,.93-1.15c.05-.53.54-.9,1.46-1.12s2.9-1.86,5.94-4.9l2.32-1.34.59-1.05q.6-.6,2-2.31c.92-1.15,1.66-1.72,2.21-1.72,1.49,0,2.24.82,2.24,2.46a22.61,22.61,0,0,1-.71,2.92,10.8,10.8,0,0,1-1,2.83,6.26,6.26,0,0,1-.9.71,4.28,4.28,0,0,0-1.19,1.69c-2.29,2.24-4,3.51-5.08,3.81a18.53,18.53,0,0,0-1.65,1.38,12.27,12.27,0,0,1-2,1.53,9.49,9.49,0,0,0-1.61,1.19,5.28,5.28,0,0,1-1.94,1.12l-.6.3a1.15,1.15,0,0,0-.45-.15c-.3,0-.64.23-1,.68a3.73,3.73,0,0,1-1.69,1,5,5,0,0,0-1.76.94,1.86,1.86,0,0,1-.94.56l-1.2-.53c-.6.55-1,.83-1.12.83l-.9-.45a1.71,1.71,0,0,0-.83-.45,3.88,3.88,0,0,1-1.23-.67,16.47,16.47,0,0,0-1.54-1,5.49,5.49,0,0,1-1.79-2.76l-.6-.75a5.24,5.24,0,0,1-.75-1.57c0-.3,0-.9.15-1.79v-.45a12.6,12.6,0,0,0-.29-2.13,12,12,0,0,1-.3-2.2l1.79-9.94-.3-1.79a7.5,7.5,0,0,1,.93-3c.63-1.27,1.24-4.09,1.83-8.48-.79,2.44-1.39,3.66-1.79,3.66l-1.12-.15a.6.6,0,0,0-.3.6,5.76,5.76,0,0,0,.3,1.27v1.05c0,.94-.92,1.72-2.77,2.31a1.15,1.15,0,0,1-.15.45c.55.25.83.5.83.75a3.09,3.09,0,0,1-1.39,2.69,7,7,0,0,0-1.83,1.68c-.3.47-.57.71-.82.71l-.45-.67h-.15l-.75,1.42a2.2,2.2,0,0,1,.45.74,12.75,12.75,0,0,1-1.53,2.62q-1.53,2.31-1.83,2.31l-2.17,2.1-.3.67v.74a1.48,1.48,0,0,1-.3.6l-2.91,4.11-.9,1.72-3.06,4.56a4.19,4.19,0,0,0-1.65,1.12l-.52.3c0,.79-.65,1.54-1.94,2.24a5,5,0,0,1-1.87,2.76,8.34,8.34,0,0,0-1.8,1.42l-1.42.9L358.79,441l-2,.67-.9-.67c-.4,1.15-.74,1.72-1,1.72l-1.72-.3-1.42.3q-1.8,0-4.67-2.39a23.89,23.89,0,0,1-3.4-3.14l-.9-1.19a2,2,0,0,1-.6-.94,4,4,0,0,0-1.42-1.53l-.74-1.19v-1a14.75,14.75,0,0,1-2-3.39,19,19,0,0,1-.19-3.48v-.6l.3-1-.15-1.72a11.43,11.43,0,0,1,.71-3.36,17.6,17.6,0,0,0,.71-2.47v-.45l-.23-.44,1-3.14a6.85,6.85,0,0,1,.74-2,6.64,6.64,0,0,0,.45-2.58c.1-1.46.82-2.2,2.17-2.2a1.15,1.15,0,0,1,.45.15.81.81,0,0,0,.59-.9h-.3c-.39,0-.59-.27-.59-.82a2.66,2.66,0,0,1,.45-1.64,2.89,2.89,0,0,0,.44-1.72,4.12,4.12,0,0,1,1.24-2.73,8.3,8.3,0,0,0,1.23-1.53,7.6,7.6,0,0,1,1.16-3.25,39.77,39.77,0,0,0,1.86-3.85,15.42,15.42,0,0,1,1.69-3.06,10.52,10.52,0,0,0,1.41-2.61,6.57,6.57,0,0,1,1.8-2.54l.82-1.5a21.94,21.94,0,0,1,1.64-2.31,4.39,4.39,0,0,0,.94-2.21,2.23,2.23,0,0,1,1.3-1.83c.75-.35,1.17-.78,1.27-1.31a5.34,5.34,0,0,1,.56-1.53,5,5,0,0,0,.56-1.45,3.9,3.9,0,0,1,.9-1.61,8.81,8.81,0,0,0,1.38-2.73q.64-1.83,1.83-1.83l1.5.15.15-.52c0-.1-.13-.3-.38-.6a1.4,1.4,0,0,1-.37-.9c0-1.44.47-2.16,1.42-2.16.3,0,.65.32,1.05,1,.34-2.94.56-4.49.63-4.67a1.47,1.47,0,0,0,.11-.56l.15-.75a1.85,1.85,0,0,0,.15-.82,2.64,2.64,0,0,0-.56-1.34c-.37-.55-.68-.83-.93-.83,0,0-.63.13-1.72.38l-.9-.9c-.5,1.1-1,1.65-1.49,1.65l-1.27-.45a9.88,9.88,0,0,1-3.36,1.64l-1.2-.45h-.15c-.3,0-.61.36-.93,1.09a2,2,0,0,1-2,1.08h-.75a4.26,4.26,0,0,1-1.87,1.53,4.15,4.15,0,0,0-1.6.93,5.34,5.34,0,0,1-1.46,1,8.06,8.06,0,0,0-2,1.49l-.74.45c-.9.55-1.4,1.08-1.5,1.6a2.77,2.77,0,0,1-.82,1.46c-1.79,1.3-2.69,2.37-2.69,3.21l.15,1.35-.15,1.94q0,.83-1.38,2a4,4,0,0,1-2.28,1.16q-5.37,0-5.37-3.21l.3-2.17-.15-1.72.15-1.49a4.19,4.19,0,0,1,2.05-3.25,29,29,0,0,0,2.81-2.28l2.91-1.5a6.34,6.34,0,0,0,1.5-1.53c.35-.52,1.45-1.17,3.29-1.94a15.08,15.08,0,0,0,4-2.28,11.24,11.24,0,0,1,3.74-2,30.37,30.37,0,0,0,3.77-1.53,5.71,5.71,0,0,1,1.61-.67l.89.15a7.09,7.09,0,0,0,1.61-.94,3.14,3.14,0,0,1,1.9-.63l9.19-2.09q1.43-.37,5.38,1.64t4,8.89q0,1.42-2.28,6.13a50.46,50.46,0,0,1-5,8.36l-.45,1.12-2,3.52-1.2,2.61c-.55,1-1.12,2.17-1.72,3.51l-1.34,1.79A9.19,9.19,0,0,0,367.4,382.66Z" transform="translate(-183.69 -123.02)"/><path class="cls-4" d="M446.24,396.33h-1.87a3.57,3.57,0,0,0-1.6.86c-.78.57-1.16,1-1.16,1.15s.58.76,1.76,1.68a6.13,6.13,0,0,0,2.2,1.39q1.35,0,3.21-6.13l-.75.3-.89-.15Q446.24,396.18,446.24,396.33Zm-5-35.34-.15.82a4.28,4.28,0,0,1-2.09,2.54,6.57,6.57,0,0,1-3.73,1.27q-4.71,0-4.71-4.48,0-1.58,2.43-3.85a13.43,13.43,0,0,1,6.5-3.17,29,29,0,0,0,5.83-1.76,18,18,0,0,1,5.41-1.31,1.73,1.73,0,0,0,1.2.6,1.4,1.4,0,0,0,1.34-.67c.25-.45.82-.57,1.72-.37h.37l4-1.05,1.2.45a1.3,1.3,0,0,0,.71-.3,2.84,2.84,0,0,1,1-.45h1.19l1.42-.3a8.27,8.27,0,0,0,1.94-.67l1.27.15a23.76,23.76,0,0,0,4.67-.75,31,31,0,0,1,4.93-.82,19.27,19.27,0,0,0,2.47-.22,8.2,8.2,0,0,1,.93-.15,2.17,2.17,0,0,1,1.12.45,2.24,2.24,0,0,0,1,.44c.2,0,1.6-.3,4.19-.89h.45l3.36.74a5.11,5.11,0,0,1,1.79-.74,3.58,3.58,0,0,1,2.62,1L497,347l.75.14a8.71,8.71,0,0,0,1.35-.14h.59a5.2,5.2,0,0,1,1.13.14.36.36,0,0,0,.29.15,3.62,3.62,0,0,0,1.2-.15h1l3.21.75,1.35-.15a3.16,3.16,0,0,1,.89.45l.83-.15a18.84,18.84,0,0,0,2.69,1.42,6.5,6.5,0,0,1,1.12-.3h.15a8.69,8.69,0,0,1,1.49.9l2.17,1,.59-.29a12.58,12.58,0,0,1,2.16,1.19l.59,1.27a18.2,18.2,0,0,1,2,1.2,6.33,6.33,0,0,0,.9,1.71v.6c0,.1.38.46,1.15,1.08s1.15,1.09,1.15,1.39c0,.1,0,.45-.15,1v.15a3.81,3.81,0,0,0,.52,1,3.56,3.56,0,0,1,.53,1.95l-.15,1,.15,1-.75,5a4,4,0,0,0-.9,1.46,1.82,1.82,0,0,1-1.12,1.08,2.92,2.92,0,0,0-1.46,1.53,2.86,2.86,0,0,1-1.61,1.53,5.38,5.38,0,0,0-2,1.31,3,3,0,0,1-2.14.93l-8,2.39-.9-.3a4.38,4.38,0,0,1-4,2.17,19.13,19.13,0,0,0-3,.52l-1.5.38-1.19-.15-2.77.52a6.25,6.25,0,0,0-1.87.56,3,3,0,0,1-1.5.34l-2,1a.61.61,0,0,1-.45.15,1.19,1.19,0,0,1-.75-.15l-1-.3a3,3,0,0,0-1.08.53,1.56,1.56,0,0,1-.94.37l-.89-.75-1.43,1.2a15.21,15.21,0,0,0-2.39.67,3.76,3.76,0,0,0-1.27-.52L477.1,388l-1.5-.45-.15.45a3.73,3.73,0,0,0-2.13.75,3.44,3.44,0,0,1-1.83.74,1.67,1.67,0,0,1-1.13-.59.86.86,0,0,1-.6-.3,4.47,4.47,0,0,0-1.12,1.08,3.63,3.63,0,0,1-1.64,1.08l-1.8-.52c0,.15-.47.41-1.42.78s-1.45.69-1.5.94l-.75,1c-.35.85-.62,1.55-.82,2.1a3.74,3.74,0,0,1-.75,1.3,4.65,4.65,0,0,0-.82,1.68,10.08,10.08,0,0,1-1.35,2.62l-.15.9a8.83,8.83,0,0,1-1.34,1.34l-1.73,3.21a3.77,3.77,0,0,0-.74,1.57c0,.75.67,1.47,2,2.17l7.92,6.72,1.27.75h.15l-.3,1.34a2.41,2.41,0,0,0,.75.38c.3,0,.45-.23.45-.67h.45c.1,0,.35.22.75.67l.82.45c.35.34,1,.92,1.94,1.71s1.42,1.35,1.42,1.65l-.15.6h.45q.3-.3.45-.3a5.39,5.39,0,0,1,1.64.89l1,.45a27.94,27.94,0,0,1,3.62,2.91,12.7,12.7,0,0,0,1.87,1.69,8.08,8.08,0,0,1,2,2.12l8.6,6.43q10.77,8.07,12.11,10.76a3.1,3.1,0,0,0,1.42.89,12,12,0,0,1,3.22,2.51A11.43,11.43,0,0,1,510.2,455v2.62c0,.19-.25.44-.75.74l-1,.9c-1.29,1.34-2.41,2-3.36,2-2.34,0-4.06-.53-5.15-1.57l-.38-.15h-.74c-.8,0-1.25-.7-1.35-2.09l-.3-1a11,11,0,0,1-5.67-3.81l-4.26-4c-.1-.1-.92-1.06-2.47-2.88a22,22,0,0,0-4.07-3.92,12.35,12.35,0,0,1-2.76-2.47,11.82,11.82,0,0,0-2.69-2.39,14.69,14.69,0,0,1-3.55-3.77,26.55,26.55,0,0,0-2.09-2.8q-3.36-1.8-3.21-4a7,7,0,0,0-2.17-.6,5,5,0,0,0-1.12-1.05.81.81,0,0,1-.37-.22l.15-1.19a6.72,6.72,0,0,1-3.14-1.69c-.6-.67-1.39-1.58-2.39-2.72a25.56,25.56,0,0,0-2.58-2.65c-.72-.63-1.1-1.11-1.15-1.46s-.53-.77-1.42-1.27a5.63,5.63,0,0,1-1.12,1.42,3.51,3.51,0,0,0-.9,1.19l-.3.45a3.2,3.2,0,0,0-1,2.32,4.69,4.69,0,0,0-1.42,3.21l-3.36,7.62-.6,2.76-.45,4.71c-.15,1.35-.72,2-1.71,2l-1.48.15a10.55,10.55,0,0,0-2.79-.56c-1.46-.18-2.66-1.63-3.6-4.37a7.76,7.76,0,0,0-.86-1.5,3.45,3.45,0,0,1-.71-1.87,7.17,7.17,0,0,1,.45-1.94l.3-1.72a25.09,25.09,0,0,1,1.87-4.25l4-7.55,1.94-2.91a9.53,9.53,0,0,0,.82-2.28,7.21,7.21,0,0,1,1.38-2.8,3.28,3.28,0,0,0,.94-1.65c0-.59-.46-1.19-1.38-1.79s-1.43-1.17-1.53-1.72l-.3-.75q-4-2.31-4-5.22,0-1.58,4-3.93a23.63,23.63,0,0,1,5.33-2.65,10.28,10.28,0,0,0,2.73-1l1.27-.3,1-.9a17.85,17.85,0,0,1,2.2-.56c.88-.17,1.62-1.2,2.24-3.06s1.19-2.95,1.68-3.25a42.14,42.14,0,0,0,2-4.63c.1-.2.38-.66.86-1.39a14.74,14.74,0,0,0,1.45-3.58c.49-1.67.84-2.51,1-2.51a4.59,4.59,0,0,0,1.19-.29l-.74-2c0-.2.2-.5.59-.9a4.69,4.69,0,0,1-1-3.06q0-2.91,4.1-2.91a8.2,8.2,0,0,1,3,1.3c1.49.87,2.29,1.51,2.39,1.91a7.76,7.76,0,0,0,1,1.9,4.48,4.48,0,0,1,.82,2.21c0,1.94-.33,3.21-1,3.81a10.24,10.24,0,0,0-2,4l-2,5.67-.3,1.42-.37.6,1.87-.45c.4-1.09,2.09-1.72,5.09-1.86l4.71-1.5h1.43l4.56-1.27c.2,0,.93-.1,2.17-.3h.45l.9-.15a1.7,1.7,0,0,1,.6.6h.3c.55,0,.85-.32.9-1s.77-1,2.17-1a.71.71,0,0,1,.56.37.71.71,0,0,0,.56.38,1.52,1.52,0,0,1,1.16-1.16,5.22,5.22,0,0,1,1.46-.34l1.2.15a.61.61,0,0,1-.15-.45q0-.67,4.57-1.42a5.93,5.93,0,0,0,2-1.12A17.59,17.59,0,0,1,509,370l4.49-1.34c1.84-.6,3.12-2.4,3.82-5.38-.1-.1-.55-.78-1.35-2,0-.1-.37-.15-1.12-.15a4.75,4.75,0,0,0-1-.71,7.91,7.91,0,0,1-1.71-1.38l-.9.3a9.54,9.54,0,0,0-2.43-.94,8.12,8.12,0,0,1-2.95-1.53,2.63,2.63,0,0,1-.75.3,11,11,0,0,1-1.64-.75l-2-.89h-1.19l-.53-.15c-.29-.35-.54-.53-.74-.53l-.75.15a1.67,1.67,0,0,1-.75.15h-1.27a5.25,5.25,0,0,1-1.19-.74h-2.47l-1.34.29a1.88,1.88,0,0,1-1-.59l-1.35.3-1.34-.6-2,.3a1.82,1.82,0,0,0-.9-.45l-6,.6a.66.66,0,0,1-.53-.3,1.33,1.33,0,0,0-.71-.45,3.73,3.73,0,0,1-1.08-.6,6.13,6.13,0,0,1-3.06.9l-2.32-.3-.45.15h-.29a12.42,12.42,0,0,1-1.35-.3.61.61,0,0,1-.15.45l-1.12-.3-4.11.75h-.15l-.74-.15a2.49,2.49,0,0,0-.86.22,2.62,2.62,0,0,1-.86.23l-1.65-.15-1.27.29-1.79-.14-1.57,1.12h-.3a1.19,1.19,0,0,1-.67-.27,1.25,1.25,0,0,0-.52-.26l-1.12.23-.9-.23c-.2,0-.6.48-1.19,1.42,0,.1-.11.15-.3.15h-.15l-1.12-.3q-.3,0-1.2,1.05c-.95.35-1.87.72-2.76,1.12a4.91,4.91,0,0,1-1.8,1.79Z" transform="translate(-183.69 -123.02)"/><path class="cls-4" d="M566.6,382.66l-2,4.33a20,20,0,0,1-2.28,4.29,17.65,17.65,0,0,0-1.9,3.25l-2.09,4.56L556.44,401a3.68,3.68,0,0,0-.45,1.19,9.36,9.36,0,0,1-1,3.55,27.65,27.65,0,0,0-1.49,4.15v.9a6.43,6.43,0,0,1-1.2,2.31v.9a15.07,15.07,0,0,1-1.27,2.76l.15.9a1.15,1.15,0,0,1-.15.45l-1.42,4.4a13.47,13.47,0,0,0-.71,3c0,.6-.06,1.15-.11,1.65v1.34l-.3,1.72.15.9v.44a6.66,6.66,0,0,1-.15,1.57,3.1,3.1,0,0,0,1.2,1.65.54.54,0,0,1,.44.18.4.4,0,0,0,.3.19l2.1-1.35a9.62,9.62,0,0,0,3.13-2.68l2.17-1.95.45-.67.9-.15a16.17,16.17,0,0,0,1.38-1.64q.78-1.05,1.08-1.05a.43.43,0,0,1,.3.15h1a1.67,1.67,0,0,1,.75.15l.15-.3v-1.27c0-1.64.52-2.46,1.57-2.46a12.15,12.15,0,0,1,2-2.39l.29-1.12a5.65,5.65,0,0,1,1.61-1.95,12,12,0,0,0,2.51-3.36l2.61-3.06c.1-.2.25-.57.45-1.12l.6-.6,1.27.15a.6.6,0,0,0,.3-.6,1.15,1.15,0,0,0-.15-.45,2,2,0,0,1-.15-.89c0-.45.74-1.63,2.21-3.55a24.09,24.09,0,0,0,2.8-4.26q.6-1.38,1.2-1.38c.2,0,.36.17.48.52a.67.67,0,0,0,.64.52.13.13,0,0,0,.15-.15c0-.09-.08-.19-.23-.29a.5.5,0,0,1-.22-.45,5.79,5.79,0,0,1,1-3.18,14.37,14.37,0,0,0,1.38-2.5,6.18,6.18,0,0,1,.63-1.31,7,7,0,0,0,.68-1.23,3.71,3.71,0,0,1,.89-1.27,4.36,4.36,0,0,0,.87-1,2.42,2.42,0,0,1,.85-.86c.35-.2.68-.92,1-2.16s1.37-2.67,3.21-4.26a1.3,1.3,0,0,1-.45-.9,2.61,2.61,0,0,1,.45-1,34.71,34.71,0,0,1,2.66-5.52q2.65-5,4.37-7.7l.3-1,1-.9,1.35-2,4.11-2.76a5.46,5.46,0,0,1,2.31-1,3.9,3.9,0,0,1,1.2.15,1.46,1.46,0,0,1,.82-.45,2.45,2.45,0,0,1,.6.15h.3a2.53,2.53,0,0,1,1-.45,1.83,1.83,0,0,1,.82.3h.45a5,5,0,0,1,2.35,1.16c1.07.77,1.61,1.36,1.61,1.76l-.15.89.15.9a7.53,7.53,0,0,1-1.75,4.59c-1.18,1.52-1.86,2.46-2.06,2.81l-1,.44a9.06,9.06,0,0,0-.19,1.16,2.54,2.54,0,0,1-.63,1.5,7.81,7.81,0,0,0-1.2,2.13,11.63,11.63,0,0,1-1.19,2.24v1l-3.51,8.44a8.87,8.87,0,0,1-.71,1.61,1.36,1.36,0,0,1-1.24.71,2.27,2.27,0,0,0,.56.63.86.86,0,0,1,.34.71,2.56,2.56,0,0,1-2.17,2.62,1.85,1.85,0,0,1,.45,1.05l.37.82-1.41,2.54v1.27a8,8,0,0,0-1,2.09v1.27a6.42,6.42,0,0,1-.9,1.94l-.68,1.27a7.87,7.87,0,0,0-.44,1.2h-.16l.16,1.57c-.1.1-.4.34-.9.74V409a2.57,2.57,0,0,0-.75,2,4.14,4.14,0,0,1-.83,1.87,4.51,4.51,0,0,1,.15.75,8.48,8.48,0,0,1-.6,3.25,6.8,6.8,0,0,0-.6,1.9v1.12a1.3,1.3,0,0,1,.45.9,5.33,5.33,0,0,1-.22.86,4.36,4.36,0,0,0-.23,1.31c0,1.49.3,2.24.9,2.24l1.73-.52a2.12,2.12,0,0,0,1.27-1,2.4,2.4,0,0,1,1.24-1.09,1.37,1.37,0,0,0,.93-1.15c0-.53.54-.9,1.46-1.12s2.9-1.86,5.94-4.9l2.31-1.34.6-1.05q.6-.6,2-2.31c.92-1.15,1.66-1.72,2.21-1.72,1.49,0,2.24.82,2.24,2.46a22.61,22.61,0,0,1-.71,2.92,10.8,10.8,0,0,1-1,2.83,6.26,6.26,0,0,1-.9.71,4.18,4.18,0,0,0-1.19,1.69c-2.29,2.24-4,3.51-5.08,3.81a18.53,18.53,0,0,0-1.65,1.38,11.84,11.84,0,0,1-2,1.53,9.44,9.44,0,0,0-1.6,1.19,5.25,5.25,0,0,1-2,1.12l-.59.3a1.15,1.15,0,0,0-.45-.15c-.3,0-.64.23-1,.68a3.73,3.73,0,0,1-1.69,1,4.93,4.93,0,0,0-1.76.94,1.9,1.9,0,0,1-.94.56l-1.2-.53c-.6.55-1,.83-1.12.83l-.9-.45a1.71,1.71,0,0,0-.83-.45,4,4,0,0,1-1.24-.67,14.92,14.92,0,0,0-1.53-1,5.49,5.49,0,0,1-1.79-2.76l-.6-.75a5.24,5.24,0,0,1-.75-1.57c0-.3,0-.9.15-1.79v-.45a11.87,11.87,0,0,0-.3-2.13,12,12,0,0,1-.3-2.2l1.8-9.94-.3-1.79a7.5,7.5,0,0,1,.93-3c.63-1.27,1.24-4.09,1.83-8.48-.8,2.44-1.39,3.66-1.79,3.66l-1.12-.15a.6.6,0,0,0-.3.6,5.76,5.76,0,0,0,.3,1.27v1.05c0,.94-.92,1.72-2.77,2.31a1.15,1.15,0,0,1-.15.45c.55.25.83.5.83.75a3.12,3.12,0,0,1-1.39,2.69,7,7,0,0,0-1.83,1.68c-.3.47-.57.71-.82.71l-.45-.67h-.15l-.75,1.42a2.2,2.2,0,0,1,.45.74,12.75,12.75,0,0,1-1.53,2.62q-1.53,2.31-1.83,2.31l-2.17,2.1-.3.67v.74a1.48,1.48,0,0,1-.3.6l-2.91,4.11-.9,1.72L569,430.77a4.19,4.19,0,0,0-1.65,1.12l-.52.3c0,.79-.65,1.54-1.95,2.24a4.94,4.94,0,0,1-1.86,2.76,8.34,8.34,0,0,0-1.8,1.42l-1.42.9L558,441l-2,.67-.9-.67c-.4,1.15-.75,1.72-1,1.72l-1.72-.3-1.42.3q-1.8,0-4.68-2.39a24.18,24.18,0,0,1-3.39-3.14l-.9-1.19a2,2,0,0,1-.6-.94,4,4,0,0,0-1.42-1.53l-.75-1.19v-1a15.62,15.62,0,0,1-2-3.39,20.34,20.34,0,0,1-.18-3.48v-.6l.3-1-.15-1.72a11.43,11.43,0,0,1,.71-3.36,17.6,17.6,0,0,0,.71-2.47v-.45l-.23-.44,1-3.14a7.06,7.06,0,0,1,.75-2,6.64,6.64,0,0,0,.45-2.58c.1-1.46.82-2.2,2.17-2.2a1.17,1.17,0,0,1,.44.15.8.8,0,0,0,.6-.9h-.3c-.4,0-.59-.27-.59-.82a2.66,2.66,0,0,1,.44-1.64,2.82,2.82,0,0,0,.45-1.72,4.15,4.15,0,0,1,1.23-2.73,8.13,8.13,0,0,0,1.24-1.53,7.69,7.69,0,0,1,1.15-3.25,37.82,37.82,0,0,0,1.87-3.85,15.92,15.92,0,0,1,1.68-3.06,10.58,10.58,0,0,0,1.42-2.61,6.57,6.57,0,0,1,1.8-2.54l.82-1.5a21.94,21.94,0,0,1,1.64-2.31,4.29,4.29,0,0,0,.93-2.21,2.26,2.26,0,0,1,1.31-1.83c.75-.35,1.17-.78,1.27-1.31a5.34,5.34,0,0,1,.56-1.53,5,5,0,0,0,.56-1.45,3.9,3.9,0,0,1,.9-1.61,8.81,8.81,0,0,0,1.38-2.73q.63-1.83,1.83-1.83l1.5.15.15-.52c0-.1-.13-.3-.38-.6a1.4,1.4,0,0,1-.37-.9c0-1.44.47-2.16,1.42-2.16.3,0,.64.32,1,1,.35-2.94.56-4.49.64-4.67a1.47,1.47,0,0,0,.11-.56l.15-.75a1.85,1.85,0,0,0,.15-.82,2.64,2.64,0,0,0-.56-1.34c-.37-.55-.69-.83-.93-.83-.05,0-.63.13-1.72.38l-.9-.9c-.5,1.1-1,1.65-1.49,1.65l-1.27-.45a9.8,9.8,0,0,1-3.37,1.64l-1.19-.45h-.15c-.3,0-.61.36-.93,1.09a2,2,0,0,1-2,1.08h-.75a4.26,4.26,0,0,1-1.87,1.53,4.15,4.15,0,0,0-1.6.93,5.34,5.34,0,0,1-1.46,1,8.06,8.06,0,0,0-2,1.49l-.75.45c-.89.55-1.39,1.08-1.49,1.6a2.77,2.77,0,0,1-.82,1.46c-1.79,1.3-2.69,2.37-2.69,3.21l.15,1.35-.15,1.94q0,.83-1.38,2a4,4,0,0,1-2.28,1.16q-5.37,0-5.37-3.21l.3-2.17-.15-1.72.15-1.49a4.19,4.19,0,0,1,2.05-3.25,29,29,0,0,0,2.81-2.28l2.91-1.5a6.34,6.34,0,0,0,1.5-1.53c.35-.52,1.44-1.17,3.29-1.94a15.08,15.08,0,0,0,4-2.28,11.28,11.28,0,0,1,3.73-2,30,30,0,0,0,3.78-1.53,5.71,5.71,0,0,1,1.61-.67l.89.15a7.09,7.09,0,0,0,1.61-.94,3.14,3.14,0,0,1,1.9-.63l9.19-2.09q1.42-.37,5.38,1.64t4,8.89q0,1.42-2.28,6.13a50.46,50.46,0,0,1-5,8.36l-.45,1.12-2,3.52L570.71,375c-.55,1-1.12,2.17-1.72,3.51l-1.34,1.79A9.19,9.19,0,0,0,566.6,382.66Z" transform="translate(-183.69 -123.02)"/><path class="cls-4" d="M634.19,356.13l-.6-3.66a1.92,1.92,0,0,1,.41-1.27,4.92,4.92,0,0,0,.63-1.27,2.35,2.35,0,0,1,.53-.93,13,13,0,0,0,1.3-2.32,4,4,0,0,1,3.4-2.2,2.84,2.84,0,0,1,2.1-.75q1.78,0,4.29,3.36t2.5,4.26a4,4,0,0,1-1.71,2.77,6.41,6.41,0,0,1-1.46,4.22,15.39,15.39,0,0,0-1.91,2.69,3.36,3.36,0,0,1-.67,1.08q-.22.15-2.73,3.62t-3.92,3.48a13.93,13.93,0,0,1-2.2-.9,7.64,7.64,0,0,1-2-1,5.35,5.35,0,0,1,2.09-3.85,6.82,6.82,0,0,0,2.39-3.92,6,6,0,0,1-1.42-1.87Z" transform="translate(-183.69 -123.02)"/><path class="cls-4" d="M663,440.1,661.9,440a5,5,0,0,1-2.06.67,8.42,8.42,0,0,0-3.15,1.38,37.79,37.79,0,0,1-4.9,2.5c-1.85.8-2.77,1.32-2.77,1.57a31.09,31.09,0,0,0,7.64-2l5.39-1.49a5.06,5.06,0,0,0,1.46-.6,9.69,9.69,0,0,1,1.61-.82l1.2-.9,1.64-.59c.85-.3,1.28-.6,1.28-.9a.27.27,0,0,0-.3-.3,9.4,9.4,0,0,0-4.27.82A11.27,11.27,0,0,1,663,440.1ZM689,421.43l.6-1.5,1.95-2.16a7.62,7.62,0,0,1,2.46-2.92,4.53,4.53,0,0,1,.45-1.12,4.62,4.62,0,0,0,.45-1.64l.67-1.2c.2-.19.3-.34.3-.44a3,3,0,0,0-.6-.9l-.37-1.57q0-.6-4-4h-.6L685,401.41l-.3-.75-.6-.15-.75.3h-.15l-2.54-.75a31,31,0,0,1-4-1.27.61.61,0,0,1-.45.15l-3-.67a3,3,0,0,1-1.53-.64,3,3,0,0,0-1.27-.67,3.55,3.55,0,0,1-1.31-.63,1.74,1.74,0,0,0-1.2-.3l-1.87.45c0-.15-.7-.4-2.09-.75q-.3-.75-.45-.75l-2.17.3c-1.44-.7-2.19-1-2.24-1a24.07,24.07,0,0,1-2.62-.41,9,9,0,0,1-2.91-.86,9.27,9.27,0,0,0-2-.89l-.45-.45a2,2,0,0,0-.82-.3h-1.34a2.21,2.21,0,0,1-1.24-.75,12.2,12.2,0,0,0-2-1.49,6.38,6.38,0,0,1-2.17-2.35,7.11,7.11,0,0,1-1-3.25.43.43,0,0,1-.15-.3l.45-2.39a15.74,15.74,0,0,1,4.26-8.44,4.53,4.53,0,0,1,2.46-2.92l.3-1a27.85,27.85,0,0,0,3.1-3,8,8,0,0,1,2.13-1.83,12.72,12.72,0,0,0,1.87-1.31l1.35-.6c-.05-.45,1.06-1.5,3.33-3.17a28.06,28.06,0,0,1,5.32-3.29A23.78,23.78,0,0,0,669.4,354a19.35,19.35,0,0,1,3.69-1.12c.5-1.34,1.3-2,2.39-2h1.12l1.5-1.49,2,.15c.1-.1.37-.41.82-.93a2.78,2.78,0,0,1,2.24-.79l9-2.76h.6l.59.15c.4,0,.91-.35,1.54-1.05a3.08,3.08,0,0,1,2.42-1,2.55,2.55,0,0,1,1.12.59.13.13,0,0,0,.15.15l2-.6,2.31.15,2.92-.74a8.81,8.81,0,0,1,4.85,1.34l.15-.3v-.45c0-.84.47-1.27,1.42-1.27.4,0,.65.11.75.3l.89.53h.53a15.84,15.84,0,0,1,1.94.89,4.25,4.25,0,0,1,1.42-.74,2.6,2.6,0,0,1,2.24,1.19l1.27-.15q.6-.6.75-.6c.3,0,.69.4,1.19,1.2l.45.15h1.87q.15,0,.6.45l.82.67a5.58,5.58,0,0,1,.82,1,3.43,3.43,0,0,0,.52.67,21.08,21.08,0,0,1,2.09-.82c.5,0,.87.43,1.12,1.27a2.76,2.76,0,0,0,1.31,2.06,2.78,2.78,0,0,1,1.31,2.12,2.5,2.5,0,0,1,1.64,2.4l1.42,3.66-.3,1.27a7.25,7.25,0,0,1,.6,1.34l-.3,2.76.3,2.92a4.85,4.85,0,0,1-2.17,4,3.4,3.4,0,0,0-1.45.63,4.88,4.88,0,0,1-1.16.64,2.92,2.92,0,0,1-2.58-.94,5.73,5.73,0,0,0-1.23-1.38,1.41,1.41,0,0,1-.6-1.19c0-1.15.77-2.27,2.32-3.37a1.66,1.66,0,0,0,1.49-.67,2.81,2.81,0,0,0-.67-2.16,11.57,11.57,0,0,1-1.46-1.65,7.86,7.86,0,0,0-1.68-1.68,4.94,4.94,0,0,1-1.45-1.6c-.38-.65-.71-1-1-1l-1.05.15-2.17-.44a26.65,26.65,0,0,1-6.27-1.57h-1.5l-4-.6a7.82,7.82,0,0,1-3,.45l-4.93.74-2-.15c-.14,0-1.51.43-4.1,1.27l-.75.15h-2a15.67,15.67,0,0,0-1.9.75,20.83,20.83,0,0,1-3,1.05l-.68.3a.61.61,0,0,1-.45.15l-1.19-.15-6.57,3.21-1-.6a8.61,8.61,0,0,0-1.42-.6.93.93,0,0,0-1,1.05l-.15,1.42a9.43,9.43,0,0,0-1.27.89,1.78,1.78,0,0,1-.74.45h-.9a2.33,2.33,0,0,0-1.68.79,2.63,2.63,0,0,1-1.38.86,5.55,5.55,0,0,0-1.72.67q-.15.3-1.2.6a2.58,2.58,0,0,0-1.6,1.38c-.37.72-.81,1.08-1.31,1.08l-1.49-.3-.82,1.5q-1.57.38-1.8.45a9.1,9.1,0,0,1-1.94,1.94,23.44,23.44,0,0,0-1.9,1.46,5,5,0,0,0-1.35,1.6,3.16,3.16,0,0,1-1.23,1.31,3.84,3.84,0,0,0-1.42,2l-.75.75a4.43,4.43,0,0,0-1.87,3.36c0,.84.6,1.47,1.8,1.86a8.48,8.48,0,0,1,2.24,1,2,2,0,0,0,1.34.37,4.1,4.1,0,0,1,1.72.37q.82.38,2.76,1.2c.25.8.5,1.19.75,1.19s.3-.19.6-.59a1.57,1.57,0,0,1,1.34-.6,2.46,2.46,0,0,1,1.87,1.19l.6-.44h.3l1,.29h.15l.89-.44a.61.61,0,0,1,.45-.15,18.88,18.88,0,0,1,2.32.74h.15a9.5,9.5,0,0,0,1.19-.3,4.32,4.32,0,0,1,1.27.45l1,.6c0,.15.1.22.3.22a2.16,2.16,0,0,0,.9-.33,2.25,2.25,0,0,1,1.12-.34,2,2,0,0,1,1.34.82,8.92,8.92,0,0,1,1.35-.52,5.25,5.25,0,0,1,2.31,1.12l1.42.3h1.65l2.46.45a8.54,8.54,0,0,0,2.16,1.72.94.94,0,0,1,1-.82,11.22,11.22,0,0,1,3.66,1l.6.15.59.44a11.13,11.13,0,0,1,1.57-.29c1,0,1.5.34,1.5,1a8.08,8.08,0,0,1-.45,2.32q.15,0,.45.3a1.78,1.78,0,0,1,.82-.6l1.19-.67q.3-.3.45-.3c1.14,0,2.76.79,4.85,2.39a8.4,8.4,0,0,1,3.59,5.45,4.76,4.76,0,0,0,.6,2.09l-.3,1,.15,1.2a6.27,6.27,0,0,1-.3,1.05l-.15,1.12a1.47,1.47,0,0,1-.45.52,1.47,1.47,0,0,0-.45.52l.45,1.27v.3c0,.2-.18.48-.56.82a2.55,2.55,0,0,0-.71,1,3.3,3.3,0,0,1-.52.94,2.87,2.87,0,0,0-.52,1.16c-.1.44-.59,1-1.46,1.53s-1.31,1-1.31,1.3.1.45.3.45a3,3,0,0,0,1.9-.86,5.15,5.15,0,0,1,1.53-1,9.26,9.26,0,0,0,1.79-.9l7-3.29q7.83-3.74,8.73-3.73a1.05,1.05,0,0,1,1.19,1.19,4.05,4.05,0,0,1-1,1.72q-.16,3.51-3.07,4.11A6.58,6.58,0,0,0,720,419h-.6a5.62,5.62,0,0,1-4.26,2.09h-.45a10.31,10.31,0,0,1-6.72,3.06q-2.62,2.63-4.33,2.62l-1.2.3a8.81,8.81,0,0,1-2.61.74q-.15,0-.6.6l-1.12.82a7.36,7.36,0,0,0-3.06,1.65,7.44,7.44,0,0,1-2.51,1.53,8.67,8.67,0,0,0-1.83.63q-1,.45-7.84,5.08l-1,.3a12.13,12.13,0,0,0-3.66,2.21,7.07,7.07,0,0,1-1.79,1.45h-.3c-1.15,0-2.49.75-4,2.24-.1.25-1.18.66-3.25,1.24a22.13,22.13,0,0,0-5.94,2.65c-1.19.3-2.66.69-4.4,1.19a29.17,29.17,0,0,1-3.81.9l-5.23,1.12q-1.73.3-4,.9a7.52,7.52,0,0,0-2.32-.45l-1.34.15a1.91,1.91,0,0,1-.93-.52,8,8,0,0,0-1.68-1q-1.05-.5-1.05-2.58,0-1.87,4.11-3.7t5.39-2.58a2.75,2.75,0,0,1,2.05-1,5.24,5.24,0,0,0,2.51-.89,10.42,10.42,0,0,1,3.21-1.35l3-1.57a.74.74,0,0,1,.38-.15h1a3.1,3.1,0,0,0,1.57-.82,7.16,7.16,0,0,1,2.17-1.19h.9c.1,0,.25-.13.45-.38a5.27,5.27,0,0,1,1.34-1l.23-.15h.74a7.37,7.37,0,0,1,2-1.12,10.74,10.74,0,0,0,2.17-1.19l5.83-2.25,1.35.15a1.88,1.88,0,0,0,1.15-.71,8.81,8.81,0,0,1,3.33-1.45,5.66,5.66,0,0,1,1.57-1.42,24.15,24.15,0,0,0,2.84-2.39Z" transform="translate(-183.69 -123.02)"/><path class="cls-2" d="M255.48,441.31l-1-.15a4.84,4.84,0,0,1-2.06.67,8.4,8.4,0,0,0-3.14,1.38,38,38,0,0,1-4.91,2.5c-1.84.8-2.77,1.32-2.77,1.57a31.26,31.26,0,0,0,7.64-2l5.39-1.5a4.93,4.93,0,0,0,1.46-.6,11.67,11.67,0,0,1,1.61-.82l1.2-.89,1.65-.6c.85-.3,1.27-.6,1.27-.9a.27.27,0,0,0-.3-.3,9.43,9.43,0,0,0-4.27.82A11.48,11.48,0,0,1,255.48,441.31Zm26.07-18.68.6-1.5,1.94-2.16a7.79,7.79,0,0,1,2.47-2.92,4.53,4.53,0,0,1,.45-1.12,4.62,4.62,0,0,0,.45-1.64l.67-1.19q.3-.3.3-.45a3,3,0,0,0-.6-.9l-.37-1.57c0-.4-1.33-1.72-4-4h-.6l-5.38-2.61-.3-.75-.6-.15-.74.3h-.15l-2.55-.75a29.12,29.12,0,0,1-4-1.27.61.61,0,0,1-.45.15l-3-.67a3.19,3.19,0,0,1-1.54-.63,2.83,2.83,0,0,0-1.27-.68,3.64,3.64,0,0,1-1.31-.63,1.72,1.72,0,0,0-1.19-.3l-1.87.45q0-.23-2.1-.75-.3-.75-.45-.75l-2.16.3c-1.45-.69-2.2-1-2.25-1A25.54,25.54,0,0,1,249,395a9.32,9.32,0,0,1-2.92-.85,8.86,8.86,0,0,0-2-.9l-.45-.45a2,2,0,0,0-.82-.3H241.4a2.19,2.19,0,0,1-1.23-.74,11.77,11.77,0,0,0-2-1.5,6.55,6.55,0,0,1-2.17-2.35,7.09,7.09,0,0,1-1-3.25.43.43,0,0,1-.15-.3l.44-2.39a15.74,15.74,0,0,1,4.26-8.44,4.51,4.51,0,0,1,2.47-2.92l.3-1a29.78,29.78,0,0,0,3.1-3,8,8,0,0,1,2.13-1.83,11.84,11.84,0,0,0,1.86-1.31l1.36-.6q-.08-.66,3.33-3.17a28.06,28.06,0,0,1,5.31-3.29,22.83,22.83,0,0,0,2.54-1.16,20.39,20.39,0,0,1,3.7-1.12c.5-1.34,1.29-2,2.39-2h1.12l1.49-1.5,2,.15c.1-.1.38-.41.82-.93a2.8,2.8,0,0,1,2.24-.79l9-2.76h.6l.6.15q.6,0,1.53-1.05a3.12,3.12,0,0,1,2.43-1,2.73,2.73,0,0,1,1.12.59.13.13,0,0,0,.15.15l1.94-.59,2.32.15,2.91-.75a8.87,8.87,0,0,1,4.86,1.34l.15-.3v-.44c0-.85.47-1.27,1.42-1.27.39,0,.64.1.74.29l.9.53h.52a15.09,15.09,0,0,1,1.94.89,4.25,4.25,0,0,1,1.42-.74,2.61,2.61,0,0,1,2.25,1.19l1.27-.15c.39-.4.64-.59.74-.59.3,0,.7.39,1.2,1.19l.45.15h1.86q.15,0,.6.45l.82.67a5.16,5.16,0,0,1,.82,1,3.2,3.2,0,0,0,.53.67,20,20,0,0,1,2.09-.82c.5,0,.87.43,1.12,1.27a2.76,2.76,0,0,0,1.31,2.06,2.76,2.76,0,0,1,1.3,2.13,2.48,2.48,0,0,1,1.65,2.39l1.42,3.66-.3,1.27A7.25,7.25,0,0,1,330,362l-.3,2.77.3,2.91a4.88,4.88,0,0,1-2.17,4,3.42,3.42,0,0,0-1.46.63,5.16,5.16,0,0,1-1.15.64,2.94,2.94,0,0,1-2.58-.93,6,6,0,0,0-1.23-1.39,1.41,1.41,0,0,1-.6-1.19q0-1.72,2.31-3.36a1.67,1.67,0,0,0,1.5-.68,2.84,2.84,0,0,0-.67-2.16,11,11,0,0,1-1.46-1.65,7.86,7.86,0,0,0-1.68-1.68,5,5,0,0,1-1.46-1.6c-.37-.65-.71-1-1-1l-1,.14-2.17-.44a26.86,26.86,0,0,1-6.28-1.57h-1.49l-4-.6a7.86,7.86,0,0,1-3,.45l-4.93.75-2-.15c-.15,0-1.52.42-4.11,1.27l-.75.15h-2a16.22,16.22,0,0,0-1.91.74,20.4,20.4,0,0,1-2.95,1.05l-.67.3a.61.61,0,0,1-.45.15l-1.19-.15-6.58,3.21-1-.6a9,9,0,0,0-1.42-.6.93.93,0,0,0-1,1.05l-.15,1.42a7.9,7.9,0,0,0-1.27.9,1.76,1.76,0,0,1-.75.44h-.89a2.36,2.36,0,0,0-1.68.79,2.68,2.68,0,0,1-1.39.86,5.43,5.43,0,0,0-1.71.67q-.15.3-1.2.6a2.6,2.6,0,0,0-1.61,1.38c-.37.72-.81,1.08-1.3,1.08l-1.5-.3-.82,1.5c-1.05.25-1.64.4-1.79.45a9.33,9.33,0,0,1-1.94,1.94,23.57,23.57,0,0,0-1.91,1.46,5.08,5.08,0,0,0-1.34,1.6,3.13,3.13,0,0,1-1.24,1.31,3.84,3.84,0,0,0-1.42,2l-.74.75a4.4,4.4,0,0,0-1.87,3.36c0,.85.6,1.47,1.79,1.87a8.41,8.41,0,0,1,2.24,1,2.07,2.07,0,0,0,1.35.37,4.25,4.25,0,0,1,1.72.37q.81.38,2.76,1.2c.25.8.5,1.19.75,1.19.1,0,.3-.19.59-.59a1.58,1.58,0,0,1,1.35-.6,2.46,2.46,0,0,1,1.87,1.19l.59-.44h.3l1,.3h.15l.9-.45a.61.61,0,0,1,.45-.15,18.47,18.47,0,0,1,2.31.74H263a8.12,8.12,0,0,0,1.2-.29,5.18,5.18,0,0,1,1.27.44l1,.6c0,.15.1.23.3.23a2.21,2.21,0,0,0,.9-.34,2.32,2.32,0,0,1,1.12-.34,2,2,0,0,1,1.34.83,8.52,8.52,0,0,1,1.34-.53,5.44,5.44,0,0,1,2.32,1.12l1.42.3h1.64l2.47.45a8.21,8.21,0,0,0,2.16,1.72.94.94,0,0,1,1.05-.82,11.24,11.24,0,0,1,3.65,1l.6.15.6.45a10.31,10.31,0,0,1,1.57-.3c1,0,1.49.35,1.49,1a8.08,8.08,0,0,1-.45,2.32q.15,0,.45.3a1.83,1.83,0,0,1,.82-.6l1.2-.67q.3-.3.45-.3,1.71,0,4.85,2.39a8.44,8.44,0,0,1,3.59,5.45,4.87,4.87,0,0,0,.59,2.09l-.29,1,.14,1.19a6.86,6.86,0,0,1-.29,1l-.15,1.12a1.47,1.47,0,0,1-.45.52,1.57,1.57,0,0,0-.45.52L301,414v.3c0,.2-.19.48-.56.82a2.52,2.52,0,0,0-.71,1,3.42,3.42,0,0,1-.52.94,2.88,2.88,0,0,0-.53,1.16c-.1.44-.58,1-1.45,1.53s-1.31,1-1.31,1.31.1.44.3.44a3,3,0,0,0,1.9-.86,4.91,4.91,0,0,1,1.53-1,9.55,9.55,0,0,0,1.79-.9l7-3.29c5.23-2.49,8.13-3.73,8.73-3.73a1.06,1.06,0,0,1,1.2,1.19,4,4,0,0,1-1.05,1.72q-.15,3.51-3.06,4.11a6.64,6.64,0,0,0-1.72,1.57h-.6a5.59,5.59,0,0,1-4.26,2.09h-.44a10.3,10.3,0,0,1-6.73,3.06q-2.61,2.63-4.33,2.62l-1.19.3a8.47,8.47,0,0,1-2.62.74q-.15,0-.6.6l-1.12.82a7.48,7.48,0,0,0-3.06,1.65,7.42,7.42,0,0,1-2.5,1.53,8.67,8.67,0,0,0-1.83.63q-1,.45-7.84,5.08l-1,.3a12.27,12.27,0,0,0-3.66,2.21,6.9,6.9,0,0,1-1.79,1.45h-.3c-1.14,0-2.49.75-4,2.24-.1.25-1.19.66-3.25,1.24a21.86,21.86,0,0,0-5.94,2.65c-1.19.3-2.66.7-4.41,1.19a28.44,28.44,0,0,1-3.81.9L242,452.66c-1.14.2-2.46.5-3.95.9a7.52,7.52,0,0,0-2.32-.45l-1.34.15a1.93,1.93,0,0,1-.94-.52,7.51,7.51,0,0,0-1.68-1q-1-.5-1.05-2.58c0-1.25,1.38-2.48,4.12-3.7s4.53-2.08,5.38-2.58a2.77,2.77,0,0,1,2.06-1,5.1,5.1,0,0,0,2.5-.89,10.5,10.5,0,0,1,3.22-1.35l3-1.57a.72.72,0,0,1,.37-.15h1a3.1,3.1,0,0,0,1.57-.82,7.38,7.38,0,0,1,2.17-1.19H257c.1,0,.25-.13.45-.38a5.19,5.19,0,0,1,1.35-1l.22-.15h.75a7.37,7.37,0,0,1,1.95-1.12,10.46,10.46,0,0,0,2.16-1.19l5.84-2.24,1.34.15a2,2,0,0,0,1.16-.71,8.47,8.47,0,0,1,3.33-1.46,5.66,5.66,0,0,1,1.57-1.42,25.9,25.9,0,0,0,2.84-2.39Z" transform="translate(-183.69 -123.02)"/><path class="cls-2" d="M371,383.86l-2,4.33a20.94,20.94,0,0,1-2.28,4.29,17.65,17.65,0,0,0-1.91,3.25l-2.09,4.56-1.87,1.87a3.82,3.82,0,0,0-.44,1.19,9.5,9.5,0,0,1-1,3.55,29.36,29.36,0,0,0-1.5,4.15v.9a6.43,6.43,0,0,1-1.19,2.31v.9a15.93,15.93,0,0,1-1.27,2.76l.15.9a1.35,1.35,0,0,1-.15.45l-1.42,4.4a13,13,0,0,0-.71,3q0,.9-.12,1.65v1.34l-.29,1.72.15.9v.44a7.17,7.17,0,0,1-.15,1.57,3,3,0,0,0,1.19,1.65.55.55,0,0,1,.45.18.4.4,0,0,0,.3.19L357,435a9.8,9.8,0,0,0,3.14-2.69l2.17-1.95.44-.67.9-.15a15,15,0,0,0,1.38-1.64c.53-.7.89-1.05,1.09-1.05a.43.43,0,0,1,.3.15h1a1.67,1.67,0,0,1,.75.15l.15-.3v-1.27c0-1.64.52-2.46,1.57-2.46a12.51,12.51,0,0,1,2-2.39l.3-1.12a5.53,5.53,0,0,1,1.61-1.95,12,12,0,0,0,2.5-3.36l2.62-3.06c.1-.2.25-.57.45-1.12l.59-.6,1.28.15a.6.6,0,0,0,.3-.6,1.15,1.15,0,0,0-.15-.45,2,2,0,0,1-.15-.89c0-.45.73-1.63,2.2-3.55a23.51,23.51,0,0,0,2.8-4.26q.6-1.38,1.2-1.38c.2,0,.36.17.49.52a.65.65,0,0,0,.63.52c.1,0,.15,0,.15-.14s-.07-.2-.22-.3a.51.51,0,0,1-.23-.45,5.79,5.79,0,0,1,1.05-3.18,13.71,13.71,0,0,0,1.38-2.5,6.12,6.12,0,0,1,.64-1.31,7.13,7.13,0,0,0,.67-1.23,3.6,3.6,0,0,1,.9-1.27,3.92,3.92,0,0,0,.86-1,2.36,2.36,0,0,1,.86-.86c.35-.2.67-.92,1-2.16s1.37-2.67,3.22-4.26a1.3,1.3,0,0,1-.45-.9,2.53,2.53,0,0,1,.45-1c0-.35.88-2.2,2.65-5.53s3.23-5.9,4.38-7.7l.29-1,1-.9,1.34-2,4.11-2.76a5.53,5.53,0,0,1,2.32-1.05,3.88,3.88,0,0,1,1.19.15,1.49,1.49,0,0,1,.82-.45,2.45,2.45,0,0,1,.6.15h.3a2.54,2.54,0,0,1,1.05-.44,2,2,0,0,1,.82.29h.45a5,5,0,0,1,2.35,1.16c1.07.77,1.61,1.36,1.61,1.76l-.15.89.15.9a7.51,7.51,0,0,1-1.76,4.6c-1.17,1.52-1.86,2.45-2.05,2.8l-1,.45a7.52,7.52,0,0,0-.18,1.15,2.62,2.62,0,0,1-.64,1.5,7.85,7.85,0,0,0-1.19,2.13,11,11,0,0,1-1.2,2.24v1l-3.51,8.45a9.08,9.08,0,0,1-.71,1.6,1.31,1.31,0,0,1-1.23.71,2.29,2.29,0,0,0,.56.64.85.85,0,0,1,.33.71,2.56,2.56,0,0,1-2.16,2.61,1.85,1.85,0,0,1,.45,1l.37.82-1.42,2.54v1.27a8,8,0,0,0-1,2.09V402a6.42,6.42,0,0,1-.9,1.94l-.67,1.27a9.31,9.31,0,0,0-.45,1.2h-.15l.15,1.57c-.1.1-.4.35-.9.74v1.5a2.58,2.58,0,0,0-.75,2,4.11,4.11,0,0,1-.82,1.86,4.51,4.51,0,0,1,.15.75,8.48,8.48,0,0,1-.6,3.25,6.9,6.9,0,0,0-.6,1.9v1.12a1.34,1.34,0,0,1,.45.9,4.77,4.77,0,0,1-.23.86,4.33,4.33,0,0,0-.22,1.31c0,1.49.3,2.24.9,2.24l1.72-.52a2.14,2.14,0,0,0,1.28-1,2.41,2.41,0,0,1,1.23-1.09,1.36,1.36,0,0,0,.94-1.15c.05-.53.53-.9,1.45-1.12s2.9-1.86,5.94-4.9l2.32-1.34.6-1.05q.58-.6,2-2.31c.92-1.15,1.65-1.72,2.2-1.72,1.49,0,2.24.82,2.24,2.46a22.61,22.61,0,0,1-.71,2.92,10.72,10.72,0,0,1-1,2.84,7.6,7.6,0,0,1-.89.71,4.16,4.16,0,0,0-1.2,1.68q-3.44,3.36-5.08,3.81a17.46,17.46,0,0,0-1.64,1.38,12.72,12.72,0,0,1-2,1.53,9.9,9.9,0,0,0-1.61,1.19,5.36,5.36,0,0,1-1.94,1.13l-.6.29a1.28,1.28,0,0,0-.45-.14c-.3,0-.63.22-1,.67a3.54,3.54,0,0,1-1.68,1,5.07,5.07,0,0,0-1.77.94,1.84,1.84,0,0,1-.93.56l-1.2-.53c-.6.55-1,.83-1.13.83l-.9-.45a1.66,1.66,0,0,0-.82-.45,3.93,3.93,0,0,1-1.24-.67,17.55,17.55,0,0,0-1.53-1.05,5.49,5.49,0,0,1-1.8-2.76l-.6-.75a5.37,5.37,0,0,1-.74-1.57c0-.3.05-.89.15-1.79v-.45a11.87,11.87,0,0,0-.3-2.13,11.89,11.89,0,0,1-.3-2.2l1.79-9.94-.3-1.79a7.39,7.39,0,0,1,.94-3c.62-1.27,1.23-4.09,1.83-8.48q-1.2,3.66-1.8,3.66l-1.12-.15a.61.61,0,0,0-.3.6,5.64,5.64,0,0,0,.3,1.27v1q0,1.43-2.76,2.31a1.15,1.15,0,0,1-.15.45c.55.25.82.5.82.75a3.11,3.11,0,0,1-1.38,2.69,6.69,6.69,0,0,0-1.83,1.68c-.3.47-.58.71-.83.71l-.45-.67h-.15l-.74,1.42a2.2,2.2,0,0,1,.45.74,12.8,12.8,0,0,1-1.54,2.62q-1.53,2.31-1.83,2.31l-2.16,2.1-.3.67V421a1.53,1.53,0,0,1-.3.59l-2.92,4.11-.9,1.72L373.38,432a4.1,4.1,0,0,0-1.64,1.12l-.53.3c0,.79-.65,1.54-1.94,2.24a4.92,4.92,0,0,1-1.87,2.76,8.24,8.24,0,0,0-1.79,1.42l-1.42.9-1.8,1.49-2,.67-.89-.67c-.4,1.15-.75,1.72-1.05,1.72l-1.72-.3-1.42.3c-1.2,0-2.75-.8-4.67-2.39a24.52,24.52,0,0,1-3.4-3.14l-.9-1.19a2,2,0,0,1-.59-.94,4.09,4.09,0,0,0-1.42-1.53l-.75-1.19v-1a15,15,0,0,1-2-3.4,18.89,18.89,0,0,1-.19-3.48v-.6l.3-1-.15-1.72a11.77,11.77,0,0,1,.71-3.36,17.6,17.6,0,0,0,.71-2.47v-.45l-.22-.44,1-3.14a7.06,7.06,0,0,1,.75-2,6.94,6.94,0,0,0,.44-2.58c.1-1.46.83-2.2,2.17-2.2a1.15,1.15,0,0,1,.45.15.8.8,0,0,0,.6-.9h-.3c-.4,0-.6-.27-.6-.82a2.68,2.68,0,0,1,.45-1.64,2.82,2.82,0,0,0,.45-1.72,4.17,4.17,0,0,1,1.23-2.73,8.3,8.3,0,0,0,1.23-1.53,7.74,7.74,0,0,1,1.16-3.25,42.58,42.58,0,0,0,1.87-3.85,14.9,14.9,0,0,1,1.68-3.06,10.73,10.73,0,0,0,1.42-2.61,6.54,6.54,0,0,1,1.79-2.54l.82-1.5a21.85,21.85,0,0,1,1.65-2.31,4.47,4.47,0,0,0,.93-2.21,2.22,2.22,0,0,1,1.31-1.83,2,2,0,0,0,1.27-1.3,5,5,0,0,1,.56-1.54,5.34,5.34,0,0,0,.56-1.45,4,4,0,0,1,.89-1.61,8.9,8.9,0,0,0,1.39-2.73q.63-1.83,1.83-1.83l1.49.15.15-.52a1.4,1.4,0,0,0-.37-.6,1.41,1.41,0,0,1-.38-.89c0-1.45.48-2.17,1.42-2.17.3,0,.65.32,1.05,1,.35-2.94.56-4.49.63-4.67a1.31,1.31,0,0,0,.12-.56l.15-.75a2,2,0,0,0,.14-.82,2.55,2.55,0,0,0-.56-1.34c-.37-.55-.68-.82-.93-.82-.05,0-.62.12-1.72.37l-.89-.9q-.75,1.65-1.5,1.65l-1.27-.45a9.7,9.7,0,0,1-3.36,1.64l-1.2-.45h-.15c-.29,0-.61.37-.93,1.09a1.94,1.94,0,0,1-2,1.08h-.75A4.25,4.25,0,0,1,357,356.4a4.09,4.09,0,0,0-1.61.94,5.34,5.34,0,0,1-1.46,1,8.15,8.15,0,0,0-2,1.49l-.75.45c-.9.55-1.4,1.08-1.49,1.6a2.86,2.86,0,0,1-.83,1.46c-1.79,1.3-2.68,2.37-2.68,3.21l.15,1.35-.15,1.94c0,.55-.46,1.21-1.39,2a4,4,0,0,1-2.27,1.16q-5.38,0-5.38-3.21l.3-2.17-.15-1.72.15-1.49a4.2,4.2,0,0,1,2.06-3.25,28.48,28.48,0,0,0,2.8-2.28l2.92-1.49a6.69,6.69,0,0,0,1.49-1.54c.35-.52,1.45-1.17,3.29-1.94a14.92,14.92,0,0,0,4-2.28,11.53,11.53,0,0,1,3.74-2,30.37,30.37,0,0,0,3.77-1.53,5.83,5.83,0,0,1,1.61-.67l.9.15a7.26,7.26,0,0,0,1.6-.94,3.17,3.17,0,0,1,1.91-.63l9.19-2.09c.94-.25,2.74.3,5.38,1.64s4,4.31,4,8.89q0,1.43-2.28,6.13a49.52,49.52,0,0,1-5.05,8.37l-.44,1.12-2,3.51-1.2,2.61c-.54,1-1.12,2.17-1.71,3.51l-1.35,1.8A9,9,0,0,0,371,383.86Z" transform="translate(-183.69 -123.02)"/><path class="cls-2" d="M449.84,397.53H448a3.59,3.59,0,0,0-1.61.86c-.77.57-1.16,1-1.16,1.15s.59.76,1.76,1.69a6.28,6.28,0,0,0,2.2,1.38q1.35,0,3.21-6.13l-.74.3-.9-.15Q449.84,397.38,449.84,397.53Zm-4.95-35.34-.15.82a4.32,4.32,0,0,1-2.09,2.54,6.6,6.6,0,0,1-3.74,1.27q-4.71,0-4.71-4.48,0-1.57,2.43-3.85a13.56,13.56,0,0,1,6.5-3.17,27.94,27.94,0,0,0,5.83-1.76,17.8,17.8,0,0,1,5.41-1.3,1.75,1.75,0,0,0,1.2.59,1.38,1.38,0,0,0,1.34-.67c.25-.45.83-.57,1.72-.37H459l4-1.05,1.19.45a1.27,1.27,0,0,0,.71-.3,2.84,2.84,0,0,1,1-.45h1.2l1.41-.3a8.44,8.44,0,0,0,1.95-.67l1.27.15a24,24,0,0,0,4.67-.75,30.8,30.8,0,0,1,4.93-.82,19.08,19.08,0,0,0,2.46-.22,8.58,8.58,0,0,1,.94-.15,2.21,2.21,0,0,1,1.12.45,2.08,2.08,0,0,0,1,.44c.2,0,1.59-.29,4.18-.89h.45l3.36.75a5.07,5.07,0,0,1,1.79-.75,3.58,3.58,0,0,1,2.62,1l1.42-.59.75.15a9.06,9.06,0,0,0,1.34-.15h.6a4.61,4.61,0,0,1,1.12.15.43.43,0,0,0,.3.15,3.88,3.88,0,0,0,1.19-.15h1l3.22.74,1.34-.15a3.29,3.29,0,0,1,.9.45l.82-.15a19.44,19.44,0,0,0,2.69,1.42,6.77,6.77,0,0,1,1.12-.3h.15a7.9,7.9,0,0,1,1.49.9l2.17,1.05.59-.3a12.58,12.58,0,0,1,2.16,1.19l.6,1.27a20.26,20.26,0,0,1,2,1.2,6.3,6.3,0,0,0,.89,1.72v.59c0,.1.38.46,1.15,1.09s1.16,1.08,1.16,1.38c0,.1-.05.45-.15,1v.15a3.47,3.47,0,0,0,.52,1,3.64,3.64,0,0,1,.52,1.95l-.15,1,.15,1-.75,5a4,4,0,0,0-.9,1.46,1.79,1.79,0,0,1-1.12,1.08A2.92,2.92,0,0,0,526,375.6a2.83,2.83,0,0,1-1.61,1.53,5.38,5.38,0,0,0-2,1.31,3,3,0,0,1-2.13.93l-8,2.39-.9-.29a4.38,4.38,0,0,1-4,2.16,18.61,18.61,0,0,0-3,.53l-1.49.37-1.2-.15-2.77.52a6.35,6.35,0,0,0-1.87.56,3,3,0,0,1-1.5.34l-2,1a.57.57,0,0,1-.45.15c-.4,0-.65,0-.75-.15l-1-.29a3,3,0,0,0-1.09.52,1.52,1.52,0,0,1-.93.37l-.9-.74L487,387.89a16.46,16.46,0,0,0-2.4.67,4,4,0,0,0-1.27-.52l-2.62,1.12-1.5-.45-.14.45a3.78,3.78,0,0,0-2.14.75,3.41,3.41,0,0,1-1.83.74,1.65,1.65,0,0,1-1.12-.59.86.86,0,0,1-.6-.3,4.36,4.36,0,0,0-1.13,1.08,3.44,3.44,0,0,1-1.64,1.08l-1.8-.52c0,.15-.47.41-1.42.79s-1.45.68-1.49.93l-.75,1.05c-.35.84-.63,1.54-.83,2.09a3.9,3.9,0,0,1-.74,1.3,4.62,4.62,0,0,0-.83,1.69,10.29,10.29,0,0,1-1.34,2.61l-.15.9a8.51,8.51,0,0,1-1.35,1.34l-1.72,3.21a3.7,3.7,0,0,0-.75,1.57c0,.75.67,1.47,2,2.17l7.92,6.72,1.28.75h.14l-.29,1.35a2.18,2.18,0,0,0,.74.37c.3,0,.45-.23.45-.67h.45c.1,0,.35.22.75.67l.82.45c.35.35,1,.92,2,1.72s1.42,1.34,1.42,1.64l-.15.6h.44q.3-.3.45-.3a5.51,5.51,0,0,1,1.65.89l1,.45a27.92,27.92,0,0,1,3.63,2.92,12.61,12.61,0,0,0,1.86,1.68,7.84,7.84,0,0,1,2,2.13l8.59,6.42q10.77,8.07,12.12,10.76a3.12,3.12,0,0,0,1.42.9,11.71,11.71,0,0,1,3.21,2.5,11.18,11.18,0,0,1,2.54,3.17v2.62c0,.2-.25.45-.74.74l-1,.9c-1.3,1.35-2.42,2-3.36,2-2.35,0-4.07-.53-5.16-1.57l-.37-.15h-.75c-.8,0-1.24-.7-1.34-2.09l-.3-1a11,11,0,0,1-5.68-3.81l-4.26-4q-.15-.15-2.46-2.88a22.3,22.3,0,0,0-4.07-3.92,12.64,12.64,0,0,1-2.77-2.47,11.82,11.82,0,0,0-2.69-2.39,14.34,14.34,0,0,1-3.54-3.77,27.38,27.38,0,0,0-2.1-2.8q-3.36-1.8-3.21-4a7,7,0,0,0-2.16-.6,5.1,5.1,0,0,0-1.12-1,1,1,0,0,1-.38-.23l.15-1.19a6.68,6.68,0,0,1-3.13-1.69l-2.4-2.72a25.62,25.62,0,0,0-2.57-2.65c-.72-.63-1.11-1.11-1.16-1.46s-.52-.77-1.42-1.27a5.63,5.63,0,0,1-1.12,1.42,3.51,3.51,0,0,0-.9,1.19l-.29.45a3.22,3.22,0,0,0-1,2.32,4.74,4.74,0,0,0-1.42,3.21l-3.36,7.62-.6,2.76-.44,4.71c-.15,1.35-.72,2-1.71,2l-1.49.15a10.45,10.45,0,0,0-2.79-.56c-1.46-.18-2.66-1.63-3.6-4.37a7.76,7.76,0,0,0-.86-1.5,3.43,3.43,0,0,1-.7-1.86,7.41,7.41,0,0,1,.44-1.95l.3-1.72a25.09,25.09,0,0,1,1.87-4.25l4-7.55L444,414a9.43,9.43,0,0,0,.83-2.28,7,7,0,0,1,1.38-2.8,3.32,3.32,0,0,0,.93-1.65c0-.59-.46-1.19-1.38-1.79s-1.43-1.17-1.53-1.72l-.3-.74q-4-2.32-4-5.23,0-1.57,4-3.93a24.31,24.31,0,0,1,5.34-2.65,9.77,9.77,0,0,0,2.72-1l1.27-.3,1.05-.9a19.29,19.29,0,0,1,2.2-.56c.87-.17,1.61-1.19,2.24-3.06s1.18-2.95,1.68-3.25a43.64,43.64,0,0,0,2-4.63c.1-.2.39-.66.86-1.39a14.74,14.74,0,0,0,1.45-3.58c.5-1.67.85-2.5,1-2.5a4.91,4.91,0,0,0,1.2-.3l-.75-2q0-.3.6-.9a4.62,4.62,0,0,1-1.05-3.06q0-2.91,4.1-2.91a8.13,8.13,0,0,1,3,1.3c1.49.88,2.29,1.51,2.39,1.91a7.76,7.76,0,0,0,1,1.9,4.42,4.42,0,0,1,.82,2.21c0,1.94-.32,3.21-1,3.81a10.4,10.4,0,0,0-2,4l-2,5.68-.3,1.41-.38.6,1.87-.45q.6-1.64,5.09-1.86l4.72-1.5h1.42l4.57-1.27c.19,0,.92-.1,2.17-.3h.45l.9-.15a1.77,1.77,0,0,1,.59.6h.3c.55,0,.85-.32.9-1s.77-1,2.17-1a.7.7,0,0,1,.56.37.73.73,0,0,0,.57.38,1.49,1.49,0,0,1,1.16-1.16,5.15,5.15,0,0,1,1.46-.34l1.19.15a.61.61,0,0,1-.15-.45c0-.44,1.53-.92,4.57-1.42a5.77,5.77,0,0,0,2-1.12,18,18,0,0,1,4.72-1.94l4.49-1.34q2.77-.9,3.82-5.38c-.1-.1-.55-.77-1.35-2,0-.1-.37-.15-1.12-.15a5.29,5.29,0,0,0-1-.71,7.93,7.93,0,0,1-1.72-1.38l-.9.3a9.26,9.26,0,0,0-2.43-.94,8.12,8.12,0,0,1-2.95-1.53,2.62,2.62,0,0,1-.74.3,10.87,10.87,0,0,1-1.65-.75l-2-.89h-1.2l-.52-.15c-.3-.35-.55-.52-.75-.52l-.75.14a1.5,1.5,0,0,1-.74.15H499.8a5,5,0,0,1-1.2-.74h-2.46l-1.35.3c-.2,0-.52-.2-1-.6l-1.34.3-1.35-.6-2,.3a1.8,1.8,0,0,0-.89-.45l-6,.6a.64.64,0,0,1-.52-.3,1.37,1.37,0,0,0-.71-.45,3.64,3.64,0,0,1-1.09-.6,6.1,6.1,0,0,1-3.06.9l-2.31-.3-.45.15h-.3a12.42,12.42,0,0,1-1.35-.3.61.61,0,0,1-.15.45l-1.12-.3-4.1.75h-.15l-.75-.15a2.49,2.49,0,0,0-.86.22,2.56,2.56,0,0,1-.86.23l-1.64-.15-1.27.3-1.8-.15-1.57,1.12h-.29a1.27,1.27,0,0,1-.68-.26,1.19,1.19,0,0,0-.52-.27l-1.12.23-.9-.23c-.2,0-.59.48-1.19,1.42q0,.15-.3.15H453l-1.12-.3q-.3,0-1.2,1.05c-.94.35-1.86.72-2.76,1.12a4.89,4.89,0,0,1-1.79,1.79Z" transform="translate(-183.69 -123.02)"/><path class="cls-2" d="M570.2,383.86l-2,4.33a20.94,20.94,0,0,1-2.28,4.29,17.65,17.65,0,0,0-1.91,3.25l-2.09,4.56L560,402.16a3.68,3.68,0,0,0-.45,1.19,9.31,9.31,0,0,1-1,3.55,30.53,30.53,0,0,0-1.49,4.15v.9a6.35,6.35,0,0,1-1.2,2.31v.9a15.07,15.07,0,0,1-1.27,2.76l.15.9a1.15,1.15,0,0,1-.15.45l-1.42,4.4a14.22,14.22,0,0,0-.71,3c0,.6-.06,1.15-.11,1.65v1.34l-.3,1.72.15.9v.44a6.6,6.6,0,0,1-.15,1.57,3.1,3.1,0,0,0,1.2,1.65.55.55,0,0,1,.45.18.4.4,0,0,0,.3.19l2.09-1.34a9.8,9.8,0,0,0,3.14-2.69l2.16-1.95.45-.67.9-.15a15,15,0,0,0,1.38-1.64c.52-.7.89-1.05,1.09-1.05a.43.43,0,0,1,.3.15h1a1.67,1.67,0,0,1,.75.15l.15-.3v-1.27c0-1.64.52-2.46,1.57-2.46a12.51,12.51,0,0,1,2-2.39l.3-1.12a5.53,5.53,0,0,1,1.61-1.95,12,12,0,0,0,2.5-3.36l2.62-3.06c.1-.2.25-.57.45-1.12l.59-.6,1.27.15a.6.6,0,0,0,.3-.6,1.15,1.15,0,0,0-.15-.45,2,2,0,0,1-.15-.89c0-.45.74-1.63,2.21-3.55a24.09,24.09,0,0,0,2.8-4.26q.6-1.38,1.2-1.38c.2,0,.36.17.49.52a.65.65,0,0,0,.63.52c.1,0,.15,0,.15-.14s-.07-.2-.22-.3a.51.51,0,0,1-.23-.45,5.79,5.79,0,0,1,1-3.18,13.71,13.71,0,0,0,1.38-2.5,6.12,6.12,0,0,1,.64-1.31,7.13,7.13,0,0,0,.67-1.23,3.6,3.6,0,0,1,.9-1.27,4.12,4.12,0,0,0,.86-1,2.36,2.36,0,0,1,.86-.86c.35-.2.67-.92,1-2.16s1.37-2.67,3.22-4.26a1.3,1.3,0,0,1-.45-.9,2.53,2.53,0,0,1,.45-1c0-.35.88-2.2,2.65-5.53s3.23-5.9,4.37-7.7l.3-1,1-.9,1.34-2,4.11-2.76a5.51,5.51,0,0,1,2.31-1.05,3.9,3.9,0,0,1,1.2.15,1.49,1.49,0,0,1,.82-.45,2.45,2.45,0,0,1,.6.15h.3a2.52,2.52,0,0,1,1-.44,2,2,0,0,1,.83.29h.44a5,5,0,0,1,2.36,1.16c1.07.77,1.6,1.36,1.6,1.76l-.15.89.15.9a7.5,7.5,0,0,1-1.75,4.6c-1.17,1.52-1.86,2.45-2.06,2.8l-1,.45a7.52,7.52,0,0,0-.18,1.15,2.62,2.62,0,0,1-.64,1.5,7.59,7.59,0,0,0-1.19,2.13,11,11,0,0,1-1.2,2.24v1l-3.51,8.45a9.08,9.08,0,0,1-.71,1.6,1.33,1.33,0,0,1-1.23.71,2.29,2.29,0,0,0,.56.64.85.85,0,0,1,.33.71,2.56,2.56,0,0,1-2.16,2.61,1.83,1.83,0,0,1,.44,1l.38.82L608,397.38v1.27a8,8,0,0,0-1.05,2.09V402A6.42,6.42,0,0,1,606,404l-.67,1.27a9.31,9.31,0,0,0-.45,1.2h-.15l.15,1.57c-.1.1-.4.35-.9.74v1.5a2.58,2.58,0,0,0-.75,2,4.17,4.17,0,0,1-.83,1.86,5,5,0,0,1,.16.75,8.48,8.48,0,0,1-.61,3.25,6.9,6.9,0,0,0-.6,1.9v1.12a1.3,1.3,0,0,1,.45.9,4.36,4.36,0,0,1-.22.86,4.36,4.36,0,0,0-.23,1.31c0,1.49.3,2.24.91,2.24l1.72-.52a2.12,2.12,0,0,0,1.27-1,2.43,2.43,0,0,1,1.24-1.09,1.37,1.37,0,0,0,.94-1.15c0-.53.53-.9,1.45-1.12s2.9-1.86,5.94-4.9l2.32-1.34.6-1.05q.59-.6,2-2.31c.92-1.15,1.65-1.72,2.2-1.72,1.49,0,2.24.82,2.24,2.46a22.61,22.61,0,0,1-.71,2.92,10.72,10.72,0,0,1-1,2.84,7.6,7.6,0,0,1-.89.71,4.16,4.16,0,0,0-1.2,1.68c-2.29,2.24-4,3.51-5.08,3.81a17.46,17.46,0,0,0-1.64,1.38,12.72,12.72,0,0,1-2,1.53,9.49,9.49,0,0,0-1.61,1.19,5.36,5.36,0,0,1-1.94,1.13l-.6.29a1.28,1.28,0,0,0-.45-.14c-.3,0-.63.22-1,.67a3.52,3.52,0,0,1-1.69,1,5,5,0,0,0-1.76.94,1.86,1.86,0,0,1-.94.56l-1.2-.53c-.6.55-1,.83-1.12.83l-.9-.45a1.66,1.66,0,0,0-.82-.45,3.82,3.82,0,0,1-1.24-.67,16.47,16.47,0,0,0-1.54-1.05,5.55,5.55,0,0,1-1.79-2.76l-.6-.75a5.37,5.37,0,0,1-.74-1.57c0-.3,0-.89.15-1.79v-.45a11.87,11.87,0,0,0-.3-2.13,11.89,11.89,0,0,1-.3-2.2l1.79-9.94-.3-1.79a7.39,7.39,0,0,1,.94-3c.62-1.27,1.23-4.09,1.83-8.48q-1.2,3.66-1.8,3.66l-1.12-.15a.61.61,0,0,0-.3.6,5.64,5.64,0,0,0,.3,1.27v1q0,1.43-2.76,2.31a1.35,1.35,0,0,1-.15.45c.54.25.82.5.82.75a3.11,3.11,0,0,1-1.38,2.69,6.93,6.93,0,0,0-1.84,1.68c-.29.47-.57.71-.82.71l-.45-.67h-.15l-.74,1.42a2.09,2.09,0,0,1,.44.74,12.46,12.46,0,0,1-1.53,2.62q-1.53,2.31-1.83,2.31l-2.17,2.1-.3.67V421a1.53,1.53,0,0,1-.3.59l-2.91,4.11-.9,1.72L572.58,432a4.19,4.19,0,0,0-1.65,1.12l-.52.3c0,.79-.65,1.54-1.94,2.24a4.92,4.92,0,0,1-1.87,2.76,8.34,8.34,0,0,0-1.8,1.42l-1.42.9-1.79,1.49-2,.67-.9-.67c-.39,1.15-.74,1.72-1,1.72l-1.72-.3-1.42.3c-1.2,0-2.75-.8-4.67-2.39a24.52,24.52,0,0,1-3.4-3.14l-.9-1.19a2,2,0,0,1-.6-.94,3.92,3.92,0,0,0-1.42-1.53l-.74-1.19v-1a15,15,0,0,1-2-3.4,18.89,18.89,0,0,1-.19-3.48v-.6l.3-1-.15-1.72a11.77,11.77,0,0,1,.71-3.36,17.6,17.6,0,0,0,.71-2.47v-.45l-.22-.44,1-3.14a7.16,7.16,0,0,1,.74-2,6.64,6.64,0,0,0,.45-2.58c.1-1.46.82-2.2,2.17-2.2a1.15,1.15,0,0,1,.45.15.8.8,0,0,0,.6-.9H547c-.4,0-.6-.27-.6-.82a2.68,2.68,0,0,1,.45-1.64,2.82,2.82,0,0,0,.45-1.72,4.17,4.17,0,0,1,1.23-2.73,8.3,8.3,0,0,0,1.23-1.53,7.74,7.74,0,0,1,1.16-3.25,42.58,42.58,0,0,0,1.87-3.85,14.9,14.9,0,0,1,1.68-3.06,10.73,10.73,0,0,0,1.42-2.61,6.43,6.43,0,0,1,1.79-2.54l.82-1.5a23.51,23.51,0,0,1,1.64-2.31,4.39,4.39,0,0,0,.94-2.21,2.22,2.22,0,0,1,1.31-1.83,2,2,0,0,0,1.27-1.3,5,5,0,0,1,.56-1.54,5.34,5.34,0,0,0,.56-1.45,3.86,3.86,0,0,1,.89-1.61,8.9,8.9,0,0,0,1.39-2.73q.63-1.83,1.83-1.83l1.49.15.15-.52a1.52,1.52,0,0,0-.37-.6,1.41,1.41,0,0,1-.38-.89c0-1.45.47-2.17,1.42-2.17.3,0,.65.32,1,1,.35-2.94.56-4.49.63-4.67a1.3,1.3,0,0,0,.11-.56l.15-.75a1.82,1.82,0,0,0,.15-.82,2.55,2.55,0,0,0-.56-1.34c-.37-.55-.68-.82-.93-.82-.05,0-.62.12-1.72.37l-.9-.9c-.49,1.1-1,1.65-1.49,1.65l-1.27-.45a9.7,9.7,0,0,1-3.36,1.64l-1.2-.45h-.15c-.3,0-.61.37-.93,1.09a1.94,1.94,0,0,1-2,1.08h-.75a4.21,4.21,0,0,1-1.87,1.53,4.13,4.13,0,0,0-1.6.94,5.34,5.34,0,0,1-1.46,1,8.33,8.33,0,0,0-2,1.49l-.74.45c-.9.55-1.4,1.08-1.5,1.6a2.77,2.77,0,0,1-.82,1.46c-1.79,1.3-2.69,2.37-2.69,3.21l.15,1.35-.15,1.94q0,.82-1.38,2a4,4,0,0,1-2.27,1.16q-5.38,0-5.38-3.21l.3-2.17-.15-1.72.15-1.49a4.19,4.19,0,0,1,2.05-3.25,27.73,27.73,0,0,0,2.81-2.28l2.91-1.49a6.55,6.55,0,0,0,1.5-1.54c.35-.52,1.45-1.17,3.29-1.94a14.92,14.92,0,0,0,4-2.28,11.53,11.53,0,0,1,3.74-2,30.37,30.37,0,0,0,3.77-1.53,5.71,5.71,0,0,1,1.61-.67l.9.15a7.26,7.26,0,0,0,1.6-.94,3.15,3.15,0,0,1,1.91-.63l9.19-2.09q1.41-.37,5.37,1.64t4,8.89q0,1.43-2.27,6.13a49.52,49.52,0,0,1-5,8.37l-.45,1.12-2,3.51-1.2,2.61c-.55,1-1.12,2.17-1.72,3.51l-1.34,1.8A9,9,0,0,0,570.2,383.86Z" transform="translate(-183.69 -123.02)"/><path class="cls-2" d="M637.79,357.34l-.6-3.67a2,2,0,0,1,.41-1.27,4.69,4.69,0,0,0,.64-1.27,2.39,2.39,0,0,1,.52-.93,13.62,13.62,0,0,0,1.31-2.31,4,4,0,0,1,3.4-2.21,2.8,2.8,0,0,1,2.09-.75c1.19,0,2.63,1.12,4.29,3.37s2.51,3.66,2.51,4.25a4,4,0,0,1-1.72,2.77,6.41,6.41,0,0,1-1.46,4.22,15.2,15.2,0,0,0-1.9,2.69,3.31,3.31,0,0,1-.68,1.08c-.15.1-1.05,1.31-2.72,3.63s-3,3.47-3.92,3.47a13.81,13.81,0,0,1-2.21-.9,7.28,7.28,0,0,1-2-1,5.35,5.35,0,0,1,2.09-3.85,6.77,6.77,0,0,0,2.39-3.92,5.88,5.88,0,0,1-1.42-1.87Z" transform="translate(-183.69 -123.02)"/><path class="cls-2" d="M666.55,441.31l-1-.15a4.84,4.84,0,0,1-2.06.67,8.4,8.4,0,0,0-3.14,1.38,38.61,38.61,0,0,1-4.91,2.5c-1.85.8-2.77,1.32-2.77,1.57a31.38,31.38,0,0,0,7.64-2l5.39-1.5a4.93,4.93,0,0,0,1.46-.6,11.09,11.09,0,0,1,1.61-.82l1.2-.89,1.65-.6c.84-.3,1.27-.6,1.27-.9a.27.27,0,0,0-.3-.3,9.4,9.4,0,0,0-4.27.82A12,12,0,0,1,666.55,441.31Zm26.07-18.68.6-1.5,1.94-2.16a7.79,7.79,0,0,1,2.47-2.92,4.17,4.17,0,0,1,.45-1.12,4.88,4.88,0,0,0,.44-1.64l.68-1.19c.19-.2.29-.35.29-.45a3.11,3.11,0,0,0-.59-.9l-.38-1.57q0-.6-4-4H694l-5.38-2.61-.3-.75-.6-.15-.75.3h-.15l-2.54-.75a29.91,29.91,0,0,1-4-1.27.6.6,0,0,1-.44.15l-3-.67a3.19,3.19,0,0,1-1.53-.63,2.83,2.83,0,0,0-1.27-.68,3.64,3.64,0,0,1-1.31-.63,1.74,1.74,0,0,0-1.2-.3l-1.87.45c0-.15-.69-.4-2.09-.75q-.3-.75-.45-.75l-2.17.3c-1.44-.69-2.19-1-2.24-1A26,26,0,0,1,660,395a9.33,9.33,0,0,1-2.91-.85,8.76,8.76,0,0,0-2-.9l-.45-.45a2,2,0,0,0-.82-.3h-1.34a2.19,2.19,0,0,1-1.23-.74,12.18,12.18,0,0,0-2-1.5,6.46,6.46,0,0,1-2.17-2.35,7.11,7.11,0,0,1-1-3.25.43.43,0,0,1-.15-.3l.45-2.39a15.74,15.74,0,0,1,4.26-8.44,4.51,4.51,0,0,1,2.47-2.92l.3-1a29.78,29.78,0,0,0,3.1-3,8.15,8.15,0,0,1,2.12-1.83,12,12,0,0,0,1.87-1.31l1.36-.6q-.09-.66,3.33-3.17a28.06,28.06,0,0,1,5.31-3.29,22.83,22.83,0,0,0,2.54-1.16,20.11,20.11,0,0,1,3.7-1.12c.49-1.34,1.29-2,2.39-2h1.12l1.49-1.5,2,.15c.1-.1.37-.41.82-.93a2.8,2.8,0,0,1,2.24-.79l9-2.76h.6l.6.15c.39,0,.91-.35,1.53-1.05a3.12,3.12,0,0,1,2.43-1,2.73,2.73,0,0,1,1.12.59.13.13,0,0,0,.15.15l1.94-.59,2.31.15,2.92-.75a8.81,8.81,0,0,1,4.85,1.34l.15-.3v-.44c0-.85.48-1.27,1.42-1.27.4,0,.65.1.75.29l.9.53H718a15.09,15.09,0,0,1,1.94.89,4.25,4.25,0,0,1,1.42-.74,2.59,2.59,0,0,1,2.24,1.19l1.27-.15c.4-.4.65-.59.75-.59.3,0,.7.39,1.2,1.19l.44.15h1.87q.15,0,.6.45l.82.67a5.58,5.58,0,0,1,.82,1,3.2,3.2,0,0,0,.53.67,20,20,0,0,1,2.09-.82c.49,0,.87.43,1.12,1.27a2.73,2.73,0,0,0,1.31,2.06,2.76,2.76,0,0,1,1.3,2.13,2.48,2.48,0,0,1,1.65,2.39l1.42,3.66-.3,1.27a7.6,7.6,0,0,1,.59,1.34l-.29,2.77.29,2.91a4.86,4.86,0,0,1-2.16,4,3.38,3.38,0,0,0-1.46.63,4.88,4.88,0,0,1-1.16.64,2.93,2.93,0,0,1-2.57-.93,5.83,5.83,0,0,0-1.24-1.39,1.4,1.4,0,0,1-.59-1.19q0-1.72,2.31-3.36a1.67,1.67,0,0,0,1.5-.68,2.8,2.8,0,0,0-.68-2.16,11,11,0,0,1-1.45-1.65,8.34,8.34,0,0,0-1.68-1.68,5,5,0,0,1-1.46-1.6c-.37-.65-.71-1-1-1l-1.05.14-2.16-.44a26.73,26.73,0,0,1-6.28-1.57h-1.49l-4-.6a7.77,7.77,0,0,1-3,.45l-4.94.75-2-.15c-.15,0-1.52.42-4.11,1.27l-.75.15h-2a15.49,15.49,0,0,0-1.91.74,20.4,20.4,0,0,1-3,1.05l-.67.3a.61.61,0,0,1-.45.15l-1.2-.15-6.57,3.21-1-.6a8.23,8.23,0,0,0-1.42-.6.93.93,0,0,0-1,1.05l-.15,1.42a7.9,7.9,0,0,0-1.27.9,1.76,1.76,0,0,1-.75.44h-.9a2.4,2.4,0,0,0-1.68.79,2.63,2.63,0,0,1-1.38.86,5.55,5.55,0,0,0-1.72.67c-.1.2-.5.4-1.19.6a2.6,2.6,0,0,0-1.61,1.38c-.37.72-.81,1.08-1.31,1.08l-1.49-.3-.82,1.5c-1.05.25-1.64.4-1.79.45a9.12,9.12,0,0,1-1.95,1.94,23.44,23.44,0,0,0-1.9,1.46,5.26,5.26,0,0,0-1.35,1.6,3,3,0,0,1-1.23,1.31,3.84,3.84,0,0,0-1.42,2l-.75.75a4.42,4.42,0,0,0-1.86,3.36c0,.85.59,1.47,1.79,1.87a8.41,8.41,0,0,1,2.24,1,2.07,2.07,0,0,0,1.35.37,4.21,4.21,0,0,1,1.71.37c.55.25,1.47.65,2.77,1.2.25.8.5,1.19.75,1.19.09,0,.29-.19.59-.59a1.58,1.58,0,0,1,1.35-.6,2.44,2.44,0,0,1,1.86,1.19l.6-.44h.3l1,.3h.15l.9-.45a.59.59,0,0,1,.44-.15,18.88,18.88,0,0,1,2.32.74h.15a7.85,7.85,0,0,0,1.19-.29,4.83,4.83,0,0,1,1.27.44l1.05.6c0,.15.1.23.3.23a2.24,2.24,0,0,0,.89-.34,2.36,2.36,0,0,1,1.12-.34,2,2,0,0,1,1.35.83,8.12,8.12,0,0,1,1.34-.53,5.44,5.44,0,0,1,2.32,1.12l1.42.3H688l2.46.45a8.41,8.41,0,0,0,2.17,1.72.93.93,0,0,1,1-.82,11.22,11.22,0,0,1,3.66,1l.6.15.6.45a10.09,10.09,0,0,1,1.57-.3c1,0,1.49.35,1.49,1a8.08,8.08,0,0,1-.45,2.32q.15,0,.45.3a1.83,1.83,0,0,1,.82-.6l1.2-.67c.19-.2.34-.3.44-.3q1.72,0,4.86,2.39a8.42,8.42,0,0,1,3.58,5.45,4.76,4.76,0,0,0,.6,2.09l-.3,1,.15,1.19a6.27,6.27,0,0,1-.3,1l-.15,1.12a1.55,1.55,0,0,1-.44.52,1.57,1.57,0,0,0-.45.52L712,414v.3c0,.2-.19.48-.56.82a2.52,2.52,0,0,0-.71,1,3.22,3.22,0,0,1-.53.94,2.87,2.87,0,0,0-.52,1.16c-.1.44-.59,1-1.46,1.53s-1.3,1-1.3,1.31.09.44.29.44a3,3,0,0,0,1.91-.86,4.91,4.91,0,0,1,1.53-1,9.87,9.87,0,0,0,1.79-.9l7-3.29q7.83-3.74,8.73-3.73a1.05,1.05,0,0,1,1.19,1.19,3.94,3.94,0,0,1-1,1.72q-.15,3.51-3.06,4.11a6.64,6.64,0,0,0-1.72,1.57H723a5.59,5.59,0,0,1-4.26,2.09h-.45a10.26,10.26,0,0,1-6.72,3.06c-1.74,1.75-3.19,2.62-4.33,2.62l-1.2.3a8.36,8.36,0,0,1-2.61.74q-.15,0-.6.6l-1.12.82a7.42,7.42,0,0,0-3.06,1.65,7.42,7.42,0,0,1-2.5,1.53,8.3,8.3,0,0,0-1.83.63q-1,.45-7.85,5.08l-1,.3a12.27,12.27,0,0,0-3.66,2.21,7.07,7.07,0,0,1-1.79,1.45h-.3q-1.72,0-4,2.24c-.1.25-1.19.66-3.25,1.24a21.86,21.86,0,0,0-5.94,2.65c-1.2.3-2.67.7-4.41,1.19a28.44,28.44,0,0,1-3.81.9l-5.23,1.12q-1.71.3-4,.9a7.46,7.46,0,0,0-2.31-.45l-1.35.15a1.91,1.91,0,0,1-.93-.52,7.51,7.51,0,0,0-1.68-1q-1.05-.5-1.05-2.58,0-1.87,4.11-3.7c2.75-1.22,4.54-2.08,5.39-2.58a2.76,2.76,0,0,1,2.05-1,5.11,5.11,0,0,0,2.51-.89,10.53,10.53,0,0,1,3.21-1.35l3-1.57a.72.72,0,0,1,.37-.15h1.05a3.13,3.13,0,0,0,1.57-.82,7.26,7.26,0,0,1,2.17-1.19h.89c.1,0,.25-.13.45-.38a5.19,5.19,0,0,1,1.35-1l.22-.15h.75a7.31,7.31,0,0,1,1.94-1.12,10.27,10.27,0,0,0,2.17-1.19l5.83-2.24,1.35.15a2,2,0,0,0,1.16-.71,8.47,8.47,0,0,1,3.33-1.46,5.59,5.59,0,0,1,1.56-1.42,25,25,0,0,0,2.85-2.39Z" transform="translate(-183.69 -123.02)"/></svg>