<svg id="Layer_1" data-name="Layer 1" xmlns="http://www.w3.org/2000/svg" xmlns:xlink="http://www.w3.org/1999/xlink" viewBox="0 0 233.04 171.13"><defs><style>.cls-1{fill:#cd202a;}.cls-2{fill:#00a651;}.cls-3{stroke:#0d0d0d;stroke-width:0.25px;fill:url(#linear-gradient);}.cls-3,.cls-4{stroke-miterlimit:10;}.cls-4,.cls-6{fill:#231f20;}.cls-4{stroke:#000;}.cls-5{fill:#f7f7f7;}.cls-7{fill:#018c45;}.cls-8{fill:#dc1e3d;}.cls-9{font-size:12px;fill:#22408c;font-family:LetterGothicStd, Letter Gothic Std;letter-spacing:-0.1em;}.cls-10{letter-spacing:-0.15em;}.cls-11{letter-spacing:-0.2em;}.cls-12{letter-spacing:-0.17em;}.cls-13{letter-spacing:-0.2em;}.cls-14{letter-spacing:-0.13em;}.cls-15{letter-spacing:-0.15em;}.cls-16{letter-spacing:-0.1em;}</style><linearGradient id="linear-gradient" x1="119.85" y1="68.44" x2="203.35" y2="68.44" gradientUnits="userSpaceOnUse"><stop offset="0" stop-color="#fff"/><stop offset="0.29" stop-color="#f4f5f0"/></linearGradient></defs><path class="cls-1" d="M60.48,38.91C45.16,44.56,34.65,57,34.35,69.87c-.46,19.56,22.76,33.39,41.75,33.39,23.05,0,41.74-15,41.74-33.39,0-13.85-10.54-25.73-25.55-30.79,1.07,1.18,7.62,5,9.21,12.14.63,4.32-.3,2.79-.3,2.79S89.47,41,84.67,42.71c-1.51.55-3.16,3-3,12,0,1-.13,2.46-.7,2.61-1.77.45-4.31-13-9.91-13.91-2-.35-5.43.82-10.78,9.21-1,1.11-1.66,1.57-2.09,1.39Q56.52,53.31,60.48,38.91Z"/><path class="cls-2" d="M45.62,37.47a14.26,14.26,0,0,0,3.32,1.75,5.24,5.24,0,0,0,3.64-.12c2.33-.92,4.46-2.32,6.78-3.35a11.85,11.85,0,0,1,3.7-1A15.92,15.92,0,0,1,66.9,35,20.69,20.69,0,0,1,74,37.76l-.46.15a20.07,20.07,0,0,0,.93-8.68,7.22,7.22,0,0,0-1.69-3.85,7.18,7.18,0,0,1-1.34-1.95,2.27,2.27,0,0,1-.17-.67,1.07,1.07,0,0,1,.25-.83,1.15,1.15,0,0,1,.77-.35,1.94,1.94,0,0,1,.69.05,7.13,7.13,0,0,1,3.77,2.82,9.14,9.14,0,0,1,1.59,4.39,28.6,28.6,0,0,1-.57,9.09l-.86-.46A15,15,0,0,1,82,34a8.3,8.3,0,0,1,6.14-.17c1,.37,1.83.86,2.75,1.27a9.93,9.93,0,0,0,2.74,1,5.91,5.91,0,0,0,2.82-.54c.93-.36,1.85-.75,2.78-1.13l0,.09c-.9.44-1.8.88-2.71,1.3a6.16,6.16,0,0,1-3,.75,10.28,10.28,0,0,1-2.94-.91c-.92-.37-1.85-.84-2.75-1.14a7.6,7.6,0,0,0-5.56.32,14.78,14.78,0,0,0-4.71,3.31l-1.21,1.22.35-1.68a33.36,33.36,0,0,0,.59-4.36,23.61,23.61,0,0,0,0-4.37A8.47,8.47,0,0,0,76,25a6.41,6.41,0,0,0-3.21-2.53c-1.47-.5-.31,1.46.57,2.4a8.07,8.07,0,0,1,1.83,4.26,17,17,0,0,1,0,4.56,24.14,24.14,0,0,1-1,4.43l-.12.36-.33-.21a20.42,20.42,0,0,0-6.86-2.81,16,16,0,0,0-3.71-.25,11.68,11.68,0,0,0-3.59.89c-2.31,1-4.46,2.34-6.85,3.23a5.49,5.49,0,0,1-3.77.06,14.77,14.77,0,0,1-3.33-1.83Z"/><path class="cls-3" d="M177.8,39.63c15,5.06,25.55,16.93,25.55,30.78,0,18.45-18.69,33.4-41.74,33.4-19,0-42.21-13.83-41.75-33.4.3-12.89,10.81-25.31,26.13-31,0,0,8.67-2.07,10.63-2.05s1.79-3.64,1.79-3.64.52,4.35,2.09,2.26,1.1-3,1.1-3,1.16,5.39,1.68,2.78S165,33.07,165,33.07s-.52,4.31,1.22,4.33c.68,0,1.48,0,2.48.1a33.68,33.68,0,0,1,6.21,1.31c1.06.29,2.87.82,2.87.82Z"/><ellipse class="cls-4" cx="161.89" cy="39.42" rx="2.43" ry="0.96"/><path class="cls-5" d="M138.4,50.11c-3.73,7.1-5.31,13.61-3.52,14.55"/><path class="cls-6" d="M138.42,50.12a55.92,55.92,0,0,0-2.94,7.19,35,35,0,0,0-.93,3.73,11.09,11.09,0,0,0-.23,1.89,2.12,2.12,0,0,0,.57,1.71l0,0A2.07,2.07,0,0,1,134,63a9.42,9.42,0,0,1,.09-2,18.89,18.89,0,0,1,1-3.78,47.87,47.87,0,0,1,3.28-7.08Z"/><path class="cls-5" d="M145.16,55.15c-2.83,7.5-3.6,14.15-1.71,14.87"/><path class="cls-6" d="M145.18,55.16a54.42,54.42,0,0,0-2,7.48,36.06,36.06,0,0,0-.47,3.83,11,11,0,0,0,0,1.9,2.1,2.1,0,0,0,.77,1.62l0,.05a2.11,2.11,0,0,1-1.1-1.61,9.45,9.45,0,0,1-.16-2,19.65,19.65,0,0,1,.58-3.89,48.2,48.2,0,0,1,2.38-7.42Z"/><path class="cls-5" d="M176.65,53.17c3.85,7,4.67,14,1.83,15.55"/><path class="cls-6" d="M176.67,53.16a30.71,30.71,0,0,1,3.23,7.73,13.19,13.19,0,0,1,.5,4.2,6.3,6.3,0,0,1-.48,2.09,3,3,0,0,1-1.43,1.56l0,0a4.49,4.49,0,0,0,1.45-3.64,18.22,18.22,0,0,0-.4-4.08,32.83,32.83,0,0,0-2.88-7.8Z"/><path class="cls-5" d="M182.06,46.37c5.52,5.83,8.08,12.34,5.73,14.57"/><path class="cls-6" d="M182.08,46.36A30.34,30.34,0,0,1,187.17,53a13.68,13.68,0,0,1,1.56,3.93,6.74,6.74,0,0,1,.06,2.15,3,3,0,0,1-1,1.87l0,0a4.49,4.49,0,0,0,.47-3.88,17.79,17.79,0,0,0-1.43-3.86,32.93,32.93,0,0,0-4.77-6.8Z"/><path class="cls-5" d="M157.82,60.22c-2.84,7.5-3.61,14.15-1.72,14.86"/><path class="cls-6" d="M157.84,60.22a55,55,0,0,0-2,7.49,33.07,33.07,0,0,0-.46,3.83,10.05,10.05,0,0,0,0,1.9,2.1,2.1,0,0,0,.77,1.62l0,0A2.08,2.08,0,0,1,155,73.5a8.87,8.87,0,0,1-.16-2,18.83,18.83,0,0,1,.57-3.89,47.51,47.51,0,0,1,2.38-7.42Z"/><path class="cls-5" d="M167.72,58.79c3.85,7,4.67,14,1.83,15.55"/><path class="cls-6" d="M167.74,58.78A30.71,30.71,0,0,1,171,66.51a13.48,13.48,0,0,1,.51,4.2,6.63,6.63,0,0,1-.49,2.1,3,3,0,0,1-1.43,1.55l0,0A4.49,4.49,0,0,0,171,70.69a17.68,17.68,0,0,0-.4-4.09,32.83,32.83,0,0,0-2.88-7.8Z"/><path d="M141.28,19.8a11.13,11.13,0,0,1,2.5,1,4.87,4.87,0,0,1,1.09.85,1.85,1.85,0,0,1,.5,1.39,3.24,3.24,0,0,1-.63,1.29,6.4,6.4,0,0,0-.59,1.13,4.23,4.23,0,0,0-.24,2.4,2.65,2.65,0,0,0,1.35,1.75,6.7,6.7,0,0,1,2.24,1.72,4.2,4.2,0,0,1,1,2.7,3.87,3.87,0,0,1-1.07,2.55l-.08-.06a4.39,4.39,0,0,0,.45-2.45A4,4,0,0,0,146.74,32a7.92,7.92,0,0,0-2-1.51A3.53,3.53,0,0,1,143.13,28a5,5,0,0,1,.42-2.81,6.94,6.94,0,0,1,.72-1.2,2.82,2.82,0,0,0,.61-1c.13-.74-.56-1.44-1.26-1.91a11.32,11.32,0,0,0-2.37-1.16Z"/><path d="M151.72,10.93a10.87,10.87,0,0,1,2.11,1.66,4.79,4.79,0,0,1,.81,1.12,1.85,1.85,0,0,1,.09,1.48,3.34,3.34,0,0,1-1,1.06,5.82,5.82,0,0,0-.88.91,4.16,4.16,0,0,0-.91,2.23,2.64,2.64,0,0,0,.8,2.07,6.71,6.71,0,0,1,1.66,2.27,4.27,4.27,0,0,1,.22,2.88,3.93,3.93,0,0,1-1.75,2.15l-.06-.08A4.53,4.53,0,0,0,154,26.45a4,4,0,0,0-.45-2.3,8,8,0,0,0-1.47-2,3.54,3.54,0,0,1-.88-2.82,4.85,4.85,0,0,1,1.21-2.57,6.09,6.09,0,0,1,1-.95,2.93,2.93,0,0,0,.88-.82c.33-.67-.14-1.54-.67-2.19A10.94,10.94,0,0,0,151.67,11Z"/><path d="M174.8,18a10.59,10.59,0,0,1,2.08,1.7,4.55,4.55,0,0,1,.79,1.14,1.89,1.89,0,0,1,.06,1.48,3.33,3.33,0,0,1-1,1,5.76,5.76,0,0,0-.89.89,4.17,4.17,0,0,0-1,2.22,2.6,2.6,0,0,0,.76,2.07,6.81,6.81,0,0,1,1.61,2.31,4.22,4.22,0,0,1,.15,2.89,3.87,3.87,0,0,1-1.79,2.11l-.06-.08a4.37,4.37,0,0,0,1.18-2.2,4,4,0,0,0-.4-2.32,8.07,8.07,0,0,0-1.42-2,3.47,3.47,0,0,1-.82-2.83,4.81,4.81,0,0,1,1.25-2.55,7,7,0,0,1,1-.93,2.86,2.86,0,0,0,.9-.8c.35-.67-.1-1.54-.63-2.2a10.58,10.58,0,0,0-1.9-1.82Z"/><path d="M162.51,11.89a10.87,10.87,0,0,1,2.11,1.66,4.39,4.39,0,0,1,.81,1.13,1.83,1.83,0,0,1,.09,1.47,3.14,3.14,0,0,1-1,1.06,5.82,5.82,0,0,0-.88.91,4.19,4.19,0,0,0-.91,2.24,2.63,2.63,0,0,0,.8,2.06,6.75,6.75,0,0,1,1.66,2.28,4.26,4.26,0,0,1,.22,2.88,3.86,3.86,0,0,1-1.75,2.14l-.06-.07a4.48,4.48,0,0,0,1.13-2.23,4,4,0,0,0-.45-2.31,7.69,7.69,0,0,0-1.47-2,3.52,3.52,0,0,1-.87-2.82,4.83,4.83,0,0,1,1.2-2.58,7,7,0,0,1,1-.95,2.81,2.81,0,0,0,.88-.82c.34-.67-.13-1.54-.67-2.19A10.89,10.89,0,0,0,162.46,12Z"/><path class="cls-7" d="M37.4,135.21a2.32,2.32,0,0,1-1,.22,3.5,3.5,0,0,1-1.37-.3,4.48,4.48,0,0,1-1.27-.8,4,4,0,0,1-.91-1.21,3.35,3.35,0,0,1-.35-1.54,20,20,0,0,1,.27-3.24c.18-1.1.37-2.18.55-3.25.37-2,.73-4,1.1-6s.7-3.75,1-5.37.53-3,.72-4.09.29-1.85.33-2.18a4.67,4.67,0,0,1,.3-1.62c.16-.38.67-.59,1.51-.63.29,0,.44.59.44,1.65a25.27,25.27,0,0,1-.25,3.16c-.16,1.3-.4,2.75-.71,4.35s-.67,3.3-1.07,5.11-.83,3.64-1.27,5.47c-.26,1.18-.52,2.37-.8,3.58a15.74,15.74,0,0,0-.41,3.41,1.9,1.9,0,0,0,.83,1.54,3.08,3.08,0,0,0,1.65.44,5.16,5.16,0,0,0,2.09-.44,12.88,12.88,0,0,0,2.2-1.1c.62-.41,1.15-.78,1.59-1.13s.78-.63,1-.85.39-.33.47-.33a.37.37,0,0,1,0,.22,2.33,2.33,0,0,1-.77,1.43,7,7,0,0,0-.66.58,13.48,13.48,0,0,1-2.86,2A12.27,12.27,0,0,1,37.4,135.21Z"/><path class="cls-7" d="M57,131.09a5.68,5.68,0,0,1-.85.77,2.56,2.56,0,0,1-1.62.55,2,2,0,0,1-1.52-.66,4,4,0,0,1-.9-1.43,8.42,8.42,0,0,1-1.87,1.43,5.83,5.83,0,0,1-3,.71,4,4,0,0,1-1.93-.44A4.53,4.53,0,0,1,44,130.9a4.7,4.7,0,0,1-.88-1.6,6,6,0,0,1-.3-1.9,11.76,11.76,0,0,1,.52-3.43,11.3,11.3,0,0,1,1.51-3.17,8.24,8.24,0,0,1,2.45-2.33,6.12,6.12,0,0,1,3.33-.91,5.68,5.68,0,0,1,2,.3,5.15,5.15,0,0,1,1,.47,1.46,1.46,0,0,1,.19-.8q.19-.3,1.08-.3a1.21,1.21,0,0,1,.74.16c.13.11.19.43.19.94a6.5,6.5,0,0,1-.27,1.65c-.19.66-.39,1.39-.61,2.2s-.44,1.68-.66,2.61a18.31,18.31,0,0,0-.44,2.89,3.25,3.25,0,0,1,0,.44,3.24,3.24,0,0,0,0,.44A5.12,5.12,0,0,0,54,130.1c.14.48.36.73.66.77a1.92,1.92,0,0,0,1.48-.44,8,8,0,0,0,1.29-1.24q.59-.69,1-1.26c.29-.39.55-.58.77-.58s.13.05.17.16a1.19,1.19,0,0,1,.05.28,1.24,1.24,0,0,1-.27.55v-.06c-.11.15-.33.47-.66,1A17.47,17.47,0,0,1,57,131.09Zm-5.22-3.19a16.54,16.54,0,0,1,.27-4.13,12.08,12.08,0,0,1,1.05-3.24,5.6,5.6,0,0,0-1.08-.39A5.74,5.74,0,0,0,50.6,120a3.93,3.93,0,0,0-2.34.77,8.06,8.06,0,0,0-1.9,1.92,9.78,9.78,0,0,0-1.29,2.51,7.72,7.72,0,0,0-.47,2.5,3.09,3.09,0,0,0,1,2.42A3.44,3.44,0,0,0,48,131a4.39,4.39,0,0,0,2.2-.63,6.78,6.78,0,0,0,1.65-1.24,3.48,3.48,0,0,1,0-.63Z"/><path class="cls-8" d="M69.4,127.84a2.12,2.12,0,0,1-1-1,2.62,2.62,0,0,1-.28-1.18,2.83,2.83,0,0,1,.47-1.62,1.35,1.35,0,0,1,1.12-.69,1.4,1.4,0,0,1,.83.33c.22-1.65.45-3.36.69-5.14s.46-3.45.66-5,.38-2.89.55-4,.26-1.83.3-2.12a4.08,4.08,0,0,1,.27-1c.11-.24.52-.36,1.22-.36a.77.77,0,0,1,.52.25,2.31,2.31,0,0,1,.24,1.35,23.39,23.39,0,0,1-.27,3.13c-.18,1.29-.41,2.7-.69,4.24s-.59,3.13-.93,4.78-.69,3.21-1,4.68q3.86-3.85,6.57-6.6c1.82-1.83,3.31-3.33,4.48-4.48s2.1-2,2.75-2.53a3.07,3.07,0,0,1,1.38-.8,3.51,3.51,0,0,1,.58.22.74.74,0,0,1,.52.71A6.32,6.32,0,0,1,87,112.8q-1.36,1.52-3.6,3.74t-5,4.84q-2.74,2.61-5.55,5c.73.85,1.64,1.8,2.72,2.86a19.76,19.76,0,0,0,3.71,2.86,16.21,16.21,0,0,0,2.54,1.41,18.78,18.78,0,0,0,2.52.9,16.92,16.92,0,0,0,2.26.47,14.26,14.26,0,0,0,1.76.14,4.21,4.21,0,0,0,1.24-.11,1.42,1.42,0,0,1,.63-.11,1.66,1.66,0,0,1,.71.3c.34.2.5.63.5,1.29,0,.26-.31.48-.94.66a8.69,8.69,0,0,1-2.47.28,17.72,17.72,0,0,1-4.65-.72A12.86,12.86,0,0,1,78.48,134a22.1,22.1,0,0,1-3.88-3.43,32.16,32.16,0,0,1-2.67-3.44.49.49,0,0,1-.24.14,1,1,0,0,0-.31.13c-.36,1.47-.67,2.66-.9,3.58a6.65,6.65,0,0,1-.42,1.37c-.29,0-.43-.42-.43-1.15v.05c0-.18,0-.58.1-1.21s.17-1.37.28-2.25A2.15,2.15,0,0,1,69.4,127.84Zm.44-3.13q-.21,0-.21.33a2.5,2.5,0,0,0,.13.71,3.3,3.3,0,0,0,.2.55.53.53,0,0,0,.32-.49,3.68,3.68,0,0,1,.06-.66C70.12,124.86,70,124.71,69.84,124.71Z"/><path class="cls-8" d="M95.8,131.09a5.18,5.18,0,0,1-.85.77,2.56,2.56,0,0,1-1.62.55,2,2,0,0,1-1.51-.66,4,4,0,0,1-.91-1.43A8.19,8.19,0,0,1,89,131.75a5.83,5.83,0,0,1-3,.71,4,4,0,0,1-1.93-.44,4.65,4.65,0,0,1-1.4-1.12,4.87,4.87,0,0,1-.88-1.6,6,6,0,0,1-.3-1.9,11.76,11.76,0,0,1,.52-3.43,11.3,11.3,0,0,1,1.51-3.17A8.24,8.24,0,0,1,86,118.47a6.12,6.12,0,0,1,3.33-.91,5.78,5.78,0,0,1,2,.3,4.68,4.68,0,0,1,1,.47,1.46,1.46,0,0,1,.2-.8c.13-.2.48-.3,1.07-.3a1.19,1.19,0,0,1,.74.16c.13.11.19.43.19.94a6.5,6.5,0,0,1-.27,1.65c-.18.66-.39,1.39-.61,2.2s-.44,1.68-.66,2.61a19.54,19.54,0,0,0-.43,2.89,3.25,3.25,0,0,1,0,.44,3.25,3.25,0,0,0,0,.44,5.12,5.12,0,0,0,.22,1.54c.15.48.37.73.66.77a1.91,1.91,0,0,0,1.48-.44,8.48,8.48,0,0,0,1.3-1.24l1-1.26c.29-.39.55-.58.76-.58s.13.05.17.16a.83.83,0,0,1,0,.28,1.24,1.24,0,0,1-.27.55v-.06c-.11.15-.33.47-.66,1A17.47,17.47,0,0,1,95.8,131.09Zm-5.22-3.19a17.55,17.55,0,0,1,.27-4.13,12.08,12.08,0,0,1,1.05-3.24,5.25,5.25,0,0,0-1.07-.39,5.82,5.82,0,0,0-1.46-.16,4,4,0,0,0-2.34.77,8.25,8.25,0,0,0-1.9,1.92,10.11,10.11,0,0,0-1.29,2.51,7.69,7.69,0,0,0-.46,2.5,3.08,3.08,0,0,0,1,2.42,3.48,3.48,0,0,0,2.37.93,4.42,4.42,0,0,0,2.2-.63,6.51,6.51,0,0,0,1.64-1.24,4.7,4.7,0,0,1,0-.63Z"/><path class="cls-8" d="M104.49,127.46a.41.41,0,0,1,.11.33,2.89,2.89,0,0,1-.38,1.21,8.49,8.49,0,0,1-2.23,2.75,2.12,2.12,0,0,1-1.24.55,2.73,2.73,0,0,1-.66,0,2.38,2.38,0,0,1-1.37-.38,3,3,0,0,1-.88-1,4.28,4.28,0,0,1-.47-1.21,5.74,5.74,0,0,1-.14-1.19,24.86,24.86,0,0,1,.25-3.35c.17-1.17.37-2.34.61-3.49s.49-2.28.77-3.36.5-2.08.68-3l-4.67,0-4.48,0H84.91a2.92,2.92,0,0,1-1.07-.17c-.27-.11-.41-.6-.41-1.48q0-.43,1.26-.63A22.52,22.52,0,0,1,88,113c1.69,0,3.61.08,5.75.22s4.21.32,6.19.5c.22-1,.37-1.86.47-2.5a9.84,9.84,0,0,1,.3-1.49,1.2,1.2,0,0,1,.47-.71,1.81,1.81,0,0,1,1-.2.76.76,0,0,1,.6.2,1.72,1.72,0,0,1,.17,1,12.87,12.87,0,0,1-.14,1.7c-.09.66-.23,1.42-.41,2.26,1.65.18,3,.34,4.07.47a4.56,4.56,0,0,1,1.59.3.48.48,0,0,1-.13.36,1.43,1.43,0,0,1-.72.19c-.38,0-1,.06-1.79.08s-1.92,0-3.35,0c-.62,2-1.18,4.23-1.68,6.65s-.94,4.7-1.35,6.82a2.14,2.14,0,0,0,.17,1.49,1.31,1.31,0,0,0,.93.66,2,2,0,0,0,1.74-.52,8.37,8.37,0,0,0,1.26-1.49c.35-.53.63-1,.85-1.35S104.35,127.2,104.49,127.46Z"/><path class="cls-8" d="M119.67,128.45a14.58,14.58,0,0,1-1.43,2,9,9,0,0,1-1.54,1.38,3.06,3.06,0,0,1-1.81.63,2.51,2.51,0,0,1-2.5-1.57,4.82,4.82,0,0,1-.39-1.48,5.41,5.41,0,0,1,0-1.46,23.93,23.93,0,0,1,.58-3.47c.27-1.13.53-2.16.77-3.08s.43-1.65.57-2.2.15-.82,0-.82a14.33,14.33,0,0,0-4.59,2.56,12.19,12.19,0,0,0-3.16,4q-.89,3.19-1.51,5.34a9.24,9.24,0,0,1-.75,2.14c-.25,0-.38-.27-.38-.71a2.57,2.57,0,0,1,0-.5c0-.33.16-1.12.36-2.39s.46-2.77.77-4.51.65-3.61,1-5.61.7-3.87,1-5.61.58-3.25.82-4.54.39-2.09.47-2.42a3.16,3.16,0,0,1,.3-1.1c.13-.22.54-.33,1.24-.33a.69.69,0,0,1,.49.22,1.62,1.62,0,0,1,.22,1.05,18,18,0,0,1-.3,2.83c-.2,1.19-.46,2.51-.77,4s-.67,3-1.07,4.59-.81,3.19-1.21,4.73a17.06,17.06,0,0,1,3.57-3.24,12.51,12.51,0,0,1,4.29-2,1.29,1.29,0,0,1,1.08.11c.23.18.32.64.24,1.37a26.69,26.69,0,0,1-.77,4.1q-.66,2.67-1.26,5.42a3.54,3.54,0,0,0-.08.49,3.84,3.84,0,0,0,0,.5,4.69,4.69,0,0,0,.22,1.46c.14.46.38.68.71.68a2.69,2.69,0,0,0,1.16-.49,10.44,10.44,0,0,0,1.1-.83L119,128a2.92,2.92,0,0,1,.77-.58.53.53,0,0,1,.17.38A1.16,1.16,0,0,1,119.67,128.45Z"/><path class="cls-8" d="M130.12,123.55c-.29,1-.59,1.9-.91,2.84s-.61,1.8-.9,2.61-.53,1.49-.72,2.06a4.76,4.76,0,0,0-.27,1.18c0,.08,0,.11.05.11a.57.57,0,0,1-.57-.27,2.68,2.68,0,0,1-.14-1.1,17.44,17.44,0,0,1,.3-2.75q.3-1.75.69-3.6c.25-1.23.49-2.38.71-3.44a20.74,20.74,0,0,0,.39-2.37,13.53,13.53,0,0,0-3.71,1.93,10,10,0,0,0-2.78,3c-.3.92-.6,1.85-.91,2.78s-.6,1.79-.88,2.56-.5,1.44-.69,2a4.91,4.91,0,0,0-.27,1.12c0,.08,0,.11,0,.11a.62.62,0,0,1-.49-.27,1.86,1.86,0,0,1-.22-1.1,18.31,18.31,0,0,1,.33-2.94c.22-1.27.46-2.56.74-3.88s.52-2.52.74-3.6a13.58,13.58,0,0,0,.33-2.23,2.63,2.63,0,0,0,0-.41.37.37,0,0,1,.12-.33,1.14,1.14,0,0,1,.46-.25,5.15,5.15,0,0,1,1-.17c.47.11.71.63.71,1.54a7.19,7.19,0,0,1-.11,1.24c-.07.46-.16,1-.27,1.46a13.14,13.14,0,0,1,3.35-2.64,9.39,9.39,0,0,1,4.13-1.27c.47.11.71.59.71,1.43A5.35,5.35,0,0,1,131,120c-.07.38-.14.79-.22,1.23a8.66,8.66,0,0,1,1.38-1.29c.55-.42,1.13-.81,1.73-1.18a10,10,0,0,1,1.84-.88,5.48,5.48,0,0,1,1.82-.33,2,2,0,0,1,.74.11c.17.07.25.37.25.88a9.07,9.07,0,0,1-.22,1.7c-.15.7-.32,1.47-.52,2.31s-.43,1.73-.67,2.64l-.68,2.7a3.3,3.3,0,0,0-.08.71,4.7,4.7,0,0,0,0,1,2.84,2.84,0,0,0,.28.88.61.61,0,0,0,.57.39,3.48,3.48,0,0,0,2.18-.85,15.3,15.3,0,0,0,2.39-2.56.52.52,0,0,1,.16.38,1.21,1.21,0,0,1-.27.61,12,12,0,0,1-1.27,2,8.17,8.17,0,0,1-1.43,1.38,2.84,2.84,0,0,1-1.76.63,2.69,2.69,0,0,1-1.68-.5,3,3,0,0,1-.93-1.18,4.43,4.43,0,0,1-.36-1.43,4.35,4.35,0,0,1,.06-1.24,30.16,30.16,0,0,1,.47-3.21c.2-1,.4-1.93.6-2.75s.38-1.53.55-2.12a10.76,10.76,0,0,0,.3-1.27,14,14,0,0,0-3.49,2A11,11,0,0,0,130.12,123.55Z"/><path class="cls-8" d="M155.81,131.09a6,6,0,0,1-.86.77,2.52,2.52,0,0,1-1.62.55,2,2,0,0,1-1.51-.66,4,4,0,0,1-.91-1.43,8.19,8.19,0,0,1-1.87,1.43,5.78,5.78,0,0,1-3,.71,3.94,3.94,0,0,1-1.92-.44,4.69,4.69,0,0,1-1.41-1.12,5.06,5.06,0,0,1-.88-1.6,6,6,0,0,1-.3-1.9,12.1,12.1,0,0,1,.52-3.43,11.32,11.32,0,0,1,1.52-3.17,8.21,8.21,0,0,1,2.44-2.33,6.17,6.17,0,0,1,3.33-.91,5.78,5.78,0,0,1,2,.3,5.15,5.15,0,0,1,1,.47,1.46,1.46,0,0,1,.19-.8c.13-.2.49-.3,1.07-.3a1.17,1.17,0,0,1,.74.16c.13.11.2.43.2.94a6.58,6.58,0,0,1-.28,1.65l-.6,2.2q-.33,1.21-.66,2.61a18.31,18.31,0,0,0-.44,2.89,3.25,3.25,0,0,1,0,.44,3.25,3.25,0,0,0,0,.44,5.12,5.12,0,0,0,.22,1.54c.15.48.37.73.66.77a1.94,1.94,0,0,0,1.49-.44,8.89,8.89,0,0,0,1.29-1.24l1-1.26c.29-.39.55-.58.77-.58s.12.05.16.16a.88.88,0,0,1,.06.28,1.3,1.3,0,0,1-.28.55v-.06c-.11.15-.33.47-.66,1A17.16,17.16,0,0,1,155.81,131.09Zm-5.23-3.19a17,17,0,0,1,.28-4.13,11.75,11.75,0,0,1,1-3.24,5.25,5.25,0,0,0-1.07-.39,5.82,5.82,0,0,0-1.46-.16,4,4,0,0,0-2.34.77,8.21,8.21,0,0,0-1.89,1.92,10.14,10.14,0,0,0-1.3,2.51,7.69,7.69,0,0,0-.46,2.5,3.08,3.08,0,0,0,1,2.42,3.48,3.48,0,0,0,2.37.93,4.42,4.42,0,0,0,2.2-.63,6.78,6.78,0,0,0,1.65-1.24,3.52,3.52,0,0,1-.06-.63Z"/><path class="cls-8" d="M173.46,127.46a.53.53,0,0,1,.17.38,1.25,1.25,0,0,1-.28.61,14.58,14.58,0,0,1-1.43,2,9.53,9.53,0,0,1-1.51,1.38,3,3,0,0,1-1.79.63,2.4,2.4,0,0,1-1.62-.5,3.13,3.13,0,0,1-.88-1.21,4.63,4.63,0,0,1-.36-1.43c0-.47,0-.88,0-1.21a30.72,30.72,0,0,1,.49-3.41c.22-1.06.43-2,.63-2.86s.39-1.54.55-2.11a5.08,5.08,0,0,0,.25-1.13.89.89,0,0,0-.38.11,12.06,12.06,0,0,0-6.71,5c-.3.92-.61,1.84-.94,2.75l-.91,2.56c-.27.79-.5,1.47-.68,2a4.47,4.47,0,0,0-.28,1.18c0,.11,0,.16.06.16a.62.62,0,0,1-.5-.3,1.88,1.88,0,0,1-.22-1.07,18.31,18.31,0,0,1,.33-2.94c.22-1.27.47-2.56.74-3.88s.53-2.52.77-3.6a12.52,12.52,0,0,0,.36-2.23,2.63,2.63,0,0,0,0-.41.37.37,0,0,1,.11-.33,1.19,1.19,0,0,1,.47-.25,5.15,5.15,0,0,1,1.05-.17c.47.11.71.61.71,1.49a8.35,8.35,0,0,1-.11,1.24c-.07.46-.16.94-.27,1.45a12.94,12.94,0,0,1,3.65-2.72,9.32,9.32,0,0,1,4.21-1.07.91.91,0,0,1,.52.16c.17.11.25.39.25.83a9.51,9.51,0,0,1-.19,1.7c-.13.7-.3,1.47-.5,2.31s-.42,1.73-.66,2.64-.46,1.82-.68,2.7c0,.18-.07.35-.09.49a3.94,3.94,0,0,0,0,.5,3.75,3.75,0,0,0,.22,1.35.84.84,0,0,0,.66.63,2.73,2.73,0,0,0,1.81-.41,8.75,8.75,0,0,0,1.49-1.19,11.78,11.78,0,0,0,1.07-1.21A3.16,3.16,0,0,1,173.46,127.46Z"/><path class="cls-8" d="M189.52,127.73a2.85,2.85,0,0,1-.41,1.21,7.29,7.29,0,0,1-1.13,1.54,7.43,7.43,0,0,1-1.68,1.35,3.79,3.79,0,0,1-2,.58,3.56,3.56,0,0,1-1.08-.61,1.76,1.76,0,0,1-.52-1.32,6.28,6.28,0,0,1-1.87,1.24,7,7,0,0,1-2.91.52,4.45,4.45,0,0,1-3.61-1.54,5.45,5.45,0,0,1-1.29-3.63,10.14,10.14,0,0,1,.61-3.46,10.91,10.91,0,0,1,1.67-3.08,8.4,8.4,0,0,1,2.56-2.2,6.58,6.58,0,0,1,3.25-.83,6.36,6.36,0,0,1,1.87.25,6.64,6.64,0,0,1,1.15.47q.88-4.45,1.35-7.15c.31-1.8.58-3.17.82-4.13a5,5,0,0,1,.75-1.87,1.31,1.31,0,0,1,1-.44.66.66,0,0,1,.58.22,2.26,2.26,0,0,1,.14,1,18,18,0,0,1-.28,2.67c-.18,1.12-.43,2.38-.74,3.77s-.66,2.89-1,4.48-.78,3.2-1.18,4.81c-.33,1.25-.69,2.55-1.07,3.91a12.88,12.88,0,0,0-.58,3.46,3.78,3.78,0,0,0,.3,1.52,1,1,0,0,0,.91.68,1.88,1.88,0,0,0,1.18-.52,11.88,11.88,0,0,0,1.21-1.15c.39-.42.75-.84,1.08-1.24a3.58,3.58,0,0,1,.77-.77c.07,0,.11,0,.13.05A.89.89,0,0,1,189.52,127.73Zm-7.48.17a29,29,0,0,1,.58-4.15c.27-1.27.52-2.34.74-3.22a5.25,5.25,0,0,0-1.07-.39,5.82,5.82,0,0,0-1.46-.16,4,4,0,0,0-2.34.77,8.21,8.21,0,0,0-1.89,1.92,9.81,9.81,0,0,0-1.3,2.51,7.69,7.69,0,0,0-.46,2.5,3.08,3.08,0,0,0,1,2.42,3.48,3.48,0,0,0,2.37.93,4.42,4.42,0,0,0,2.2-.63,6.78,6.78,0,0,0,1.65-1.24,3.52,3.52,0,0,1-.06-.63Z"/><path class="cls-8" d="M205.09,127.46a.52.52,0,0,1,.16.38,1.16,1.16,0,0,1-.28.61,14.62,14.62,0,0,1-1.42,2,9,9,0,0,1-1.55,1.38,3.12,3.12,0,0,1-1.87.63,2,2,0,0,1-1.15-.33,3.36,3.36,0,0,1-.82-.77,3.46,3.46,0,0,1-.53-1,4.48,4.48,0,0,1-.25-1l-.76.8a7.92,7.92,0,0,1-1.21,1,9.29,9.29,0,0,1-1.63.88,5,5,0,0,1-2,.38,2.19,2.19,0,0,1-1.32-.38,4.07,4.07,0,0,1-.94-.91,3.77,3.77,0,0,1-.58-1.15,3.86,3.86,0,0,1-.19-1.13,30.79,30.79,0,0,1,.33-3.74c.18-1.17.38-2.22.6-3.14s.43-1.68.61-2.31a5.87,5.87,0,0,0,.28-1.26,1.72,1.72,0,0,1,.19-.88c.13-.22.5-.33,1.12-.33a1.09,1.09,0,0,1,.69.16c.13.11.19.41.19.88a10.62,10.62,0,0,1-.21,1.9c-.15.75-.33,1.59-.53,2.5s-.42,1.87-.66,2.86-.43,2-.57,3a3.59,3.59,0,0,0-.06.72,1.35,1.35,0,0,0,.44,1.15,1.78,1.78,0,0,0,1.1.33,4.07,4.07,0,0,0,1.4-.27,9.27,9.27,0,0,0,1.43-.66,13.85,13.85,0,0,0,1.27-.8c.38-.27.7-.52,1-.74a.71.71,0,0,1-.05-.33,29.36,29.36,0,0,1,.49-3.44c.22-1.08.44-2,.66-2.89s.41-1.55.58-2.14a5.75,5.75,0,0,0,.24-1.16,2.51,2.51,0,0,1,.2-.77c.09-.18.45-.27,1.07-.27a1.24,1.24,0,0,1,.72.16c.14.11.22.41.22.88a9.85,9.85,0,0,1-.2,1.76c-.13.7-.3,1.48-.52,2.34l-.69,2.67c-.24.92-.46,1.83-.68,2.75,0,.18-.07.35-.09.49a3.84,3.84,0,0,0,0,.5,4.42,4.42,0,0,0,.22,1.4,1,1,0,0,0,.72.74,1.93,1.93,0,0,0,1.4-.41,10.76,10.76,0,0,0,1.52-1.21l1.26-1.26C204.74,127.65,205,127.46,205.09,127.46Z"/><text class="cls-9" transform="translate(7.4 150.42)">F<tspan class="cls-10" x="6" y="0">i</tspan><tspan x="11.4" y="0">ne</tspan><tspan class="cls-11" x="23.4" y="0"> </tspan><tspan x="28.2" y="0">It</tspan><tspan class="cls-12" x="40.2" y="0">ali</tspan><tspan x="55.5" y="0">an</tspan><tspan class="cls-11" x="67.5" y="0"> </tspan><tspan x="72.3" y="0">Nep</tspan><tspan class="cls-12" x="90.3" y="0">al</tspan><tspan x="100.5" y="0">ese</tspan><tspan class="cls-11" x="118.5" y="0"> </tspan><tspan x="123.3" y="0">Fu</tspan><tspan class="cls-12" x="135.3" y="0">si</tspan><tspan x="145.5" y="0">on</tspan><tspan class="cls-13" x="157.51" y="0"> </tspan><tspan x="162.31" y="0">Re</tspan><tspan class="cls-14" x="174.31" y="0">s</tspan><tspan class="cls-10" x="180.01" y="0">t</tspan><tspan x="185.41" y="0">au</tspan><tspan class="cls-15" x="197.41" y="0">r</tspan><tspan class="cls-16" x="202.81" y="0">ant</tspan></text></svg>