<svg id="Layer_1" data-name="Layer 1" xmlns="http://www.w3.org/2000/svg" viewBox="0 0 181.3 181.3"><defs><style>.cls-1{fill:#37ba96;}.cls-2{fill:#fff;}.cls-3{fill:#231f20;}.cls-4{fill:#939598;}</style></defs><path class="cls-1" d="M210.08,216.54v-1.49a1.58,1.58,0,0,0-.4-1.15,1.48,1.48,0,0,0-1.12-.41h-2.73c-.1,0-.16,0-.16.14v4.31a.14.14,0,0,0,.16.15h2.73a1.48,1.48,0,0,0,1.12-.41A1.54,1.54,0,0,0,210.08,216.54Z" transform="translate(-108.13 -100.3)"/><polygon class="cls-1" points="57.07 113.34 55.25 119.2 58.96 119.2 57.13 113.34 57.07 113.34"/><path class="cls-1" d="M140.62,213.49h-1.8a1.43,1.43,0,0,0-1.1.41,1.61,1.61,0,0,0-.38,1.15v5.61a1.6,1.6,0,0,0,.38,1.15,1.43,1.43,0,0,0,1.1.41h1.8a1.47,1.47,0,0,0,1.11-.4,1.61,1.61,0,0,0,.39-1.16v-5.61a1.61,1.61,0,0,0-.39-1.16A1.51,1.51,0,0,0,140.62,213.49Z" transform="translate(-108.13 -100.3)"/><path class="cls-1" d="M150.63,216.54v-1.49a1.58,1.58,0,0,0-.4-1.15,1.48,1.48,0,0,0-1.12-.41h-2.73c-.1,0-.16,0-.16.14v4.31a.14.14,0,0,0,.16.15h2.73a1.48,1.48,0,0,0,1.12-.41A1.54,1.54,0,0,0,150.63,216.54Z" transform="translate(-108.13 -100.3)"/><polygon class="cls-1" points="108.01 113.34 106.19 119.2 109.9 119.2 108.07 113.34 108.01 113.34"/><path class="cls-1" d="M198.78,100.3A90.66,90.66,0,1,0,289.43,191,90.66,90.66,0,0,0,198.78,100.3ZM142.91,220.69a2.26,2.26,0,0,1-.59,1.64,2.19,2.19,0,0,1-1.62.6h-1.94a2.16,2.16,0,0,1-1.62-.6,2.22,2.22,0,0,1-.59-1.64V215a2.22,2.22,0,0,1,.59-1.64,2.16,2.16,0,0,1,1.62-.6h1.94a2.19,2.19,0,0,1,1.62.6,2.26,2.26,0,0,1,.59,1.64Zm8.6,2.24H151a.28.28,0,0,1-.28-.19l-1.86-4h-2.5a.14.14,0,0,0-.16.15v3.83c0,.13-.05.19-.17.19h-.46c-.1,0-.16-.06-.16-.19V213c0-.13.06-.19.16-.19h3.6a2.2,2.2,0,0,1,1.63.6,2.22,2.22,0,0,1,.6,1.64v1.5A2.24,2.24,0,0,1,151,218a2,2,0,0,1-1.23.73v.06l1.88,4C151.69,222.87,151.65,222.93,151.51,222.93Zm8.35-7.2c0,.13-.06.19-.17.19h-.46c-.11,0-.17-.06-.17-.19v-.68a1.65,1.65,0,0,0-.38-1.16,1.47,1.47,0,0,0-1.11-.4H156a1.47,1.47,0,0,0-1.11.41,1.66,1.66,0,0,0-.37,1.15v5.61a1.64,1.64,0,0,0,.37,1.15,1.47,1.47,0,0,0,1.11.41h1.59a1.44,1.44,0,0,0,1.11-.4,1.65,1.65,0,0,0,.38-1.16v-2.09a.13.13,0,0,0-.14-.14H157.1a.15.15,0,0,1-.17-.17v-.36c0-.12,0-.18.17-.18h2.46c.2,0,.3.11.3.32v2.65a2.22,2.22,0,0,1-.6,1.64,2.19,2.19,0,0,1-1.62.6h-1.72a2.16,2.16,0,0,1-1.62-.6,2.22,2.22,0,0,1-.59-1.64V215a2.22,2.22,0,0,1,.59-1.64,2.16,2.16,0,0,1,1.62-.6h1.72a2.19,2.19,0,0,1,1.62.6,2.22,2.22,0,0,1,.6,1.64Zm9,7.2h-.5c-.11,0-.18-.06-.21-.19l-.85-2.52h-4.14l-.85,2.52c0,.13-.11.19-.21.19h-.49c-.11,0-.15-.06-.11-.19l3.15-9.77a.21.21,0,0,1,.22-.19h.74a.23.23,0,0,1,.22.19l3.14,9.77C169,222.87,169,222.93,168.86,222.93Zm8.4-.19c0,.13-.06.19-.18.19h-.36a.31.31,0,0,1-.25-.17l-4.83-8.27h-.06v8.25c0,.13-.06.19-.18.19h-.46c-.1,0-.15-.06-.15-.19V213c0-.13.05-.19.15-.19h.43a.19.19,0,0,1,.19.1l4.85,8.33h.06V213c0-.13.06-.19.17-.19h.44c.12,0,.18.06.18.19Zm3.53,0c0,.13,0,.19-.17.19h-.46c-.1,0-.15-.06-.15-.19V213c0-.13.05-.19.15-.19h.46c.12,0,.17.06.17.19Zm9-6.94a.17.17,0,0,1-.18.19h-.44c-.11,0-.17-.07-.17-.19v-.75a1.61,1.61,0,0,0-.39-1.16,1.51,1.51,0,0,0-1.11-.4h-1.85a1.43,1.43,0,0,0-1.1.41,1.61,1.61,0,0,0-.38,1.15v5.61a1.6,1.6,0,0,0,.38,1.15,1.43,1.43,0,0,0,1.1.41h1.85a1.47,1.47,0,0,0,1.11-.4,1.61,1.61,0,0,0,.39-1.16v-.74c0-.13.06-.19.17-.19h.44c.12,0,.18.06.18.19v.77a2.26,2.26,0,0,1-.59,1.64,2.19,2.19,0,0,1-1.62.6h-2a2.17,2.17,0,0,1-1.62-.6,2.26,2.26,0,0,1-.59-1.64V215a2.26,2.26,0,0,1,.59-1.64,2.17,2.17,0,0,1,1.62-.6h2a2.19,2.19,0,0,1,1.62.6,2.26,2.26,0,0,1,.59,1.64Zm12.77,0c0,.12-.06.19-.17.19H202c-.11,0-.17-.07-.17-.19v-.75a1.61,1.61,0,0,0-.39-1.16,1.51,1.51,0,0,0-1.11-.4h-1.85a1.43,1.43,0,0,0-1.1.41,1.66,1.66,0,0,0-.38,1.15v5.61a1.64,1.64,0,0,0,.38,1.15,1.43,1.43,0,0,0,1.1.41h1.85a1.47,1.47,0,0,0,1.11-.4,1.61,1.61,0,0,0,.39-1.16v-.74c0-.13.06-.19.17-.19h.45c.11,0,.17.06.17.19v.77a2.26,2.26,0,0,1-.59,1.64,2.19,2.19,0,0,1-1.62.6h-2a2.19,2.19,0,0,1-1.62-.6,2.26,2.26,0,0,1-.59-1.64V215a2.26,2.26,0,0,1,.59-1.64,2.19,2.19,0,0,1,1.62-.6h2a2.19,2.19,0,0,1,1.62.6,2.26,2.26,0,0,1,.59,1.64Zm8.38,7.13h-.49a.27.27,0,0,1-.28-.19l-1.87-4h-2.49a.14.14,0,0,0-.16.15v3.83c0,.13-.06.19-.17.19H205c-.1,0-.16-.06-.16-.19V213c0-.13.06-.19.16-.19h3.6a2.07,2.07,0,0,1,2.23,2.24v1.5a2.24,2.24,0,0,1-.45,1.45,2,2,0,0,1-1.23.73v.06l1.88,4C211.13,222.87,211.1,222.93,211,222.93Zm8.84,0h-.5c-.11,0-.18-.06-.21-.19l-.85-2.52H214.1l-.85,2.52c0,.13-.11.19-.2.19h-.49c-.12,0-.16-.06-.11-.19l3.14-9.77a.21.21,0,0,1,.22-.19h.74a.23.23,0,0,1,.22.19l3.14,9.77C219.94,222.87,219.91,222.93,219.8,222.93ZM228,215.8a.17.17,0,0,1-.18.19h-.44c-.11,0-.17-.07-.17-.19v-.75a1.61,1.61,0,0,0-.39-1.16,1.51,1.51,0,0,0-1.11-.4h-1.85a1.43,1.43,0,0,0-1.1.41,1.61,1.61,0,0,0-.38,1.15v5.61a1.6,1.6,0,0,0,.38,1.15,1.43,1.43,0,0,0,1.1.41h1.85a1.47,1.47,0,0,0,1.11-.4,1.61,1.61,0,0,0,.39-1.16v-.74c0-.13.06-.19.17-.19h.44c.12,0,.18.06.18.19v.77a2.26,2.26,0,0,1-.59,1.64,2.19,2.19,0,0,1-1.62.6h-2a2.17,2.17,0,0,1-1.62-.6,2.26,2.26,0,0,1-.59-1.64V215a2.26,2.26,0,0,1,.59-1.64,2.17,2.17,0,0,1,1.62-.6h2a2.19,2.19,0,0,1,1.62.6A2.26,2.26,0,0,1,228,215Zm8.79,7.13h-.44a.38.38,0,0,1-.35-.19l-3.28-4.92-1.63,2v3c0,.13-.06.19-.17.19h-.46c-.1,0-.16-.06-.16-.19V213c0-.13.06-.19.16-.19h.46c.11,0,.17.06.17.19v5.83h.07a2.1,2.1,0,0,1,.28-.53l4-5.3a.39.39,0,0,1,.33-.19h.55c.14,0,.16.06.07.19l-3.18,4.25,3.67,5.52C237,222.87,236.92,222.93,236.77,222.93Zm7.1-9.61c0,.11-.06.17-.18.17H239.6c-.11,0-.16,0-.16.14v3.63c0,.1.05.15.16.15h3.64c.12,0,.18.05.18.17v.36a.16.16,0,0,1-.18.18H239.6c-.11,0-.16,0-.16.14v3.82c0,.09.05.14.16.14h4.09c.12,0,.18.06.18.17v.37c0,.11-.06.17-.18.17h-4.88c-.11,0-.16-.06-.16-.19V213c0-.13,0-.19.16-.19h4.88c.12,0,.18.06.18.17Zm8.45,9.61h-.49a.27.27,0,0,1-.28-.19l-1.87-4h-2.49c-.11,0-.16.05-.16.15v3.83c0,.13-.06.19-.17.19h-.46c-.1,0-.16-.06-.16-.19V213c0-.13.06-.19.16-.19H250a2.07,2.07,0,0,1,2.23,2.24v1.5a2.24,2.24,0,0,1-.45,1.45,2,2,0,0,1-1.23.73v.06l1.88,4C252.49,222.87,252.46,222.93,252.32,222.93Zm8.6-2.24a2.22,2.22,0,0,1-.6,1.64,2.19,2.19,0,0,1-1.62.6h-1.86a2.2,2.2,0,0,1-1.63-.6,2.22,2.22,0,0,1-.6-1.64v-.57a.15.15,0,0,1,.17-.17h.46a.15.15,0,0,1,.17.17v.52a1.38,1.38,0,0,0,1.54,1.58h1.64q1.53,0,1.53-1.59V220a1.27,1.27,0,0,0-.57-1.09,3.76,3.76,0,0,0-1.37-.56l-1.62-.37a3,3,0,0,1-1.38-.69,1.73,1.73,0,0,1-.57-1.36V215a2.22,2.22,0,0,1,.6-1.64,2.2,2.2,0,0,1,1.63-.6h1.83a2.19,2.19,0,0,1,1.62.6,2.22,2.22,0,0,1,.6,1.64v.44c0,.12-.06.18-.17.18h-.46c-.12,0-.17-.06-.17-.18v-.39a1.38,1.38,0,0,0-1.53-1.58h-1.63c-1,0-1.52.54-1.52,1.61v.79q0,1.1,2,1.47c.53.1,1.07.23,1.61.36a3.16,3.16,0,0,1,1.39.74,2,2,0,0,1,.56,1.46Z" transform="translate(-108.13 -100.3)"/><path class="cls-1" d="M251.44,216.54v-1.49a1.62,1.62,0,0,0-.4-1.15,1.5,1.5,0,0,0-1.12-.41h-2.73c-.11,0-.16,0-.16.14v4.31c0,.1.05.15.16.15h2.73a1.5,1.5,0,0,0,1.12-.41A1.58,1.58,0,0,0,251.44,216.54Z" transform="translate(-108.13 -100.3)"/><path class="cls-2" d="M140.7,212.78h-1.94a2.16,2.16,0,0,0-1.62.6,2.22,2.22,0,0,0-.59,1.64v5.67a2.22,2.22,0,0,0,.59,1.64,2.16,2.16,0,0,0,1.62.6h1.94a2.19,2.19,0,0,0,1.62-.6,2.26,2.26,0,0,0,.59-1.64V215a2.26,2.26,0,0,0-.59-1.64A2.19,2.19,0,0,0,140.7,212.78Zm1.42,7.88a1.61,1.61,0,0,1-.39,1.16,1.47,1.47,0,0,1-1.11.4h-1.8a1.43,1.43,0,0,1-1.1-.41,1.6,1.6,0,0,1-.38-1.15v-5.61a1.61,1.61,0,0,1,.38-1.15,1.43,1.43,0,0,1,1.1-.41h1.8a1.51,1.51,0,0,1,1.11.4,1.61,1.61,0,0,1,.39,1.16Z" transform="translate(-108.13 -100.3)"/><path class="cls-2" d="M149.74,218.76v-.06A2,2,0,0,0,151,218a2.24,2.24,0,0,0,.45-1.45V215a2.22,2.22,0,0,0-.6-1.64,2.2,2.2,0,0,0-1.63-.6h-3.6c-.1,0-.16.06-.16.19v9.77c0,.13.06.19.16.19h.46c.12,0,.17-.06.17-.19v-3.83a.14.14,0,0,1,.16-.15h2.5l1.86,4a.28.28,0,0,0,.28.19h.49c.14,0,.18-.06.11-.19Zm-3.36-.67a.14.14,0,0,1-.16-.15v-4.31c0-.09.06-.14.16-.14h2.73a1.48,1.48,0,0,1,1.12.41,1.58,1.58,0,0,1,.4,1.15v1.49a1.54,1.54,0,0,1-.4,1.14,1.48,1.48,0,0,1-1.12.41Z" transform="translate(-108.13 -100.3)"/><path class="cls-2" d="M157.64,212.78h-1.72a2.16,2.16,0,0,0-1.62.6,2.22,2.22,0,0,0-.59,1.64v5.67a2.22,2.22,0,0,0,.59,1.64,2.16,2.16,0,0,0,1.62.6h1.72a2.19,2.19,0,0,0,1.62-.6,2.22,2.22,0,0,0,.6-1.64V218c0-.21-.1-.32-.3-.32H157.1c-.12,0-.17.06-.17.18v.36a.15.15,0,0,0,.17.17h1.82a.13.13,0,0,1,.14.14v2.09a1.65,1.65,0,0,1-.38,1.16,1.44,1.44,0,0,1-1.11.4H156a1.47,1.47,0,0,1-1.11-.41,1.64,1.64,0,0,1-.37-1.15v-5.61a1.66,1.66,0,0,1,.37-1.15,1.47,1.47,0,0,1,1.11-.41h1.59a1.47,1.47,0,0,1,1.11.4,1.65,1.65,0,0,1,.38,1.16v.68c0,.13.06.19.17.19h.46c.11,0,.17-.06.17-.19V215a2.22,2.22,0,0,0-.6-1.64A2.19,2.19,0,0,0,157.64,212.78Z" transform="translate(-108.13 -100.3)"/><path class="cls-2" d="M165.83,213a.23.23,0,0,0-.22-.19h-.74a.21.21,0,0,0-.22.19l-3.15,9.77c0,.13,0,.19.11.19h.49c.1,0,.17-.06.21-.19l.85-2.52h4.14l.85,2.52c0,.13.1.19.21.19h.5c.11,0,.14-.06.11-.19Zm-2.45,6.54,1.82-5.86h.06l1.83,5.86Z" transform="translate(-108.13 -100.3)"/><path class="cls-2" d="M177.08,212.78h-.44c-.11,0-.17.06-.17.19v8.24h-.06l-4.85-8.33a.19.19,0,0,0-.19-.1h-.43c-.1,0-.15.06-.15.19v9.77c0,.13.05.19.15.19h.46c.12,0,.18-.06.18-.19v-8.25h.06l4.83,8.27a.31.31,0,0,0,.25.17h.36c.12,0,.18-.06.18-.19V213C177.26,212.84,177.2,212.78,177.08,212.78Z" transform="translate(-108.13 -100.3)"/><path class="cls-2" d="M180.62,212.78h-.46c-.1,0-.15.06-.15.19v9.77c0,.13.05.19.15.19h.46c.12,0,.17-.06.17-.19V213C180.79,212.84,180.74,212.78,180.62,212.78Z" transform="translate(-108.13 -100.3)"/><path class="cls-2" d="M187.6,212.78h-2a2.17,2.17,0,0,0-1.62.6,2.26,2.26,0,0,0-.59,1.64v5.67a2.26,2.26,0,0,0,.59,1.64,2.17,2.17,0,0,0,1.62.6h2a2.19,2.19,0,0,0,1.62-.6,2.26,2.26,0,0,0,.59-1.64v-.77c0-.13-.06-.19-.18-.19h-.44c-.11,0-.17.06-.17.19v.74a1.61,1.61,0,0,1-.39,1.16,1.47,1.47,0,0,1-1.11.4h-1.85a1.43,1.43,0,0,1-1.1-.41,1.6,1.6,0,0,1-.38-1.15v-5.61a1.61,1.61,0,0,1,.38-1.15,1.43,1.43,0,0,1,1.1-.41h1.85a1.51,1.51,0,0,1,1.11.4,1.61,1.61,0,0,1,.39,1.16v.75c0,.12.06.19.17.19h.44a.17.17,0,0,0,.18-.19V215a2.26,2.26,0,0,0-.59-1.64A2.19,2.19,0,0,0,187.6,212.78Z" transform="translate(-108.13 -100.3)"/><path class="cls-2" d="M200.37,212.78h-2a2.19,2.19,0,0,0-1.62.6,2.26,2.26,0,0,0-.59,1.64v5.67a2.26,2.26,0,0,0,.59,1.64,2.19,2.19,0,0,0,1.62.6h2a2.19,2.19,0,0,0,1.62-.6,2.26,2.26,0,0,0,.59-1.64v-.77c0-.13-.06-.19-.17-.19H202c-.11,0-.17.06-.17.19v.74a1.61,1.61,0,0,1-.39,1.16,1.47,1.47,0,0,1-1.11.4h-1.85a1.43,1.43,0,0,1-1.1-.41,1.64,1.64,0,0,1-.38-1.15v-5.61a1.66,1.66,0,0,1,.38-1.15,1.43,1.43,0,0,1,1.1-.41h1.85a1.51,1.51,0,0,1,1.11.4,1.61,1.61,0,0,1,.39,1.16v.75c0,.12.06.19.17.19h.45c.11,0,.17-.07.17-.19V215a2.26,2.26,0,0,0-.59-1.64A2.19,2.19,0,0,0,200.37,212.78Z" transform="translate(-108.13 -100.3)"/><path class="cls-2" d="M209.19,218.76v-.06a2,2,0,0,0,1.23-.73,2.24,2.24,0,0,0,.45-1.45V215a2.07,2.07,0,0,0-2.23-2.24H205c-.1,0-.16.06-.16.19v9.77c0,.13.06.19.16.19h.46c.11,0,.17-.06.17-.19v-3.83a.14.14,0,0,1,.16-.15h2.49l1.87,4a.27.27,0,0,0,.28.19H211c.14,0,.17-.06.11-.19Zm-3.36-.67a.14.14,0,0,1-.16-.15v-4.31c0-.09.06-.14.16-.14h2.73a1.48,1.48,0,0,1,1.12.41,1.58,1.58,0,0,1,.4,1.15v1.49a1.54,1.54,0,0,1-.4,1.14,1.48,1.48,0,0,1-1.12.41Z" transform="translate(-108.13 -100.3)"/><path class="cls-2" d="M216.77,213a.23.23,0,0,0-.22-.19h-.74a.21.21,0,0,0-.22.19l-3.14,9.77c0,.13,0,.19.11.19h.49c.09,0,.16-.06.2-.19l.85-2.52h4.14l.85,2.52c0,.13.1.19.21.19h.5c.11,0,.14-.06.11-.19Zm-2.45,6.54,1.82-5.86h.06l1.83,5.86Z" transform="translate(-108.13 -100.3)"/><path class="cls-2" d="M225.77,212.78h-2a2.17,2.17,0,0,0-1.62.6,2.26,2.26,0,0,0-.59,1.64v5.67a2.26,2.26,0,0,0,.59,1.64,2.17,2.17,0,0,0,1.62.6h2a2.19,2.19,0,0,0,1.62-.6,2.26,2.26,0,0,0,.59-1.64v-.77c0-.13-.06-.19-.18-.19h-.44c-.11,0-.17.06-.17.19v.74a1.61,1.61,0,0,1-.39,1.16,1.47,1.47,0,0,1-1.11.4h-1.85a1.43,1.43,0,0,1-1.1-.41,1.6,1.6,0,0,1-.38-1.15v-5.61a1.61,1.61,0,0,1,.38-1.15,1.43,1.43,0,0,1,1.1-.41h1.85a1.51,1.51,0,0,1,1.11.4,1.61,1.61,0,0,1,.39,1.16v.75c0,.12.06.19.17.19h.44a.17.17,0,0,0,.18-.19V215a2.26,2.26,0,0,0-.59-1.64A2.19,2.19,0,0,0,225.77,212.78Z" transform="translate(-108.13 -100.3)"/><path class="cls-2" d="M233.2,217.22l3.18-4.25c.09-.13.07-.19-.07-.19h-.55a.39.39,0,0,0-.33.19l-4,5.3a2.1,2.1,0,0,0-.28.53h-.07V213c0-.13-.06-.19-.17-.19h-.46c-.1,0-.16.06-.16.19v9.77c0,.13.06.19.16.19h.46c.11,0,.17-.06.17-.19v-3l1.63-2,3.28,4.92a.38.38,0,0,0,.35.19h.44c.15,0,.18-.06.1-.19Z" transform="translate(-108.13 -100.3)"/><path class="cls-2" d="M243.69,212.78h-4.88c-.11,0-.16.06-.16.19v9.77c0,.13,0,.19.16.19h4.88c.12,0,.18-.06.18-.17v-.37c0-.11-.06-.17-.18-.17H239.6c-.11,0-.16-.05-.16-.14v-3.82c0-.1.05-.14.16-.14h3.64a.16.16,0,0,0,.18-.18v-.36c0-.12-.06-.17-.18-.17H239.6c-.11,0-.16,0-.16-.15v-3.63c0-.09.05-.14.16-.14h4.09c.12,0,.18-.06.18-.17V213C243.87,212.84,243.81,212.78,243.69,212.78Z" transform="translate(-108.13 -100.3)"/><path class="cls-2" d="M250.55,218.76v-.06a2,2,0,0,0,1.23-.73,2.24,2.24,0,0,0,.45-1.45V215a2.07,2.07,0,0,0-2.23-2.24h-3.6c-.1,0-.16.06-.16.19v9.77c0,.13.06.19.16.19h.46c.11,0,.17-.06.17-.19v-3.83c0-.1.05-.15.16-.15h2.49l1.87,4a.27.27,0,0,0,.28.19h.49c.14,0,.17-.06.11-.19Zm-3.36-.67c-.11,0-.16-.05-.16-.15v-4.31c0-.09.05-.14.16-.14h2.73a1.5,1.5,0,0,1,1.12.41,1.62,1.62,0,0,1,.4,1.15v1.49a1.58,1.58,0,0,1-.4,1.14,1.5,1.5,0,0,1-1.12.41Z" transform="translate(-108.13 -100.3)"/><path class="cls-2" d="M259,217.72c-.54-.13-1.08-.26-1.61-.36q-2-.37-2-1.47v-.79c0-1.07.51-1.61,1.52-1.61h1.63a1.38,1.38,0,0,1,1.53,1.58v.39c0,.12.05.18.17.18h.46c.11,0,.17-.06.17-.18V215a2.22,2.22,0,0,0-.6-1.64,2.19,2.19,0,0,0-1.62-.6h-1.83a2.2,2.2,0,0,0-1.63.6,2.22,2.22,0,0,0-.6,1.64v.87a1.73,1.73,0,0,0,.57,1.36,3,3,0,0,0,1.38.69l1.62.37a3.76,3.76,0,0,1,1.37.56,1.27,1.27,0,0,1,.57,1.09v.67q0,1.59-1.53,1.59H257a1.38,1.38,0,0,1-1.54-1.58v-.52a.15.15,0,0,0-.17-.17h-.46a.15.15,0,0,0-.17.17v.57a2.22,2.22,0,0,0,.6,1.64,2.2,2.2,0,0,0,1.63.6h1.86a2.19,2.19,0,0,0,1.62-.6,2.22,2.22,0,0,0,.6-1.64v-.77a2,2,0,0,0-.56-1.46A3.16,3.16,0,0,0,259,217.72Z" transform="translate(-108.13 -100.3)"/><path class="cls-3" d="M127.74,196.2l-.32,0a1.55,1.55,0,0,1-.62.2,2.35,2.35,0,0,0-1,.42,12.12,12.12,0,0,1-1.49.76c-.56.24-.84.4-.84.47a9.29,9.29,0,0,0,2.32-.61l1.64-.45a1.49,1.49,0,0,0,.44-.18,2.6,2.6,0,0,1,.49-.25l.36-.27.5-.19q.39-.13.39-.27a.08.08,0,0,0-.09-.09,2.78,2.78,0,0,0-1.3.25A3.27,3.27,0,0,1,127.74,196.2Zm7.91-5.67.18-.45.59-.66a2.59,2.59,0,0,1,.75-.89,1.43,1.43,0,0,1,.14-.34,1.63,1.63,0,0,0,.14-.49l.2-.37c.06-.06.09-.1.09-.13a1,1,0,0,0-.18-.28l-.11-.47c0-.12-.41-.52-1.21-1.2h-.18l-1.63-.8-.09-.22-.19,0-.22.09h-.05l-.77-.23a9.1,9.1,0,0,1-1.23-.38.17.17,0,0,1-.13,0l-.91-.2a1.07,1.07,0,0,1-.47-.19.84.84,0,0,0-.38-.21,1.13,1.13,0,0,1-.4-.19.52.52,0,0,0-.36-.09l-.57.14c0-.05-.21-.13-.64-.23-.06-.15-.1-.23-.13-.23l-.66.09-.68-.31c-.08,0-.34-.05-.8-.13a2.73,2.73,0,0,1-.88-.26,2.78,2.78,0,0,0-.61-.27l-.14-.14a.59.59,0,0,0-.25-.09h-.41c-.09,0-.21-.07-.37-.23a3.58,3.58,0,0,0-.61-.45,2,2,0,0,1-.66-.71,2.24,2.24,0,0,1-.31-1,.12.12,0,0,1,0-.09l.13-.73a4.8,4.8,0,0,1,1.3-2.56,1.35,1.35,0,0,1,.75-.88l.09-.32a9.41,9.41,0,0,0,.94-.91,2.37,2.37,0,0,1,.64-.55,4.14,4.14,0,0,0,.57-.4l.41-.18c0-.14.32-.46,1-1a8.22,8.22,0,0,1,1.62-1,6.83,6.83,0,0,0,.77-.36,6.27,6.27,0,0,1,1.12-.34c.15-.4.39-.61.73-.61h.34l.45-.45.61,0,.25-.28a.85.85,0,0,1,.68-.24l2.75-.84h.18l.18.05c.12,0,.27-.11.46-.32a1,1,0,0,1,.74-.32.84.84,0,0,1,.34.18,0,0,0,0,0,.05.05l.59-.18.7,0,.88-.22a2.71,2.71,0,0,1,1.48.4l0-.09v-.13c0-.26.15-.39.43-.39.12,0,.2,0,.23.09l.27.16h.16a4.33,4.33,0,0,1,.59.27,1.24,1.24,0,0,1,.43-.22.77.77,0,0,1,.68.36l.39-.05c.12-.12.19-.18.22-.18s.22.12.37.37l.13,0h.57s.09.05.18.14l.25.2a1.39,1.39,0,0,1,.25.3,1.56,1.56,0,0,0,.16.2,4.9,4.9,0,0,1,.63-.25c.16,0,.27.13.34.39a.84.84,0,0,0,.4.62.83.83,0,0,1,.4.65.75.75,0,0,1,.5.72l.43,1.11-.09.39a2.21,2.21,0,0,1,.18.41l-.09.84.09.88a1.46,1.46,0,0,1-.66,1.2,1,1,0,0,0-.44.2,1.85,1.85,0,0,1-.35.19.87.87,0,0,1-.78-.29,1.93,1.93,0,0,0-.38-.41.46.46,0,0,1-.18-.37,1.33,1.33,0,0,1,.7-1,.53.53,0,0,0,.46-.2.84.84,0,0,0-.21-.66,4,4,0,0,1-.44-.5,2.46,2.46,0,0,0-.51-.51,1.48,1.48,0,0,1-.44-.49c-.12-.19-.22-.29-.31-.29l-.32,0-.65-.13a7.86,7.86,0,0,1-1.91-.48h-.45l-1.23-.18a2.35,2.35,0,0,1-.9.14l-1.5.22-.61,0s-.47.13-1.25.38l-.23.05h-.61a3.87,3.87,0,0,0-.58.23,6,6,0,0,1-.89.31l-.21.09a.17.17,0,0,1-.13,0l-.37,0-2,1-.32-.18a2.74,2.74,0,0,0-.43-.18.28.28,0,0,0-.32.31l0,.43a2.92,2.92,0,0,0-.39.28.58.58,0,0,1-.23.13H131a.72.72,0,0,0-.51.24.76.76,0,0,1-.42.26,1.67,1.67,0,0,0-.52.21q0,.09-.36.18a.75.75,0,0,0-.49.42c-.11.22-.25.33-.4.33l-.45-.1-.25.46-.55.13a2.35,2.35,0,0,1-.59.59q-.28.21-.57.45a1.59,1.59,0,0,0-.41.48.92.92,0,0,1-.38.4,1.22,1.22,0,0,0-.43.6l-.22.23a1.35,1.35,0,0,0-.57,1q0,.39.54.57a2.64,2.64,0,0,1,.68.29.61.61,0,0,0,.41.11,1.17,1.17,0,0,1,.52.12l.84.36c.08.24.15.36.23.36s.09-.06.18-.18a.48.48,0,0,1,.41-.18.75.75,0,0,1,.57.36l.18-.13h.09l.29.09h.05l.27-.14a.2.2,0,0,1,.14,0,5.09,5.09,0,0,1,.7.22h0l.37-.09a1.29,1.29,0,0,1,.38.14l.32.18s0,.07.09.07a.76.76,0,0,0,.27-.1.71.71,0,0,1,.34-.11.64.64,0,0,1,.41.25,3.24,3.24,0,0,1,.41-.16,1.65,1.65,0,0,1,.7.35l.43.09h.5l.75.13a2.4,2.4,0,0,0,.66.52.28.28,0,0,1,.31-.25,3.29,3.29,0,0,1,1.11.3l.19,0,.18.14a3,3,0,0,1,.47-.09c.31,0,.46.11.46.32a2.52,2.52,0,0,1-.14.7.26.26,0,0,1,.14.09.53.53,0,0,1,.25-.18l.36-.2c.06-.06.1-.1.14-.1a2.94,2.94,0,0,1,1.47.73,2.58,2.58,0,0,1,1.09,1.66,1.45,1.45,0,0,0,.18.63l-.09.3,0,.36a2.18,2.18,0,0,1-.09.32l0,.34a.52.52,0,0,1-.14.16.37.37,0,0,0-.13.15l.13.39V188c0,.06-.06.14-.17.25a.8.8,0,0,0-.21.29,1,1,0,0,1-.16.29.81.81,0,0,0-.16.35c0,.14-.18.29-.44.46s-.4.31-.4.4,0,.14.09.14a1,1,0,0,0,.58-.26,1.44,1.44,0,0,1,.46-.31,2.86,2.86,0,0,0,.55-.27l2.12-1a15.72,15.72,0,0,1,2.65-1.13.32.32,0,0,1,.37.36c0,.09-.11.26-.32.52a1.16,1.16,0,0,1-.93,1.25,2,2,0,0,0-.52.47h-.18a1.69,1.69,0,0,1-1.3.64h-.13a3.13,3.13,0,0,1-2,.93,2.16,2.16,0,0,1-1.32.79l-.36.09a2.4,2.4,0,0,1-.79.23s-.1.06-.19.18l-.34.25a2.38,2.38,0,0,0-.93.5,2.2,2.2,0,0,1-.76.47,2.41,2.41,0,0,0-.55.19c-.2.09-1,.6-2.38,1.54l-.3.09a3.74,3.74,0,0,0-1.11.67,2.12,2.12,0,0,1-.54.44h-.09a2,2,0,0,0-1.23.68c0,.08-.36.2-1,.38a6.76,6.76,0,0,0-1.81.8c-.36.09-.81.21-1.33.37a8.91,8.91,0,0,1-1.16.27l-1.59.34q-.52.09-1.2.27a2.33,2.33,0,0,0-.7-.14l-.41.05a.56.56,0,0,1-.29-.16,2,2,0,0,0-.51-.31c-.21-.09-.31-.36-.31-.78s.41-.75,1.25-1.12,1.37-.63,1.63-.78a.82.82,0,0,1,.62-.3,1.54,1.54,0,0,0,.76-.27,3.3,3.3,0,0,1,1-.41l.91-.47a.21.21,0,0,1,.11,0h.32a.94.94,0,0,0,.48-.25,2,2,0,0,1,.65-.36h.28s.07,0,.13-.12a1.75,1.75,0,0,1,.41-.29l.07,0h.23a2.23,2.23,0,0,1,.59-.34,3.58,3.58,0,0,0,.66-.36l1.77-.68.4.05c.1,0,.21-.08.36-.22a2.62,2.62,0,0,1,1-.44,1.55,1.55,0,0,1,.47-.43,7.46,7.46,0,0,0,.87-.73Z" transform="translate(-108.13 -100.3)"/><path class="cls-3" d="M162.81,178.76l-.61,1.32a6.93,6.93,0,0,1-.69,1.3,4.54,4.54,0,0,0-.58,1l-.64,1.38-.57.57a1,1,0,0,0-.13.36,2.86,2.86,0,0,1-.3,1.08,9.64,9.64,0,0,0-.45,1.26v.27a2,2,0,0,1-.36.7v.27a4.71,4.71,0,0,1-.39.84l0,.27a.39.39,0,0,1,0,.14l-.43,1.34a3.31,3.31,0,0,0-.21.91c0,.18,0,.34,0,.49v.41l-.09.52.05.28v.13a2,2,0,0,1-.05.48.94.94,0,0,0,.36.5.2.2,0,0,1,.14.05.12.12,0,0,0,.09.06l.64-.41a3,3,0,0,0,.95-.81l.66-.59.13-.21.27,0a3.32,3.32,0,0,0,.42-.5c.16-.21.27-.32.33-.32a.14.14,0,0,1,.09,0h.32a.53.53,0,0,1,.23,0l0-.09v-.39c0-.49.16-.74.48-.74a4.15,4.15,0,0,1,.61-.73l.09-.34a1.76,1.76,0,0,1,.49-.59,3.49,3.49,0,0,0,.76-1l.8-.93c0-.06.07-.17.13-.34l.19-.18.38,0a.18.18,0,0,0,.09-.18.3.3,0,0,0,0-.13.63.63,0,0,1-.05-.28,3.26,3.26,0,0,1,.67-1.07,6.89,6.89,0,0,0,.85-1.3c.12-.28.24-.42.37-.42s.1.06.14.16a.2.2,0,0,0,.2.16s0,0,0,0,0-.06-.07-.09a.17.17,0,0,1-.07-.14,1.75,1.75,0,0,1,.32-1,4.89,4.89,0,0,0,.42-.76,1.47,1.47,0,0,1,.2-.4,2.83,2.83,0,0,0,.2-.37,1.21,1.21,0,0,1,.27-.39,1,1,0,0,0,.26-.31.81.81,0,0,1,.26-.26c.11-.06.21-.28.3-.65a2.84,2.84,0,0,1,1-1.3.36.36,0,0,1-.14-.27.69.69,0,0,1,.14-.32,10.27,10.27,0,0,1,.8-1.68c.54-1,1-1.79,1.33-2.33l.09-.32.29-.27.41-.61,1.25-.84a1.73,1.73,0,0,1,.7-.32,1.22,1.22,0,0,1,.37.05.4.4,0,0,1,.25-.14l.18,0H177a.76.76,0,0,1,.32-.13.58.58,0,0,1,.25.09h.13a1.59,1.59,0,0,1,.72.35c.32.24.48.41.48.53l0,.28,0,.27a2.23,2.23,0,0,1-.53,1.39c-.36.46-.56.75-.62.85l-.3.14a3.31,3.31,0,0,0-.05.35.78.78,0,0,1-.2.45,2.87,2.87,0,0,0-.36.65,3.57,3.57,0,0,1-.36.68v.32l-1.07,2.56a2.78,2.78,0,0,1-.21.49.42.42,0,0,1-.38.21.82.82,0,0,0,.17.2.24.24,0,0,1,.1.21.78.78,0,0,1-.65.8.53.53,0,0,1,.13.31l.11.25-.43.77v.39a2.54,2.54,0,0,0-.31.64v.38a1.84,1.84,0,0,1-.28.59l-.2.39a2.4,2.4,0,0,0-.14.36h0l0,.48-.27.22v.46a.78.78,0,0,0-.23.61,1.18,1.18,0,0,1-.25.56,2,2,0,0,1,0,.23,2.46,2.46,0,0,1-.19,1,2.06,2.06,0,0,0-.18.58v.34a.4.4,0,0,1,.14.27,1.1,1.1,0,0,1-.07.26,1.21,1.21,0,0,0-.07.4c0,.45.09.68.28.68l.52-.16a.65.65,0,0,0,.39-.31.75.75,0,0,1,.37-.33.41.41,0,0,0,.29-.35c0-.16.16-.27.44-.34a6.49,6.49,0,0,0,1.8-1.48l.7-.41.18-.32a7.2,7.2,0,0,0,.61-.7c.28-.35.5-.52.66-.52.46,0,.69.25.69.74a7.93,7.93,0,0,1-.22.89,3.13,3.13,0,0,1-.31.86,2.71,2.71,0,0,1-.27.22,1.23,1.23,0,0,0-.36.51,4.64,4.64,0,0,1-1.54,1.15,5.12,5.12,0,0,0-.5.42,3.59,3.59,0,0,1-.6.47,2.9,2.9,0,0,0-.49.36,1.72,1.72,0,0,1-.59.34l-.18.09a.33.33,0,0,0-.14,0c-.09,0-.19.06-.31.2a1.07,1.07,0,0,1-.51.32,1.46,1.46,0,0,0-.53.28.6.6,0,0,1-.29.17l-.36-.16a1,1,0,0,1-.34.25l-.28-.13a.43.43,0,0,0-.25-.14,1.33,1.33,0,0,1-.37-.2,3.75,3.75,0,0,0-.47-.32,1.66,1.66,0,0,1-.54-.84l-.18-.23a1.72,1.72,0,0,1-.23-.47,3.93,3.93,0,0,1,0-.55v-.13a3.83,3.83,0,0,0-.1-.65,3.75,3.75,0,0,1-.09-.67l.55-3-.09-.54a2.25,2.25,0,0,1,.28-.92,10.28,10.28,0,0,0,.56-2.57c-.25.74-.43,1.11-.55,1.11l-.34,0a.18.18,0,0,0-.09.18,1.83,1.83,0,0,0,.09.39v.32c0,.28-.28.52-.84.7a.33.33,0,0,1,0,.14c.16.07.25.15.25.22a1,1,0,0,1-.42.82,2.23,2.23,0,0,0-.56.51c-.09.14-.17.22-.25.22l-.14-.21h0l-.23.43a.72.72,0,0,1,.14.23,4.11,4.11,0,0,1-.47.79c-.31.47-.49.71-.55.71l-.66.63-.09.2V190a.46.46,0,0,1-.09.18l-.89,1.25-.27.52-.93,1.39a1.14,1.14,0,0,0-.5.34l-.16.09c0,.24-.19.47-.59.68a1.5,1.5,0,0,1-.57.84,2.36,2.36,0,0,0-.54.43l-.43.27-.55.45-.61.21-.27-.21c-.12.35-.23.52-.32.52l-.52-.09L158,197a2.54,2.54,0,0,1-1.42-.72,7.84,7.84,0,0,1-1-1l-.27-.37a.6.6,0,0,1-.19-.28,1.15,1.15,0,0,0-.43-.47l-.22-.36v-.29a4.19,4.19,0,0,1-.6-1,5.7,5.7,0,0,1-.06-1.06v-.18l.09-.32,0-.52a3.75,3.75,0,0,1,.22-1,6.33,6.33,0,0,0,.22-.75v-.14l-.07-.13.29-1a2.16,2.16,0,0,1,.23-.62,2.14,2.14,0,0,0,.14-.78c0-.44.24-.67.65-.67a.39.39,0,0,1,.14.05.24.24,0,0,0,.18-.27h-.09c-.12,0-.18-.09-.18-.25a.8.8,0,0,1,.13-.5.8.8,0,0,0,.14-.52,1.29,1.29,0,0,1,.37-.83,2.66,2.66,0,0,0,.38-.47,2.41,2.41,0,0,1,.35-1q.34-.65.57-1.17a4.13,4.13,0,0,1,.51-.93,3.31,3.31,0,0,0,.43-.8,2.09,2.09,0,0,1,.54-.77l.25-.45a6.19,6.19,0,0,1,.5-.7,1.36,1.36,0,0,0,.29-.67.67.67,0,0,1,.39-.56.59.59,0,0,0,.39-.4,1.43,1.43,0,0,1,.17-.46,1.73,1.73,0,0,0,.17-.44,1.15,1.15,0,0,1,.27-.49,2.76,2.76,0,0,0,.42-.83c.13-.37.31-.55.56-.55l.45,0,0-.16a.37.37,0,0,0-.11-.18.39.39,0,0,1-.11-.27c0-.44.14-.66.43-.66.09,0,.19.1.32.3.1-.89.17-1.37.19-1.42a.47.47,0,0,0,0-.17l.05-.23a.57.57,0,0,0,0-.25.77.77,0,0,0-.17-.41c-.11-.16-.2-.24-.28-.24s-.19,0-.52.11l-.27-.27c-.16.33-.31.5-.46.5l-.38-.14a3,3,0,0,1-1,.5l-.37-.14h0c-.09,0-.19.11-.29.33a.58.58,0,0,1-.6.33h-.22a1.4,1.4,0,0,1-.57.47,1.19,1.19,0,0,0-.49.28,1.42,1.42,0,0,1-.44.29,2.57,2.57,0,0,0-.61.46l-.23.13c-.27.17-.42.33-.45.49a.86.86,0,0,1-.25.44c-.55.4-.82.72-.82,1l0,.41,0,.59q0,.24-.42.6a1.24,1.24,0,0,1-.69.35c-1.09,0-1.63-.33-1.63-1l.09-.65-.05-.53.05-.45a1.29,1.29,0,0,1,.62-1,10.24,10.24,0,0,0,.86-.69l.88-.45a1.79,1.79,0,0,0,.45-.47,2.63,2.63,0,0,1,1-.59,4.46,4.46,0,0,0,1.23-.69,3.67,3.67,0,0,1,1.13-.6,9.64,9.64,0,0,0,1.15-.46,1.7,1.7,0,0,1,.49-.21l.27.05a2.4,2.4,0,0,0,.49-.29,1,1,0,0,1,.58-.19l2.79-.63a2.89,2.89,0,0,1,1.63.5c.8.4,1.2,1.3,1.2,2.69a6,6,0,0,1-.69,1.86,14.73,14.73,0,0,1-1.53,2.54l-.14.34-.61,1.07-.36.79c-.17.31-.34.66-.53,1.07l-.4.54A2.53,2.53,0,0,0,162.81,178.76Z" transform="translate(-108.13 -100.3)"/><path class="cls-3" d="M186.74,182.91h-.56a1.14,1.14,0,0,0-.49.26c-.24.17-.35.29-.35.35s.17.23.53.51a2,2,0,0,0,.67.42c.27,0,.6-.62,1-1.86l-.22.09-.27,0C186.83,182.79,186.74,182.88,186.74,182.91Zm-1.5-10.73-.05.25a1.25,1.25,0,0,1-.63.77,2,2,0,0,1-1.14.39c-.95,0-1.42-.45-1.42-1.36a1.85,1.85,0,0,1,.73-1.17,4.09,4.09,0,0,1,2-1,8.53,8.53,0,0,0,1.76-.54,5.69,5.69,0,0,1,1.65-.39.52.52,0,0,0,.36.18.43.43,0,0,0,.41-.21c.08-.13.25-.17.52-.11h.11l1.21-.32.36.14a.37.37,0,0,0,.21-.09,1,1,0,0,1,.31-.14H192l.43-.09a2.7,2.7,0,0,0,.59-.2l.39,0a7.22,7.22,0,0,0,1.42-.22,7.8,7.8,0,0,1,1.49-.25,6.87,6.87,0,0,0,.75-.07l.29-.05a.7.7,0,0,1,.34.14.65.65,0,0,0,.29.14c.06,0,.49-.1,1.27-.28h.14l1,.23a1.58,1.58,0,0,1,.54-.23,1.11,1.11,0,0,1,.8.32l.43-.18.22,0a2.61,2.61,0,0,0,.41,0H203a1.37,1.37,0,0,1,.34,0,.14.14,0,0,0,.09,0,1.18,1.18,0,0,0,.37,0h.29l1,.23.41,0a.9.9,0,0,1,.27.13l.25,0a6.42,6.42,0,0,0,.81.43l.34-.09h0a2.44,2.44,0,0,1,.45.27l.66.32.18-.09a4.56,4.56,0,0,1,.66.36l.18.38a6.65,6.65,0,0,1,.61.37,1.73,1.73,0,0,0,.27.52v.18s.11.14.35.33.35.33.35.42,0,.13,0,.32v0a1.49,1.49,0,0,0,.16.3,1,1,0,0,1,.16.59l-.05.31.05.3-.23,1.52a1.25,1.25,0,0,0-.27.44.58.58,0,0,1-.34.33.86.86,0,0,0-.44.46.9.9,0,0,1-.49.47,1.54,1.54,0,0,0-.61.4.9.9,0,0,1-.64.28l-2.43.72-.28-.09a1.32,1.32,0,0,1-1.2.66,5.14,5.14,0,0,0-.91.16l-.45.11-.37,0-.84.16a1.69,1.69,0,0,0-.56.17,1,1,0,0,1-.46.1l-.61.32a.2.2,0,0,1-.14,0,.38.38,0,0,1-.23,0l-.31-.09a1,1,0,0,0-.33.15.48.48,0,0,1-.29.12l-.27-.23L198,180a4.33,4.33,0,0,0-.73.21,1.1,1.1,0,0,0-.38-.16l-.8.34-.45-.14,0,.14a1.17,1.17,0,0,0-.65.23,1,1,0,0,1-.55.22.5.5,0,0,1-.34-.18.28.28,0,0,1-.19-.09,1.53,1.53,0,0,0-.34.33,1.12,1.12,0,0,1-.5.33l-.54-.16s-.15.13-.43.24-.44.21-.46.28l-.22.32c-.11.26-.19.47-.25.63a1.36,1.36,0,0,1-.23.4,1.33,1.33,0,0,0-.25.51,3.2,3.2,0,0,1-.41.8l-.05.27a3,3,0,0,1-.4.41l-.53,1a1.12,1.12,0,0,0-.22.48c0,.22.2.44.61.66l2.4,2,.39.22h.05l-.09.41a.57.57,0,0,0,.22.11c.09,0,.14-.06.14-.2h.13s.11.07.23.2l.25.14c.11.11.3.28.59.52s.43.41.43.5l0,.18h.13a.26.26,0,0,1,.14-.09,1.62,1.62,0,0,1,.5.27l.29.14a7.57,7.57,0,0,1,1.1.88,3.35,3.35,0,0,0,.57.52,2.27,2.27,0,0,1,.6.64l2.61,1.95q3.27,2.45,3.68,3.27a1,1,0,0,0,.43.27,3.56,3.56,0,0,1,1,.76,3.66,3.66,0,0,1,.77,1v.8c0,.06-.08.13-.23.22l-.29.28a1.64,1.64,0,0,1-1,.61,2.22,2.22,0,0,1-1.57-.48l-.11,0h-.23c-.24,0-.37-.21-.41-.64l-.09-.29a3.32,3.32,0,0,1-1.72-1.16l-1.29-1.2-.75-.87a6.7,6.7,0,0,0-1.24-1.2,3.84,3.84,0,0,1-.83-.74,3.7,3.7,0,0,0-.82-.73,4.61,4.61,0,0,1-1.08-1.14c-.38-.54-.59-.82-.63-.86-.68-.36-1-.76-1-1.2a2.12,2.12,0,0,0-.66-.18,1.86,1.86,0,0,0-.34-.32.24.24,0,0,1-.11-.06l.05-.37a2,2,0,0,1-1-.51l-.72-.83a10.21,10.21,0,0,0-.78-.8,1,1,0,0,1-.36-.44c0-.11-.15-.24-.43-.39a1.54,1.54,0,0,1-.34.43,1.07,1.07,0,0,0-.27.37l-.09.13a1,1,0,0,0-.32.7,1.5,1.5,0,0,0-.43,1l-1,2.31-.18.84-.13,1.43c-.05.41-.22.61-.52.61l-.45.05a3.32,3.32,0,0,0-.85-.17c-.44,0-.81-.5-1.1-1.33a2,2,0,0,0-.26-.45,1.06,1.06,0,0,1-.21-.57,2.23,2.23,0,0,1,.14-.59l.09-.52a8,8,0,0,1,.56-1.29l1.2-2.29.59-.89a2.63,2.63,0,0,0,.25-.69,2.19,2.19,0,0,1,.42-.85,1,1,0,0,0,.29-.5q0-.27-.42-.54a1,1,0,0,1-.47-.52l-.09-.23q-1.2-.71-1.2-1.59c0-.32.4-.71,1.2-1.19a7.59,7.59,0,0,1,1.62-.81,3,3,0,0,0,.83-.31l.38-.09.32-.28c.18-.06.4-.11.67-.17s.49-.36.68-.93a2.09,2.09,0,0,1,.51-1,13.83,13.83,0,0,0,.61-1.41c0-.06.12-.2.26-.42a4.52,4.52,0,0,0,.44-1.09c.15-.5.26-.76.32-.76a1.47,1.47,0,0,0,.36-.09l-.23-.61q0-.09.18-.27a1.43,1.43,0,0,1-.31-.93c0-.59.41-.89,1.24-.89a2.68,2.68,0,0,1,.91.4c.45.27.69.46.72.58a2.44,2.44,0,0,0,.3.58,1.4,1.4,0,0,1,.25.67,1.57,1.57,0,0,1-.3,1.15,3.2,3.2,0,0,0-.61,1.21l-.61,1.72-.09.43-.12.18.57-.13c.12-.34.63-.53,1.54-.57l1.44-.45h.43l1.38-.39.66-.09h.14l.27-.05a.51.51,0,0,1,.18.18H200c.17,0,.26-.09.28-.29s.23-.29.66-.29c.06,0,.11,0,.17.11a.22.22,0,0,0,.17.11.46.46,0,0,1,.35-.35,1.49,1.49,0,0,1,.44-.1l.37,0a.17.17,0,0,1,0-.13c0-.14.46-.28,1.39-.43a2,2,0,0,0,.61-.34,5,5,0,0,1,1.43-.59l1.37-.41c.56-.18.94-.73,1.16-1.63,0,0-.17-.24-.41-.62,0,0-.12,0-.34,0a1.86,1.86,0,0,0-.32-.22,2.17,2.17,0,0,1-.52-.42l-.27.09a3.08,3.08,0,0,0-.74-.28,2.56,2.56,0,0,1-.9-.46.78.78,0,0,1-.22.09,3.56,3.56,0,0,1-.5-.23l-.62-.27h-.36l-.16-.05c-.09-.1-.16-.16-.22-.16l-.23.05a.53.53,0,0,1-.23,0h-.38a1.61,1.61,0,0,1-.37-.22h-.74l-.41.09a.62.62,0,0,1-.3-.18l-.41.09-.4-.18-.62.09a.57.57,0,0,0-.27-.14l-1.81.18a.19.19,0,0,1-.16-.09.52.52,0,0,0-.22-.14,1.39,1.39,0,0,1-.33-.18,1.85,1.85,0,0,1-.93.28l-.7-.1-.13.05H194l-.41-.09a.2.2,0,0,1-.05.14l-.34-.1-1.25.23h0l-.23,0a.84.84,0,0,0-.26.06.67.67,0,0,1-.26.07l-.5,0-.38.09-.55-.05-.47.34h-.1a.32.32,0,0,1-.2-.08.44.44,0,0,0-.16-.08l-.34.07-.27-.07c-.06,0-.18.15-.36.43,0,0,0,0-.09,0h0l-.34-.09c-.06,0-.18.11-.36.32s-.57.22-.84.34a1.49,1.49,0,0,1-.55.54Z" transform="translate(-108.13 -100.3)"/><path class="cls-3" d="M223.28,178.76l-.61,1.32a6.93,6.93,0,0,1-.69,1.3,4.54,4.54,0,0,0-.58,1l-.64,1.38-.56.57a1.14,1.14,0,0,0-.14.36,3,3,0,0,1-.29,1.08,8.47,8.47,0,0,0-.46,1.26v.27a2,2,0,0,1-.36.7v.27a4.71,4.71,0,0,1-.39.84l.05.27a.39.39,0,0,1-.05.14l-.43,1.34a4.29,4.29,0,0,0-.21.91c0,.18,0,.34,0,.49v.41l-.09.52.05.28v.13a2,2,0,0,1-.05.48.91.91,0,0,0,.37.5.17.17,0,0,1,.13.05.12.12,0,0,0,.09.06l.64-.41a2.92,2.92,0,0,0,.95-.81l.66-.59.13-.21.28,0a5.16,5.16,0,0,0,.42-.5c.16-.21.27-.32.33-.32a.14.14,0,0,1,.09,0h.31a.5.5,0,0,1,.23,0l.05-.09v-.39c0-.49.16-.74.47-.74a3.82,3.82,0,0,1,.62-.73l.09-.34a1.64,1.64,0,0,1,.49-.59,3.88,3.88,0,0,0,.76-1l.79-.93a3,3,0,0,0,.14-.34l.18-.18.38,0a.18.18,0,0,0,.09-.18.3.3,0,0,0,0-.13.63.63,0,0,1-.05-.28,3.47,3.47,0,0,1,.67-1.07,6.89,6.89,0,0,0,.85-1.3c.13-.28.25-.42.37-.42s.11.06.15.16a.19.19,0,0,0,.19.16s0,0,0,0a.12.12,0,0,0-.06-.09.15.15,0,0,1-.07-.14,1.73,1.73,0,0,1,.31-1,4.36,4.36,0,0,0,.43-.76,1.5,1.5,0,0,1,.19-.4,2,2,0,0,0,.2-.37,1.21,1.21,0,0,1,.27-.39,1.14,1.14,0,0,0,.27-.31.65.65,0,0,1,.26-.26c.1-.06.2-.28.29-.65a2.84,2.84,0,0,1,1-1.3.4.4,0,0,1-.14-.27.83.83,0,0,1,.14-.32,11.4,11.4,0,0,1,.8-1.68c.54-1,1-1.79,1.33-2.33l.09-.32.3-.27.41-.61,1.24-.84a1.75,1.75,0,0,1,.71-.32,1.15,1.15,0,0,1,.36.05.4.4,0,0,1,.25-.14l.18,0h.09a.76.76,0,0,1,.32-.13.58.58,0,0,1,.25.09h.13a1.59,1.59,0,0,1,.72.35c.32.24.49.41.49.53l-.05.28.05.27a2.24,2.24,0,0,1-.54,1.39c-.35.46-.56.75-.62.85l-.3.14a3.31,3.31,0,0,0-.05.35.78.78,0,0,1-.2.45,2.87,2.87,0,0,0-.36.65,3.08,3.08,0,0,1-.36.68v.32l-1.07,2.56a2.78,2.78,0,0,1-.21.49.42.42,0,0,1-.38.21,1.12,1.12,0,0,0,.17.2.25.25,0,0,1,.11.21.78.78,0,0,1-.66.8.53.53,0,0,1,.13.31l.12.25-.43.77v.39a2.22,2.22,0,0,0-.32.64v.38a2,2,0,0,1-.27.59l-.21.39a2.4,2.4,0,0,0-.14.36h0l0,.48-.27.22v.46a.78.78,0,0,0-.23.61,1.18,1.18,0,0,1-.25.56,2,2,0,0,1,.05.23,2.64,2.64,0,0,1-.18,1,2.22,2.22,0,0,0-.19.58v.34a.36.36,0,0,1,.14.27,1.1,1.1,0,0,1-.07.26,1.53,1.53,0,0,0-.07.4c0,.45.1.68.28.68l.52-.16a.65.65,0,0,0,.39-.31.75.75,0,0,1,.37-.33.41.41,0,0,0,.29-.35c0-.16.16-.27.44-.34a6.49,6.49,0,0,0,1.8-1.48l.71-.41.18-.32c.12-.12.32-.35.6-.7s.5-.52.67-.52c.45,0,.68.25.68.74a6,6,0,0,1-.22.89,3.3,3.3,0,0,1-.3.86,3.08,3.08,0,0,1-.28.22,1.23,1.23,0,0,0-.36.51,4.54,4.54,0,0,1-1.54,1.15,5.12,5.12,0,0,0-.5.42,3.59,3.59,0,0,1-.6.47,2.9,2.9,0,0,0-.49.36,1.72,1.72,0,0,1-.59.34l-.18.09a.33.33,0,0,0-.14,0c-.09,0-.19.06-.3.2a1.16,1.16,0,0,1-.52.32,1.55,1.55,0,0,0-.53.28c-.13.11-.22.17-.28.17l-.37-.16c-.18.17-.29.25-.34.25l-.27-.13a.46.46,0,0,0-.25-.14,1.25,1.25,0,0,1-.38-.2,3.12,3.12,0,0,0-.47-.32,1.72,1.72,0,0,1-.54-.84L230,192a1.72,1.72,0,0,1-.23-.47c0-.1,0-.28.05-.55v-.13a3.58,3.58,0,0,0-.09-.65,3.75,3.75,0,0,1-.09-.67l.54-3-.09-.54a2.25,2.25,0,0,1,.28-.92,10.28,10.28,0,0,0,.56-2.57c-.24.74-.42,1.11-.55,1.11l-.34,0a.18.18,0,0,0-.09.18,1.83,1.83,0,0,0,.09.39v.32c0,.28-.28.52-.84.7a.33.33,0,0,1,0,.14c.17.07.25.15.25.22a1,1,0,0,1-.42.82,2.23,2.23,0,0,0-.56.51c-.09.14-.17.22-.25.22l-.13-.21H228l-.23.43a.55.55,0,0,1,.14.23,3.75,3.75,0,0,1-.46.79c-.31.47-.5.71-.56.71l-.66.63-.09.2V190a.46.46,0,0,1-.09.18l-.88,1.25-.28.52-.93,1.39a1.14,1.14,0,0,0-.5.34l-.16.09c0,.24-.19.47-.59.68a1.54,1.54,0,0,1-.56.84,2.44,2.44,0,0,0-.55.43l-.43.27-.54.45-.62.21-.27-.21c-.12.35-.23.52-.32.52l-.52-.09-.43.09a2.57,2.57,0,0,1-1.42-.72,8.63,8.63,0,0,1-1-1l-.27-.37a.53.53,0,0,1-.18-.28,1.32,1.32,0,0,0-.43-.47l-.23-.36v-.29a5,5,0,0,1-.6-1,5.7,5.7,0,0,1-.06-1.06v-.18l.09-.32,0-.52a3.66,3.66,0,0,1,.21-1,4.68,4.68,0,0,0,.22-.75v-.14l-.07-.13.3-1a2.26,2.26,0,0,1,.22-.62,1.93,1.93,0,0,0,.14-.78c0-.44.25-.67.66-.67a.36.36,0,0,1,.13.05.24.24,0,0,0,.18-.27h-.09c-.12,0-.18-.09-.18-.25a.8.8,0,0,1,.14-.5.87.87,0,0,0,.13-.52,1.26,1.26,0,0,1,.38-.83,2.31,2.31,0,0,0,.37-.47,2.41,2.41,0,0,1,.35-1,10.26,10.26,0,0,0,.57-1.17,4.13,4.13,0,0,1,.51-.93,3,3,0,0,0,.43-.8,2,2,0,0,1,.55-.77l.24-.45a7.79,7.79,0,0,1,.5-.7,1.36,1.36,0,0,0,.29-.67.67.67,0,0,1,.39-.56.59.59,0,0,0,.39-.4,1.72,1.72,0,0,1,.17-.46,1.73,1.73,0,0,0,.17-.44,1.15,1.15,0,0,1,.27-.49,2.76,2.76,0,0,0,.42-.83c.13-.37.32-.55.56-.55l.45,0,0-.16s0-.09-.12-.18a.45.45,0,0,1-.11-.27c0-.44.14-.66.43-.66.09,0,.2.1.32.3.1-.89.17-1.37.19-1.42a.47.47,0,0,0,0-.17l.05-.23a.55.55,0,0,0,0-.25.86.86,0,0,0-.17-.41c-.12-.16-.21-.24-.29-.24s-.19,0-.52.11l-.27-.27c-.15.33-.3.5-.46.5l-.38-.14a3,3,0,0,1-1,.5l-.36-.14h0c-.09,0-.19.11-.28.33a.59.59,0,0,1-.6.33h-.23a1.4,1.4,0,0,1-.57.47,1.19,1.19,0,0,0-.49.28,1.42,1.42,0,0,1-.44.29,2.8,2.8,0,0,0-.61.46l-.23.13c-.27.17-.42.33-.45.49a.79.79,0,0,1-.25.44c-.54.4-.82.72-.82,1l0,.41,0,.59q0,.24-.42.6a1.24,1.24,0,0,1-.69.35c-1.08,0-1.63-.33-1.63-1l.09-.65,0-.53,0-.45a1.28,1.28,0,0,1,.63-1,9.65,9.65,0,0,0,.85-.69l.88-.45a2,2,0,0,0,.46-.47,2.55,2.55,0,0,1,1-.59,4.38,4.38,0,0,0,1.22-.69,3.74,3.74,0,0,1,1.14-.6,9.37,9.37,0,0,0,1.14-.46,1.82,1.82,0,0,1,.49-.21l.27.05a2.16,2.16,0,0,0,.49-.29,1,1,0,0,1,.58-.19l2.79-.63a2.89,2.89,0,0,1,1.63.5c.8.4,1.2,1.3,1.2,2.69a6,6,0,0,1-.69,1.86,14.73,14.73,0,0,1-1.53,2.54l-.14.34-.61,1.07-.36.79c-.17.31-.34.66-.52,1.07l-.41.54A2.84,2.84,0,0,0,223.28,178.76Z" transform="translate(-108.13 -100.3)"/><path class="cls-3" d="M243.8,170.71l-.18-1.11a.55.55,0,0,1,.12-.39,2,2,0,0,0,.2-.38.8.8,0,0,1,.15-.29,3.39,3.39,0,0,0,.4-.7,1.21,1.21,0,0,1,1-.67.88.88,0,0,1,.64-.23c.36,0,.8.34,1.3,1a3.59,3.59,0,0,1,.76,1.3,1.24,1.24,0,0,1-.52.84,2,2,0,0,1-.44,1.28,4.45,4.45,0,0,0-.58.81,1.12,1.12,0,0,1-.2.33,11.54,11.54,0,0,0-.83,1.1c-.51.71-.91,1.06-1.19,1.06a4,4,0,0,1-.67-.27,2.56,2.56,0,0,1-.6-.32,1.63,1.63,0,0,1,.63-1.17,2.09,2.09,0,0,0,.73-1.19c-.08,0-.22-.22-.43-.57Z" transform="translate(-108.13 -100.3)"/><path class="cls-3" d="M252.53,196.2l-.32,0a1.55,1.55,0,0,1-.62.2,2.35,2.35,0,0,0-1,.42,12.12,12.12,0,0,1-1.49.76c-.56.24-.84.4-.84.47a9.29,9.29,0,0,0,2.32-.61l1.64-.45a1.49,1.49,0,0,0,.44-.18,2.6,2.6,0,0,1,.49-.25l.36-.27.5-.19q.39-.13.39-.27a.08.08,0,0,0-.09-.09,2.78,2.78,0,0,0-1.3.25A3.27,3.27,0,0,1,252.53,196.2Zm7.91-5.67.19-.45.59-.66a2.49,2.49,0,0,1,.74-.89,1.43,1.43,0,0,1,.14-.34,1.38,1.38,0,0,0,.14-.49l.2-.37c.06-.06.09-.1.09-.13a1,1,0,0,0-.18-.28l-.11-.47c0-.12-.4-.52-1.21-1.2h-.18l-1.63-.8-.09-.22-.18,0-.23.09h-.05l-.77-.23a8.36,8.36,0,0,1-1.22-.38.21.21,0,0,1-.14,0l-.91-.2a1,1,0,0,1-.46-.19,1,1,0,0,0-.39-.21,1.23,1.23,0,0,1-.4-.19.52.52,0,0,0-.36-.09l-.57.14c0-.05-.21-.13-.63-.23-.06-.15-.11-.23-.14-.23l-.66.09-.68-.31c-.08,0-.34-.05-.79-.13a2.73,2.73,0,0,1-.89-.26,2.57,2.57,0,0,0-.61-.27l-.14-.14a.59.59,0,0,0-.25-.09h-.4c-.1,0-.22-.07-.38-.23a3.58,3.58,0,0,0-.61-.45,2,2,0,0,1-.66-.71,2.24,2.24,0,0,1-.31-1,.12.12,0,0,1,0-.09l.14-.73a4.71,4.71,0,0,1,1.29-2.56,1.35,1.35,0,0,1,.75-.88l.09-.32a8.41,8.41,0,0,0,.94-.91,2.27,2.27,0,0,1,.65-.55,4,4,0,0,0,.56-.4l.41-.18c0-.14.32-.46,1-1a8.22,8.22,0,0,1,1.62-1,6.83,6.83,0,0,0,.77-.36,6.27,6.27,0,0,1,1.12-.34c.15-.4.39-.61.73-.61h.34l.45-.45.61,0a3.5,3.5,0,0,0,.25-.28.85.85,0,0,1,.68-.24l2.75-.84h.18l.18.05c.12,0,.28-.11.46-.32a1,1,0,0,1,.74-.32.78.78,0,0,1,.34.18,0,0,0,0,0,.05.05l.59-.18.7,0,.88-.22a2.71,2.71,0,0,1,1.48.4l0-.09v-.13c0-.26.15-.39.43-.39.13,0,.2,0,.23.09l.27.16h.16a4.33,4.33,0,0,1,.59.27,1.24,1.24,0,0,1,.43-.22.77.77,0,0,1,.68.36l.39-.05c.12-.12.2-.18.23-.18s.21.12.36.37l.13,0h.57s.09.05.18.14l.25.2a1.39,1.39,0,0,1,.25.3,1.56,1.56,0,0,0,.16.2,4.68,4.68,0,0,1,.64-.25c.15,0,.26.13.34.39a.82.82,0,0,0,.39.62.83.83,0,0,1,.4.65.75.75,0,0,1,.5.72l.43,1.11-.09.39a2.21,2.21,0,0,1,.18.41l-.09.84.09.88a1.46,1.46,0,0,1-.66,1.2,1,1,0,0,0-.44.2,1.85,1.85,0,0,1-.35.19.88.88,0,0,1-.78-.29,1.93,1.93,0,0,0-.38-.41.46.46,0,0,1-.18-.37,1.35,1.35,0,0,1,.7-1,.52.52,0,0,0,.46-.2.84.84,0,0,0-.21-.66,4,4,0,0,1-.44-.5,2.46,2.46,0,0,0-.51-.51,1.48,1.48,0,0,1-.44-.49c-.11-.19-.22-.29-.31-.29l-.32,0-.65-.13a7.86,7.86,0,0,1-1.91-.48h-.45l-1.23-.18a2.35,2.35,0,0,1-.9.14l-1.5.22-.61,0c-.05,0-.46.13-1.25.38l-.23.05H262a3.87,3.87,0,0,0-.58.23,6,6,0,0,1-.89.31l-.21.09a.17.17,0,0,1-.13,0l-.37,0-2,1-.32-.18A2.74,2.74,0,0,0,257,172a.28.28,0,0,0-.32.31l0,.43a2.92,2.92,0,0,0-.39.28.58.58,0,0,1-.23.13h-.27a.72.72,0,0,0-.51.24.76.76,0,0,1-.42.26,1.67,1.67,0,0,0-.52.21q0,.09-.36.18a.78.78,0,0,0-.49.42c-.11.22-.25.33-.4.33l-.45-.1-.25.46-.54.13a2.73,2.73,0,0,1-.59.59c-.2.14-.39.29-.58.45a1.59,1.59,0,0,0-.41.48,1,1,0,0,1-.37.4,1.23,1.23,0,0,0-.44.6l-.22.23a1.35,1.35,0,0,0-.57,1q0,.39.54.57a3,3,0,0,1,.69.29.58.58,0,0,0,.4.11,1.21,1.21,0,0,1,.53.12l.83.36c.08.24.16.36.23.36s.09-.06.18-.18a.48.48,0,0,1,.41-.18.74.74,0,0,1,.57.36l.18-.13h.09l.29.09h0l.27-.14a.2.2,0,0,1,.14,0,5.09,5.09,0,0,1,.7.22h0l.36-.09a1.16,1.16,0,0,1,.38.14l.32.18s0,.07.09.07a.76.76,0,0,0,.27-.1.71.71,0,0,1,.34-.11.64.64,0,0,1,.41.25,3.24,3.24,0,0,1,.41-.16,1.6,1.6,0,0,1,.7.35l.43.09h.5l.75.13a2.4,2.4,0,0,0,.66.52.29.29,0,0,1,.32-.25,3.41,3.41,0,0,1,1.11.3l.18,0,.18.14a3.21,3.21,0,0,1,.47-.09c.31,0,.46.11.46.32a2.52,2.52,0,0,1-.14.7.26.26,0,0,1,.14.09.53.53,0,0,1,.25-.18l.36-.2c.06-.06.11-.1.14-.1a2.91,2.91,0,0,1,1.47.73,2.54,2.54,0,0,1,1.09,1.66,1.45,1.45,0,0,0,.18.63l-.09.3,0,.36a2.18,2.18,0,0,1-.09.32l0,.34a.52.52,0,0,1-.14.16.37.37,0,0,0-.13.15l.13.39V188c0,.06-.05.14-.17.25a.8.8,0,0,0-.21.29,1,1,0,0,1-.16.29.81.81,0,0,0-.16.35c0,.14-.18.29-.44.46s-.4.31-.4.4,0,.14.09.14a1,1,0,0,0,.58-.26,1.44,1.44,0,0,1,.46-.31,2.86,2.86,0,0,0,.55-.27l2.13-1a15,15,0,0,1,2.65-1.13.32.32,0,0,1,.36.36c0,.09-.11.26-.32.52a1.16,1.16,0,0,1-.93,1.25,2,2,0,0,0-.52.47h-.18a1.69,1.69,0,0,1-1.29.64h-.14a3.13,3.13,0,0,1-2,.93,2.16,2.16,0,0,1-1.32.79l-.36.09a2.4,2.4,0,0,1-.79.23s-.09.06-.18.18l-.34.25a2.25,2.25,0,0,0-.93.5,2.4,2.4,0,0,1-.76.47,2.32,2.32,0,0,0-.56.19c-.2.09-1,.6-2.38,1.54l-.3.09a3.74,3.74,0,0,0-1.11.67,2.12,2.12,0,0,1-.54.44h-.09a2,2,0,0,0-1.23.68c0,.08-.36.2-1,.38a6.76,6.76,0,0,0-1.81.8c-.36.09-.8.21-1.33.37a8.91,8.91,0,0,1-1.16.27l-1.59.34q-.52.09-1.2.27a2.33,2.33,0,0,0-.7-.14l-.41.05a.51.51,0,0,1-.28-.16,2.36,2.36,0,0,0-.51-.31c-.22-.09-.32-.36-.32-.78s.41-.75,1.25-1.12,1.37-.63,1.63-.78a.83.83,0,0,1,.63-.3,1.61,1.61,0,0,0,.76-.27,3.11,3.11,0,0,1,1-.41l.91-.47a.25.25,0,0,1,.11,0h.32a.91.91,0,0,0,.48-.25,2,2,0,0,1,.66-.36H253s.07,0,.13-.12a1.75,1.75,0,0,1,.41-.29l.07,0h.23a2.23,2.23,0,0,1,.59-.34,3.29,3.29,0,0,0,.66-.36l1.77-.68.41.05c.09,0,.2-.08.35-.22a2.62,2.62,0,0,1,1-.44,1.55,1.55,0,0,1,.47-.43A7.46,7.46,0,0,0,260,191Z" transform="translate(-108.13 -100.3)"/><path class="cls-4" d="M128.83,196.56l-.32,0a1.41,1.41,0,0,1-.62.2,2.75,2.75,0,0,0-1,.42,10.71,10.71,0,0,1-1.48.76c-.57.25-.85.4-.85.48a9.62,9.62,0,0,0,2.32-.61l1.64-.46a1.49,1.49,0,0,0,.44-.18,4.08,4.08,0,0,1,.49-.25l.37-.27.5-.18c.25-.09.38-.18.38-.27a.08.08,0,0,0-.09-.09,2.74,2.74,0,0,0-1.29.25A3.54,3.54,0,0,1,128.83,196.56Zm7.92-5.66.18-.46.59-.66a2.25,2.25,0,0,1,.75-.88,1.26,1.26,0,0,1,.13-.34,1.44,1.44,0,0,0,.14-.5l.2-.36a.26.26,0,0,0,.09-.14.91.91,0,0,0-.18-.27l-.11-.48q0-.18-1.2-1.2h-.19l-1.63-.79-.09-.23-.18-.05-.23.1h0l-.78-.23A9.36,9.36,0,0,1,133,184a.2.2,0,0,1-.14,0l-.91-.21a.91.91,0,0,1-.46-.19.84.84,0,0,0-.39-.2,1.11,1.11,0,0,1-.4-.2.52.52,0,0,0-.36-.09l-.57.14s-.21-.12-.63-.23c-.06-.15-.11-.22-.14-.22l-.66.09-.68-.32a6.84,6.84,0,0,1-.79-.13,2.73,2.73,0,0,1-.89-.26,2.57,2.57,0,0,0-.61-.27l-.13-.13a.65.65,0,0,0-.25-.09h-.41a.69.69,0,0,1-.38-.23,3.71,3.71,0,0,0-.61-.46,1.9,1.9,0,0,1-.66-.71,2,2,0,0,1-.3-1,.14.14,0,0,1,0-.09l.14-.72A4.81,4.81,0,0,1,124,176a1.37,1.37,0,0,1,.75-.88l.09-.32a9.58,9.58,0,0,0,.94-.9,2.45,2.45,0,0,1,.65-.56,3.28,3.28,0,0,0,.56-.4l.42-.18c0-.13.32-.46,1-1a8.38,8.38,0,0,1,1.61-1c.39-.16.64-.28.77-.35a5.48,5.48,0,0,1,1.12-.34.78.78,0,0,1,.73-.61H133l.45-.46.62.05.24-.29a.9.9,0,0,1,.68-.23l2.75-.84h.18l.18,0c.12,0,.28-.1.47-.32a.93.93,0,0,1,.73-.31.78.78,0,0,1,.34.18s0,0,0,0l.59-.18.7.05.89-.23a2.66,2.66,0,0,1,1.47.41l.05-.09v-.14c0-.25.14-.38.43-.38.12,0,.19,0,.22.09l.28.16h.15a3.78,3.78,0,0,1,.59.27,1.27,1.27,0,0,1,.44-.23.8.8,0,0,1,.68.36l.38,0c.12-.12.2-.18.23-.18s.21.12.36.36l.14,0h.56s.09,0,.19.13l.25.21a1.54,1.54,0,0,1,.24.29,1.66,1.66,0,0,0,.16.21,5.33,5.33,0,0,1,.64-.25c.15,0,.26.12.34.38a.81.81,0,0,0,.4.62.86.86,0,0,1,.39.65.76.76,0,0,1,.5.73l.43,1.11-.09.38a2.58,2.58,0,0,1,.18.41l-.09.84.09.89a1.49,1.49,0,0,1-.65,1.2,1,1,0,0,0-.45.19,1.35,1.35,0,0,1-.35.19.89.89,0,0,1-.78-.28,1.59,1.59,0,0,0-.38-.42.43.43,0,0,1-.18-.36,1.34,1.34,0,0,1,.71-1,.49.49,0,0,0,.45-.21.91.91,0,0,0-.2-.66,3.18,3.18,0,0,1-.45-.49,2.05,2.05,0,0,0-.51-.51,1.59,1.59,0,0,1-.44-.49c-.11-.2-.21-.3-.31-.3l-.31.05L147,171a8.35,8.35,0,0,1-1.91-.47h-.45l-1.22-.19a2.26,2.26,0,0,1-.91.14l-1.5.23-.61-.05s-.46.13-1.25.39l-.22,0h-.62a5.3,5.3,0,0,0-.57.23,6.74,6.74,0,0,1-.9.32l-.2.09a.21.21,0,0,1-.14,0l-.36,0-2,1-.32-.18a2.37,2.37,0,0,0-.43-.18.29.29,0,0,0-.32.32l0,.43a2.34,2.34,0,0,0-.39.27.55.55,0,0,1-.22.14h-.28a.72.72,0,0,0-.51.24.82.82,0,0,1-.42.26,1.59,1.59,0,0,0-.52.2q0,.09-.36.18a.8.8,0,0,0-.49.42q-.16.33-.39.33l-.46-.09-.25.45-.54.14a2.74,2.74,0,0,1-.59.59,5.9,5.9,0,0,0-.58.44,1.65,1.65,0,0,0-.41.49,1,1,0,0,1-.37.4,1.08,1.08,0,0,0-.43.6l-.23.22a1.35,1.35,0,0,0-.57,1c0,.26.18.45.55.57a2.38,2.38,0,0,1,.68.3.65.65,0,0,0,.41.11,1.35,1.35,0,0,1,.52.11l.84.37c.07.24.15.36.22.36s.09-.06.19-.18a.46.46,0,0,1,.4-.18.74.74,0,0,1,.57.36l.18-.14h.09l.3.09h0l.27-.13a.2.2,0,0,1,.14,0,5.61,5.61,0,0,1,.7.23h.05l.36-.09a1.41,1.41,0,0,1,.39.13l.31.19s0,.06.09.06a.63.63,0,0,0,.28-.1.66.66,0,0,1,.34-.1.58.58,0,0,1,.4.25,2.38,2.38,0,0,1,.41-.16,1.61,1.61,0,0,1,.71.34l.43.09h.5l.74.14a2.6,2.6,0,0,0,.66.52.29.29,0,0,1,.32-.25,3.6,3.6,0,0,1,1.11.29l.18.05.18.14a2.6,2.6,0,0,1,.48-.1c.3,0,.45.11.45.32a2.15,2.15,0,0,1-.14.7s.08,0,.14.1a.54.54,0,0,1,.25-.19l.36-.2a.26.26,0,0,1,.14-.09,2.79,2.79,0,0,1,1.47.73,2.52,2.52,0,0,1,1.09,1.65,1.52,1.52,0,0,0,.18.64l-.09.29,0,.36a1.87,1.87,0,0,1-.09.32l0,.34a.48.48,0,0,1-.13.16.42.42,0,0,0-.14.16l.14.38v.09c0,.07-.06.15-.17.25a.76.76,0,0,0-.22.3.9.9,0,0,1-.16.28,1,1,0,0,0-.16.35c0,.14-.18.3-.44.47s-.4.31-.4.4,0,.13.09.13a.88.88,0,0,0,.58-.26,1.55,1.55,0,0,1,.47-.3,3.54,3.54,0,0,0,.54-.28l2.13-1a15.93,15.93,0,0,1,2.65-1.14.32.32,0,0,1,.36.36,1.17,1.17,0,0,1-.32.53,1.15,1.15,0,0,1-.93,1.24,2,2,0,0,0-.52.48H146a1.71,1.71,0,0,1-1.29.63h-.14a3.13,3.13,0,0,1-2,.93,2.19,2.19,0,0,1-1.31.8l-.37.09a2.61,2.61,0,0,1-.79.23s-.09.06-.18.18l-.34.25a2.14,2.14,0,0,0-.93.5,2.22,2.22,0,0,1-.76.46,2.85,2.85,0,0,0-.56.19c-.19.09-1,.61-2.38,1.55l-.29.09a3.54,3.54,0,0,0-1.11.67,2.37,2.37,0,0,1-.55.44h-.09a1.88,1.88,0,0,0-1.22.68,2.66,2.66,0,0,1-1,.37,6.6,6.6,0,0,0-1.8.81l-1.34.36a8.91,8.91,0,0,1-1.16.27l-1.58.34c-.35.06-.75.15-1.21.27a2.23,2.23,0,0,0-.7-.13l-.41,0a.54.54,0,0,1-.28-.16,2.86,2.86,0,0,0-.51-.3c-.21-.1-.32-.36-.32-.78s.42-.76,1.25-1.13,1.38-.63,1.63-.78a.82.82,0,0,1,.63-.29,1.49,1.49,0,0,0,.76-.28,3.25,3.25,0,0,1,1-.4l.91-.48a.28.28,0,0,1,.12-.05h.31a.91.91,0,0,0,.48-.25,2.37,2.37,0,0,1,.66-.36h.27s.08,0,.14-.11a1.33,1.33,0,0,1,.41-.3l.06,0h.23a2.12,2.12,0,0,1,.59-.34,3,3,0,0,0,.66-.36l1.77-.69.41,0a.56.56,0,0,0,.35-.22,2.62,2.62,0,0,1,1-.44,1.77,1.77,0,0,1,.48-.43,7.25,7.25,0,0,0,.86-.72Z" transform="translate(-108.13 -100.3)"/><path class="cls-4" d="M163.9,179.12l-.61,1.32a6.62,6.62,0,0,1-.69,1.3,5.07,5.07,0,0,0-.58,1l-.63,1.38-.57.57a1.14,1.14,0,0,0-.14.36,2.91,2.91,0,0,1-.29,1.08,9.37,9.37,0,0,0-.46,1.26v.27a1.9,1.9,0,0,1-.36.7v.28a5.09,5.09,0,0,1-.38.84l0,.27a.3.3,0,0,1,0,.13l-.44,1.34a4.58,4.58,0,0,0-.21.91c0,.18,0,.35,0,.5V193l-.1.52.05.27V194a2,2,0,0,1-.05.47,1,1,0,0,0,.37.5.15.15,0,0,1,.13.06.12.12,0,0,0,.09.06l.64-.41a2.83,2.83,0,0,0,1-.82l.66-.59.14-.2.27-.05a5.16,5.16,0,0,0,.42-.5c.16-.21.27-.31.33-.31a.12.12,0,0,1,.09,0h.32a.48.48,0,0,1,.22,0l.05-.09v-.39c0-.5.16-.75.47-.75a3.82,3.82,0,0,1,.62-.72l.09-.34a1.56,1.56,0,0,1,.49-.59,3.88,3.88,0,0,0,.76-1l.79-.92c0-.07.08-.18.14-.35l.18-.18.39,0a.18.18,0,0,0,.09-.18.39.39,0,0,0-.05-.14.64.64,0,0,1,0-.27,3.22,3.22,0,0,1,.66-1.08,7.7,7.7,0,0,0,.86-1.29q.18-.42.36-.42c.06,0,.11.05.15.16a.2.2,0,0,0,.19.16,0,0,0,0,0,0,0s0-.06-.07-.09a.14.14,0,0,1-.07-.14,1.72,1.72,0,0,1,.32-1,4.47,4.47,0,0,0,.42-.76,1.67,1.67,0,0,1,.19-.4,1.7,1.7,0,0,0,.2-.37,1.19,1.19,0,0,1,.28-.39,1.48,1.48,0,0,0,.26-.3.72.72,0,0,1,.26-.26c.1-.06.2-.28.29-.66a2.77,2.77,0,0,1,1-1.29.4.4,0,0,1-.14-.27.77.77,0,0,1,.14-.32,10.41,10.41,0,0,1,.8-1.68c.54-1,1-1.79,1.33-2.34l.09-.31.3-.28.41-.61,1.24-.84a1.75,1.75,0,0,1,.71-.32,1.15,1.15,0,0,1,.36.05.49.49,0,0,1,.25-.14l.18.05h.09a.83.83,0,0,1,.32-.14.58.58,0,0,1,.25.09h.14a1.52,1.52,0,0,1,.71.36c.32.23.49.41.49.53l-.05.27.05.27a2.27,2.27,0,0,1-.54,1.4c-.35.46-.56.74-.62.85l-.29.13a1.78,1.78,0,0,0-.06.36.8.8,0,0,1-.19.45,2.32,2.32,0,0,0-.37.65,3.12,3.12,0,0,1-.36.68v.31L176.52,180a2.67,2.67,0,0,1-.21.48.4.4,0,0,1-.38.22.79.79,0,0,0,.17.19.28.28,0,0,1,.11.22.77.77,0,0,1-.66.79.58.58,0,0,1,.14.32l.11.25-.43.77v.38a2.51,2.51,0,0,0-.32.64v.39a2.08,2.08,0,0,1-.27.59l-.21.38a3.31,3.31,0,0,0-.13.36h-.05l.05.48-.28.23v.45a.79.79,0,0,0-.22.61,1.3,1.3,0,0,1-.26.57.84.84,0,0,1,0,.23,2.55,2.55,0,0,1-.18,1,2.16,2.16,0,0,0-.18.58v.34a.38.38,0,0,1,.13.27,1.1,1.1,0,0,1-.07.26,1.55,1.55,0,0,0-.06.4c0,.45.09.68.27.68l.52-.16a.67.67,0,0,0,.39-.3.71.71,0,0,1,.37-.33.43.43,0,0,0,.29-.35c0-.16.16-.28.44-.34a6.62,6.62,0,0,0,1.8-1.49l.71-.41.18-.32c.12-.12.32-.35.6-.7s.5-.52.67-.52c.45,0,.68.25.68.75a6,6,0,0,1-.22.88,3.14,3.14,0,0,1-.3.86,1.33,1.33,0,0,1-.27.22,1.15,1.15,0,0,0-.37.51,4.62,4.62,0,0,1-1.54,1.16,5.12,5.12,0,0,0-.5.42,3.44,3.44,0,0,1-.6.46,2.9,2.9,0,0,0-.49.36,1.39,1.39,0,0,1-.59.34l-.18.1a.36.36,0,0,0-.13-.05.45.45,0,0,0-.31.2,1.09,1.09,0,0,1-.51.32,1.52,1.52,0,0,0-.54.29c-.13.11-.22.17-.28.17l-.37-.16c-.18.16-.29.25-.34.25l-.27-.14a.54.54,0,0,0-.25-.14,1.16,1.16,0,0,1-.38-.2,4.91,4.91,0,0,0-.46-.32,1.66,1.66,0,0,1-.55-.84l-.18-.22a1.71,1.71,0,0,1-.23-.48c0-.09,0-.27,0-.54v-.14a3.7,3.7,0,0,0-.09-.65,3.54,3.54,0,0,1-.09-.67l.54-3-.09-.55a2.38,2.38,0,0,1,.28-.91,10.4,10.4,0,0,0,.56-2.58q-.36,1.11-.54,1.11l-.34,0a.17.17,0,0,0-.1.18,1.38,1.38,0,0,0,.1.38v.32c0,.29-.28.52-.84.7a.34.34,0,0,1-.05.14c.17.08.25.15.25.23a.92.92,0,0,1-.42.81,2.43,2.43,0,0,0-.56.51c-.09.15-.17.22-.25.22l-.13-.2h-.05l-.22.43a.6.6,0,0,1,.13.22,3.67,3.67,0,0,1-.46.8c-.31.47-.5.7-.56.7l-.66.64-.09.2v.23a.46.46,0,0,1-.09.18l-.88,1.24-.28.53-.93,1.38a1.43,1.43,0,0,0-.5.34l-.15.09c0,.24-.2.47-.59.68a1.53,1.53,0,0,1-.57.84,3.1,3.1,0,0,0-.55.43l-.43.27-.54.46-.61.2-.28-.2c-.12.35-.22.52-.31.52l-.53-.09-.43.09a2.53,2.53,0,0,1-1.42-.73,7.82,7.82,0,0,1-1-.95l-.27-.36a.56.56,0,0,1-.18-.29,1.31,1.31,0,0,0-.43-.46l-.23-.36v-.3a4.79,4.79,0,0,1-.6-1,5.62,5.62,0,0,1-.06-1.06v-.18l.09-.31,0-.53a3.66,3.66,0,0,1,.21-1,4.42,4.42,0,0,0,.22-.74v-.14l-.07-.14.3-.95a2.15,2.15,0,0,1,.22-.61,2,2,0,0,0,.14-.78c0-.45.25-.67.66-.67a.3.3,0,0,1,.13,0,.24.24,0,0,0,.18-.27h-.09c-.12,0-.18-.08-.18-.25a.82.82,0,0,1,.14-.5.85.85,0,0,0,.13-.52,1.28,1.28,0,0,1,.38-.83,2.45,2.45,0,0,0,.37-.46,2.39,2.39,0,0,1,.35-1,10.26,10.26,0,0,0,.57-1.17,4.85,4.85,0,0,1,.51-.93,3,3,0,0,0,.43-.79,2,2,0,0,1,.55-.77l.25-.46a5.86,5.86,0,0,1,.5-.7,1.31,1.31,0,0,0,.28-.67.67.67,0,0,1,.4-.55.61.61,0,0,0,.38-.4,1.78,1.78,0,0,1,.17-.47,1.6,1.6,0,0,0,.17-.44,1.28,1.28,0,0,1,.27-.49,2.68,2.68,0,0,0,.42-.82c.13-.37.32-.56.56-.56l.45.05,0-.16s0-.09-.12-.18a.45.45,0,0,1-.11-.28c0-.43.14-.65.43-.65.09,0,.2.1.32.29.11-.89.17-1.36.19-1.42a.47.47,0,0,0,0-.17l0-.22a.58.58,0,0,0,0-.25.83.83,0,0,0-.17-.41c-.12-.17-.21-.25-.29-.25l-.52.11-.27-.27c-.15.33-.3.5-.45.5l-.39-.14a2.82,2.82,0,0,1-1,.5l-.36-.13h0c-.09,0-.18.11-.28.33a.59.59,0,0,1-.6.32h-.23a1.32,1.32,0,0,1-.57.47,1.22,1.22,0,0,0-.48.28,1.92,1.92,0,0,1-.45.3,2.36,2.36,0,0,0-.61.45l-.23.14a.84.84,0,0,0-.45.49.86.86,0,0,1-.25.44c-.54.39-.81.72-.81,1l0,.41,0,.59q0,.25-.42.6a1.17,1.17,0,0,1-.7.35c-1.08,0-1.63-.32-1.63-1l.09-.66,0-.52,0-.45a1.28,1.28,0,0,1,.63-1,9.65,9.65,0,0,0,.85-.69l.88-.46a2,2,0,0,0,.46-.46,2.43,2.43,0,0,1,1-.59,4.76,4.76,0,0,0,1.22-.69,3.35,3.35,0,0,1,1.14-.6,9.12,9.12,0,0,0,1.14-.47,1.64,1.64,0,0,1,.49-.2l.27,0a2.09,2.09,0,0,0,.49-.28,1,1,0,0,1,.58-.19l2.79-.64a3,3,0,0,1,1.63.5q1.2.62,1.2,2.7a6,6,0,0,1-.69,1.86,15.13,15.13,0,0,1-1.53,2.54l-.13.34-.62,1.06-.36.8c-.17.3-.34.66-.52,1.06l-.41.55A3,3,0,0,0,163.9,179.12Z" transform="translate(-108.13 -100.3)"/><path class="cls-4" d="M187.84,183.27h-.57a1.14,1.14,0,0,0-.49.27c-.23.17-.35.29-.35.35s.18.23.53.51a2,2,0,0,0,.67.42c.28,0,.6-.62,1-1.86l-.23.09-.27-.05Q187.84,183.23,187.84,183.27Zm-1.51-10.72,0,.25a1.36,1.36,0,0,1-.64.77,2,2,0,0,1-1.13.38c-1,0-1.43-.45-1.43-1.36a1.87,1.87,0,0,1,.74-1.17,4.06,4.06,0,0,1,2-1,9,9,0,0,0,1.77-.53,5.18,5.18,0,0,1,1.64-.4.52.52,0,0,0,.37.18.42.42,0,0,0,.4-.2c.08-.14.25-.18.53-.12h.11l1.2-.31.36.13a.4.4,0,0,0,.22-.09.83.83,0,0,1,.3-.13h.37l.43-.09a2.23,2.23,0,0,0,.59-.21l.38.05a7.46,7.46,0,0,0,1.42-.23,9.93,9.93,0,0,1,1.5-.25,5,5,0,0,0,.75-.07l.28,0a.66.66,0,0,1,.34.13.68.68,0,0,0,.3.14c.06,0,.48-.09,1.27-.27h.13l1,.22a1.5,1.5,0,0,1,.55-.22,1,1,0,0,1,.79.32l.43-.19.23.05a3.11,3.11,0,0,0,.41-.05h.18a1.47,1.47,0,0,1,.34.05.12.12,0,0,0,.09,0,1.19,1.19,0,0,0,.36,0h.3l1,.23.41-.05a1.09,1.09,0,0,1,.27.14l.25-.05a5.07,5.07,0,0,0,.82.43,2,2,0,0,1,.34-.09h0a2.7,2.7,0,0,1,.46.27l.65.32.18-.09a3.48,3.48,0,0,1,.66.36l.18.39a6.33,6.33,0,0,1,.61.36,2.17,2.17,0,0,0,.27.52v.18s.12.14.35.33.35.33.35.42a2.72,2.72,0,0,1,0,.32v.05a1.23,1.23,0,0,0,.15.29,1,1,0,0,1,.16.59l0,.32,0,.29-.22,1.52a1.29,1.29,0,0,0-.28.44.51.51,0,0,1-.34.33.89.89,0,0,0-.44.47.85.85,0,0,1-.49.46,1.7,1.7,0,0,0-.6.4.9.9,0,0,1-.65.28l-2.43.73-.27-.09a1.34,1.34,0,0,1-1.21.66,5.08,5.08,0,0,0-.9.16l-.46.11-.36-.05-.84.16a2,2,0,0,0-.57.17.9.9,0,0,1-.46.1l-.61.32a.17.17,0,0,1-.13.05.35.35,0,0,1-.23-.05l-.32-.09a.84.84,0,0,0-.33.16.44.44,0,0,1-.28.11l-.28-.22-.43.36a5.18,5.18,0,0,0-.72.2,1.38,1.38,0,0,0-.39-.16l-.8.34-.45-.13-.05.13a1.14,1.14,0,0,0-.64.23,1.09,1.09,0,0,1-.56.23.5.5,0,0,1-.34-.18.26.26,0,0,1-.18-.09,1.17,1.17,0,0,0-.34.32,1.08,1.08,0,0,1-.5.33l-.55-.15s-.14.12-.43.23-.44.21-.45.29l-.23.31c-.11.26-.19.47-.25.64a1.17,1.17,0,0,1-.23.4,1.32,1.32,0,0,0-.25.51,2.85,2.85,0,0,1-.41.79l0,.27a2.62,2.62,0,0,1-.41.41l-.52,1a1.11,1.11,0,0,0-.23.47c0,.23.2.45.61.66l2.41,2,.38.23h.05l-.09.41a.8.8,0,0,0,.23.11c.09,0,.13-.07.13-.2H194s.1.06.23.2l.25.14c.1.1.3.28.59.52s.43.41.43.5l-.05.18h.14c.06-.06.1-.09.13-.09a1.62,1.62,0,0,1,.5.27l.3.13a8.72,8.72,0,0,1,1.1.89,3.84,3.84,0,0,0,.57.51,2.3,2.3,0,0,1,.6.65l2.61,1.95q3.27,2.44,3.67,3.26a1,1,0,0,0,.44.27,4,4,0,0,1,1,.76,3.32,3.32,0,0,1,.77,1v.79c0,.06-.07.14-.22.23l-.3.27a1.57,1.57,0,0,1-1,.61,2.22,2.22,0,0,1-1.56-.47l-.12,0h-.22c-.24,0-.38-.21-.41-.63l-.09-.3a3.33,3.33,0,0,1-1.72-1.15l-1.3-1.21-.75-.87a6.59,6.59,0,0,0-1.23-1.19,3.49,3.49,0,0,1-.84-.75,3.26,3.26,0,0,0-.82-.72,4.32,4.32,0,0,1-1.07-1.15,7.16,7.16,0,0,0-.64-.85c-.68-.36-1-.76-1-1.2a2.12,2.12,0,0,0-.66-.18,1.49,1.49,0,0,0-.34-.32.35.35,0,0,1-.12-.07l.05-.36a2.14,2.14,0,0,1-1-.51l-.73-.83a7.81,7.81,0,0,0-.78-.81c-.22-.18-.34-.33-.35-.44s-.16-.23-.43-.38a2,2,0,0,1-.34.43,1,1,0,0,0-.27.36l-.1.14a1,1,0,0,0-.31.7,1.42,1.42,0,0,0-.43,1l-1,2.32-.19.84-.13,1.43c-.05.4-.22.61-.52.61l-.45,0a3.58,3.58,0,0,0-.85-.17c-.44-.05-.81-.49-1.09-1.32a2.41,2.41,0,0,0-.26-.46,1.08,1.08,0,0,1-.22-.56,2.23,2.23,0,0,1,.14-.59l.09-.53a7.58,7.58,0,0,1,.57-1.29l1.2-2.29.59-.88a3.06,3.06,0,0,0,.25-.69,2.23,2.23,0,0,1,.42-.86,1,1,0,0,0,.28-.49c0-.19-.14-.37-.42-.55s-.43-.35-.46-.52L186,185c-.8-.47-1.2-1-1.2-1.58q0-.48,1.2-1.2a7.85,7.85,0,0,1,1.62-.8,3,3,0,0,0,.83-.32l.39-.09.31-.27a5.89,5.89,0,0,1,.67-.17c.27-.05.49-.36.68-.93a2.08,2.08,0,0,1,.51-1,12.65,12.65,0,0,0,.61-1.4c0-.06.12-.2.26-.42a4.45,4.45,0,0,0,.45-1.09c.15-.51.25-.76.31-.76a1.47,1.47,0,0,0,.36-.09l-.22-.61A.52.52,0,0,1,193,174a1.4,1.4,0,0,1-.32-.93c0-.59.42-.88,1.25-.88a2.4,2.4,0,0,1,.9.4c.45.26.69.45.73.57a2,2,0,0,0,.29.58,1.33,1.33,0,0,1,.25.67,1.6,1.6,0,0,1-.3,1.16,3.2,3.2,0,0,0-.61,1.2l-.61,1.72-.09.43-.11.19.56-.14c.12-.33.64-.52,1.55-.57l1.43-.45h.43l1.39-.39.66-.09h.13l.28,0a.51.51,0,0,1,.18.18h.09q.25,0,.27-.3c0-.19.24-.29.66-.29a.22.22,0,0,1,.17.11.21.21,0,0,0,.17.12.45.45,0,0,1,.35-.35,1.73,1.73,0,0,1,.45-.11l.36,0a.2.2,0,0,1,0-.14c0-.13.47-.28,1.39-.43a1.68,1.68,0,0,0,.61-.34,5.8,5.8,0,0,1,1.44-.59l1.36-.41c.56-.18,1-.72,1.16-1.63a7.11,7.11,0,0,1-.41-.61s-.11,0-.34,0a1.46,1.46,0,0,0-.32-.21,3.18,3.18,0,0,1-.52-.42l-.27.09a2.93,2.93,0,0,0-.74-.29,2.3,2.3,0,0,1-.89-.46.8.8,0,0,1-.23.09,2.55,2.55,0,0,1-.5-.23l-.61-.27h-.36l-.16,0c-.09-.11-.17-.16-.23-.16l-.23,0a.48.48,0,0,1-.22.05H203a1.73,1.73,0,0,1-.36-.23h-.75l-.41.09a.57.57,0,0,1-.29-.18l-.41.09-.41-.18-.61.09a.57.57,0,0,0-.27-.14l-1.82.19a.21.21,0,0,1-.16-.09.37.37,0,0,0-.21-.14,1.09,1.09,0,0,1-.33-.18,1.89,1.89,0,0,1-.93.27l-.7-.09-.14,0h-.09l-.41-.09a.2.2,0,0,1,0,.14l-.34-.09-1.25.23h0l-.22,0a.76.76,0,0,0-.27.07.92.92,0,0,1-.26.07l-.49,0-.39.09-.54,0-.48.34h-.09a.43.43,0,0,1-.21-.08.27.27,0,0,0-.15-.08l-.34.07-.28-.07c-.06,0-.18.14-.36.43,0,0,0,0-.09,0h0l-.34-.09c-.06,0-.18.11-.36.32s-.57.22-.84.34a1.54,1.54,0,0,1-.54.55Z" transform="translate(-108.13 -100.3)"/><path class="cls-4" d="M224.38,179.12l-.62,1.32a5.69,5.69,0,0,1-.69,1.3,5.63,5.63,0,0,0-.58,1l-.63,1.38-.57.57a1.14,1.14,0,0,0-.14.36,2.73,2.73,0,0,1-.29,1.08,8.06,8.06,0,0,0-.45,1.26v.27a1.82,1.82,0,0,1-.37.7v.28a5.09,5.09,0,0,1-.38.84l0,.27a.3.3,0,0,1,0,.13l-.43,1.34a4.13,4.13,0,0,0-.22.91c0,.18,0,.35,0,.5V193l-.09.52,0,.27V194a2.05,2.05,0,0,1,0,.47.91.91,0,0,0,.36.5.17.17,0,0,1,.14.06.12.12,0,0,0,.09.06l.63-.41a2.83,2.83,0,0,0,.95-.82l.66-.59.14-.2.27-.05a5.16,5.16,0,0,0,.42-.5c.16-.21.27-.31.33-.31a.12.12,0,0,1,.09,0h.32a.56.56,0,0,1,.23,0l0-.09v-.39q0-.75.48-.75a3.43,3.43,0,0,1,.61-.72l.09-.34a1.56,1.56,0,0,1,.49-.59,3.88,3.88,0,0,0,.76-1l.79-.92c0-.07.08-.18.14-.35l.18-.18.39,0a.18.18,0,0,0,.09-.18.39.39,0,0,0-.05-.14.64.64,0,0,1,0-.27,3.15,3.15,0,0,1,.67-1.08A7.48,7.48,0,0,0,229,184q.18-.42.36-.42c.06,0,.11.05.15.16s.1.16.19.16a0,0,0,0,0,0,0s0-.06-.07-.09a.14.14,0,0,1-.07-.14,1.8,1.8,0,0,1,.32-1,4.47,4.47,0,0,0,.42-.76,2.17,2.17,0,0,1,.19-.4,2.18,2.18,0,0,0,.21-.37,1,1,0,0,1,.27-.39,1.48,1.48,0,0,0,.26-.3.72.72,0,0,1,.26-.26c.11-.06.2-.28.3-.66a2.74,2.74,0,0,1,1-1.29.38.38,0,0,1-.13-.27.72.72,0,0,1,.13-.32,10,10,0,0,1,.81-1.68c.53-1,1-1.79,1.33-2.34l.09-.31.29-.28.41-.61,1.25-.84a1.67,1.67,0,0,1,.7-.32,1.15,1.15,0,0,1,.36.05.49.49,0,0,1,.25-.14l.18.05h.09a.9.9,0,0,1,.32-.14.54.54,0,0,1,.25.09h.14a1.48,1.48,0,0,1,.71.36c.33.23.49.41.49.53l-.05.27.05.27A2.31,2.31,0,0,1,240,174a10.23,10.23,0,0,0-.63.85L239,175a1.78,1.78,0,0,0-.06.36.8.8,0,0,1-.19.45,2.12,2.12,0,0,0-.36.65,3.56,3.56,0,0,1-.37.68v.31L237,180a2.67,2.67,0,0,1-.22.48.4.4,0,0,1-.37.22.52.52,0,0,0,.17.19.27.27,0,0,1,.1.22.77.77,0,0,1-.66.79.58.58,0,0,1,.14.32l.11.25-.43.77v.38a2.51,2.51,0,0,0-.32.64v.39a2.08,2.08,0,0,1-.27.59l-.21.38a3.31,3.31,0,0,0-.13.36h0l0,.48a3,3,0,0,1-.28.23v.45a.79.79,0,0,0-.22.61,1.37,1.37,0,0,1-.25.57,1.17,1.17,0,0,1,0,.23,2.55,2.55,0,0,1-.18,1,2.16,2.16,0,0,0-.18.58v.34a.38.38,0,0,1,.13.27,1.49,1.49,0,0,1-.06.26,1.25,1.25,0,0,0-.07.4c0,.45.09.68.27.68l.52-.16a.61.61,0,0,0,.39-.3.69.69,0,0,1,.38-.33.41.41,0,0,0,.28-.35c0-.16.16-.28.44-.34a6.75,6.75,0,0,0,1.81-1.49l.7-.41.18-.32c.12-.12.32-.35.6-.7s.5-.52.67-.52c.45,0,.68.25.68.75a6.85,6.85,0,0,1-.21.88,3.36,3.36,0,0,1-.31.86,1.33,1.33,0,0,1-.27.22,1.33,1.33,0,0,0-.37.51,4.52,4.52,0,0,1-1.54,1.16c-.09.06-.25.2-.5.42a3.44,3.44,0,0,1-.6.46,2.5,2.5,0,0,0-.48.36,1.52,1.52,0,0,1-.59.34l-.19.1a.36.36,0,0,0-.13-.05.47.47,0,0,0-.31.2,1,1,0,0,1-.51.32,1.52,1.52,0,0,0-.54.29c-.13.11-.22.17-.28.17l-.36-.16c-.19.16-.3.25-.35.25l-.27-.14s-.11-.09-.25-.14a1.16,1.16,0,0,1-.38-.2,3.86,3.86,0,0,0-.46-.32,1.66,1.66,0,0,1-.55-.84l-.18-.22a1.55,1.55,0,0,1-.22-.48c0-.09,0-.27,0-.54v-.14a3.7,3.7,0,0,0-.09-.65,3.54,3.54,0,0,1-.09-.67l.54-3-.09-.55a2.26,2.26,0,0,1,.29-.91,10.55,10.55,0,0,0,.55-2.58q-.36,1.11-.54,1.11l-.34,0a.18.18,0,0,0-.09.18,1.66,1.66,0,0,0,.09.38v.32c0,.29-.28.52-.84.7a.34.34,0,0,1-.05.14c.17.08.25.15.25.23a.92.92,0,0,1-.42.81,2.15,2.15,0,0,0-.55.51c-.09.15-.18.22-.25.22l-.14-.2h0l-.23.43a.6.6,0,0,1,.13.22,3.67,3.67,0,0,1-.46.8c-.31.47-.5.7-.56.7l-.65.64-.1.2v.23a.46.46,0,0,1-.09.18l-.88,1.24-.27.53-.93,1.38a1.34,1.34,0,0,0-.5.34l-.16.09c0,.24-.2.47-.59.68a1.53,1.53,0,0,1-.57.84,2.66,2.66,0,0,0-.54.43l-.43.27-.55.46-.61.2-.27-.2c-.13.35-.23.52-.32.52l-.52-.09-.44.09a2.48,2.48,0,0,1-1.41-.73,7.5,7.5,0,0,1-1-.95l-.27-.36a.72.72,0,0,1-.18-.29,1.22,1.22,0,0,0-.43-.46l-.23-.36v-.3a4.79,4.79,0,0,1-.6-1,6,6,0,0,1-.05-1.06v-.18l.09-.31,0-.53a3.4,3.4,0,0,1,.22-1,5,5,0,0,0,.21-.74v-.14l-.07-.14.3-.95a2,2,0,0,1,.23-.61,2.11,2.11,0,0,0,.13-.78c0-.45.25-.67.66-.67l.14,0a.24.24,0,0,0,.18-.27h-.09c-.12,0-.19-.08-.19-.25a.82.82,0,0,1,.14-.5.85.85,0,0,0,.14-.52,1.26,1.26,0,0,1,.37-.83,2.86,2.86,0,0,0,.38-.46,2.25,2.25,0,0,1,.35-1,12,12,0,0,0,.56-1.17,5.46,5.46,0,0,1,.51-.93,3.31,3.31,0,0,0,.44-.79,2,2,0,0,1,.54-.77l.25-.46a7.27,7.27,0,0,1,.5-.7,1.31,1.31,0,0,0,.28-.67.67.67,0,0,1,.4-.55.59.59,0,0,0,.38-.4,1.78,1.78,0,0,1,.17-.47,1.33,1.33,0,0,0,.17-.44,1.2,1.2,0,0,1,.28-.49,2.68,2.68,0,0,0,.42-.82c.12-.37.31-.56.55-.56l.45.05,0-.16a.48.48,0,0,0-.11-.18.41.41,0,0,1-.12-.28c0-.43.15-.65.43-.65.1,0,.2.1.32.29.11-.89.17-1.36.19-1.42a.33.33,0,0,0,0-.17l0-.22a.58.58,0,0,0,0-.25.83.83,0,0,0-.17-.41c-.11-.17-.21-.25-.28-.25l-.53.11-.27-.27c-.15.33-.3.5-.45.5l-.39-.14a2.82,2.82,0,0,1-1,.5l-.36-.13h0c-.09,0-.18.11-.28.33a.59.59,0,0,1-.6.32h-.23a1.25,1.25,0,0,1-.56.47,1.18,1.18,0,0,0-.49.28,1.9,1.9,0,0,1-.44.3,2.2,2.2,0,0,0-.62.45l-.22.14c-.28.16-.43.33-.46.49a.86.86,0,0,1-.25.44c-.54.39-.81.72-.81,1l0,.41,0,.59q0,.25-.42.6a1.17,1.17,0,0,1-.69.35c-1.09,0-1.63-.32-1.63-1l.09-.66-.05-.52.05-.45a1.26,1.26,0,0,1,.62-1,8.31,8.31,0,0,0,.85-.69l.89-.46a2.16,2.16,0,0,0,.45-.46,2.51,2.51,0,0,1,1-.59,5,5,0,0,0,1.23-.69,3.2,3.2,0,0,1,1.13-.6,10.11,10.11,0,0,0,1.15-.47,1.53,1.53,0,0,1,.48-.2l.28,0a2,2,0,0,0,.48-.28,1,1,0,0,1,.58-.19l2.79-.64a3,3,0,0,1,1.63.5c.81.41,1.21,1.31,1.21,2.7a5.84,5.84,0,0,1-.7,1.86,15.13,15.13,0,0,1-1.53,2.54l-.13.34L226,176l-.37.8c-.16.3-.34.66-.52,1.06l-.41.55A2.86,2.86,0,0,0,224.38,179.12Z" transform="translate(-108.13 -100.3)"/><path class="cls-4" d="M244.89,171.07l-.18-1.11a.61.61,0,0,1,.13-.38,1.71,1.71,0,0,0,.19-.39.66.66,0,0,1,.16-.28,4.18,4.18,0,0,0,.39-.71,1.24,1.24,0,0,1,1-.66.82.82,0,0,1,.63-.23c.36,0,.8.34,1.31,1a3.77,3.77,0,0,1,.76,1.29,1.22,1.22,0,0,1-.53.84,1.9,1.9,0,0,1-.44,1.28,5,5,0,0,0-.58.82,1.12,1.12,0,0,1-.2.33,12,12,0,0,0-.83,1.1c-.51.7-.9,1-1.19,1a4.45,4.45,0,0,1-.67-.27,2.17,2.17,0,0,1-.6-.32,1.62,1.62,0,0,1,.64-1.17,2,2,0,0,0,.72-1.19,1.89,1.89,0,0,1-.43-.56Z" transform="translate(-108.13 -100.3)"/><path class="cls-4" d="M253.62,196.56l-.31,0a1.45,1.45,0,0,1-.63.2,2.73,2.73,0,0,0-1,.42,11.47,11.47,0,0,1-1.49.76c-.56.25-.84.4-.84.48a9.66,9.66,0,0,0,2.31-.61l1.64-.46a1.49,1.49,0,0,0,.44-.18,4.08,4.08,0,0,1,.49-.25l.37-.27.5-.18c.25-.09.38-.18.38-.27a.08.08,0,0,0-.09-.09,2.77,2.77,0,0,0-1.29.25A3.54,3.54,0,0,1,253.62,196.56Zm7.92-5.66.18-.46.59-.66a2.25,2.25,0,0,1,.75-.88,1.26,1.26,0,0,1,.13-.34,1.44,1.44,0,0,0,.14-.5l.2-.36c.06-.06.1-.11.1-.14a1.08,1.08,0,0,0-.19-.27l-.11-.48q0-.18-1.2-1.2H262l-1.64-.79-.09-.23-.18-.05-.23.1h0l-.78-.23a9.94,9.94,0,0,1-1.22-.39.2.2,0,0,1-.14,0l-.91-.21a.91.91,0,0,1-.46-.19.84.84,0,0,0-.39-.2,1,1,0,0,1-.39-.2.55.55,0,0,0-.37-.09l-.56.14s-.22-.12-.64-.23c-.06-.15-.11-.22-.14-.22l-.65.09-.69-.32a6.84,6.84,0,0,1-.79-.13,2.65,2.65,0,0,1-.88-.26,2.68,2.68,0,0,0-.62-.27l-.13-.13a.65.65,0,0,0-.25-.09h-.41a.65.65,0,0,1-.37-.23,4.34,4.34,0,0,0-.62-.46,1.81,1.81,0,0,1-.65-.71,2.05,2.05,0,0,1-.31-1,.14.14,0,0,1-.05-.09l.14-.72a4.88,4.88,0,0,1,1.29-2.57,1.37,1.37,0,0,1,.75-.88l.09-.32a9.58,9.58,0,0,0,.94-.9,2.45,2.45,0,0,1,.65-.56,3.9,3.9,0,0,0,.57-.4l.41-.18c0-.13.32-.46,1-1a8.7,8.7,0,0,1,1.61-1c.39-.16.64-.28.77-.35a5.48,5.48,0,0,1,1.12-.34c.16-.41.4-.61.73-.61h.34l.45-.46.62.05.25-.29a.87.87,0,0,1,.68-.23l2.74-.84h.18l.18,0c.12,0,.28-.1.47-.32a.94.94,0,0,1,.74-.31.84.84,0,0,1,.34.18s0,0,0,0l.59-.18.7.05.89-.23a2.66,2.66,0,0,1,1.47.41l.05-.09v-.14c0-.25.14-.38.43-.38a.25.25,0,0,1,.23.09l.27.16h.16a5.08,5.08,0,0,1,.59.27,1.26,1.26,0,0,1,.43-.23.8.8,0,0,1,.68.36l.38,0c.12-.12.2-.18.23-.18s.21.12.36.36l.14,0h.57s.09,0,.18.13l.25.21a2.34,2.34,0,0,1,.25.29,1,1,0,0,0,.15.21,5.33,5.33,0,0,1,.64-.25c.15,0,.26.12.34.38a.81.81,0,0,0,.4.62.86.86,0,0,1,.39.65.75.75,0,0,1,.5.73l.43,1.11-.09.38a2.58,2.58,0,0,1,.18.41l-.09.84.09.89a1.49,1.49,0,0,1-.65,1.2,1,1,0,0,0-.45.19,1.35,1.35,0,0,1-.35.19.89.89,0,0,1-.78-.28,1.77,1.77,0,0,0-.37-.42.41.41,0,0,1-.19-.36,1.34,1.34,0,0,1,.71-1,.49.49,0,0,0,.45-.21.91.91,0,0,0-.2-.66,3.18,3.18,0,0,1-.45-.49,1.77,1.77,0,0,0-.51-.51,1.72,1.72,0,0,1-.44-.49q-.16-.3-.3-.3l-.32.05-.66-.14a8.26,8.26,0,0,1-1.9-.47h-.46l-1.22-.19a2.22,2.22,0,0,1-.91.14l-1.5.23-.61-.05s-.46.13-1.25.39l-.22,0h-.62a5.3,5.3,0,0,0-.57.23,6.74,6.74,0,0,1-.9.32l-.2.09a.2.2,0,0,1-.14,0l-.36,0-2,1-.32-.18a2.37,2.37,0,0,0-.43-.18.28.28,0,0,0-.31.32l-.05.43a2.89,2.89,0,0,0-.39.27.55.55,0,0,1-.22.14h-.27a.68.68,0,0,0-.51.24.9.9,0,0,1-.42.26,1.55,1.55,0,0,0-.53.2q0,.09-.36.18a.8.8,0,0,0-.49.42q-.17.33-.39.33l-.46-.09-.25.45-.54.14a2.74,2.74,0,0,1-.59.59,5.9,5.9,0,0,0-.58.44,1.65,1.65,0,0,0-.41.49.89.89,0,0,1-.37.4,1.08,1.08,0,0,0-.43.6l-.23.22a1.35,1.35,0,0,0-.57,1c0,.26.19.45.55.57a2.38,2.38,0,0,1,.68.3.67.67,0,0,0,.41.11,1.35,1.35,0,0,1,.52.11l.84.37c.07.24.15.36.23.36s.09-.06.18-.18a.46.46,0,0,1,.4-.18.74.74,0,0,1,.57.36l.18-.14h.09l.3.09h0L255,181a.17.17,0,0,1,.13,0,5.61,5.61,0,0,1,.7.23h0l.36-.09a1.41,1.41,0,0,1,.39.13l.31.19s0,.06.1.06a.6.6,0,0,0,.27-.1.66.66,0,0,1,.34-.1.62.62,0,0,1,.41.25,2.14,2.14,0,0,1,.4-.16,1.61,1.61,0,0,1,.71.34l.43.09h.5l.74.14a2.79,2.79,0,0,0,.66.52.29.29,0,0,1,.32-.25,3.6,3.6,0,0,1,1.11.29l.18.05.18.14a2.6,2.6,0,0,1,.48-.1c.3,0,.45.11.45.32a2.38,2.38,0,0,1-.13.7s.07,0,.13.1a.54.54,0,0,1,.25-.19l.36-.2a.26.26,0,0,1,.14-.09,2.79,2.79,0,0,1,1.47.73,2.52,2.52,0,0,1,1.09,1.65,1.52,1.52,0,0,0,.18.64l-.09.29.05.36a1.87,1.87,0,0,1-.09.32l-.05.34a.48.48,0,0,1-.13.16.52.52,0,0,0-.14.16l.14.38v.09c0,.07-.06.15-.17.25a.76.76,0,0,0-.22.3.9.9,0,0,1-.16.28,1,1,0,0,0-.16.35c0,.14-.17.3-.44.47s-.4.31-.4.4,0,.13.1.13a.86.86,0,0,0,.57-.26,1.55,1.55,0,0,1,.47-.3,3.54,3.54,0,0,0,.54-.28l2.13-1a16.33,16.33,0,0,1,2.65-1.14.32.32,0,0,1,.36.36,1.17,1.17,0,0,1-.32.53,1.15,1.15,0,0,1-.92,1.24,1.93,1.93,0,0,0-.53.48h-.18a1.71,1.71,0,0,1-1.29.63h-.14a3.13,3.13,0,0,1-2,.93,2.19,2.19,0,0,1-1.31.8l-.37.09a2.61,2.61,0,0,1-.79.23s-.09.06-.18.18l-.34.25a2.14,2.14,0,0,0-.93.5,2.22,2.22,0,0,1-.76.46,3.09,3.09,0,0,0-.56.19c-.19.09-1,.61-2.38,1.55l-.29.09a3.54,3.54,0,0,0-1.11.67,2.17,2.17,0,0,1-.55.44h-.09a1.9,1.9,0,0,0-1.22.68,2.66,2.66,0,0,1-1,.37,6.6,6.6,0,0,0-1.8.81l-1.34.36a8.55,8.55,0,0,1-1.16.27l-1.58.34c-.35.06-.75.15-1.21.27a2.23,2.23,0,0,0-.7-.13l-.41,0a.54.54,0,0,1-.28-.16,2.86,2.86,0,0,0-.51-.3c-.21-.1-.32-.36-.32-.78s.42-.76,1.25-1.13,1.38-.63,1.64-.78a.8.8,0,0,1,.62-.29,1.49,1.49,0,0,0,.76-.28,3.21,3.21,0,0,1,1-.4l.9-.48a.28.28,0,0,1,.12-.05h.31a.91.91,0,0,0,.48-.25,2.37,2.37,0,0,1,.66-.36h.27s.08,0,.14-.11a1.47,1.47,0,0,1,.41-.3l.07,0h.22a2.28,2.28,0,0,1,.59-.34,3,3,0,0,0,.66-.36l1.77-.69.41,0a.56.56,0,0,0,.35-.22,2.7,2.7,0,0,1,1-.44,1.94,1.94,0,0,1,.48-.43,7.25,7.25,0,0,0,.86-.72Z" transform="translate(-108.13 -100.3)"/><path class="cls-2" d="M129.93,196.93l-.32-.05a1.43,1.43,0,0,1-.63.21,2.38,2.38,0,0,0-.95.42,12.12,12.12,0,0,1-1.49.76c-.56.24-.84.4-.84.47a9.4,9.4,0,0,0,2.32-.61l1.63-.45a1.57,1.57,0,0,0,.45-.18,2.3,2.3,0,0,1,.49-.25L131,197l.5-.18q.39-.14.39-.27a.08.08,0,0,0-.09-.09,2.78,2.78,0,0,0-1.3.25A3.27,3.27,0,0,1,129.93,196.93Zm7.91-5.67.18-.45.59-.66a2.3,2.3,0,0,1,.75-.89,1.43,1.43,0,0,1,.14-.34,1.41,1.41,0,0,0,.13-.5l.21-.36c.06-.06.09-.1.09-.13a.89.89,0,0,0-.18-.28l-.12-.47q0-.18-1.2-1.2h-.18l-1.64-.8-.09-.23-.18,0-.23.09h0l-.77-.23a9.1,9.1,0,0,1-1.23-.38.17.17,0,0,1-.13,0l-.91-.2a1,1,0,0,1-.47-.19.84.84,0,0,0-.38-.21,1.13,1.13,0,0,1-.4-.19.52.52,0,0,0-.36-.09l-.57.13s-.21-.12-.64-.22c-.06-.15-.1-.23-.13-.23l-.66.09-.68-.32c-.08,0-.34,0-.8-.12a2.65,2.65,0,0,1-.88-.26,2.78,2.78,0,0,0-.61-.27l-.14-.14a.59.59,0,0,0-.25-.09h-.41c-.09,0-.21-.08-.37-.23a4,4,0,0,0-.61-.45,2,2,0,0,1-.66-.71,2.24,2.24,0,0,1-.31-1,.12.12,0,0,1,0-.09l.13-.73a4.85,4.85,0,0,1,1.29-2.56,1.45,1.45,0,0,1,.75-.89l.09-.31a8.71,8.71,0,0,0,1-.91,2.44,2.44,0,0,1,.64-.56,4,4,0,0,0,.57-.39l.41-.18c0-.14.32-.46,1-1a9.29,9.29,0,0,1,1.61-1,4.68,4.68,0,0,0,.77-.35,6.5,6.5,0,0,1,1.13-.34c.15-.41.39-.61.72-.61h.34l.46-.45.61,0,.25-.28a.84.84,0,0,1,.68-.24l2.74-.84H139l.19,0c.12,0,.27-.11.46-.32a1,1,0,0,1,.74-.32.84.84,0,0,1,.34.18s0,.05,0,.05l.59-.18.71,0,.88-.22a2.66,2.66,0,0,1,1.47.4l.05-.09v-.13c0-.26.14-.39.43-.39.12,0,.2,0,.23.09l.27.16h.16a4.33,4.33,0,0,1,.59.27,1.24,1.24,0,0,1,.43-.22.79.79,0,0,1,.68.36l.39-.05c.12-.12.19-.18.22-.18s.21.12.37.37l.13,0h.57s.09,0,.18.14l.25.2a1.77,1.77,0,0,1,.25.3,1,1,0,0,0,.16.2,4.9,4.9,0,0,1,.63-.25c.15,0,.27.13.34.39a.81.81,0,0,0,.4.62.85.85,0,0,1,.4.65.75.75,0,0,1,.5.72l.43,1.11-.09.39a2.21,2.21,0,0,1,.18.41l-.09.84.09.88a1.46,1.46,0,0,1-.66,1.2,1.1,1.1,0,0,0-.44.19,1.92,1.92,0,0,1-.35.2.9.9,0,0,1-.79-.29,2.29,2.29,0,0,0-.37-.42.43.43,0,0,1-.18-.36,1.33,1.33,0,0,1,.7-1,.51.51,0,0,0,.45-.2.84.84,0,0,0-.2-.66,3.31,3.31,0,0,1-.44-.5,2.46,2.46,0,0,0-.51-.51,1.48,1.48,0,0,1-.44-.49c-.12-.19-.22-.29-.31-.29l-.32,0-.66-.13a7.78,7.78,0,0,1-1.9-.48h-.46l-1.22-.18a2.37,2.37,0,0,1-.91.14l-1.49.22-.62,0s-.46.13-1.24.38l-.23.05h-.61a3.93,3.93,0,0,0-.58.22,5.57,5.57,0,0,1-.9.32l-.2.09a.2.2,0,0,1-.14.05l-.36-.05-2,1-.31-.18a2.74,2.74,0,0,0-.43-.18c-.22,0-.32.1-.32.31l-.05.43a2.46,2.46,0,0,0-.38.28.58.58,0,0,1-.23.13h-.27a.72.72,0,0,0-.51.24.76.76,0,0,1-.42.26,1.76,1.76,0,0,0-.52.2c0,.07-.15.13-.37.19a.76.76,0,0,0-.48.42c-.12.22-.25.32-.4.32l-.45-.09-.25.46-.55.13a2.35,2.35,0,0,1-.59.59c-.19.14-.39.29-.58.45a1.57,1.57,0,0,0-.4.48,1,1,0,0,1-.38.4,1.22,1.22,0,0,0-.43.6l-.23.23a1.37,1.37,0,0,0-.56,1c0,.26.18.44.54.57a2.46,2.46,0,0,1,.68.29.61.61,0,0,0,.41.11,1.17,1.17,0,0,1,.52.12l.84.36c.08.24.15.36.23.36s.09-.06.18-.18a.48.48,0,0,1,.41-.18.74.74,0,0,1,.56.36l.19-.13h.09l.29.09h.05l.27-.14a.17.17,0,0,1,.13,0,5,5,0,0,1,.71.22h0l.36-.09a1.28,1.28,0,0,1,.39.14l.32.18c0,.05,0,.07.09.07a.76.76,0,0,0,.27-.1.68.68,0,0,1,.34-.11.64.64,0,0,1,.41.25,3.24,3.24,0,0,1,.41-.16,1.72,1.72,0,0,1,.7.34l.43.1h.5l.75.13a2.52,2.52,0,0,0,.65.52.29.29,0,0,1,.32-.25,3.41,3.41,0,0,1,1.11.3l.18,0,.19.14a3,3,0,0,1,.47-.09c.3,0,.45.1.45.32a2.44,2.44,0,0,1-.13.7s.07,0,.13.09a.59.59,0,0,1,.25-.18l.37-.21c.06-.06.1-.09.13-.09a2.93,2.93,0,0,1,1.48.73,2.62,2.62,0,0,1,1.09,1.66,1.45,1.45,0,0,0,.18.63l-.09.3,0,.36a2.18,2.18,0,0,1-.09.32l0,.34a.5.5,0,0,1-.14.15.52.52,0,0,0-.14.16l.14.39v.09c0,.06-.06.14-.17.25a.77.77,0,0,0-.22.29.94.94,0,0,1-.16.29.93.93,0,0,0-.15.35c0,.13-.18.29-.45.46s-.39.31-.39.4,0,.14.09.14a1,1,0,0,0,.58-.26,1.34,1.34,0,0,1,.46-.31,2.59,2.59,0,0,0,.54-.27l2.13-1a15.72,15.72,0,0,1,2.65-1.13.33.33,0,0,1,.37.36c0,.09-.11.26-.32.52a1.16,1.16,0,0,1-.93,1.25,2,2,0,0,0-.52.47h-.19a1.66,1.66,0,0,1-1.29.64h-.13a3.13,3.13,0,0,1-2,.93,2.16,2.16,0,0,1-1.32.79l-.36.09a2.72,2.72,0,0,1-.8.23s-.09.06-.18.18l-.34.25a2.25,2.25,0,0,0-.93.5,2,2,0,0,1-.76.46,2.84,2.84,0,0,0-.55.2c-.2.09-1,.6-2.38,1.54l-.3.09a3.74,3.74,0,0,0-1.11.67,2.12,2.12,0,0,1-.54.44h-.1a2,2,0,0,0-1.22.68c0,.08-.36.2-1,.38a6.85,6.85,0,0,0-1.8.8l-1.34.36a7.79,7.79,0,0,1-1.15.28l-1.59.34q-.52.09-1.2.27a2.39,2.39,0,0,0-.71-.14l-.4.05a.56.56,0,0,1-.29-.16,2.36,2.36,0,0,0-.51-.31c-.21-.1-.32-.36-.32-.78s.42-.75,1.25-1.12,1.38-.63,1.64-.78a.82.82,0,0,1,.62-.3,1.54,1.54,0,0,0,.76-.27,3.19,3.19,0,0,1,1-.41l.91-.48a.19.19,0,0,1,.11,0H129a.92.92,0,0,0,.47-.25,2.16,2.16,0,0,1,.66-.36h.27s.08,0,.14-.12a1.75,1.75,0,0,1,.41-.29l.07,0h.22a2.6,2.6,0,0,1,.59-.34,3,3,0,0,0,.66-.36l1.77-.68.41,0a.58.58,0,0,0,.35-.21,2.7,2.7,0,0,1,1-.44,1.76,1.76,0,0,1,.48-.43,7.48,7.48,0,0,0,.86-.73Z" transform="translate(-108.13 -100.3)"/><path class="cls-2" d="M165,179.49l-.62,1.31a5.81,5.81,0,0,1-.69,1.31,5.51,5.51,0,0,0-.58,1l-.63,1.38-.57.57a1,1,0,0,0-.13.36,2.86,2.86,0,0,1-.3,1.08,7.62,7.62,0,0,0-.45,1.25V188a2,2,0,0,1-.36.7V189a4.71,4.71,0,0,1-.39.84l0,.27a.33.33,0,0,1,0,.14l-.43,1.34a4,4,0,0,0-.22.9c0,.19,0,.35,0,.5v.41l-.09.52,0,.28v.13a2.09,2.09,0,0,1,0,.48.94.94,0,0,0,.36.5.2.2,0,0,1,.14,0,.12.12,0,0,0,.09.06l.63-.41a3.09,3.09,0,0,0,1-.81l.65-.59.14-.21.27,0a5.16,5.16,0,0,0,.42-.5c.16-.21.27-.32.33-.32a.12.12,0,0,1,.09,0h.32a.52.52,0,0,1,.23.05l0-.09v-.39c0-.49.16-.74.48-.74a4.15,4.15,0,0,1,.61-.73l.09-.34a1.76,1.76,0,0,1,.49-.59,3.49,3.49,0,0,0,.76-1l.8-.93c0-.06.07-.17.13-.34l.18-.18.39,0a.18.18,0,0,0,.09-.18.36.36,0,0,0,0-.13.66.66,0,0,1,0-.28,3.26,3.26,0,0,1,.67-1.07,7.85,7.85,0,0,0,.85-1.3q.18-.42.36-.42c.06,0,.11.06.15.16s.1.16.19.16,0,0,0,0,0-.06-.07-.09a.17.17,0,0,1-.07-.14,1.75,1.75,0,0,1,.32-1,4.89,4.89,0,0,0,.42-.76,1.67,1.67,0,0,1,.19-.4,2.36,2.36,0,0,0,.21-.38,1,1,0,0,1,.27-.38,1.1,1.1,0,0,0,.26-.31.81.81,0,0,1,.26-.26q.17-.09.3-.66a2.83,2.83,0,0,1,1-1.29.38.38,0,0,1-.13-.27.76.76,0,0,1,.13-.32,10.93,10.93,0,0,1,.81-1.68c.54-1,1-1.79,1.33-2.33l.09-.32.29-.27.41-.61,1.25-.84a1.73,1.73,0,0,1,.7-.32,1.19,1.19,0,0,1,.36,0,.45.45,0,0,1,.25-.13l.19,0h.09a.74.74,0,0,1,.31-.13.54.54,0,0,1,.25.09h.14a1.53,1.53,0,0,1,.71.35c.33.23.49.41.49.53l0,.28,0,.27a2.29,2.29,0,0,1-.53,1.39c-.36.46-.57.75-.63.85l-.29.14a2.45,2.45,0,0,0-.06.35.72.72,0,0,1-.19.45,2.25,2.25,0,0,0-.36.65,3.27,3.27,0,0,1-.37.68v.32l-1.06,2.56a2.43,2.43,0,0,1-.22.49.4.4,0,0,1-.37.21.65.65,0,0,0,.17.2.24.24,0,0,1,.1.21.78.78,0,0,1-.66.8.56.56,0,0,1,.14.31l.11.25-.43.77V184a3,3,0,0,0-.32.63V185a2,2,0,0,1-.27.59l-.2.39a2.4,2.4,0,0,0-.14.36h-.05l.05.47a2.26,2.26,0,0,1-.27.23v.45a.78.78,0,0,0-.23.62,1.18,1.18,0,0,1-.25.56,1.3,1.3,0,0,1,0,.23,2.64,2.64,0,0,1-.18,1,2.06,2.06,0,0,0-.18.58v.34a.4.4,0,0,1,.14.27,2.16,2.16,0,0,1-.07.26,1.16,1.16,0,0,0-.07.4c0,.45.09.68.27.68l.53-.16a.6.6,0,0,0,.38-.31.78.78,0,0,1,.38-.33.4.4,0,0,0,.28-.35c0-.16.17-.27.45-.34a6.65,6.65,0,0,0,1.8-1.48l.7-.41.18-.32c.12-.12.32-.36.6-.7s.51-.53.67-.53c.46,0,.68.25.68.75a6.8,6.8,0,0,1-.21.89,3.55,3.55,0,0,1-.31.86,1.83,1.83,0,0,1-.27.21,1.36,1.36,0,0,0-.36.52,4.55,4.55,0,0,1-1.55,1.15,5.45,5.45,0,0,0-.49.42,4,4,0,0,1-.61.47,2.86,2.86,0,0,0-.48.36,1.82,1.82,0,0,1-.59.34l-.18.09a.47.47,0,0,0-.14-.05c-.09,0-.19.07-.31.21a1.15,1.15,0,0,1-.51.32,1.38,1.38,0,0,0-.53.28.6.6,0,0,1-.29.17l-.36-.16c-.19.17-.3.25-.34.25l-.28-.14a.5.5,0,0,0-.25-.13,1,1,0,0,1-.37-.21,5.5,5.5,0,0,0-.47-.31,1.59,1.59,0,0,1-.54-.84l-.19-.23a1.46,1.46,0,0,1-.22-.48c0-.09,0-.27,0-.54v-.14a3.62,3.62,0,0,0-.09-.64,3.75,3.75,0,0,1-.09-.67l.55-3-.09-.54a2.25,2.25,0,0,1,.28-.92,10.43,10.43,0,0,0,.55-2.57q-.36,1.11-.54,1.11l-.34-.05a.18.18,0,0,0-.09.18,1.83,1.83,0,0,0,.09.39v.32c0,.28-.28.52-.84.7a.39.39,0,0,1-.05.14c.17.07.25.15.25.22a1,1,0,0,1-.42.82,2.15,2.15,0,0,0-.55.51c-.09.14-.18.21-.25.21l-.14-.2h0l-.23.43a.72.72,0,0,1,.14.23,4.11,4.11,0,0,1-.47.79c-.31.47-.49.7-.55.7l-.66.64-.09.2v.23a.46.46,0,0,1-.09.18l-.89,1.25-.27.52-.93,1.38a1.34,1.34,0,0,0-.5.34l-.16.1c0,.24-.2.46-.59.68a1.6,1.6,0,0,1-.57.84,2.36,2.36,0,0,0-.54.43l-.43.27-.55.45-.61.21-.27-.21c-.12.35-.23.52-.32.52l-.52-.09-.43.09a2.51,2.51,0,0,1-1.42-.72,7.84,7.84,0,0,1-1-.95l-.28-.37a.68.68,0,0,1-.18-.28,1.23,1.23,0,0,0-.43-.47l-.22-.36v-.29a4.54,4.54,0,0,1-.61-1,7,7,0,0,1-.05-1.05V192l.09-.32,0-.52a3.4,3.4,0,0,1,.22-1,5.31,5.31,0,0,0,.21-.75v-.14l-.06-.13.29-.95a2.16,2.16,0,0,1,.23-.62,2,2,0,0,0,.13-.78c0-.45.25-.67.66-.67a.39.39,0,0,1,.14,0c.12,0,.18-.12.18-.28H158q-.18,0-.18-.24a.8.8,0,0,1,.13-.5.88.88,0,0,0,.14-.53,1.24,1.24,0,0,1,.37-.82,2.66,2.66,0,0,0,.38-.47,2.26,2.26,0,0,1,.35-1c.23-.44.42-.82.57-1.17a4.13,4.13,0,0,1,.51-.93,3.31,3.31,0,0,0,.43-.8,2.09,2.09,0,0,1,.54-.77l.25-.45a6.19,6.19,0,0,1,.5-.7,1.39,1.39,0,0,0,.28-.67.68.68,0,0,1,.4-.56.61.61,0,0,0,.39-.4,1.43,1.43,0,0,1,.17-.46,2.2,2.2,0,0,0,.17-.44,1.15,1.15,0,0,1,.27-.49,2.76,2.76,0,0,0,.42-.83c.13-.37.31-.55.55-.55l.46,0,0-.16a.48.48,0,0,0-.11-.18.41.41,0,0,1-.12-.27c0-.44.15-.66.44-.66.09,0,.19.1.31.3a14,14,0,0,1,.2-1.42.47.47,0,0,0,0-.17l.05-.23a.57.57,0,0,0,0-.25.86.86,0,0,0-.17-.41c-.11-.16-.21-.25-.28-.25l-.52.12-.28-.27c-.15.33-.3.49-.45.49l-.39-.13a3,3,0,0,1-1,.5l-.36-.14h0c-.1,0-.19.11-.29.33a.59.59,0,0,1-.6.33h-.23a1.21,1.21,0,0,1-.56.46,1.28,1.28,0,0,0-.49.29,1.42,1.42,0,0,1-.44.29,2.57,2.57,0,0,0-.61.46l-.23.13c-.27.17-.43.33-.46.49a.84.84,0,0,1-.24.44c-.55.4-.82.72-.82,1l0,.41,0,.59q0,.24-.42.6a1.24,1.24,0,0,1-.69.35c-1.09,0-1.63-.33-1.63-1l.09-.66-.05-.52.05-.45a1.29,1.29,0,0,1,.62-1,8.31,8.31,0,0,0,.85-.69l.89-.45a2,2,0,0,0,.45-.47,2.63,2.63,0,0,1,1-.59,4.46,4.46,0,0,0,1.23-.69,3.2,3.2,0,0,1,1.13-.6,10.4,10.4,0,0,0,1.15-.46,1.59,1.59,0,0,1,.49-.21l.27.05a2.4,2.4,0,0,0,.49-.29A1,1,0,0,1,164,168l2.79-.63a3,3,0,0,1,1.64.49q1.2.61,1.2,2.7a6,6,0,0,1-.69,1.86,16.11,16.11,0,0,1-1.53,2.54l-.14.34-.61,1.07-.37.79c-.16.31-.34.66-.52,1.07l-.41.54A2.76,2.76,0,0,0,165,179.49Z" transform="translate(-108.13 -100.3)"/><path class="cls-2" d="M188.93,183.64h-.57a1.12,1.12,0,0,0-.48.26c-.24.17-.36.29-.36.35s.18.23.54.51a1.87,1.87,0,0,0,.67.42c.27,0,.59-.62,1-1.86l-.22.09-.28,0Q188.93,183.6,188.93,183.64Zm-1.5-10.73-.05.25a1.28,1.28,0,0,1-.63.77,2,2,0,0,1-1.14.39c-1,0-1.43-.46-1.43-1.36a1.87,1.87,0,0,1,.74-1.17,4.1,4.1,0,0,1,2-1,8.47,8.47,0,0,0,1.77-.54,5.69,5.69,0,0,1,1.65-.39.52.52,0,0,0,.36.18.43.43,0,0,0,.41-.21c.07-.13.25-.17.52-.11h.11l1.2-.32.37.14a.37.37,0,0,0,.21-.09,1,1,0,0,1,.31-.14h.36l.43-.09a2.7,2.7,0,0,0,.59-.2l.39,0a7.33,7.33,0,0,0,1.42-.22,7.68,7.68,0,0,1,1.49-.25,6.87,6.87,0,0,0,.75-.07l.28-.05a.66.66,0,0,1,.34.14.67.67,0,0,0,.3.13c.06,0,.48-.09,1.27-.27h.14l1,.23a1.58,1.58,0,0,1,.54-.23,1.07,1.07,0,0,1,.79.32l.43-.18.23,0a2.61,2.61,0,0,0,.41,0h.18a1.37,1.37,0,0,1,.34,0,.14.14,0,0,0,.09.05,1.27,1.27,0,0,0,.37-.05h.29l1,.23.4,0a1,1,0,0,1,.28.13l.24,0a7.65,7.65,0,0,0,.82.43l.34-.09h.05a2.44,2.44,0,0,1,.45.27l.66.32.18-.1a4,4,0,0,1,.65.37l.18.38a4.74,4.74,0,0,1,.61.37,2.08,2.08,0,0,0,.28.52v.18s.11.14.35.33.35.33.35.42,0,.13,0,.32v0a1.06,1.06,0,0,0,.16.3,1.1,1.1,0,0,1,.16.59l-.05.31.05.3-.23,1.52a1.12,1.12,0,0,0-.27.44.58.58,0,0,1-.34.33.88.88,0,0,0-.45.46.84.84,0,0,1-.49.47,1.67,1.67,0,0,0-.6.39.88.88,0,0,1-.64.29l-2.44.72-.27-.09a1.32,1.32,0,0,1-1.2.66,5.14,5.14,0,0,0-.91.16l-.45.11-.37,0-.84.16a1.69,1.69,0,0,0-.57.17,1,1,0,0,1-.45.1l-.61.32a.2.2,0,0,1-.14,0,.38.38,0,0,1-.23,0l-.32-.09a1,1,0,0,0-.33.15.43.43,0,0,1-.28.12l-.27-.23-.43.36a4.08,4.08,0,0,0-.73.21,1.12,1.12,0,0,0-.39-.16l-.79.34-.46-.14,0,.14a1.17,1.17,0,0,0-.65.23,1,1,0,0,1-.56.22.54.54,0,0,1-.34-.18.26.26,0,0,1-.18-.09,1.53,1.53,0,0,0-.34.33,1.12,1.12,0,0,1-.5.33l-.54-.16c0,.05-.15.12-.44.24s-.43.21-.45.28l-.23.32-.25.63a1.16,1.16,0,0,1-.22.4,1.33,1.33,0,0,0-.25.51,3.33,3.33,0,0,1-.41.79l-.05.28a3.13,3.13,0,0,1-.41.41l-.52,1a1.19,1.19,0,0,0-.23.48c0,.22.21.44.62.65l2.4,2,.39.22h0l-.09.41a.58.58,0,0,0,.23.11c.09,0,.14-.06.14-.2h.13s.11.07.23.2l.25.14a7,7,0,0,0,.59.52c.29.24.43.41.43.5l-.05.18h.14a.26.26,0,0,1,.14-.09,1.74,1.74,0,0,1,.5.27l.29.14a8.24,8.24,0,0,1,1.1.88,3,3,0,0,0,.57.51,2.45,2.45,0,0,1,.6.65l2.61,2q3.27,2.44,3.68,3.27a.93.93,0,0,0,.43.27,3.56,3.56,0,0,1,1,.76,3.5,3.5,0,0,1,.77,1v.8c0,.06-.08.13-.23.22l-.29.28a1.66,1.66,0,0,1-1,.61,2.19,2.19,0,0,1-1.57-.48l-.11,0h-.23c-.24,0-.38-.22-.41-.64l-.09-.29a3.38,3.38,0,0,1-1.72-1.16l-1.29-1.2-.75-.88a6.94,6.94,0,0,0-1.24-1.19,4.18,4.18,0,0,1-.84-.74,3.43,3.43,0,0,0-.81-.73,4.5,4.5,0,0,1-1.08-1.15A8.37,8.37,0,0,0,196,194c-.68-.36-1-.76-1-1.2a2.12,2.12,0,0,0-.66-.18,1.53,1.53,0,0,0-.34-.32.19.19,0,0,1-.11-.07l0-.36a2,2,0,0,1-1-.51l-.72-.83a10.07,10.07,0,0,0-.79-.8,1,1,0,0,1-.35-.44c0-.11-.16-.24-.43-.39a1.54,1.54,0,0,1-.34.43,1.14,1.14,0,0,0-.27.36l-.09.14a1,1,0,0,0-.32.7,1.45,1.45,0,0,0-.43,1l-1,2.31-.18.84-.14,1.43c0,.41-.22.61-.52.61l-.45.05a3.11,3.11,0,0,0-.84-.17c-.45-.06-.81-.5-1.1-1.33a2,2,0,0,0-.26-.45,1.06,1.06,0,0,1-.21-.57,2.11,2.11,0,0,1,.13-.59l.09-.52a7.58,7.58,0,0,1,.57-1.29l1.2-2.29.59-.89a2.63,2.63,0,0,0,.25-.69,2.19,2.19,0,0,1,.42-.85,1,1,0,0,0,.28-.5q0-.27-.42-.54c-.28-.19-.43-.36-.46-.53l-.09-.22q-1.2-.7-1.2-1.59c0-.32.4-.71,1.2-1.19a7.11,7.11,0,0,1,1.62-.81,3.12,3.12,0,0,0,.83-.31l.38-.09.32-.28c.18-.06.4-.11.67-.17s.49-.36.68-.93a2,2,0,0,1,.51-1,13.83,13.83,0,0,0,.61-1.41c0-.06.12-.2.26-.42a4.52,4.52,0,0,0,.44-1.09c.15-.5.26-.76.32-.76a1.47,1.47,0,0,0,.36-.09l-.23-.61q0-.09.18-.27a1.43,1.43,0,0,1-.31-.93c0-.59.41-.89,1.24-.89a2.59,2.59,0,0,1,.9.4c.46.27.7.46.73.58a2.72,2.72,0,0,0,.29.58,1.27,1.27,0,0,1,.25.67,1.63,1.63,0,0,1-.29,1.15,3.12,3.12,0,0,0-.61,1.21l-.62,1.72-.09.43-.11.18.57-.14c.12-.33.63-.52,1.54-.56l1.43-.46h.44l1.38-.38.66-.09h.14l.27,0a.51.51,0,0,1,.18.18h.09c.17,0,.26-.09.28-.29s.23-.3.65-.3a.21.21,0,0,1,.17.12.24.24,0,0,0,.18.11.46.46,0,0,1,.35-.35,1.49,1.49,0,0,1,.44-.1l.36,0a.17.17,0,0,1,0-.13c0-.14.46-.28,1.39-.43a2,2,0,0,0,.61-.34,5,5,0,0,1,1.43-.59l1.36-.41c.56-.18,1-.73,1.16-1.63l-.4-.62s-.12,0-.34,0a2.38,2.38,0,0,0-.32-.22,2.17,2.17,0,0,1-.52-.42l-.28.09a2.85,2.85,0,0,0-.73-.28,2.44,2.44,0,0,1-.9-.47.67.67,0,0,1-.23.1,3.8,3.8,0,0,1-.49-.23l-.62-.27h-.36l-.16,0c-.09-.1-.17-.16-.23-.16l-.22,0a.53.53,0,0,1-.23,0h-.38a1.26,1.26,0,0,1-.37-.22H203l-.4.09a.62.62,0,0,1-.3-.18l-.41.09-.41-.19-.61.1a.49.49,0,0,0-.27-.14l-1.81.18a.19.19,0,0,1-.16-.09.44.44,0,0,0-.22-.14,1.09,1.09,0,0,1-.33-.18,1.87,1.87,0,0,1-.93.27l-.7-.09-.14.05h-.09l-.41-.09a.17.17,0,0,1,0,.13l-.34-.09-1.25.23h0l-.23,0a.84.84,0,0,0-.26.06.67.67,0,0,1-.26.07l-.5,0-.39.09-.54,0-.48.34h-.09a.3.3,0,0,1-.2-.08.44.44,0,0,0-.16-.08l-.34.07-.27-.07c-.06,0-.18.15-.37.43,0,0,0,.05-.09.05h0l-.34-.09c-.06,0-.18.1-.37.32s-.56.22-.83.34a1.57,1.57,0,0,1-.55.54Z" transform="translate(-108.13 -100.3)"/><path class="cls-2" d="M225.47,179.49l-.61,1.31a6.76,6.76,0,0,1-.69,1.31,4.54,4.54,0,0,0-.58,1l-.64,1.38-.57.57a1,1,0,0,0-.13.36,2.86,2.86,0,0,1-.3,1.08,10.08,10.08,0,0,0-.45,1.25V188a2,2,0,0,1-.36.7V189a4.71,4.71,0,0,1-.39.84l.05.27a.39.39,0,0,1-.05.14l-.43,1.34a3.34,3.34,0,0,0-.21.9c0,.19,0,.35,0,.5v.41l-.09.52.05.28v.13a2,2,0,0,1-.05.48.94.94,0,0,0,.36.5.2.2,0,0,1,.14,0,.12.12,0,0,0,.09.06l.64-.41a3.16,3.16,0,0,0,.95-.81l.66-.59.13-.21.27,0a3.32,3.32,0,0,0,.42-.5c.16-.21.27-.32.33-.32a.12.12,0,0,1,.09,0h.32a.52.52,0,0,1,.23.05l0-.09v-.39c0-.49.16-.74.48-.74a4.15,4.15,0,0,1,.61-.73l.09-.34a1.76,1.76,0,0,1,.49-.59,3.49,3.49,0,0,0,.76-1l.8-.93c0-.06.07-.17.13-.34l.19-.18.38,0a.18.18,0,0,0,.09-.18.3.3,0,0,0,0-.13.63.63,0,0,1,0-.28,3.26,3.26,0,0,1,.67-1.07,7.23,7.23,0,0,0,.85-1.3c.12-.28.24-.42.37-.42s.1.06.14.16a.21.21,0,0,0,.2.16s0,0,0,0,0-.06-.07-.09a.17.17,0,0,1-.06-.14,1.73,1.73,0,0,1,.31-1,4.89,4.89,0,0,0,.42-.76,1.33,1.33,0,0,1,.2-.4,2.48,2.48,0,0,0,.2-.38,1.28,1.28,0,0,1,.27-.38,1,1,0,0,0,.26-.31.81.81,0,0,1,.26-.26q.17-.09.3-.66a2.87,2.87,0,0,1,1-1.29.36.36,0,0,1-.14-.27.69.69,0,0,1,.14-.32,10.27,10.27,0,0,1,.8-1.68c.54-1,1-1.79,1.33-2.33l.09-.32.3-.27.4-.61,1.25-.84a1.73,1.73,0,0,1,.7-.32,1.26,1.26,0,0,1,.37,0,.43.43,0,0,1,.25-.13.65.65,0,0,1,.18,0h.09a.76.76,0,0,1,.32-.13.58.58,0,0,1,.25.09h.13a1.59,1.59,0,0,1,.72.35c.32.23.48.41.48.53l0,.28,0,.27a2.23,2.23,0,0,1-.53,1.39c-.36.46-.56.75-.62.85l-.3.14a3.31,3.31,0,0,0,0,.35.78.78,0,0,1-.2.45,2.87,2.87,0,0,0-.36.65,3.93,3.93,0,0,1-.36.68v.32l-1.07,2.56a3.14,3.14,0,0,1-.21.49.42.42,0,0,1-.38.21.82.82,0,0,0,.17.2.24.24,0,0,1,.1.21.78.78,0,0,1-.65.8.53.53,0,0,1,.13.31l.12.25-.44.77V184a2.62,2.62,0,0,0-.31.63V185a1.84,1.84,0,0,1-.28.59l-.2.39a2.4,2.4,0,0,0-.14.36h0l0,.47a2.26,2.26,0,0,1-.27.23v.45a.81.81,0,0,0-.23.62,1.18,1.18,0,0,1-.25.56,2,2,0,0,1,.05.23,2.46,2.46,0,0,1-.19,1,2.06,2.06,0,0,0-.18.58v.34a.4.4,0,0,1,.14.27,1.1,1.1,0,0,1-.07.26,1.16,1.16,0,0,0-.07.4c0,.45.09.68.28.68l.52-.16a.65.65,0,0,0,.39-.31.75.75,0,0,1,.37-.33.41.41,0,0,0,.29-.35c0-.16.16-.27.44-.34a6.49,6.49,0,0,0,1.8-1.48l.7-.41.19-.32c.12-.12.32-.36.6-.7s.5-.53.67-.53c.45,0,.68.25.68.75a7.93,7.93,0,0,1-.22.89,3.13,3.13,0,0,1-.31.86,1.83,1.83,0,0,1-.27.21,1.36,1.36,0,0,0-.36.52,4.64,4.64,0,0,1-1.54,1.15,5.12,5.12,0,0,0-.5.42,3.59,3.59,0,0,1-.6.47,2.9,2.9,0,0,0-.49.36,1.72,1.72,0,0,1-.59.34l-.18.09a.39.39,0,0,0-.14-.05c-.09,0-.19.07-.31.21a1.15,1.15,0,0,1-.51.32,1.55,1.55,0,0,0-.53.28.6.6,0,0,1-.29.17l-.36-.16a1,1,0,0,1-.34.25l-.28-.14a.5.5,0,0,0-.25-.13,1.14,1.14,0,0,1-.37-.21,5.5,5.5,0,0,0-.47-.31,1.66,1.66,0,0,1-.54-.84l-.18-.23a1.59,1.59,0,0,1-.23-.48c0-.09,0-.27.05-.54v-.14a3,3,0,0,0-.1-.64,3.75,3.75,0,0,1-.09-.67l.55-3-.09-.54a2.25,2.25,0,0,1,.28-.92,10.28,10.28,0,0,0,.56-2.57c-.25.74-.43,1.11-.55,1.11l-.34-.05a.18.18,0,0,0-.09.18,1.83,1.83,0,0,0,.09.39v.32c0,.28-.28.52-.84.7a.33.33,0,0,1,0,.14c.16.07.25.15.25.22a1,1,0,0,1-.42.82,2.23,2.23,0,0,0-.56.51c-.09.14-.17.21-.25.21l-.14-.2h0L230,188a.72.72,0,0,1,.14.23,4.11,4.11,0,0,1-.47.79c-.31.47-.49.7-.55.7l-.66.64-.09.2v.23a.46.46,0,0,1-.09.18l-.89,1.25-.27.52-.93,1.38a1.34,1.34,0,0,0-.5.34l-.16.1c0,.24-.19.46-.59.68a1.5,1.5,0,0,1-.57.84,2.36,2.36,0,0,0-.54.43l-.43.27-.55.45-.61.21-.27-.21c-.12.35-.23.52-.32.52l-.52-.09-.43.09a2.54,2.54,0,0,1-1.42-.72,7.84,7.84,0,0,1-1-.95l-.27-.37a.53.53,0,0,1-.18-.28,1.28,1.28,0,0,0-.44-.47l-.22-.36v-.29a4,4,0,0,1-.6-1,5.49,5.49,0,0,1-.06-1.05V192l.09-.32,0-.52a3.66,3.66,0,0,1,.21-1,6.33,6.33,0,0,0,.22-.75v-.14l-.07-.13.29-.95a2.16,2.16,0,0,1,.23-.62,1.93,1.93,0,0,0,.14-.78c0-.45.25-.67.65-.67a.39.39,0,0,1,.14,0c.12,0,.18-.12.18-.28h-.09q-.18,0-.18-.24a.8.8,0,0,1,.13-.5.82.82,0,0,0,.14-.53,1.25,1.25,0,0,1,.38-.82,2.87,2.87,0,0,0,.37-.47,2.41,2.41,0,0,1,.35-1c.24-.44.42-.82.57-1.17a4.13,4.13,0,0,1,.51-.93,3.31,3.31,0,0,0,.43-.8,2.09,2.09,0,0,1,.54-.77l.25-.45a6.19,6.19,0,0,1,.5-.7,1.4,1.4,0,0,0,.29-.67.67.67,0,0,1,.39-.56.59.59,0,0,0,.39-.4,1.43,1.43,0,0,1,.17-.46,1.73,1.73,0,0,0,.17-.44,1.15,1.15,0,0,1,.27-.49,2.76,2.76,0,0,0,.42-.83c.13-.37.31-.55.56-.55l.45,0,0-.16a.37.37,0,0,0-.11-.18.39.39,0,0,1-.11-.27c0-.44.14-.66.43-.66.09,0,.19.1.32.3.1-.9.17-1.37.19-1.42a.47.47,0,0,0,0-.17l.05-.23a.57.57,0,0,0,0-.25.77.77,0,0,0-.17-.41c-.11-.16-.2-.25-.28-.25l-.52.12-.27-.27c-.16.33-.31.49-.46.49l-.38-.13a3,3,0,0,1-1,.5l-.37-.14h0c-.09,0-.19.11-.29.33a.58.58,0,0,1-.6.33h-.22a1.28,1.28,0,0,1-.57.46,1.36,1.36,0,0,0-.49.29,1.42,1.42,0,0,1-.44.29,2.57,2.57,0,0,0-.61.46l-.23.13c-.27.17-.42.33-.45.49a.86.86,0,0,1-.25.44c-.55.4-.82.72-.82,1l0,.41,0,.59q0,.24-.42.6a1.24,1.24,0,0,1-.69.35c-1.09,0-1.63-.33-1.63-1l.09-.66-.05-.52.05-.45a1.29,1.29,0,0,1,.62-1,10.24,10.24,0,0,0,.86-.69l.88-.45a1.79,1.79,0,0,0,.45-.47,2.63,2.63,0,0,1,1-.59,4.46,4.46,0,0,0,1.23-.69,3.29,3.29,0,0,1,1.13-.6,9.64,9.64,0,0,0,1.15-.46,1.7,1.7,0,0,1,.49-.21l.27.05a2.4,2.4,0,0,0,.49-.29,1,1,0,0,1,.58-.19l2.79-.63a2.94,2.94,0,0,1,1.63.49q1.2.61,1.2,2.7a6,6,0,0,1-.69,1.86,14.73,14.73,0,0,1-1.53,2.54l-.14.34-.61,1.07-.36.79c-.17.31-.34.66-.53,1.07l-.4.54A2.53,2.53,0,0,0,225.47,179.49Z" transform="translate(-108.13 -100.3)"/><path class="cls-2" d="M246,171.44l-.18-1.11a.55.55,0,0,1,.12-.39,1.48,1.48,0,0,0,.19-.38.83.83,0,0,1,.16-.29,3.73,3.73,0,0,0,.4-.7,1.21,1.21,0,0,1,1-.67.86.86,0,0,1,.64-.23c.36,0,.79.34,1.3,1a3.51,3.51,0,0,1,.76,1.3,1.24,1.24,0,0,1-.52.84,2,2,0,0,1-.44,1.28,4.13,4.13,0,0,0-.58.81.9.9,0,0,1-.21.33s-.32.4-.82,1.1-.91,1.06-1.2,1.06a4.1,4.1,0,0,1-.66-.28,2.34,2.34,0,0,1-.61-.31,1.62,1.62,0,0,1,.64-1.17,2.15,2.15,0,0,0,.73-1.19c-.08,0-.22-.22-.44-.57Z" transform="translate(-108.13 -100.3)"/><path class="cls-2" d="M254.72,196.93l-.32-.05a1.43,1.43,0,0,1-.63.21,2.38,2.38,0,0,0-1,.42,12.12,12.12,0,0,1-1.49.76c-.56.24-.84.4-.84.47a9.29,9.29,0,0,0,2.32-.61l1.64-.45a1.49,1.49,0,0,0,.44-.18,2.6,2.6,0,0,1,.49-.25l.36-.28.5-.18q.39-.14.39-.27a.08.08,0,0,0-.09-.09,2.78,2.78,0,0,0-1.3.25A3.27,3.27,0,0,1,254.72,196.93Zm7.91-5.67.18-.45.59-.66a2.49,2.49,0,0,1,.75-.89,1.43,1.43,0,0,1,.14-.34,1.41,1.41,0,0,0,.13-.5l.21-.36c.06-.06.09-.1.09-.13a.89.89,0,0,0-.18-.28l-.12-.47q0-.18-1.2-1.2H263l-1.63-.8-.1-.23-.18,0-.22.09h-.05l-.77-.23a9.1,9.1,0,0,1-1.23-.38.17.17,0,0,1-.13,0l-.91-.2a1.07,1.07,0,0,1-.47-.19.84.84,0,0,0-.38-.21,1.13,1.13,0,0,1-.4-.19.52.52,0,0,0-.36-.09l-.57.13s-.21-.12-.64-.22c-.06-.15-.1-.23-.13-.23l-.66.09-.68-.32c-.08,0-.34,0-.8-.12a2.73,2.73,0,0,1-.88-.26,2.78,2.78,0,0,0-.61-.27l-.14-.14a.59.59,0,0,0-.25-.09h-.41c-.09,0-.21-.08-.37-.23a3.58,3.58,0,0,0-.61-.45,2,2,0,0,1-.66-.71,2.24,2.24,0,0,1-.31-1,.12.12,0,0,1,0-.09l.13-.73a4.8,4.8,0,0,1,1.3-2.56,1.4,1.4,0,0,1,.74-.89l.1-.31a9.41,9.41,0,0,0,.94-.91,2.61,2.61,0,0,1,.64-.56,4,4,0,0,0,.57-.39l.41-.18c0-.14.32-.46,1-1a9.29,9.29,0,0,1,1.61-1,5.42,5.42,0,0,0,.78-.35,6,6,0,0,1,1.12-.34c.15-.41.39-.61.72-.61h.34l.46-.45.61,0,.25-.28a.85.85,0,0,1,.68-.24l2.74-.84h.19l.18,0c.12,0,.27-.11.46-.32a1,1,0,0,1,.74-.32.84.84,0,0,1,.34.18s0,.05,0,.05l.59-.18.71,0,.88-.22a2.71,2.71,0,0,1,1.48.4l0-.09v-.13c0-.26.14-.39.43-.39.12,0,.2,0,.23.09l.27.16h.16a4.33,4.33,0,0,1,.59.27,1.24,1.24,0,0,1,.43-.22.79.79,0,0,1,.68.36l.39-.05c.12-.12.19-.18.22-.18s.22.12.37.37l.13,0h.57s.09,0,.18.14l.25.2a1.77,1.77,0,0,1,.25.3,1.56,1.56,0,0,0,.16.2,4.9,4.9,0,0,1,.63-.25c.15,0,.27.13.34.39a.84.84,0,0,0,.4.62.85.85,0,0,1,.4.65.75.75,0,0,1,.5.72l.43,1.11-.09.39a2.21,2.21,0,0,1,.18.41l-.09.84.09.88a1.46,1.46,0,0,1-.66,1.2,1.1,1.1,0,0,0-.44.19,1.92,1.92,0,0,1-.35.2.9.9,0,0,1-.79-.29,2,2,0,0,0-.37-.42.43.43,0,0,1-.18-.36,1.33,1.33,0,0,1,.7-1,.54.54,0,0,0,.46-.2.84.84,0,0,0-.21-.66,3.31,3.31,0,0,1-.44-.5,2.46,2.46,0,0,0-.51-.51,1.48,1.48,0,0,1-.44-.49c-.12-.19-.22-.29-.31-.29l-.32,0-.66-.13a7.78,7.78,0,0,1-1.9-.48h-.45l-1.23-.18a2.37,2.37,0,0,1-.91.14l-1.49.22-.61,0c-.05,0-.47.13-1.25.38l-.23.05h-.61a4.47,4.47,0,0,0-.58.22,5.25,5.25,0,0,1-.9.32l-.2.09a.2.2,0,0,1-.14.05l-.36-.05-2,1-.32-.18a2.74,2.74,0,0,0-.43-.18.28.28,0,0,0-.32.31l-.05.43a2.46,2.46,0,0,0-.38.28.58.58,0,0,1-.23.13H258a.72.72,0,0,0-.51.24.76.76,0,0,1-.42.26,1.87,1.87,0,0,0-.52.2c0,.07-.15.13-.36.19a.75.75,0,0,0-.49.42c-.12.22-.25.32-.4.32l-.45-.09-.25.46L254,176a2.35,2.35,0,0,1-.59.59c-.19.14-.39.29-.57.45a1.48,1.48,0,0,0-.41.48,1,1,0,0,1-.38.4,1.22,1.22,0,0,0-.43.6l-.22.23a1.35,1.35,0,0,0-.57,1c0,.26.18.44.54.57a2.32,2.32,0,0,1,.68.29.61.61,0,0,0,.41.11,1.17,1.17,0,0,1,.52.12l.84.36c.08.24.15.36.23.36s.09-.06.18-.18a.48.48,0,0,1,.41-.18.77.77,0,0,1,.57.36l.18-.13h.09l.29.09h0l.27-.14a.18.18,0,0,1,.14,0,5.62,5.62,0,0,1,.7.22h0l.37-.09a1.29,1.29,0,0,1,.38.14l.32.18c0,.05,0,.07.09.07a.76.76,0,0,0,.27-.1.71.71,0,0,1,.34-.11.64.64,0,0,1,.41.25,3.24,3.24,0,0,1,.41-.16,1.72,1.72,0,0,1,.7.34l.43.1h.5l.75.13a2.4,2.4,0,0,0,.66.52.28.28,0,0,1,.31-.25,3.41,3.41,0,0,1,1.11.3l.19,0,.18.14a3,3,0,0,1,.47-.09c.3,0,.46.1.46.32a2.52,2.52,0,0,1-.14.7.26.26,0,0,1,.14.09.49.49,0,0,1,.25-.18l.36-.21c.06-.06.1-.09.13-.09a2.93,2.93,0,0,1,1.48.73,2.58,2.58,0,0,1,1.09,1.66,1.45,1.45,0,0,0,.18.63l-.09.3,0,.36a2.18,2.18,0,0,1-.09.32l0,.34a.4.4,0,0,1-.14.15.52.52,0,0,0-.14.16l.14.39v.09c0,.06-.06.14-.17.25a.89.89,0,0,0-.22.29,1.15,1.15,0,0,1-.15.29.81.81,0,0,0-.16.35c0,.13-.18.29-.44.46s-.4.31-.4.4,0,.14.09.14a1,1,0,0,0,.58-.26,1.44,1.44,0,0,1,.46-.31,2.59,2.59,0,0,0,.54-.27l2.13-1a15.72,15.72,0,0,1,2.65-1.13.32.32,0,0,1,.37.36c0,.09-.11.26-.32.52a1.16,1.16,0,0,1-.93,1.25,2,2,0,0,0-.52.47h-.18a1.69,1.69,0,0,1-1.3.64h-.13a3.13,3.13,0,0,1-2,.93,2.16,2.16,0,0,1-1.32.79l-.36.09a2.64,2.64,0,0,1-.8.23s-.09.06-.18.18l-.34.25a2.38,2.38,0,0,0-.93.5,2,2,0,0,1-.76.46,2.84,2.84,0,0,0-.55.2c-.2.09-1,.6-2.38,1.54l-.3.09a3.74,3.74,0,0,0-1.11.67,2.12,2.12,0,0,1-.54.44h-.09a2,2,0,0,0-1.23.68c0,.08-.36.2-1,.38a6.76,6.76,0,0,0-1.81.8l-1.34.36a7.79,7.79,0,0,1-1.15.28l-1.59.34q-.52.09-1.2.27a2.33,2.33,0,0,0-.7-.14l-.41.05a.56.56,0,0,1-.29-.16,2,2,0,0,0-.51-.31c-.21-.1-.31-.36-.31-.78s.41-.75,1.24-1.12,1.38-.63,1.64-.78a.82.82,0,0,1,.62-.3,1.54,1.54,0,0,0,.76-.27,3.3,3.3,0,0,1,1-.41l.91-.48a.19.19,0,0,1,.11,0h.32a1,1,0,0,0,.48-.25,2,2,0,0,1,.65-.36h.28s.07,0,.13-.12a1.75,1.75,0,0,1,.41-.29l.07,0H256a2.23,2.23,0,0,1,.59-.34,3.22,3.22,0,0,0,.65-.36l1.78-.68.4,0a.63.63,0,0,0,.36-.21,2.62,2.62,0,0,1,1-.44,1.55,1.55,0,0,1,.47-.43,7.48,7.48,0,0,0,.86-.73Z" transform="translate(-108.13 -100.3)"/></svg>